<svg width="400" height="640" viewBox="0 0 400 640" fill="none" xmlns="http://www.w3.org/2000/svg">
<rect x="7" y="7" width="386" height="626" rx="23" fill="#D9D9D9" stroke="#747474" stroke-width="14"/>
<path d="M50 103C51.3261 103 52.5979 102.473 53.5355 101.536C54.4732 100.598 55 99.3261 55 98C55 95.24 54 94 53 92C50.856 87.714 52.552 83.892 57 80C58 85 61 89.8 65 93C69 96.2 71 100 71 104C71 105.838 70.6379 107.659 69.9343 109.358C69.2307 111.056 68.1995 112.599 66.8995 113.899C65.5995 115.2 64.0561 116.231 62.3576 116.934C60.659 117.638 58.8385 118 57 118C55.1615 118 53.341 117.638 51.6424 116.934C49.9439 116.231 48.4005 115.2 47.1005 113.899C45.8005 112.599 44.7693 111.056 44.0657 109.358C43.3621 107.659 43 105.838 43 104C43 101.694 43.866 99.412 45 98C45 99.3261 45.5268 100.598 46.4645 101.536C47.4021 102.473 48.6739 103 50 103Z" stroke="#8C8C8C" stroke-width="4" stroke-linejoin="round"/>
<g filter="url(#filter0_d_123_275)">
<path d="M96.092 120.5V75.7H101.084V120.5H96.092ZM98.588 100.532V95.604H121.244V100.532H98.588ZM98.588 80.564V75.7H124.252V80.564H98.588ZM131.47 120.5V87.092H136.27V120.5H131.47ZM133.838 79.86C132.643 79.86 131.726 79.5613 131.086 78.964C130.488 78.324 130.19 77.4707 130.19 76.404C130.19 75.3373 130.51 74.484 131.15 73.844C131.79 73.204 132.686 72.884 133.838 72.884C134.99 72.884 135.886 73.204 136.526 73.844C137.166 74.4413 137.486 75.2947 137.486 76.404C137.486 77.428 137.166 78.26 136.526 78.9C135.886 79.54 134.99 79.86 133.838 79.86ZM144.832 120.5V87.092H149.632L149.76 95.988L149.248 94.772C149.717 93.2787 150.464 91.892 151.488 90.612C152.555 89.332 153.813 88.308 155.264 87.54C156.715 86.772 158.315 86.388 160.064 86.388C160.789 86.388 161.472 86.452 162.112 86.58C162.752 86.6653 163.285 86.7933 163.712 86.964L162.368 92.34C161.813 92.084 161.237 91.9133 160.64 91.828C160.085 91.7 159.552 91.636 159.04 91.636C157.589 91.636 156.288 91.892 155.136 92.404C153.984 92.916 153.003 93.6413 152.192 94.58C151.381 95.476 150.763 96.5213 150.336 97.716C149.909 98.9107 149.696 100.191 149.696 101.556V120.5H144.832ZM180.069 121.14C176.741 121.14 173.776 120.415 171.173 118.964C168.613 117.513 166.608 115.487 165.157 112.884C163.707 110.281 162.981 107.295 162.981 103.924C162.981 101.321 163.387 98.9747 164.197 96.884C165.008 94.7507 166.139 92.8947 167.589 91.316C169.083 89.7373 170.853 88.5213 172.901 87.668C174.949 86.772 177.168 86.324 179.557 86.324C181.819 86.324 183.867 86.7293 185.701 87.54C187.579 88.3507 189.179 89.4813 190.501 90.932C191.867 92.34 192.891 94.0253 193.573 95.988C194.256 97.9507 194.555 100.105 194.469 102.452L194.405 104.692H166.565L165.861 100.66H190.757L189.605 101.748V100.212C189.52 98.676 189.072 97.204 188.261 95.796C187.451 94.3453 186.299 93.172 184.805 92.276C183.355 91.38 181.605 90.932 179.557 90.932C177.168 90.932 175.099 91.4227 173.349 92.404C171.6 93.3427 170.256 94.7507 169.317 96.628C168.379 98.5053 167.909 100.831 167.909 103.604C167.909 106.249 168.421 108.553 169.445 110.516C170.469 112.436 171.92 113.929 173.797 114.996C175.717 116.063 178.021 116.596 180.709 116.596C182.288 116.596 183.845 116.34 185.381 115.828C186.96 115.273 188.688 114.207 190.565 112.628L193.062 116.084C192.08 117.065 190.907 117.94 189.542 118.708C188.176 119.433 186.683 120.031 185.061 120.5C183.44 120.927 181.776 121.14 180.069 121.14Z" fill="#6D6D6D"/>
</g>
<path d="M57 202C58.1046 202 59 201.105 59 200C59 198.895 58.1046 198 57 198C55.8954 198 55 198.895 55 200C55 201.105 55.8954 202 57 202Z" stroke="#8C8C8C" stroke-width="4.02" stroke-linecap="round" stroke-linejoin="round"/>
<path d="M73.4 216.4C77.48 212.34 73.44 201.68 64.4 192.6C55.32 183.56 44.66 179.52 40.6 183.6C36.52 187.66 40.56 198.32 49.6 207.4C58.68 216.44 69.34 220.48 73.4 216.4Z" stroke="#8C8C8C" stroke-width="4.02" stroke-linecap="round" stroke-linejoin="round"/>
<path d="M64.4 207.4C73.44 198.32 77.48 187.66 73.4 183.6C69.34 179.52 58.68 183.56 49.6 192.6C40.56 201.68 36.52 212.34 40.6 216.4C44.66 220.48 55.32 216.44 64.4 207.4Z" stroke="#8C8C8C" stroke-width="4.02" stroke-linecap="round" stroke-linejoin="round"/>
<g filter="url(#filter1_d_123_275)">
<path d="M97.866 192.5V174.3H101.766V192.5H97.866ZM99.66 185.272V181.918H109.072V185.272H99.66ZM99.66 177.81V174.3H110.164V177.81H99.66ZM113.577 192.5V173.26H117.269V192.5H113.577ZM126.17 192.76C125.026 192.76 123.995 192.448 123.076 191.824C122.158 191.2 121.43 190.351 120.892 189.276C120.355 188.201 120.086 186.971 120.086 185.584C120.086 184.197 120.355 182.975 120.892 181.918C121.447 180.843 122.192 180.003 123.128 179.396C124.064 178.772 125.13 178.46 126.326 178.46C127.002 178.46 127.618 178.564 128.172 178.772C128.744 178.963 129.238 179.231 129.654 179.578C130.088 179.925 130.452 180.323 130.746 180.774C131.041 181.225 131.249 181.71 131.37 182.23L130.59 182.1V178.746H134.256V192.5H130.538V189.198L131.37 189.12C131.232 189.605 131.006 190.065 130.694 190.498C130.382 190.931 129.992 191.321 129.524 191.668C129.074 191.997 128.562 192.266 127.99 192.474C127.418 192.665 126.812 192.76 126.17 192.76ZM127.184 189.562C127.878 189.562 128.484 189.397 129.004 189.068C129.524 188.739 129.923 188.279 130.2 187.69C130.495 187.083 130.642 186.381 130.642 185.584C130.642 184.804 130.495 184.119 130.2 183.53C129.923 182.941 129.524 182.481 129.004 182.152C128.484 181.805 127.878 181.632 127.184 181.632C126.508 181.632 125.91 181.805 125.39 182.152C124.888 182.481 124.489 182.941 124.194 183.53C123.9 184.119 123.752 184.804 123.752 185.584C123.752 186.381 123.9 187.083 124.194 187.69C124.489 188.279 124.888 188.739 125.39 189.068C125.91 189.397 126.508 189.562 127.184 189.562ZM138.192 192.5V178.746H141.754L141.832 181.372L141.286 181.476C141.476 181.025 141.728 180.618 142.04 180.254C142.352 179.89 142.716 179.578 143.132 179.318C143.565 179.058 144.016 178.859 144.484 178.72C144.952 178.564 145.42 178.486 145.888 178.486C146.598 178.486 147.24 178.599 147.812 178.824C148.384 179.049 148.869 179.405 149.268 179.89C149.666 180.358 149.978 180.982 150.204 181.762L149.632 181.71L149.814 181.294C150.039 180.878 150.325 180.505 150.672 180.176C151.018 179.829 151.408 179.535 151.842 179.292C152.275 179.032 152.726 178.833 153.194 178.694C153.662 178.555 154.121 178.486 154.572 178.486C155.646 178.486 156.539 178.703 157.25 179.136C157.96 179.552 158.489 180.185 158.836 181.034C159.2 181.883 159.382 182.923 159.382 184.154V192.5H155.69V184.414C155.69 183.79 155.603 183.279 155.43 182.88C155.256 182.481 155.005 182.187 154.676 181.996C154.346 181.788 153.922 181.684 153.402 181.684C153.003 181.684 152.63 181.753 152.284 181.892C151.954 182.013 151.66 182.195 151.4 182.438C151.157 182.663 150.966 182.932 150.828 183.244C150.689 183.556 150.62 183.903 150.62 184.284V192.5H146.928V184.388C146.928 183.816 146.832 183.331 146.642 182.932C146.468 182.516 146.217 182.204 145.888 181.996C145.558 181.788 145.151 181.684 144.666 181.684C144.267 181.684 143.894 181.753 143.548 181.892C143.218 182.013 142.932 182.195 142.69 182.438C142.447 182.663 142.248 182.932 142.092 183.244C141.953 183.556 141.884 183.894 141.884 184.258V192.5H138.192ZM169.683 192.76C168.193 192.76 166.893 192.457 165.783 191.85C164.674 191.243 163.807 190.411 163.183 189.354C162.559 188.297 162.247 187.083 162.247 185.714C162.247 184.657 162.421 183.686 162.767 182.802C163.114 181.918 163.599 181.155 164.223 180.514C164.847 179.855 165.584 179.353 166.433 179.006C167.3 178.642 168.236 178.46 169.241 178.46C170.177 178.46 171.044 178.633 171.841 178.98C172.639 179.309 173.323 179.786 173.895 180.41C174.485 181.017 174.935 181.736 175.247 182.568C175.559 183.4 175.698 184.31 175.663 185.298L175.637 186.442H164.587L163.989 184.18H172.595L172.179 184.648V184.076C172.145 183.608 171.989 183.183 171.711 182.802C171.451 182.421 171.113 182.126 170.697 181.918C170.281 181.71 169.813 181.606 169.293 181.606C168.531 181.606 167.881 181.753 167.343 182.048C166.823 182.343 166.425 182.776 166.147 183.348C165.87 183.92 165.731 184.613 165.731 185.428C165.731 186.26 165.905 186.979 166.251 187.586C166.615 188.193 167.118 188.669 167.759 189.016C168.418 189.345 169.189 189.51 170.073 189.51C170.68 189.51 171.235 189.415 171.737 189.224C172.24 189.033 172.777 188.704 173.349 188.236L175.117 190.706C174.615 191.157 174.06 191.538 173.453 191.85C172.847 192.145 172.223 192.37 171.581 192.526C170.94 192.682 170.307 192.76 169.683 192.76ZM179.042 197.518L177.898 196.14C178.574 195.811 179.111 195.412 179.51 194.944C179.926 194.476 180.134 194.069 180.134 193.722C180.134 193.566 180.091 193.401 180.004 193.228C179.917 193.055 179.727 192.838 179.432 192.578C179.051 192.283 178.791 192.006 178.652 191.746C178.531 191.469 178.47 191.174 178.47 190.862C178.47 190.359 178.652 189.961 179.016 189.666C179.38 189.371 179.848 189.224 180.42 189.224C180.888 189.224 181.313 189.363 181.694 189.64C182.093 189.9 182.405 190.273 182.63 190.758C182.855 191.226 182.968 191.772 182.968 192.396C182.968 192.951 182.873 193.488 182.682 194.008C182.491 194.545 182.214 195.039 181.85 195.49C181.503 195.958 181.087 196.365 180.602 196.712C180.134 197.059 179.614 197.327 179.042 197.518ZM194.457 192.5V173.26H198.097V181.554L197.369 181.866C197.56 181.242 197.898 180.679 198.383 180.176C198.886 179.656 199.484 179.24 200.177 178.928C200.87 178.616 201.598 178.46 202.361 178.46C203.401 178.46 204.268 178.668 204.961 179.084C205.672 179.5 206.2 180.133 206.547 180.982C206.911 181.814 207.093 182.845 207.093 184.076V192.5H203.401V184.362C203.401 183.738 203.314 183.218 203.141 182.802C202.968 182.386 202.699 182.083 202.335 181.892C201.988 181.684 201.555 181.597 201.035 181.632C200.619 181.632 200.229 181.701 199.865 181.84C199.518 181.961 199.215 182.143 198.955 182.386C198.712 182.629 198.513 182.906 198.357 183.218C198.218 183.53 198.149 183.868 198.149 184.232V192.5H196.329C195.93 192.5 195.575 192.5 195.263 192.5C194.951 192.5 194.682 192.5 194.457 192.5ZM217.417 192.76C215.926 192.76 214.626 192.457 213.517 191.85C212.408 191.243 211.541 190.411 210.917 189.354C210.293 188.297 209.981 187.083 209.981 185.714C209.981 184.657 210.154 183.686 210.501 182.802C210.848 181.918 211.333 181.155 211.957 180.514C212.581 179.855 213.318 179.353 214.167 179.006C215.034 178.642 215.97 178.46 216.975 178.46C217.911 178.46 218.778 178.633 219.575 178.98C220.372 179.309 221.057 179.786 221.629 180.41C222.218 181.017 222.669 181.736 222.981 182.568C223.293 183.4 223.432 184.31 223.397 185.298L223.371 186.442H212.321L211.723 184.18H220.329L219.913 184.648V184.076C219.878 183.608 219.722 183.183 219.445 182.802C219.185 182.421 218.847 182.126 218.431 181.918C218.015 181.71 217.547 181.606 217.027 181.606C216.264 181.606 215.614 181.753 215.077 182.048C214.557 182.343 214.158 182.776 213.881 183.348C213.604 183.92 213.465 184.613 213.465 185.428C213.465 186.26 213.638 186.979 213.985 187.586C214.349 188.193 214.852 188.669 215.493 189.016C216.152 189.345 216.923 189.51 217.807 189.51C218.414 189.51 218.968 189.415 219.471 189.224C219.974 189.033 220.511 188.704 221.083 188.236L222.851 190.706C222.348 191.157 221.794 191.538 221.187 191.85C220.58 192.145 219.956 192.37 219.315 192.526C218.674 192.682 218.041 192.76 217.417 192.76ZM231.533 192.76C230.389 192.76 229.358 192.448 228.439 191.824C227.521 191.2 226.793 190.351 226.255 189.276C225.718 188.201 225.449 186.971 225.449 185.584C225.449 184.197 225.718 182.975 226.255 181.918C226.81 180.843 227.555 180.003 228.491 179.396C229.427 178.772 230.493 178.46 231.689 178.46C232.365 178.46 232.981 178.564 233.535 178.772C234.107 178.963 234.601 179.231 235.017 179.578C235.451 179.925 235.815 180.323 236.109 180.774C236.404 181.225 236.612 181.71 236.733 182.23L235.953 182.1V178.746H239.619V192.5H235.901V189.198L236.733 189.12C236.595 189.605 236.369 190.065 236.057 190.498C235.745 190.931 235.355 191.321 234.887 191.668C234.437 191.997 233.925 192.266 233.353 192.474C232.781 192.665 232.175 192.76 231.533 192.76ZM232.547 189.562C233.241 189.562 233.847 189.397 234.367 189.068C234.887 188.739 235.286 188.279 235.563 187.69C235.858 187.083 236.005 186.381 236.005 185.584C236.005 184.804 235.858 184.119 235.563 183.53C235.286 182.941 234.887 182.481 234.367 182.152C233.847 181.805 233.241 181.632 232.547 181.632C231.871 181.632 231.273 181.805 230.753 182.152C230.251 182.481 229.852 182.941 229.557 183.53C229.263 184.119 229.115 184.804 229.115 185.584C229.115 186.381 229.263 187.083 229.557 187.69C229.852 188.279 230.251 188.739 230.753 189.068C231.273 189.397 231.871 189.562 232.547 189.562ZM244.907 192.5V175.262H248.599V192.5H244.907ZM242.333 182.048V178.746H251.407V182.048H242.333ZM253.955 197.518L252.811 196.14C253.487 195.811 254.025 195.412 254.423 194.944C254.839 194.476 255.047 194.069 255.047 193.722C255.047 193.566 255.004 193.401 254.917 193.228C254.831 193.055 254.64 192.838 254.345 192.578C253.964 192.283 253.704 192.006 253.565 191.746C253.444 191.469 253.383 191.174 253.383 190.862C253.383 190.359 253.565 189.961 253.929 189.666C254.293 189.371 254.761 189.224 255.333 189.224C255.801 189.224 256.226 189.363 256.607 189.64C257.006 189.9 257.318 190.273 257.543 190.758C257.769 191.226 257.881 191.772 257.881 192.396C257.881 192.951 257.786 193.488 257.595 194.008C257.405 194.545 257.127 195.039 256.763 195.49C256.417 195.958 256.001 196.365 255.515 196.712C255.047 197.059 254.527 197.327 253.955 197.518ZM98.672 225.5V208.262H102.364V225.5H98.672ZM96.098 215.048V211.746H105.172V215.048H96.098ZM114.237 225.76C112.747 225.76 111.447 225.457 110.337 224.85C109.228 224.243 108.361 223.411 107.737 222.354C107.113 221.297 106.801 220.083 106.801 218.714C106.801 217.657 106.975 216.686 107.321 215.802C107.668 214.918 108.153 214.155 108.777 213.514C109.401 212.855 110.138 212.353 110.987 212.006C111.854 211.642 112.79 211.46 113.795 211.46C114.731 211.46 115.598 211.633 116.395 211.98C117.193 212.309 117.877 212.786 118.449 213.41C119.039 214.017 119.489 214.736 119.801 215.568C120.113 216.4 120.252 217.31 120.217 218.298L120.191 219.442H109.141L108.543 217.18H117.149L116.733 217.648V217.076C116.699 216.608 116.543 216.183 116.265 215.802C116.005 215.421 115.667 215.126 115.251 214.918C114.835 214.71 114.367 214.606 113.847 214.606C113.085 214.606 112.435 214.753 111.897 215.048C111.377 215.343 110.979 215.776 110.701 216.348C110.424 216.92 110.285 217.613 110.285 218.428C110.285 219.26 110.459 219.979 110.805 220.586C111.169 221.193 111.672 221.669 112.313 222.016C112.972 222.345 113.743 222.51 114.627 222.51C115.234 222.51 115.789 222.415 116.291 222.224C116.794 222.033 117.331 221.704 117.903 221.236L119.671 223.706C119.169 224.157 118.614 224.538 118.007 224.85C117.401 225.145 116.777 225.37 116.135 225.526C115.494 225.682 114.861 225.76 114.237 225.76ZM129.186 225.76C127.869 225.76 126.69 225.448 125.65 224.824C124.61 224.2 123.787 223.351 123.18 222.276C122.591 221.201 122.296 219.979 122.296 218.61C122.296 217.258 122.591 216.045 123.18 214.97C123.787 213.878 124.61 213.02 125.65 212.396C126.69 211.772 127.869 211.46 129.186 211.46C130.417 211.46 131.543 211.685 132.566 212.136C133.589 212.587 134.386 213.211 134.958 214.008L132.93 216.452C132.687 216.123 132.384 215.828 132.02 215.568C131.656 215.291 131.257 215.074 130.824 214.918C130.408 214.762 129.975 214.684 129.524 214.684C128.813 214.684 128.181 214.857 127.626 215.204C127.089 215.533 126.664 215.993 126.352 216.582C126.04 217.171 125.884 217.847 125.884 218.61C125.884 219.355 126.04 220.023 126.352 220.612C126.681 221.184 127.123 221.652 127.678 222.016C128.233 222.363 128.857 222.536 129.55 222.536C130.001 222.536 130.425 222.475 130.824 222.354C131.223 222.215 131.595 222.016 131.942 221.756C132.306 221.496 132.635 221.184 132.93 220.82L134.932 223.264C134.343 224.009 133.528 224.616 132.488 225.084C131.448 225.535 130.347 225.76 129.186 225.76ZM138.884 225.5V208.262H142.576V225.5H138.884ZM136.31 215.048V211.746H145.384V215.048H136.31ZM154.319 225.76C152.915 225.76 151.658 225.457 150.549 224.85C149.457 224.226 148.59 223.377 147.949 222.302C147.325 221.227 147.013 219.997 147.013 218.61C147.013 217.223 147.325 216.001 147.949 214.944C148.59 213.869 149.457 213.02 150.549 212.396C151.658 211.772 152.915 211.46 154.319 211.46C155.706 211.46 156.945 211.772 158.037 212.396C159.146 213.02 160.013 213.869 160.637 214.944C161.261 216.001 161.573 217.223 161.573 218.61C161.573 219.997 161.261 221.227 160.637 222.302C160.013 223.377 159.146 224.226 158.037 224.85C156.945 225.457 155.706 225.76 154.319 225.76ZM154.319 222.536C154.995 222.536 155.602 222.371 156.139 222.042C156.676 221.695 157.092 221.227 157.387 220.638C157.699 220.031 157.855 219.355 157.855 218.61C157.855 217.847 157.699 217.171 157.387 216.582C157.092 215.975 156.676 215.507 156.139 215.178C155.602 214.831 154.995 214.658 154.319 214.658C153.626 214.658 153.01 214.831 152.473 215.178C151.936 215.525 151.511 215.993 151.199 216.582C150.887 217.171 150.74 217.847 150.757 218.61C150.74 219.355 150.887 220.031 151.199 220.638C151.511 221.227 151.936 221.695 152.473 222.042C153.01 222.371 153.626 222.536 154.319 222.536ZM164.611 225.5V211.746H168.147L168.251 214.554L167.523 214.866C167.714 214.242 168.052 213.679 168.537 213.176C169.04 212.656 169.638 212.24 170.331 211.928C171.024 211.616 171.752 211.46 172.515 211.46C173.555 211.46 174.422 211.668 175.115 212.084C175.826 212.5 176.354 213.133 176.701 213.982C177.065 214.814 177.247 215.845 177.247 217.076V225.5H173.555V217.362C173.555 216.738 173.468 216.218 173.295 215.802C173.122 215.386 172.853 215.083 172.489 214.892C172.142 214.684 171.709 214.597 171.189 214.632C170.773 214.632 170.383 214.701 170.019 214.84C169.672 214.961 169.369 215.143 169.109 215.386C168.866 215.629 168.667 215.906 168.511 216.218C168.372 216.53 168.303 216.868 168.303 217.232V225.5H166.483C166.084 225.5 165.729 225.5 165.417 225.5C165.105 225.5 164.836 225.5 164.611 225.5ZM181.357 225.5V211.746H185.049V225.5H181.357ZM183.177 208.912C182.466 208.912 181.911 208.739 181.513 208.392C181.114 208.045 180.915 207.551 180.915 206.91C180.915 206.321 181.114 205.844 181.513 205.48C181.929 205.099 182.483 204.908 183.177 204.908C183.887 204.908 184.442 205.09 184.841 205.454C185.239 205.801 185.439 206.286 185.439 206.91C185.439 207.517 185.231 208.002 184.815 208.366C184.416 208.73 183.87 208.912 183.177 208.912ZM195.232 225.76C193.915 225.76 192.736 225.448 191.696 224.824C190.656 224.2 189.833 223.351 189.226 222.276C188.637 221.201 188.342 219.979 188.342 218.61C188.342 217.258 188.637 216.045 189.226 214.97C189.833 213.878 190.656 213.02 191.696 212.396C192.736 211.772 193.915 211.46 195.232 211.46C196.463 211.46 197.589 211.685 198.612 212.136C199.635 212.587 200.432 213.211 201.004 214.008L198.976 216.452C198.733 216.123 198.43 215.828 198.066 215.568C197.702 215.291 197.303 215.074 196.87 214.918C196.454 214.762 196.021 214.684 195.57 214.684C194.859 214.684 194.227 214.857 193.672 215.204C193.135 215.533 192.71 215.993 192.398 216.582C192.086 217.171 191.93 217.847 191.93 218.61C191.93 219.355 192.086 220.023 192.398 220.612C192.727 221.184 193.169 221.652 193.724 222.016C194.279 222.363 194.903 222.536 195.596 222.536C196.047 222.536 196.471 222.475 196.87 222.354C197.269 222.215 197.641 222.016 197.988 221.756C198.352 221.496 198.681 221.184 198.976 220.82L200.978 223.264C200.389 224.009 199.574 224.616 198.534 225.084C197.494 225.535 196.393 225.76 195.232 225.76ZM208.232 225.76C206.949 225.76 205.805 225.552 204.8 225.136C203.812 224.703 203.014 224.113 202.408 223.368L204.696 221.392C205.233 221.964 205.831 222.38 206.49 222.64C207.148 222.883 207.807 223.004 208.466 223.004C208.726 223.004 208.96 222.978 209.168 222.926C209.393 222.857 209.584 222.77 209.74 222.666C209.896 222.545 210.008 222.406 210.078 222.25C210.164 222.077 210.208 221.895 210.208 221.704C210.208 221.323 210.052 221.019 209.74 220.794C209.566 220.707 209.298 220.603 208.934 220.482C208.57 220.343 208.102 220.196 207.53 220.04C206.646 219.815 205.892 219.555 205.268 219.26C204.661 218.948 204.176 218.601 203.812 218.22C203.5 217.856 203.257 217.466 203.084 217.05C202.928 216.617 202.85 216.14 202.85 215.62C202.85 214.996 202.988 214.433 203.266 213.93C203.543 213.41 203.924 212.968 204.41 212.604C204.912 212.24 205.484 211.963 206.126 211.772C206.767 211.564 207.443 211.46 208.154 211.46C208.864 211.46 209.558 211.547 210.234 211.72C210.91 211.893 211.534 212.145 212.106 212.474C212.695 212.786 213.206 213.159 213.64 213.592L211.664 215.776C211.352 215.481 210.996 215.213 210.598 214.97C210.216 214.727 209.818 214.537 209.402 214.398C208.986 214.259 208.613 214.19 208.284 214.19C207.989 214.19 207.72 214.216 207.478 214.268C207.252 214.32 207.062 214.398 206.906 214.502C206.75 214.606 206.628 214.745 206.542 214.918C206.472 215.074 206.438 215.247 206.438 215.438C206.438 215.629 206.481 215.811 206.568 215.984C206.672 216.157 206.81 216.305 206.984 216.426C207.174 216.53 207.452 216.651 207.816 216.79C208.197 216.929 208.708 217.085 209.35 217.258C210.182 217.483 210.884 217.735 211.456 218.012C212.045 218.289 212.513 218.61 212.86 218.974C213.154 219.286 213.371 219.641 213.51 220.04C213.648 220.439 213.718 220.881 213.718 221.366C213.718 222.215 213.475 222.978 212.99 223.654C212.522 224.313 211.872 224.833 211.04 225.214C210.208 225.578 209.272 225.76 208.232 225.76Z" fill="#6D6D6D"/>
</g>
<path d="M55.034 265.628C55.1197 265.169 55.3631 264.755 55.7222 264.457C56.0812 264.158 56.5333 263.995 57 263.995C57.4667 263.995 57.9188 264.158 58.2778 264.457C58.6369 264.755 58.8803 265.169 58.966 265.628L61.068 276.744C61.2173 277.534 61.6014 278.261 62.1701 278.83C62.7388 279.399 63.4657 279.783 64.256 279.932L75.372 282.034C75.8308 282.12 76.2452 282.363 76.5434 282.722C76.8416 283.081 77.0048 283.533 77.0048 284C77.0048 284.467 76.8416 284.919 76.5434 285.278C76.2452 285.637 75.8308 285.88 75.372 285.966L64.256 288.068C63.4657 288.217 62.7388 288.601 62.1701 289.17C61.6014 289.739 61.2173 290.466 61.068 291.256L58.966 302.372C58.8803 302.831 58.6369 303.245 58.2778 303.543C57.9188 303.842 57.4667 304.005 57 304.005C56.5333 304.005 56.0812 303.842 55.7222 303.543C55.3631 303.245 55.1197 302.831 55.034 302.372L52.932 291.256C52.7827 290.466 52.3986 289.739 51.8299 289.17C51.2612 288.601 50.5343 288.217 49.744 288.068L38.628 285.966C38.1692 285.88 37.7548 285.637 37.4566 285.278C37.1584 284.919 36.9952 284.467 36.9952 284C36.9952 283.533 37.1584 283.081 37.4566 282.722C37.7548 282.363 38.1692 282.12 38.628 282.034L49.744 279.932C50.5343 279.783 51.2612 279.399 51.8299 278.83C52.3986 278.261 52.7827 277.534 52.932 276.744L55.034 265.628Z" stroke="#8C8C8C" stroke-width="4.02" stroke-linecap="round" stroke-linejoin="round"/>
<path d="M73 264V272" stroke="#8C8C8C" stroke-width="4.02" stroke-linecap="round" stroke-linejoin="round"/>
<path d="M77 268H69" stroke="#8C8C8C" stroke-width="4.02" stroke-linecap="round" stroke-linejoin="round"/>
<path d="M41 304C43.2091 304 45 302.209 45 300C45 297.791 43.2091 296 41 296C38.7909 296 37 297.791 37 300C37 302.209 38.7909 304 41 304Z" stroke="#8C8C8C" stroke-width="4.02" stroke-linecap="round" stroke-linejoin="round"/>
<g filter="url(#filter2_d_123_275)">
<path d="M97.866 276.5V258.3H105.926C107.053 258.3 108.075 258.56 108.994 259.08C109.913 259.583 110.632 260.267 111.152 261.134C111.689 262.001 111.958 262.989 111.958 264.098C111.958 265.19 111.689 266.187 111.152 267.088C110.632 267.972 109.913 268.674 108.994 269.194C108.075 269.714 107.053 269.974 105.926 269.974H101.636V276.5H97.866ZM108.188 276.5L103.56 268.284L107.564 267.634L112.712 276.526L108.188 276.5ZM101.636 266.802H105.744C106.212 266.802 106.619 266.698 106.966 266.49C107.33 266.265 107.607 265.961 107.798 265.58C107.989 265.181 108.084 264.739 108.084 264.254C108.084 263.734 107.971 263.283 107.746 262.902C107.521 262.521 107.191 262.226 106.758 262.018C106.325 261.793 105.822 261.68 105.25 261.68H101.636V266.802ZM120.451 276.76C119.307 276.76 118.276 276.448 117.357 275.824C116.439 275.2 115.711 274.351 115.173 273.276C114.636 272.201 114.367 270.971 114.367 269.584C114.367 268.197 114.636 266.975 115.173 265.918C115.728 264.843 116.473 264.003 117.409 263.396C118.345 262.772 119.411 262.46 120.607 262.46C121.283 262.46 121.899 262.564 122.453 262.772C123.025 262.963 123.519 263.231 123.935 263.578C124.369 263.925 124.733 264.323 125.027 264.774C125.322 265.225 125.53 265.71 125.651 266.23L124.871 266.1V262.746H128.537V276.5H124.819V273.198L125.651 273.12C125.513 273.605 125.287 274.065 124.975 274.498C124.663 274.931 124.273 275.321 123.805 275.668C123.355 275.997 122.843 276.266 122.271 276.474C121.699 276.665 121.093 276.76 120.451 276.76ZM121.465 273.562C122.159 273.562 122.765 273.397 123.285 273.068C123.805 272.739 124.204 272.279 124.481 271.69C124.776 271.083 124.923 270.381 124.923 269.584C124.923 268.804 124.776 268.119 124.481 267.53C124.204 266.941 123.805 266.481 123.285 266.152C122.765 265.805 122.159 265.632 121.465 265.632C120.789 265.632 120.191 265.805 119.671 266.152C119.169 266.481 118.77 266.941 118.475 267.53C118.181 268.119 118.033 268.804 118.033 269.584C118.033 270.381 118.181 271.083 118.475 271.69C118.77 272.279 119.169 272.739 119.671 273.068C120.191 273.397 120.789 273.562 121.465 273.562ZM138.765 282.48C137.673 282.48 136.598 282.315 135.541 281.986C134.483 281.674 133.625 281.267 132.967 280.764L134.267 278.112C134.613 278.355 135.012 278.571 135.463 278.762C135.913 278.953 136.381 279.1 136.867 279.204C137.369 279.308 137.881 279.36 138.401 279.36C139.302 279.36 140.039 279.221 140.611 278.944C141.2 278.667 141.642 278.251 141.937 277.696C142.231 277.159 142.379 276.465 142.379 275.616V273.224L143.003 273.354C142.899 273.926 142.613 274.455 142.145 274.94C141.677 275.408 141.087 275.789 140.377 276.084C139.666 276.361 138.938 276.5 138.193 276.5C136.91 276.5 135.775 276.205 134.787 275.616C133.799 275.027 133.019 274.212 132.447 273.172C131.875 272.132 131.589 270.936 131.589 269.584C131.589 268.197 131.866 266.975 132.421 265.918C132.993 264.843 133.764 264.003 134.735 263.396C135.723 262.772 136.841 262.46 138.089 262.46C138.609 262.46 139.103 262.521 139.571 262.642C140.056 262.763 140.498 262.937 140.897 263.162C141.313 263.37 141.677 263.613 141.989 263.89C142.318 264.15 142.587 264.436 142.795 264.748C143.003 265.06 143.133 265.372 143.185 265.684L142.431 265.892L142.535 262.746H146.071V275.46C146.071 276.587 145.906 277.583 145.577 278.45C145.247 279.317 144.762 280.045 144.121 280.634C143.497 281.241 142.725 281.7 141.807 282.012C140.905 282.324 139.891 282.48 138.765 282.48ZM138.869 273.536C139.597 273.536 140.229 273.371 140.767 273.042C141.321 272.713 141.746 272.253 142.041 271.664C142.335 271.075 142.483 270.381 142.483 269.584C142.483 268.804 142.335 268.119 142.041 267.53C141.746 266.923 141.321 266.455 140.767 266.126C140.229 265.797 139.597 265.632 138.869 265.632C138.158 265.632 137.525 265.805 136.971 266.152C136.433 266.481 136.017 266.941 135.723 267.53C135.428 268.119 135.281 268.804 135.281 269.584C135.281 270.364 135.428 271.057 135.723 271.664C136.017 272.253 136.433 272.713 136.971 273.042C137.525 273.371 138.158 273.536 138.869 273.536ZM156.525 276.76C155.034 276.76 153.734 276.457 152.625 275.85C151.516 275.243 150.649 274.411 150.025 273.354C149.401 272.297 149.089 271.083 149.089 269.714C149.089 268.657 149.262 267.686 149.609 266.802C149.956 265.918 150.441 265.155 151.065 264.514C151.689 263.855 152.426 263.353 153.275 263.006C154.142 262.642 155.078 262.46 156.083 262.46C157.019 262.46 157.886 262.633 158.683 262.98C159.48 263.309 160.165 263.786 160.737 264.41C161.326 265.017 161.777 265.736 162.089 266.568C162.401 267.4 162.54 268.31 162.505 269.298L162.479 270.442H151.429L150.831 268.18H159.437L159.021 268.648V268.076C158.986 267.608 158.83 267.183 158.553 266.802C158.293 266.421 157.955 266.126 157.539 265.918C157.123 265.71 156.655 265.606 156.135 265.606C155.372 265.606 154.722 265.753 154.185 266.048C153.665 266.343 153.266 266.776 152.989 267.348C152.712 267.92 152.573 268.613 152.573 269.428C152.573 270.26 152.746 270.979 153.093 271.586C153.457 272.193 153.96 272.669 154.601 273.016C155.26 273.345 156.031 273.51 156.915 273.51C157.522 273.51 158.076 273.415 158.579 273.224C159.082 273.033 159.619 272.704 160.191 272.236L161.959 274.706C161.456 275.157 160.902 275.538 160.295 275.85C159.688 276.145 159.064 276.37 158.423 276.526C157.782 276.682 157.149 276.76 156.525 276.76ZM165.883 281.518L164.739 280.14C165.415 279.811 165.953 279.412 166.351 278.944C166.767 278.476 166.975 278.069 166.975 277.722C166.975 277.566 166.932 277.401 166.845 277.228C166.759 277.055 166.568 276.838 166.273 276.578C165.892 276.283 165.632 276.006 165.493 275.746C165.372 275.469 165.311 275.174 165.311 274.862C165.311 274.359 165.493 273.961 165.857 273.666C166.221 273.371 166.689 273.224 167.261 273.224C167.729 273.224 168.154 273.363 168.535 273.64C168.934 273.9 169.246 274.273 169.471 274.758C169.697 275.226 169.809 275.772 169.809 276.396C169.809 276.951 169.714 277.488 169.523 278.008C169.333 278.545 169.055 279.039 168.691 279.49C168.345 279.958 167.929 280.365 167.443 280.712C166.975 281.059 166.455 281.327 165.883 281.518ZM186.681 276.76C185.485 276.76 184.41 276.457 183.457 275.85C182.503 275.226 181.749 274.385 181.195 273.328C180.657 272.253 180.389 271.014 180.389 269.61C180.389 268.241 180.657 267.019 181.195 265.944C181.749 264.869 182.495 264.02 183.431 263.396C184.384 262.772 185.467 262.46 186.681 262.46C187.322 262.46 187.937 262.564 188.527 262.772C189.133 262.963 189.671 263.231 190.139 263.578C190.624 263.925 191.014 264.315 191.309 264.748C191.603 265.164 191.768 265.606 191.803 266.074L190.867 266.23V257.26H194.559V276.5H191.075L190.919 273.328L191.647 273.406C191.612 273.839 191.456 274.255 191.179 274.654C190.901 275.053 190.529 275.417 190.061 275.746C189.61 276.058 189.09 276.309 188.501 276.5C187.929 276.673 187.322 276.76 186.681 276.76ZM187.513 273.692C188.206 273.692 188.813 273.519 189.333 273.172C189.853 272.825 190.26 272.349 190.555 271.742C190.849 271.135 190.997 270.425 190.997 269.61C190.997 268.813 190.849 268.111 190.555 267.504C190.26 266.88 189.853 266.403 189.333 266.074C188.813 265.727 188.206 265.554 187.513 265.554C186.819 265.554 186.213 265.727 185.693 266.074C185.19 266.403 184.791 266.88 184.497 267.504C184.219 268.111 184.081 268.813 184.081 269.61C184.081 270.425 184.219 271.135 184.497 271.742C184.791 272.349 185.19 272.825 185.693 273.172C186.213 273.519 186.819 273.692 187.513 273.692ZM204.944 276.76C203.453 276.76 202.153 276.457 201.044 275.85C199.935 275.243 199.068 274.411 198.444 273.354C197.82 272.297 197.508 271.083 197.508 269.714C197.508 268.657 197.681 267.686 198.028 266.802C198.375 265.918 198.86 265.155 199.484 264.514C200.108 263.855 200.845 263.353 201.694 263.006C202.561 262.642 203.497 262.46 204.502 262.46C205.438 262.46 206.305 262.633 207.102 262.98C207.899 263.309 208.584 263.786 209.156 264.41C209.745 265.017 210.196 265.736 210.508 266.568C210.82 267.4 210.959 268.31 210.924 269.298L210.898 270.442H199.848L199.25 268.18H207.856L207.44 268.648V268.076C207.405 267.608 207.249 267.183 206.972 266.802C206.712 266.421 206.374 266.126 205.958 265.918C205.542 265.71 205.074 265.606 204.554 265.606C203.791 265.606 203.141 265.753 202.604 266.048C202.084 266.343 201.685 266.776 201.408 267.348C201.131 267.92 200.992 268.613 200.992 269.428C200.992 270.26 201.165 270.979 201.512 271.586C201.876 272.193 202.379 272.669 203.02 273.016C203.679 273.345 204.45 273.51 205.334 273.51C205.941 273.51 206.495 273.415 206.998 273.224C207.501 273.033 208.038 272.704 208.61 272.236L210.378 274.706C209.875 275.157 209.321 275.538 208.714 275.85C208.107 276.145 207.483 276.37 206.842 276.526C206.201 276.682 205.568 276.76 204.944 276.76ZM218.54 276.76C217.258 276.76 216.114 276.552 215.108 276.136C214.12 275.703 213.323 275.113 212.716 274.368L215.004 272.392C215.542 272.964 216.14 273.38 216.798 273.64C217.457 273.883 218.116 274.004 218.774 274.004C219.034 274.004 219.268 273.978 219.476 273.926C219.702 273.857 219.892 273.77 220.048 273.666C220.204 273.545 220.317 273.406 220.386 273.25C220.473 273.077 220.516 272.895 220.516 272.704C220.516 272.323 220.36 272.019 220.048 271.794C219.875 271.707 219.606 271.603 219.242 271.482C218.878 271.343 218.41 271.196 217.838 271.04C216.954 270.815 216.2 270.555 215.576 270.26C214.97 269.948 214.484 269.601 214.12 269.22C213.808 268.856 213.566 268.466 213.392 268.05C213.236 267.617 213.158 267.14 213.158 266.62C213.158 265.996 213.297 265.433 213.574 264.93C213.852 264.41 214.233 263.968 214.718 263.604C215.221 263.24 215.793 262.963 216.434 262.772C217.076 262.564 217.752 262.46 218.462 262.46C219.173 262.46 219.866 262.547 220.542 262.72C221.218 262.893 221.842 263.145 222.414 263.474C223.004 263.786 223.515 264.159 223.948 264.592L221.972 266.776C221.66 266.481 221.305 266.213 220.906 265.97C220.525 265.727 220.126 265.537 219.71 265.398C219.294 265.259 218.922 265.19 218.592 265.19C218.298 265.19 218.029 265.216 217.786 265.268C217.561 265.32 217.37 265.398 217.214 265.502C217.058 265.606 216.937 265.745 216.85 265.918C216.781 266.074 216.746 266.247 216.746 266.438C216.746 266.629 216.79 266.811 216.876 266.984C216.98 267.157 217.119 267.305 217.292 267.426C217.483 267.53 217.76 267.651 218.124 267.79C218.506 267.929 219.017 268.085 219.658 268.258C220.49 268.483 221.192 268.735 221.764 269.012C222.354 269.289 222.822 269.61 223.168 269.974C223.463 270.286 223.68 270.641 223.818 271.04C223.957 271.439 224.026 271.881 224.026 272.366C224.026 273.215 223.784 273.978 223.298 274.654C222.83 275.313 222.18 275.833 221.348 276.214C220.516 276.578 219.58 276.76 218.54 276.76ZM228.244 276.5V259.262H231.936V276.5H228.244ZM225.67 266.048V262.746H234.744V266.048H225.67ZM237.411 276.5V262.746H240.973L241.103 267.166L240.479 266.256C240.687 265.545 241.025 264.904 241.493 264.332C241.961 263.743 242.507 263.283 243.131 262.954C243.772 262.625 244.44 262.46 245.133 262.46C245.428 262.46 245.714 262.486 245.991 262.538C246.268 262.59 246.502 262.651 246.693 262.72L245.705 266.776C245.497 266.672 245.246 266.585 244.951 266.516C244.656 266.429 244.353 266.386 244.041 266.386C243.625 266.386 243.235 266.464 242.871 266.62C242.524 266.759 242.221 266.967 241.961 267.244C241.701 267.504 241.493 267.816 241.337 268.18C241.198 268.544 241.129 268.943 241.129 269.376V276.5H237.411ZM253.803 276.76C252.798 276.76 251.931 276.543 251.203 276.11C250.493 275.659 249.938 275.027 249.539 274.212C249.158 273.38 248.967 272.383 248.967 271.222V262.746H252.659V270.624C252.659 271.248 252.763 271.794 252.971 272.262C253.179 272.713 253.474 273.059 253.855 273.302C254.237 273.545 254.705 273.666 255.259 273.666C255.658 273.666 256.031 273.605 256.377 273.484C256.724 273.345 257.019 273.155 257.261 272.912C257.504 272.669 257.695 272.383 257.833 272.054C257.972 271.725 258.041 271.369 258.041 270.988V262.746H261.733V276.5H258.223L258.093 273.666L258.769 273.354C258.561 273.995 258.215 274.576 257.729 275.096C257.244 275.616 256.663 276.023 255.987 276.318C255.311 276.613 254.583 276.76 253.803 276.76ZM271.688 276.76C270.371 276.76 269.192 276.448 268.152 275.824C267.112 275.2 266.289 274.351 265.682 273.276C265.093 272.201 264.798 270.979 264.798 269.61C264.798 268.258 265.093 267.045 265.682 265.97C266.289 264.878 267.112 264.02 268.152 263.396C269.192 262.772 270.371 262.46 271.688 262.46C272.919 262.46 274.046 262.685 275.068 263.136C276.091 263.587 276.888 264.211 277.46 265.008L275.432 267.452C275.19 267.123 274.886 266.828 274.522 266.568C274.158 266.291 273.76 266.074 273.326 265.918C272.91 265.762 272.477 265.684 272.026 265.684C271.316 265.684 270.683 265.857 270.128 266.204C269.591 266.533 269.166 266.993 268.854 267.582C268.542 268.171 268.386 268.847 268.386 269.61C268.386 270.355 268.542 271.023 268.854 271.612C269.184 272.184 269.626 272.652 270.18 273.016C270.735 273.363 271.359 273.536 272.052 273.536C272.503 273.536 272.928 273.475 273.326 273.354C273.725 273.215 274.098 273.016 274.444 272.756C274.808 272.496 275.138 272.184 275.432 271.82L277.434 274.264C276.845 275.009 276.03 275.616 274.99 276.084C273.95 276.535 272.85 276.76 271.688 276.76ZM281.386 276.5V259.262H285.078V276.5H281.386ZM278.812 266.048V262.746H287.886V266.048H278.812ZM290.864 276.5V262.746H294.556V276.5H290.864ZM292.684 259.912C291.974 259.912 291.419 259.739 291.02 259.392C290.622 259.045 290.422 258.551 290.422 257.91C290.422 257.321 290.622 256.844 291.02 256.48C291.436 256.099 291.991 255.908 292.684 255.908C293.395 255.908 293.95 256.09 294.348 256.454C294.747 256.801 294.946 257.286 294.946 257.91C294.946 258.517 294.738 259.002 294.322 259.366C293.924 259.73 293.378 259.912 292.684 259.912ZM305.156 276.76C303.752 276.76 302.495 276.457 301.386 275.85C300.294 275.226 299.427 274.377 298.786 273.302C298.162 272.227 297.85 270.997 297.85 269.61C297.85 268.223 298.162 267.001 298.786 265.944C299.427 264.869 300.294 264.02 301.386 263.396C302.495 262.772 303.752 262.46 305.156 262.46C306.542 262.46 307.782 262.772 308.874 263.396C309.983 264.02 310.85 264.869 311.474 265.944C312.098 267.001 312.41 268.223 312.41 269.61C312.41 270.997 312.098 272.227 311.474 273.302C310.85 274.377 309.983 275.226 308.874 275.85C307.782 276.457 306.542 276.76 305.156 276.76ZM305.156 273.536C305.832 273.536 306.438 273.371 306.976 273.042C307.513 272.695 307.929 272.227 308.224 271.638C308.536 271.031 308.692 270.355 308.692 269.61C308.692 268.847 308.536 268.171 308.224 267.582C307.929 266.975 307.513 266.507 306.976 266.178C306.438 265.831 305.832 265.658 305.156 265.658C304.462 265.658 303.847 265.831 303.31 266.178C302.772 266.525 302.348 266.993 302.036 267.582C301.724 268.171 301.576 268.847 301.594 269.61C301.576 270.355 301.724 271.031 302.036 271.638C302.348 272.227 302.772 272.695 303.31 273.042C303.847 273.371 304.462 273.536 305.156 273.536ZM315.447 276.5V262.746H318.983L319.087 265.554L318.359 265.866C318.55 265.242 318.888 264.679 319.373 264.176C319.876 263.656 320.474 263.24 321.167 262.928C321.861 262.616 322.589 262.46 323.351 262.46C324.391 262.46 325.258 262.668 325.951 263.084C326.662 263.5 327.191 264.133 327.537 264.982C327.901 265.814 328.083 266.845 328.083 268.076V276.5H324.391V268.362C324.391 267.738 324.305 267.218 324.131 266.802C323.958 266.386 323.689 266.083 323.325 265.892C322.979 265.684 322.545 265.597 322.025 265.632C321.609 265.632 321.219 265.701 320.855 265.84C320.509 265.961 320.205 266.143 319.945 266.386C319.703 266.629 319.503 266.906 319.347 267.218C319.209 267.53 319.139 267.868 319.139 268.232V276.5H317.319C316.921 276.5 316.565 276.5 316.253 276.5C315.941 276.5 315.673 276.5 315.447 276.5ZM332.271 281.518L331.127 280.14C331.803 279.811 332.341 279.412 332.739 278.944C333.155 278.476 333.363 278.069 333.363 277.722C333.363 277.566 333.32 277.401 333.233 277.228C333.147 277.055 332.956 276.838 332.661 276.578C332.28 276.283 332.02 276.006 331.881 275.746C331.76 275.469 331.699 275.174 331.699 274.862C331.699 274.359 331.881 273.961 332.245 273.666C332.609 273.371 333.077 273.224 333.649 273.224C334.117 273.224 334.542 273.363 334.923 273.64C335.322 273.9 335.634 274.273 335.859 274.758C336.085 275.226 336.197 275.772 336.197 276.396C336.197 276.951 336.102 277.488 335.911 278.008C335.721 278.545 335.443 279.039 335.079 279.49C334.733 279.958 334.317 280.365 333.831 280.712C333.363 281.059 332.843 281.327 332.271 281.518ZM103.872 309.76C102.381 309.76 101.081 309.457 99.972 308.85C98.8627 308.243 97.996 307.411 97.372 306.354C96.748 305.297 96.436 304.083 96.436 302.714C96.436 301.657 96.6093 300.686 96.956 299.802C97.3027 298.918 97.788 298.155 98.412 297.514C99.036 296.855 99.7727 296.353 100.622 296.006C101.489 295.642 102.425 295.46 103.43 295.46C104.366 295.46 105.233 295.633 106.03 295.98C106.827 296.309 107.512 296.786 108.084 297.41C108.673 298.017 109.124 298.736 109.436 299.568C109.748 300.4 109.887 301.31 109.852 302.298L109.826 303.442H98.776L98.178 301.18H106.784L106.368 301.648V301.076C106.333 300.608 106.177 300.183 105.9 299.802C105.64 299.421 105.302 299.126 104.886 298.918C104.47 298.71 104.002 298.606 103.482 298.606C102.719 298.606 102.069 298.753 101.532 299.048C101.012 299.343 100.613 299.776 100.336 300.348C100.059 300.92 99.92 301.613 99.92 302.428C99.92 303.26 100.093 303.979 100.44 304.586C100.804 305.193 101.307 305.669 101.948 306.016C102.607 306.345 103.378 306.51 104.262 306.51C104.869 306.51 105.423 306.415 105.926 306.224C106.429 306.033 106.966 305.704 107.538 305.236L109.306 307.706C108.803 308.157 108.249 308.538 107.642 308.85C107.035 309.145 106.411 309.37 105.77 309.526C105.129 309.682 104.496 309.76 103.872 309.76ZM112.84 309.5V295.746H116.376L116.48 298.554L115.752 298.866C115.943 298.242 116.281 297.679 116.766 297.176C117.269 296.656 117.867 296.24 118.56 295.928C119.254 295.616 119.982 295.46 120.744 295.46C121.784 295.46 122.651 295.668 123.344 296.084C124.055 296.5 124.584 297.133 124.93 297.982C125.294 298.814 125.476 299.845 125.476 301.076V309.5H121.784V301.362C121.784 300.738 121.698 300.218 121.524 299.802C121.351 299.386 121.082 299.083 120.718 298.892C120.372 298.684 119.938 298.597 119.418 298.632C119.002 298.632 118.612 298.701 118.248 298.84C117.902 298.961 117.598 299.143 117.338 299.386C117.096 299.629 116.896 299.906 116.74 300.218C116.602 300.53 116.532 300.868 116.532 301.232V309.5H114.712C114.314 309.5 113.958 309.5 113.646 309.5C113.334 309.5 113.066 309.5 112.84 309.5ZM133.59 309.5L127.818 295.746H131.874L135.54 306.016L134.682 306.172L138.53 295.746H142.482L136.424 309.5H133.59ZM146.921 315.48L149.937 308.408L149.989 310.54L143.281 295.746H147.467L150.821 303.676C150.96 303.971 151.09 304.317 151.211 304.716C151.35 305.097 151.462 305.47 151.549 305.834L150.925 306.094C151.029 305.799 151.15 305.461 151.289 305.08C151.428 304.699 151.566 304.291 151.705 303.858L154.591 295.746H158.803L153.031 309.5L150.665 315.48H146.921Z" fill="#6D6D6D"/>
</g>
<path d="M62.4009 356.607C62.0345 356.981 61.8292 357.484 61.8292 358.007C61.8292 358.531 62.0345 359.034 62.4009 359.407L65.6009 362.607C65.9748 362.974 66.4774 363.179 67.0009 363.179C67.5244 363.179 68.0271 362.974 68.4009 362.607L74.6129 356.397C75.2529 355.753 76.3389 355.957 76.5789 356.833C77.1832 359.031 77.1491 361.356 76.4805 363.535C75.8119 365.714 74.5366 367.657 72.8037 369.138C71.0708 370.619 68.9521 371.575 66.6954 371.896C64.4388 372.216 62.1375 371.887 60.0609 370.947L44.2409 386.767C43.4453 387.563 42.3663 388.01 41.2412 388.009C40.1162 388.009 39.0373 387.562 38.2419 386.766C37.4465 385.971 36.9998 384.892 37 383.767C37.0002 382.642 37.4473 381.563 38.2429 380.767L54.0629 364.947C53.1232 362.871 52.7943 360.57 53.1148 358.313C53.4353 356.056 54.3918 353.937 55.8725 352.205C57.3531 350.472 59.2967 349.196 61.4757 348.528C63.6548 347.859 65.9792 347.825 68.1769 348.429C69.0529 348.669 69.2569 349.753 68.6149 350.397L62.4009 356.607Z" stroke="#8C8C8C" stroke-width="4.02" stroke-linecap="round" stroke-linejoin="round"/>
<g filter="url(#filter3_d_123_275)">
<path d="M97.866 377V358.8H101.766V377H97.866ZM99.66 369.772V366.418H109.072V369.772H99.66ZM99.66 362.31V358.8H110.164V362.31H99.66ZM119.566 377.26C118.162 377.26 116.906 376.957 115.796 376.35C114.704 375.726 113.838 374.877 113.196 373.802C112.572 372.727 112.26 371.497 112.26 370.11C112.26 368.723 112.572 367.501 113.196 366.444C113.838 365.369 114.704 364.52 115.796 363.896C116.906 363.272 118.162 362.96 119.566 362.96C120.953 362.96 122.192 363.272 123.284 363.896C124.394 364.52 125.26 365.369 125.884 366.444C126.508 367.501 126.82 368.723 126.82 370.11C126.82 371.497 126.508 372.727 125.884 373.802C125.26 374.877 124.394 375.726 123.284 376.35C122.192 376.957 120.953 377.26 119.566 377.26ZM119.566 374.036C120.242 374.036 120.849 373.871 121.386 373.542C121.924 373.195 122.34 372.727 122.634 372.138C122.946 371.531 123.102 370.855 123.102 370.11C123.102 369.347 122.946 368.671 122.634 368.082C122.34 367.475 121.924 367.007 121.386 366.678C120.849 366.331 120.242 366.158 119.566 366.158C118.873 366.158 118.258 366.331 117.72 366.678C117.183 367.025 116.758 367.493 116.446 368.082C116.134 368.671 115.987 369.347 116.004 370.11C115.987 370.855 116.134 371.531 116.446 372.138C116.758 372.727 117.183 373.195 117.72 373.542C118.258 373.871 118.873 374.036 119.566 374.036ZM129.858 377V363.246H133.42L133.55 367.666L132.926 366.756C133.134 366.045 133.472 365.404 133.94 364.832C134.408 364.243 134.954 363.783 135.578 363.454C136.22 363.125 136.887 362.96 137.58 362.96C137.875 362.96 138.161 362.986 138.438 363.038C138.716 363.09 138.95 363.151 139.14 363.22L138.152 367.276C137.944 367.172 137.693 367.085 137.398 367.016C137.104 366.929 136.8 366.886 136.488 366.886C136.072 366.886 135.682 366.964 135.318 367.12C134.972 367.259 134.668 367.467 134.408 367.744C134.148 368.004 133.94 368.316 133.784 368.68C133.646 369.044 133.576 369.443 133.576 369.876V377H129.858ZM146.915 377.26C145.597 377.26 144.419 376.948 143.379 376.324C142.339 375.7 141.515 374.851 140.909 373.776C140.319 372.701 140.025 371.479 140.025 370.11C140.025 368.758 140.319 367.545 140.909 366.47C141.515 365.378 142.339 364.52 143.379 363.896C144.419 363.272 145.597 362.96 146.915 362.96C148.145 362.96 149.272 363.185 150.295 363.636C151.317 364.087 152.115 364.711 152.687 365.508L150.659 367.952C150.416 367.623 150.113 367.328 149.749 367.068C149.385 366.791 148.986 366.574 148.553 366.418C148.137 366.262 147.703 366.184 147.253 366.184C146.542 366.184 145.909 366.357 145.355 366.704C144.817 367.033 144.393 367.493 144.081 368.082C143.769 368.671 143.613 369.347 143.613 370.11C143.613 370.855 143.769 371.523 144.081 372.112C144.41 372.684 144.852 373.152 145.407 373.516C145.961 373.863 146.585 374.036 147.279 374.036C147.729 374.036 148.154 373.975 148.553 373.854C148.951 373.715 149.324 373.516 149.671 373.256C150.035 372.996 150.364 372.684 150.659 372.32L152.661 374.764C152.071 375.509 151.257 376.116 150.217 376.584C149.177 377.035 148.076 377.26 146.915 377.26ZM161.812 377.26C160.322 377.26 159.022 376.957 157.912 376.35C156.803 375.743 155.936 374.911 155.312 373.854C154.688 372.797 154.376 371.583 154.376 370.214C154.376 369.157 154.55 368.186 154.896 367.302C155.243 366.418 155.728 365.655 156.352 365.014C156.976 364.355 157.713 363.853 158.562 363.506C159.429 363.142 160.365 362.96 161.37 362.96C162.306 362.96 163.173 363.133 163.97 363.48C164.768 363.809 165.452 364.286 166.024 364.91C166.614 365.517 167.064 366.236 167.376 367.068C167.688 367.9 167.827 368.81 167.792 369.798L167.766 370.942H156.716L156.118 368.68H164.724L164.308 369.148V368.576C164.274 368.108 164.118 367.683 163.84 367.302C163.58 366.921 163.242 366.626 162.826 366.418C162.41 366.21 161.942 366.106 161.422 366.106C160.66 366.106 160.01 366.253 159.472 366.548C158.952 366.843 158.554 367.276 158.276 367.848C157.999 368.42 157.86 369.113 157.86 369.928C157.86 370.76 158.034 371.479 158.38 372.086C158.744 372.693 159.247 373.169 159.888 373.516C160.547 373.845 161.318 374.01 162.202 374.01C162.809 374.01 163.364 373.915 163.866 373.724C164.369 373.533 164.906 373.204 165.478 372.736L167.246 375.206C166.744 375.657 166.189 376.038 165.582 376.35C164.976 376.645 164.352 376.87 163.71 377.026C163.069 377.182 162.436 377.26 161.812 377.26ZM171.171 382.018L170.027 380.64C170.703 380.311 171.24 379.912 171.639 379.444C172.055 378.976 172.263 378.569 172.263 378.222C172.263 378.066 172.219 377.901 172.133 377.728C172.046 377.555 171.855 377.338 171.561 377.078C171.179 376.783 170.919 376.506 170.781 376.246C170.659 375.969 170.599 375.674 170.599 375.362C170.599 374.859 170.781 374.461 171.145 374.166C171.509 373.871 171.977 373.724 172.549 373.724C173.017 373.724 173.441 373.863 173.823 374.14C174.221 374.4 174.533 374.773 174.759 375.258C174.984 375.726 175.097 376.272 175.097 376.896C175.097 377.451 175.001 377.988 174.811 378.508C174.62 379.045 174.343 379.539 173.979 379.99C173.632 380.458 173.216 380.865 172.731 381.212C172.263 381.559 171.743 381.827 171.171 382.018ZM186.898 377V363.246H190.59V377H186.898ZM188.718 360.412C188.007 360.412 187.453 360.239 187.054 359.892C186.655 359.545 186.456 359.051 186.456 358.41C186.456 357.821 186.655 357.344 187.054 356.98C187.47 356.599 188.025 356.408 188.718 356.408C189.429 356.408 189.983 356.59 190.382 356.954C190.781 357.301 190.98 357.786 190.98 358.41C190.98 359.017 190.772 359.502 190.356 359.866C189.957 360.23 189.411 360.412 188.718 360.412ZM194.793 377V363.246H198.329L198.433 366.054L197.705 366.366C197.896 365.742 198.234 365.179 198.719 364.676C199.222 364.156 199.82 363.74 200.513 363.428C201.207 363.116 201.935 362.96 202.697 362.96C203.737 362.96 204.604 363.168 205.297 363.584C206.008 364 206.537 364.633 206.883 365.482C207.247 366.314 207.429 367.345 207.429 368.576V377H203.737V368.862C203.737 368.238 203.651 367.718 203.477 367.302C203.304 366.886 203.035 366.583 202.671 366.392C202.325 366.184 201.891 366.097 201.371 366.132C200.955 366.132 200.565 366.201 200.201 366.34C199.855 366.461 199.551 366.643 199.291 366.886C199.049 367.129 198.849 367.406 198.693 367.718C198.555 368.03 198.485 368.368 198.485 368.732V377H196.665C196.267 377 195.911 377 195.599 377C195.287 377 195.019 377 194.793 377ZM212.553 377V359.762H216.245V377H212.553ZM209.979 366.548V363.246H219.053V366.548H209.979ZM222.031 377V363.246H225.723V377H222.031ZM223.851 360.412C223.141 360.412 222.586 360.239 222.187 359.892C221.789 359.545 221.589 359.051 221.589 358.41C221.589 357.821 221.789 357.344 222.187 356.98C222.603 356.599 223.158 356.408 223.851 356.408C224.562 356.408 225.117 356.59 225.515 356.954C225.914 357.301 226.113 357.786 226.113 358.41C226.113 359.017 225.905 359.502 225.489 359.866C225.091 360.23 224.545 360.412 223.851 360.412ZM229.901 377V363.246H233.463L233.541 365.872L232.995 365.976C233.185 365.525 233.437 365.118 233.749 364.754C234.061 364.39 234.425 364.078 234.841 363.818C235.274 363.558 235.725 363.359 236.193 363.22C236.661 363.064 237.129 362.986 237.597 362.986C238.307 362.986 238.949 363.099 239.521 363.324C240.093 363.549 240.578 363.905 240.977 364.39C241.375 364.858 241.687 365.482 241.913 366.262L241.341 366.21L241.523 365.794C241.748 365.378 242.034 365.005 242.381 364.676C242.727 364.329 243.117 364.035 243.551 363.792C243.984 363.532 244.435 363.333 244.903 363.194C245.371 363.055 245.83 362.986 246.281 362.986C247.355 362.986 248.248 363.203 248.959 363.636C249.669 364.052 250.198 364.685 250.545 365.534C250.909 366.383 251.091 367.423 251.091 368.654V377H247.399V368.914C247.399 368.29 247.312 367.779 247.139 367.38C246.965 366.981 246.714 366.687 246.385 366.496C246.055 366.288 245.631 366.184 245.111 366.184C244.712 366.184 244.339 366.253 243.993 366.392C243.663 366.513 243.369 366.695 243.109 366.938C242.866 367.163 242.675 367.432 242.537 367.744C242.398 368.056 242.329 368.403 242.329 368.784V377H238.637V368.888C238.637 368.316 238.541 367.831 238.351 367.432C238.177 367.016 237.926 366.704 237.597 366.496C237.267 366.288 236.86 366.184 236.375 366.184C235.976 366.184 235.603 366.253 235.257 366.392C234.927 366.513 234.641 366.695 234.399 366.938C234.156 367.163 233.957 367.432 233.801 367.744C233.662 368.056 233.593 368.394 233.593 368.758V377H229.901ZM255.178 377V363.246H258.87V377H255.178ZM256.998 360.412C256.288 360.412 255.733 360.239 255.334 359.892C254.936 359.545 254.736 359.051 254.736 358.41C254.736 357.821 254.936 357.344 255.334 356.98C255.75 356.599 256.305 356.408 256.998 356.408C257.709 356.408 258.264 356.59 258.662 356.954C259.061 357.301 259.26 357.786 259.26 358.41C259.26 359.017 259.052 359.502 258.636 359.866C258.238 360.23 257.692 360.412 256.998 360.412ZM268.456 377.26C267.26 377.26 266.185 376.957 265.232 376.35C264.278 375.726 263.524 374.885 262.97 373.828C262.432 372.753 262.164 371.514 262.164 370.11C262.164 368.741 262.432 367.519 262.97 366.444C263.524 365.369 264.27 364.52 265.206 363.896C266.159 363.272 267.242 362.96 268.456 362.96C269.097 362.96 269.712 363.064 270.302 363.272C270.908 363.463 271.446 363.731 271.914 364.078C272.399 364.425 272.789 364.815 273.084 365.248C273.378 365.664 273.543 366.106 273.578 366.574L272.642 366.73V357.76H276.334V377H272.85L272.694 373.828L273.422 373.906C273.387 374.339 273.231 374.755 272.954 375.154C272.676 375.553 272.304 375.917 271.836 376.246C271.385 376.558 270.865 376.809 270.276 377C269.704 377.173 269.097 377.26 268.456 377.26ZM269.288 374.192C269.981 374.192 270.588 374.019 271.108 373.672C271.628 373.325 272.035 372.849 272.33 372.242C272.624 371.635 272.772 370.925 272.772 370.11C272.772 369.313 272.624 368.611 272.33 368.004C272.035 367.38 271.628 366.903 271.108 366.574C270.588 366.227 269.981 366.054 269.288 366.054C268.594 366.054 267.988 366.227 267.468 366.574C266.965 366.903 266.566 367.38 266.272 368.004C265.994 368.611 265.856 369.313 265.856 370.11C265.856 370.925 265.994 371.635 266.272 372.242C266.566 372.849 266.965 373.325 267.468 373.672C267.988 374.019 268.594 374.192 269.288 374.192ZM285.341 377.26C284.197 377.26 283.166 376.948 282.247 376.324C281.328 375.7 280.6 374.851 280.063 373.776C279.526 372.701 279.257 371.471 279.257 370.084C279.257 368.697 279.526 367.475 280.063 366.418C280.618 365.343 281.363 364.503 282.299 363.896C283.235 363.272 284.301 362.96 285.497 362.96C286.173 362.96 286.788 363.064 287.343 363.272C287.915 363.463 288.409 363.731 288.825 364.078C289.258 364.425 289.622 364.823 289.917 365.274C290.212 365.725 290.42 366.21 290.541 366.73L289.761 366.6V363.246H293.427V377H289.709V373.698L290.541 373.62C290.402 374.105 290.177 374.565 289.865 374.998C289.553 375.431 289.163 375.821 288.695 376.168C288.244 376.497 287.733 376.766 287.161 376.974C286.589 377.165 285.982 377.26 285.341 377.26ZM286.355 374.062C287.048 374.062 287.655 373.897 288.175 373.568C288.695 373.239 289.094 372.779 289.371 372.19C289.666 371.583 289.813 370.881 289.813 370.084C289.813 369.304 289.666 368.619 289.371 368.03C289.094 367.441 288.695 366.981 288.175 366.652C287.655 366.305 287.048 366.132 286.355 366.132C285.679 366.132 285.081 366.305 284.561 366.652C284.058 366.981 283.66 367.441 283.365 368.03C283.07 368.619 282.923 369.304 282.923 370.084C282.923 370.881 283.07 371.583 283.365 372.19C283.66 372.779 284.058 373.239 284.561 373.568C285.081 373.897 285.679 374.062 286.355 374.062ZM298.715 377V359.762H302.407V377H298.715ZM296.141 366.548V363.246H305.215V366.548H296.141ZM308.193 377V363.246H311.885V377H308.193ZM310.013 360.412C309.302 360.412 308.748 360.239 308.349 359.892C307.95 359.545 307.751 359.051 307.751 358.41C307.751 357.821 307.95 357.344 308.349 356.98C308.765 356.599 309.32 356.408 310.013 356.408C310.724 356.408 311.278 356.59 311.677 356.954C312.076 357.301 312.275 357.786 312.275 358.41C312.275 359.017 312.067 359.502 311.651 359.866C311.252 360.23 310.706 360.412 310.013 360.412ZM322.484 377.26C321.08 377.26 319.824 376.957 318.714 376.35C317.622 375.726 316.756 374.877 316.114 373.802C315.49 372.727 315.178 371.497 315.178 370.11C315.178 368.723 315.49 367.501 316.114 366.444C316.756 365.369 317.622 364.52 318.714 363.896C319.824 363.272 321.08 362.96 322.484 362.96C323.871 362.96 325.11 363.272 326.202 363.896C327.312 364.52 328.178 365.369 328.802 366.444C329.426 367.501 329.738 368.723 329.738 370.11C329.738 371.497 329.426 372.727 328.802 373.802C328.178 374.877 327.312 375.726 326.202 376.35C325.11 376.957 323.871 377.26 322.484 377.26ZM322.484 374.036C323.16 374.036 323.767 373.871 324.304 373.542C324.842 373.195 325.258 372.727 325.552 372.138C325.864 371.531 326.02 370.855 326.02 370.11C326.02 369.347 325.864 368.671 325.552 368.082C325.258 367.475 324.842 367.007 324.304 366.678C323.767 366.331 323.16 366.158 322.484 366.158C321.791 366.158 321.176 366.331 320.638 366.678C320.101 367.025 319.676 367.493 319.364 368.082C319.052 368.671 318.905 369.347 318.922 370.11C318.905 370.855 319.052 371.531 319.364 372.138C319.676 372.727 320.101 373.195 320.638 373.542C321.176 373.871 321.791 374.036 322.484 374.036ZM332.776 377V363.246H336.312L336.416 366.054L335.688 366.366C335.879 365.742 336.217 365.179 336.702 364.676C337.205 364.156 337.803 363.74 338.496 363.428C339.189 363.116 339.917 362.96 340.68 362.96C341.72 362.96 342.587 363.168 343.28 363.584C343.991 364 344.519 364.633 344.866 365.482C345.23 366.314 345.412 367.345 345.412 368.576V377H341.72V368.862C341.72 368.238 341.633 367.718 341.46 367.302C341.287 366.886 341.018 366.583 340.654 366.392C340.307 366.184 339.874 366.097 339.354 366.132C338.938 366.132 338.548 366.201 338.184 366.34C337.837 366.461 337.534 366.643 337.274 366.886C337.031 367.129 336.832 367.406 336.676 367.718C336.537 368.03 336.468 368.368 336.468 368.732V377H334.648C334.249 377 333.894 377 333.582 377C333.27 377 333.001 377 332.776 377Z" fill="#6D6D6D"/>
</g>
<path d="M37.124 452.696C36.9573 452.247 36.9573 451.753 37.124 451.304C38.7474 447.368 41.503 444.002 45.0415 441.634C48.5801 439.266 52.7421 438.001 57 438.001C61.2579 438.001 65.4199 439.266 68.9585 441.634C72.497 444.002 75.2526 447.368 76.876 451.304C77.0427 451.753 77.0427 452.247 76.876 452.696C75.2526 456.632 72.497 459.998 68.9585 462.366C65.4199 464.734 61.2579 465.999 57 465.999C52.7421 465.999 48.5801 464.734 45.0415 462.366C41.503 459.998 38.7474 456.632 37.124 452.696Z" stroke="#8C8C8C" stroke-width="4.02" stroke-linecap="round" stroke-linejoin="round"/>
<path d="M57 458C60.3137 458 63 455.314 63 452C63 448.686 60.3137 446 57 446C53.6863 446 51 448.686 51 452C51 455.314 53.6863 458 57 458Z" stroke="#8C8C8C" stroke-width="4.02" stroke-linecap="round" stroke-linejoin="round"/>
<g filter="url(#filter4_d_123_275)">
<path d="M97.398 461V457.646H100.44V446.154H97.398V442.8H107.382V446.154H104.34V457.646H107.382V461H97.398ZM111.393 461V447.246H114.929L115.033 450.054L114.305 450.366C114.496 449.742 114.834 449.179 115.319 448.676C115.822 448.156 116.42 447.74 117.113 447.428C117.806 447.116 118.534 446.96 119.297 446.96C120.337 446.96 121.204 447.168 121.897 447.584C122.608 448 123.136 448.633 123.483 449.482C123.847 450.314 124.029 451.345 124.029 452.576V461H120.337V452.862C120.337 452.238 120.25 451.718 120.077 451.302C119.904 450.886 119.635 450.583 119.271 450.392C118.924 450.184 118.491 450.097 117.971 450.132C117.555 450.132 117.165 450.201 116.801 450.34C116.454 450.461 116.151 450.643 115.891 450.886C115.648 451.129 115.449 451.406 115.293 451.718C115.154 452.03 115.085 452.368 115.085 452.732V461H113.265C112.866 461 112.511 461 112.199 461C111.887 461 111.618 461 111.393 461ZM132.455 461.26C131.172 461.26 130.028 461.052 129.023 460.636C128.035 460.203 127.238 459.613 126.631 458.868L128.919 456.892C129.456 457.464 130.054 457.88 130.713 458.14C131.372 458.383 132.03 458.504 132.689 458.504C132.949 458.504 133.183 458.478 133.391 458.426C133.616 458.357 133.807 458.27 133.963 458.166C134.119 458.045 134.232 457.906 134.301 457.75C134.388 457.577 134.431 457.395 134.431 457.204C134.431 456.823 134.275 456.519 133.963 456.294C133.79 456.207 133.521 456.103 133.157 455.982C132.793 455.843 132.325 455.696 131.753 455.54C130.869 455.315 130.115 455.055 129.491 454.76C128.884 454.448 128.399 454.101 128.035 453.72C127.723 453.356 127.48 452.966 127.307 452.55C127.151 452.117 127.073 451.64 127.073 451.12C127.073 450.496 127.212 449.933 127.489 449.43C127.766 448.91 128.148 448.468 128.633 448.104C129.136 447.74 129.708 447.463 130.349 447.272C130.99 447.064 131.666 446.96 132.377 446.96C133.088 446.96 133.781 447.047 134.457 447.22C135.133 447.393 135.757 447.645 136.329 447.974C136.918 448.286 137.43 448.659 137.863 449.092L135.887 451.276C135.575 450.981 135.22 450.713 134.821 450.47C134.44 450.227 134.041 450.037 133.625 449.898C133.209 449.759 132.836 449.69 132.507 449.69C132.212 449.69 131.944 449.716 131.701 449.768C131.476 449.82 131.285 449.898 131.129 450.002C130.973 450.106 130.852 450.245 130.765 450.418C130.696 450.574 130.661 450.747 130.661 450.938C130.661 451.129 130.704 451.311 130.791 451.484C130.895 451.657 131.034 451.805 131.207 451.926C131.398 452.03 131.675 452.151 132.039 452.29C132.42 452.429 132.932 452.585 133.573 452.758C134.405 452.983 135.107 453.235 135.679 453.512C136.268 453.789 136.736 454.11 137.083 454.474C137.378 454.786 137.594 455.141 137.733 455.54C137.872 455.939 137.941 456.381 137.941 456.866C137.941 457.715 137.698 458.478 137.213 459.154C136.745 459.813 136.095 460.333 135.263 460.714C134.431 461.078 133.495 461.26 132.455 461.26ZM142.159 461V443.762H145.851V461H142.159ZM139.585 450.548V447.246H148.659V450.548H139.585ZM151.637 461V447.246H155.329V461H151.637ZM153.457 444.412C152.747 444.412 152.192 444.239 151.793 443.892C151.395 443.545 151.195 443.051 151.195 442.41C151.195 441.821 151.395 441.344 151.793 440.98C152.209 440.599 152.764 440.408 153.457 440.408C154.168 440.408 154.723 440.59 155.121 440.954C155.52 441.301 155.719 441.786 155.719 442.41C155.719 443.017 155.511 443.502 155.095 443.866C154.697 444.23 154.151 444.412 153.457 444.412ZM159.533 461V447.246H163.069L163.173 450.054L162.445 450.366C162.635 449.742 162.973 449.179 163.459 448.676C163.961 448.156 164.559 447.74 165.253 447.428C165.946 447.116 166.674 446.96 167.437 446.96C168.477 446.96 169.343 447.168 170.037 447.584C170.747 448 171.276 448.633 171.623 449.482C171.987 450.314 172.169 451.345 172.169 452.576V461H168.477V452.862C168.477 452.238 168.39 451.718 168.217 451.302C168.043 450.886 167.775 450.583 167.411 450.392C167.064 450.184 166.631 450.097 166.111 450.132C165.695 450.132 165.305 450.201 164.941 450.34C164.594 450.461 164.291 450.643 164.031 450.886C163.788 451.129 163.589 451.406 163.433 451.718C163.294 452.03 163.225 452.368 163.225 452.732V461H161.405C161.006 461 160.651 461 160.339 461C160.027 461 159.758 461 159.533 461ZM181.947 461.26C180.629 461.26 179.451 460.948 178.411 460.324C177.371 459.7 176.547 458.851 175.941 457.776C175.351 456.701 175.057 455.479 175.057 454.11C175.057 452.758 175.351 451.545 175.941 450.47C176.547 449.378 177.371 448.52 178.411 447.896C179.451 447.272 180.629 446.96 181.947 446.96C183.177 446.96 184.304 447.185 185.327 447.636C186.349 448.087 187.147 448.711 187.719 449.508L185.691 451.952C185.448 451.623 185.145 451.328 184.781 451.068C184.417 450.791 184.018 450.574 183.585 450.418C183.169 450.262 182.735 450.184 182.285 450.184C181.574 450.184 180.941 450.357 180.387 450.704C179.849 451.033 179.425 451.493 179.113 452.082C178.801 452.671 178.645 453.347 178.645 454.11C178.645 454.855 178.801 455.523 179.113 456.112C179.442 456.684 179.884 457.152 180.439 457.516C180.993 457.863 181.617 458.036 182.311 458.036C182.761 458.036 183.186 457.975 183.585 457.854C183.983 457.715 184.356 457.516 184.703 457.256C185.067 456.996 185.396 456.684 185.691 456.32L187.693 458.764C187.103 459.509 186.289 460.116 185.249 460.584C184.209 461.035 183.108 461.26 181.947 461.26ZM191.644 461V443.762H195.336V461H191.644ZM189.07 450.548V447.246H198.144V450.548H189.07Z" fill="#6D6D6D"/>
</g>
<path d="M75 528C74.9993 527.299 74.8141 526.61 74.4631 526.002C74.112 525.395 73.6075 524.891 73 524.54L59 516.54C58.3919 516.189 57.7021 516.004 57 516.004C56.2979 516.004 55.6081 516.189 55 516.54L41 524.54C40.3925 524.891 39.888 525.395 39.5369 526.002C39.1859 526.61 39.0007 527.299 39 528V544C39.0007 544.702 39.1859 545.39 39.5369 545.998C39.888 546.605 40.3925 547.109 41 547.46L55 555.46C55.6081 555.811 56.2979 555.996 57 555.996C57.7021 555.996 58.3919 555.811 59 555.46L73 547.46C73.6075 547.109 74.112 546.605 74.4631 545.998C74.8141 545.39 74.9993 544.702 75 544V528Z" stroke="#8C8C8C" stroke-width="4.02" stroke-linecap="round" stroke-linejoin="round"/>
<path d="M39.6 526L57 536L74.4 526" stroke="#8C8C8C" stroke-width="4.02" stroke-linecap="round" stroke-linejoin="round"/>
<path d="M57 556V536" stroke="#8C8C8C" stroke-width="4.02" stroke-linecap="round" stroke-linejoin="round"/>
<g filter="url(#filter5_d_123_275)">
<path d="M97.866 545V526.8H105.328C106.663 526.8 107.867 527.025 108.942 527.476C110.034 527.909 110.97 528.533 111.75 529.348C112.547 530.145 113.154 531.099 113.57 532.208C113.986 533.317 114.194 534.548 114.194 535.9C114.194 537.235 113.986 538.465 113.57 539.592C113.154 540.701 112.556 541.663 111.776 542.478C110.996 543.275 110.06 543.899 108.968 544.35C107.876 544.783 106.663 545 105.328 545H97.866ZM101.766 542.166L101.35 541.49H105.198C105.978 541.49 106.68 541.36 107.304 541.1C107.928 540.823 108.457 540.45 108.89 539.982C109.341 539.497 109.679 538.907 109.904 538.214C110.129 537.521 110.242 536.749 110.242 535.9C110.242 535.051 110.129 534.288 109.904 533.612C109.679 532.919 109.341 532.329 108.89 531.844C108.457 531.359 107.928 530.986 107.304 530.726C106.68 530.449 105.978 530.31 105.198 530.31H101.272L101.766 529.686V542.166ZM122.609 545.26C121.465 545.26 120.434 544.948 119.515 544.324C118.597 543.7 117.869 542.851 117.331 541.776C116.794 540.701 116.525 539.471 116.525 538.084C116.525 536.697 116.794 535.475 117.331 534.418C117.886 533.343 118.631 532.503 119.567 531.896C120.503 531.272 121.569 530.96 122.765 530.96C123.441 530.96 124.057 531.064 124.611 531.272C125.183 531.463 125.677 531.731 126.093 532.078C126.527 532.425 126.891 532.823 127.185 533.274C127.48 533.725 127.688 534.21 127.809 534.73L127.029 534.6V531.246H130.695V545H126.977V541.698L127.809 541.62C127.671 542.105 127.445 542.565 127.133 542.998C126.821 543.431 126.431 543.821 125.963 544.168C125.513 544.497 125.001 544.766 124.429 544.974C123.857 545.165 123.251 545.26 122.609 545.26ZM123.623 542.062C124.317 542.062 124.923 541.897 125.443 541.568C125.963 541.239 126.362 540.779 126.639 540.19C126.934 539.583 127.081 538.881 127.081 538.084C127.081 537.304 126.934 536.619 126.639 536.03C126.362 535.441 125.963 534.981 125.443 534.652C124.923 534.305 124.317 534.132 123.623 534.132C122.947 534.132 122.349 534.305 121.829 534.652C121.327 534.981 120.928 535.441 120.633 536.03C120.339 536.619 120.191 537.304 120.191 538.084C120.191 538.881 120.339 539.583 120.633 540.19C120.928 540.779 121.327 541.239 121.829 541.568C122.349 541.897 122.947 542.062 123.623 542.062ZM134.631 545V531.246H138.193L138.271 533.872L137.725 533.976C137.916 533.525 138.167 533.118 138.479 532.754C138.791 532.39 139.155 532.078 139.571 531.818C140.004 531.558 140.455 531.359 140.923 531.22C141.391 531.064 141.859 530.986 142.327 530.986C143.038 530.986 143.679 531.099 144.251 531.324C144.823 531.549 145.308 531.905 145.707 532.39C146.106 532.858 146.418 533.482 146.643 534.262L146.071 534.21L146.253 533.794C146.478 533.378 146.764 533.005 147.111 532.676C147.458 532.329 147.848 532.035 148.281 531.792C148.714 531.532 149.165 531.333 149.633 531.194C150.101 531.055 150.56 530.986 151.011 530.986C152.086 530.986 152.978 531.203 153.689 531.636C154.4 532.052 154.928 532.685 155.275 533.534C155.639 534.383 155.821 535.423 155.821 536.654V545H152.129V536.914C152.129 536.29 152.042 535.779 151.869 535.38C151.696 534.981 151.444 534.687 151.115 534.496C150.786 534.288 150.361 534.184 149.841 534.184C149.442 534.184 149.07 534.253 148.723 534.392C148.394 534.513 148.099 534.695 147.839 534.938C147.596 535.163 147.406 535.432 147.267 535.744C147.128 536.056 147.059 536.403 147.059 536.784V545H143.367V536.888C143.367 536.316 143.272 535.831 143.081 535.432C142.908 535.016 142.656 534.704 142.327 534.496C141.998 534.288 141.59 534.184 141.105 534.184C140.706 534.184 140.334 534.253 139.987 534.392C139.658 534.513 139.372 534.695 139.129 534.938C138.886 535.163 138.687 535.432 138.531 535.744C138.392 536.056 138.323 536.394 138.323 536.758V545H134.631ZM164.745 545.26C163.601 545.26 162.569 544.948 161.651 544.324C160.732 543.7 160.004 542.851 159.467 541.776C158.929 540.701 158.661 539.471 158.661 538.084C158.661 536.697 158.929 535.475 159.467 534.418C160.021 533.343 160.767 532.503 161.703 531.896C162.639 531.272 163.705 530.96 164.901 530.96C165.577 530.96 166.192 531.064 166.747 531.272C167.319 531.463 167.813 531.731 168.229 532.078C168.662 532.425 169.026 532.823 169.321 533.274C169.615 533.725 169.823 534.21 169.945 534.73L169.165 534.6V531.246H172.831V545H169.113V541.698L169.945 541.62C169.806 542.105 169.581 542.565 169.269 542.998C168.957 543.431 168.567 543.821 168.099 544.168C167.648 544.497 167.137 544.766 166.565 544.974C165.993 545.165 165.386 545.26 164.745 545.26ZM165.759 542.062C166.452 542.062 167.059 541.897 167.579 541.568C168.099 541.239 168.497 540.779 168.775 540.19C169.069 539.583 169.217 538.881 169.217 538.084C169.217 537.304 169.069 536.619 168.775 536.03C168.497 535.441 168.099 534.981 167.579 534.652C167.059 534.305 166.452 534.132 165.759 534.132C165.083 534.132 164.485 534.305 163.965 534.652C163.462 534.981 163.063 535.441 162.769 536.03C162.474 536.619 162.327 537.304 162.327 538.084C162.327 538.881 162.474 539.583 162.769 540.19C163.063 540.779 163.462 541.239 163.965 541.568C164.485 541.897 165.083 542.062 165.759 542.062ZM183.058 550.98C181.966 550.98 180.892 550.815 179.834 550.486C178.777 550.174 177.919 549.767 177.26 549.264L178.56 546.612C178.907 546.855 179.306 547.071 179.756 547.262C180.207 547.453 180.675 547.6 181.16 547.704C181.663 547.808 182.174 547.86 182.694 547.86C183.596 547.86 184.332 547.721 184.904 547.444C185.494 547.167 185.936 546.751 186.23 546.196C186.525 545.659 186.672 544.965 186.672 544.116V541.724L187.296 541.854C187.192 542.426 186.906 542.955 186.438 543.44C185.97 543.908 185.381 544.289 184.67 544.584C183.96 544.861 183.232 545 182.486 545C181.204 545 180.068 544.705 179.08 544.116C178.092 543.527 177.312 542.712 176.74 541.672C176.168 540.632 175.882 539.436 175.882 538.084C175.882 536.697 176.16 535.475 176.714 534.418C177.286 533.343 178.058 532.503 179.028 531.896C180.016 531.272 181.134 530.96 182.382 530.96C182.902 530.96 183.396 531.021 183.864 531.142C184.35 531.263 184.792 531.437 185.19 531.662C185.606 531.87 185.97 532.113 186.282 532.39C186.612 532.65 186.88 532.936 187.088 533.248C187.296 533.56 187.426 533.872 187.478 534.184L186.724 534.392L186.828 531.246H190.364V543.96C190.364 545.087 190.2 546.083 189.87 546.95C189.541 547.817 189.056 548.545 188.414 549.134C187.79 549.741 187.019 550.2 186.1 550.512C185.199 550.824 184.185 550.98 183.058 550.98ZM183.162 542.036C183.89 542.036 184.523 541.871 185.06 541.542C185.615 541.213 186.04 540.753 186.334 540.164C186.629 539.575 186.776 538.881 186.776 538.084C186.776 537.304 186.629 536.619 186.334 536.03C186.04 535.423 185.615 534.955 185.06 534.626C184.523 534.297 183.89 534.132 183.162 534.132C182.452 534.132 181.819 534.305 181.264 534.652C180.727 534.981 180.311 535.441 180.016 536.03C179.722 536.619 179.574 537.304 179.574 538.084C179.574 538.864 179.722 539.557 180.016 540.164C180.311 540.753 180.727 541.213 181.264 541.542C181.819 541.871 182.452 542.036 183.162 542.036ZM200.818 545.26C199.328 545.26 198.028 544.957 196.918 544.35C195.809 543.743 194.942 542.911 194.318 541.854C193.694 540.797 193.382 539.583 193.382 538.214C193.382 537.157 193.556 536.186 193.902 535.302C194.249 534.418 194.734 533.655 195.358 533.014C195.982 532.355 196.719 531.853 197.568 531.506C198.435 531.142 199.371 530.96 200.376 530.96C201.312 530.96 202.179 531.133 202.976 531.48C203.774 531.809 204.458 532.286 205.03 532.91C205.62 533.517 206.07 534.236 206.382 535.068C206.694 535.9 206.833 536.81 206.798 537.798L206.772 538.942H195.722L195.124 536.68H203.73L203.314 537.148V536.576C203.28 536.108 203.124 535.683 202.846 535.302C202.586 534.921 202.248 534.626 201.832 534.418C201.416 534.21 200.948 534.106 200.428 534.106C199.666 534.106 199.016 534.253 198.478 534.548C197.958 534.843 197.56 535.276 197.282 535.848C197.005 536.42 196.866 537.113 196.866 537.928C196.866 538.76 197.04 539.479 197.386 540.086C197.75 540.693 198.253 541.169 198.894 541.516C199.553 541.845 200.324 542.01 201.208 542.01C201.815 542.01 202.37 541.915 202.872 541.724C203.375 541.533 203.912 541.204 204.484 540.736L206.252 543.206C205.75 543.657 205.195 544.038 204.588 544.35C203.982 544.645 203.358 544.87 202.716 545.026C202.075 545.182 201.442 545.26 200.818 545.26ZM217.396 539.176V536.134H230.422V539.176H217.396ZM222.206 543.96V531.298H225.586V543.96H222.206ZM237.434 543.726V528.958L238.396 530.7L234.6 532.546L233.846 529.088L238.916 526.54H241.282V543.726H237.434ZM234.236 545V541.49H244.558V545H234.236ZM253.476 545.26C252.28 545.26 251.206 544.957 250.252 544.35C249.299 543.726 248.545 542.885 247.99 541.828C247.453 540.753 247.184 539.514 247.184 538.11C247.184 536.741 247.453 535.519 247.99 534.444C248.545 533.369 249.29 532.52 250.226 531.896C251.18 531.272 252.263 530.96 253.476 530.96C254.118 530.96 254.733 531.064 255.322 531.272C255.929 531.463 256.466 531.731 256.934 532.078C257.42 532.425 257.81 532.815 258.104 533.248C258.399 533.664 258.564 534.106 258.598 534.574L257.662 534.73V525.76H261.354V545H257.87L257.714 541.828L258.442 541.906C258.408 542.339 258.252 542.755 257.974 543.154C257.697 543.553 257.324 543.917 256.856 544.246C256.406 544.558 255.886 544.809 255.296 545C254.724 545.173 254.118 545.26 253.476 545.26ZM254.308 542.192C255.002 542.192 255.608 542.019 256.128 541.672C256.648 541.325 257.056 540.849 257.35 540.242C257.645 539.635 257.792 538.925 257.792 538.11C257.792 537.313 257.645 536.611 257.35 536.004C257.056 535.38 256.648 534.903 256.128 534.574C255.608 534.227 255.002 534.054 254.308 534.054C253.615 534.054 253.008 534.227 252.488 534.574C251.986 534.903 251.587 535.38 251.292 536.004C251.015 536.611 250.876 537.313 250.876 538.11C250.876 538.925 251.015 539.635 251.292 540.242C251.587 540.849 251.986 541.325 252.488 541.672C253.008 542.019 253.615 542.192 254.308 542.192ZM270.908 545C269.989 545 269.122 544.835 268.308 544.506C267.51 544.177 266.808 543.717 266.202 543.128C265.612 542.539 265.144 541.845 264.798 541.048C264.468 540.251 264.304 539.393 264.304 538.474C264.304 537.902 264.373 537.321 264.512 536.732C264.65 536.125 264.841 535.501 265.084 534.86C265.344 534.219 265.656 533.551 266.02 532.858C266.384 532.165 266.791 531.445 267.242 530.7L269.738 526.514H273.378L273.482 526.774L270.18 532.104C269.712 532.867 269.296 533.595 268.932 534.288C268.585 534.981 268.273 535.649 267.996 536.29C267.736 536.931 267.493 537.581 267.268 538.24L266.514 536.16C266.739 535.571 267.042 535.042 267.424 534.574C267.805 534.089 268.238 533.681 268.724 533.352C269.209 533.005 269.72 532.745 270.258 532.572C270.795 532.381 271.324 532.286 271.844 532.286C272.866 532.286 273.802 532.563 274.652 533.118C275.518 533.655 276.203 534.375 276.706 535.276C277.226 536.177 277.486 537.165 277.486 538.24C277.486 539.54 277.2 540.701 276.628 541.724C276.073 542.729 275.293 543.527 274.288 544.116C273.3 544.705 272.173 545 270.908 545ZM270.96 541.698C271.549 541.698 272.069 541.568 272.52 541.308C272.988 541.031 273.352 540.649 273.612 540.164C273.872 539.679 274.002 539.124 274.002 538.5C274.002 537.963 273.863 537.46 273.586 536.992C273.326 536.507 272.962 536.117 272.494 535.822C272.043 535.527 271.54 535.38 270.986 535.38C270.379 535.38 269.833 535.527 269.348 535.822C268.88 536.099 268.507 536.472 268.23 536.94C267.97 537.391 267.84 537.902 267.84 538.474C267.84 539.098 267.97 539.653 268.23 540.138C268.507 540.606 268.88 540.987 269.348 541.282C269.816 541.559 270.353 541.698 270.96 541.698Z" fill="#6D6D6D"/>
</g>
<g style="mix-blend-mode:multiply">
<rect width="400" height="640" rx="30" fill="#FF6969"/>
</g>
<defs>
<filter id="filter0_d_123_275" x="93.092" y="71.384" width="104.505" height="54.256" filterUnits="userSpaceOnUse" color-interpolation-filters="sRGB">
<feFlood flood-opacity="0" result="BackgroundImageFix"/>
<feColorMatrix in="SourceAlpha" type="matrix" values="0 0 0 0 0 0 0 0 0 0 0 0 0 0 0 0 0 0 127 0" result="hardAlpha"/>
<feOffset dy="1.5"/>
<feGaussianBlur stdDeviation="1.5"/>
<feColorMatrix type="matrix" values="0 0 0 0 0 0 0 0 0 0 0 0 0 0 0 0 0 0 0.15 0"/>
<feBlend mode="normal" in2="BackgroundImageFix" result="effect1_dropShadow_123_275"/>
<feBlend mode="normal" in="SourceGraphic" in2="effect1_dropShadow_123_275" result="shape"/>
</filter>
<filter id="filter1_d_123_275" x="93.098" y="171.76" width="167.783" height="58.5" filterUnits="userSpaceOnUse" color-interpolation-filters="sRGB">
<feFlood flood-opacity="0" result="BackgroundImageFix"/>
<feColorMatrix in="SourceAlpha" type="matrix" values="0 0 0 0 0 0 0 0 0 0 0 0 0 0 0 0 0 0 127 0" result="hardAlpha"/>
<feOffset dy="1.5"/>
<feGaussianBlur stdDeviation="1.5"/>
<feColorMatrix type="matrix" values="0 0 0 0 0 0 0 0 0 0 0 0 0 0 0 0 0 0 0.15 0"/>
<feBlend mode="normal" in2="BackgroundImageFix" result="effect1_dropShadow_123_275"/>
<feBlend mode="normal" in="SourceGraphic" in2="effect1_dropShadow_123_275" result="shape"/>
</filter>
<filter id="filter2_d_123_275" x="93.436" y="254.408" width="245.761" height="65.572" filterUnits="userSpaceOnUse" color-interpolation-filters="sRGB">
<feFlood flood-opacity="0" result="BackgroundImageFix"/>
<feColorMatrix in="SourceAlpha" type="matrix" values="0 0 0 0 0 0 0 0 0 0 0 0 0 0 0 0 0 0 127 0" result="hardAlpha"/>
<feOffset dy="1.5"/>
<feGaussianBlur stdDeviation="1.5"/>
<feColorMatrix type="matrix" values="0 0 0 0 0 0 0 0 0 0 0 0 0 0 0 0 0 0 0.15 0"/>
<feBlend mode="normal" in2="BackgroundImageFix" result="effect1_dropShadow_123_275"/>
<feBlend mode="normal" in="SourceGraphic" in2="effect1_dropShadow_123_275" result="shape"/>
</filter>
<filter id="filter3_d_123_275" x="94.866" y="354.908" width="253.546" height="31.61" filterUnits="userSpaceOnUse" color-interpolation-filters="sRGB">
<feFlood flood-opacity="0" result="BackgroundImageFix"/>
<feColorMatrix in="SourceAlpha" type="matrix" values="0 0 0 0 0 0 0 0 0 0 0 0 0 0 0 0 0 0 127 0" result="hardAlpha"/>
<feOffset dy="1.5"/>
<feGaussianBlur stdDeviation="1.5"/>
<feColorMatrix type="matrix" values="0 0 0 0 0 0 0 0 0 0 0 0 0 0 0 0 0 0 0.15 0"/>
<feBlend mode="normal" in2="BackgroundImageFix" result="effect1_dropShadow_123_275"/>
<feBlend mode="normal" in="SourceGraphic" in2="effect1_dropShadow_123_275" result="shape"/>
</filter>
<filter id="filter4_d_123_275" x="94.398" y="438.908" width="106.746" height="26.852" filterUnits="userSpaceOnUse" color-interpolation-filters="sRGB">
<feFlood flood-opacity="0" result="BackgroundImageFix"/>
<feColorMatrix in="SourceAlpha" type="matrix" values="0 0 0 0 0 0 0 0 0 0 0 0 0 0 0 0 0 0 127 0" result="hardAlpha"/>
<feOffset dy="1.5"/>
<feGaussianBlur stdDeviation="1.5"/>
<feColorMatrix type="matrix" values="0 0 0 0 0 0 0 0 0 0 0 0 0 0 0 0 0 0 0.15 0"/>
<feBlend mode="normal" in2="BackgroundImageFix" result="effect1_dropShadow_123_275"/>
<feBlend mode="normal" in="SourceGraphic" in2="effect1_dropShadow_123_275" result="shape"/>
</filter>
<filter id="filter5_d_123_275" x="94.866" y="524.26" width="185.62" height="31.22" filterUnits="userSpaceOnUse" color-interpolation-filters="sRGB">
<feFlood flood-opacity="0" result="BackgroundImageFix"/>
<feColorMatrix in="SourceAlpha" type="matrix" values="0 0 0 0 0 0 0 0 0 0 0 0 0 0 0 0 0 0 127 0" result="hardAlpha"/>
<feOffset dy="1.5"/>
<feGaussianBlur stdDeviation="1.5"/>
<feColorMatrix type="matrix" values="0 0 0 0 0 0 0 0 0 0 0 0 0 0 0 0 0 0 0.15 0"/>
<feBlend mode="normal" in2="BackgroundImageFix" result="effect1_dropShadow_123_275"/>
<feBlend mode="normal" in="SourceGraphic" in2="effect1_dropShadow_123_275" result="shape"/>
</filter>
</defs>
</svg>
