<svg width="400" height="640" viewBox="0 0 400 640" fill="none" xmlns="http://www.w3.org/2000/svg">
<rect x="7" y="7" width="386" height="626" rx="23" fill="#D9D9D9" stroke="#747474" stroke-width="14"/>
<path d="M57 78V82M57 114V118M42.86 83.86L45.68 86.68M68.32 109.32L71.14 112.14M37 98H41M73 98H77M45.68 109.32L42.86 112.14M71.14 83.86L68.32 86.68M65 98C65 102.418 61.4183 106 57 106C52.5817 106 49 102.418 49 98C49 93.5817 52.5817 90 57 90C61.4183 90 65 93.5817 65 98Z" stroke="#8C8C8C" stroke-width="4" stroke-linecap="round" stroke-linejoin="round"/>
<g filter="url(#filter0_d_124_27)">
<path d="M96.092 120.5V75.7H101.084V115.636H122.588V120.5H96.092ZM129.782 120.5V87.092H134.582V120.5H129.782ZM132.15 79.86C130.955 79.86 130.038 79.5613 129.398 78.964C128.801 78.324 128.502 77.4707 128.502 76.404C128.502 75.3373 128.822 74.484 129.462 73.844C130.102 73.204 130.998 72.884 132.15 72.884C133.302 72.884 134.198 73.204 134.838 73.844C135.478 74.4413 135.798 75.2947 135.798 76.404C135.798 77.428 135.478 78.26 134.838 78.9C134.198 79.54 133.302 79.86 132.15 79.86ZM157.545 135.22C155.07 135.22 152.723 134.836 150.505 134.068C148.286 133.3 146.451 132.34 145.001 131.188L146.92 127.156C147.774 127.839 148.755 128.436 149.865 128.948C151.017 129.503 152.254 129.929 153.577 130.228C154.899 130.569 156.243 130.74 157.609 130.74C160.083 130.74 162.174 130.271 163.881 129.332C165.63 128.436 166.953 127.092 167.849 125.3C168.787 123.508 169.257 121.289 169.257 118.644V112.244L170.025 112.052C169.641 113.673 168.809 115.188 167.529 116.596C166.249 117.961 164.691 119.071 162.857 119.924C161.022 120.735 159.081 121.14 157.033 121.14C153.918 121.14 151.123 120.393 148.649 118.9C146.217 117.407 144.297 115.359 142.889 112.756C141.481 110.111 140.776 107.124 140.776 103.796C140.776 100.425 141.481 97.4387 142.889 94.836C144.339 92.1907 146.281 90.1213 148.713 88.628C151.145 87.1347 153.875 86.388 156.905 86.388C158.227 86.388 159.507 86.5587 160.745 86.9C161.982 87.1987 163.113 87.6467 164.137 88.244C165.203 88.8413 166.163 89.524 167.017 90.292C167.87 91.06 168.574 91.892 169.129 92.788C169.726 93.684 170.153 94.6013 170.409 95.54L169.065 95.348L169.257 87.092H174.057V118.452C174.057 121.14 173.673 123.508 172.905 125.556C172.137 127.647 171.006 129.396 169.513 130.804C168.062 132.255 166.313 133.343 164.265 134.068C162.259 134.836 160.019 135.22 157.545 135.22ZM157.609 116.532C159.87 116.532 161.875 115.999 163.625 114.932C165.417 113.823 166.825 112.308 167.849 110.388C168.873 108.468 169.385 106.249 169.385 103.732C169.385 101.257 168.873 99.06 167.849 97.14C166.867 95.22 165.481 93.7053 163.689 92.596C161.897 91.4867 159.87 90.932 157.609 90.932C155.305 90.932 153.257 91.4867 151.465 92.596C149.715 93.7053 148.329 95.22 147.305 97.14C146.281 99.06 145.769 101.257 145.769 103.732C145.769 106.164 146.259 108.361 147.241 110.324C148.265 112.244 149.651 113.759 151.401 114.868C153.193 115.977 155.262 116.532 157.609 116.532ZM181.474 120.5V73.14H186.274V94.388L185.314 95.348C185.784 93.5987 186.658 92.0627 187.938 90.74C189.218 89.3747 190.712 88.308 192.418 87.54C194.168 86.772 195.938 86.388 197.73 86.388C200.29 86.388 202.424 86.8787 204.13 87.86C205.837 88.8413 207.096 90.356 207.906 92.404C208.76 94.452 209.187 97.0547 209.187 100.212V120.5H204.322V100.468C204.322 98.2493 204.024 96.436 203.426 95.028C202.872 93.5773 201.997 92.5107 200.802 91.828C199.608 91.1453 198.114 90.8253 196.322 90.868C194.914 90.868 193.592 91.124 192.354 91.636C191.117 92.1053 190.05 92.7667 189.154 93.62C188.258 94.4733 187.554 95.4547 187.042 96.564C186.53 97.6733 186.274 98.868 186.274 100.148V120.5H183.906C183.608 120.5 183.266 120.5 182.882 120.5C182.498 120.5 182.029 120.5 181.474 120.5ZM221.038 120.5V78.324H225.838V120.5H221.038ZM213.485 91.7V87.092H234.286V91.7H213.485Z" fill="#6D6D6D"/>
</g>
<path d="M57 202C58.1046 202 59 201.105 59 200C59 198.895 58.1046 198 57 198C55.8954 198 55 198.895 55 200C55 201.105 55.8954 202 57 202Z" stroke="#8C8C8C" stroke-width="4.02" stroke-linecap="round" stroke-linejoin="round"/>
<path d="M73.4 216.4C77.48 212.34 73.44 201.68 64.4 192.6C55.32 183.56 44.66 179.52 40.6 183.6C36.52 187.66 40.56 198.32 49.6 207.4C58.68 216.44 69.34 220.48 73.4 216.4Z" stroke="#8C8C8C" stroke-width="4.02" stroke-linecap="round" stroke-linejoin="round"/>
<path d="M64.4 207.4C73.44 198.32 77.48 187.66 73.4 183.6C69.34 179.52 58.68 183.56 49.6 192.6C40.56 201.68 36.52 212.34 40.6 216.4C44.66 220.48 55.32 216.44 64.4 207.4Z" stroke="#8C8C8C" stroke-width="4.02" stroke-linecap="round" stroke-linejoin="round"/>
<g filter="url(#filter1_d_124_27)">
<path d="M97.866 192.5V174.3H101.766V188.99H110.008V192.5H97.866ZM118.106 192.76C117.1 192.76 116.234 192.543 115.506 192.11C114.795 191.659 114.24 191.027 113.842 190.212C113.46 189.38 113.27 188.383 113.27 187.222V178.746H116.962V186.624C116.962 187.248 117.066 187.794 117.274 188.262C117.482 188.713 117.776 189.059 118.158 189.302C118.539 189.545 119.007 189.666 119.562 189.666C119.96 189.666 120.333 189.605 120.68 189.484C121.026 189.345 121.321 189.155 121.564 188.912C121.806 188.669 121.997 188.383 122.136 188.054C122.274 187.725 122.344 187.369 122.344 186.988V178.746H126.036V192.5H122.526L122.396 189.666L123.072 189.354C122.864 189.995 122.517 190.576 122.032 191.096C121.546 191.616 120.966 192.023 120.29 192.318C119.614 192.613 118.886 192.76 118.106 192.76ZM129.985 192.5V178.746H133.547L133.625 181.372L133.079 181.476C133.269 181.025 133.521 180.618 133.833 180.254C134.145 179.89 134.509 179.578 134.925 179.318C135.358 179.058 135.809 178.859 136.277 178.72C136.745 178.564 137.213 178.486 137.681 178.486C138.391 178.486 139.033 178.599 139.605 178.824C140.177 179.049 140.662 179.405 141.061 179.89C141.459 180.358 141.771 180.982 141.997 181.762L141.425 181.71L141.607 181.294C141.832 180.878 142.118 180.505 142.465 180.176C142.811 179.829 143.201 179.535 143.635 179.292C144.068 179.032 144.519 178.833 144.987 178.694C145.455 178.555 145.914 178.486 146.365 178.486C147.439 178.486 148.332 178.703 149.043 179.136C149.753 179.552 150.282 180.185 150.629 181.034C150.993 181.883 151.175 182.923 151.175 184.154V192.5H147.483V184.414C147.483 183.79 147.396 183.279 147.223 182.88C147.049 182.481 146.798 182.187 146.469 181.996C146.139 181.788 145.715 181.684 145.195 181.684C144.796 181.684 144.423 181.753 144.077 181.892C143.747 182.013 143.453 182.195 143.193 182.438C142.95 182.663 142.759 182.932 142.621 183.244C142.482 183.556 142.413 183.903 142.413 184.284V192.5H138.721V184.388C138.721 183.816 138.625 183.331 138.435 182.932C138.261 182.516 138.01 182.204 137.681 181.996C137.351 181.788 136.944 181.684 136.459 181.684C136.06 181.684 135.687 181.753 135.341 181.892C135.011 182.013 134.725 182.195 134.483 182.438C134.24 182.663 134.041 182.932 133.885 183.244C133.746 183.556 133.677 183.894 133.677 184.258V192.5H129.985ZM161.476 192.76C159.986 192.76 158.686 192.457 157.576 191.85C156.467 191.243 155.6 190.411 154.976 189.354C154.352 188.297 154.04 187.083 154.04 185.714C154.04 184.657 154.214 183.686 154.56 182.802C154.907 181.918 155.392 181.155 156.016 180.514C156.64 179.855 157.377 179.353 158.226 179.006C159.093 178.642 160.029 178.46 161.034 178.46C161.97 178.46 162.837 178.633 163.634 178.98C164.432 179.309 165.116 179.786 165.688 180.41C166.278 181.017 166.728 181.736 167.04 182.568C167.352 183.4 167.491 184.31 167.456 185.298L167.43 186.442H156.38L155.782 184.18H164.388L163.972 184.648V184.076C163.938 183.608 163.782 183.183 163.504 182.802C163.244 182.421 162.906 182.126 162.49 181.918C162.074 181.71 161.606 181.606 161.086 181.606C160.324 181.606 159.674 181.753 159.136 182.048C158.616 182.343 158.218 182.776 157.94 183.348C157.663 183.92 157.524 184.613 157.524 185.428C157.524 186.26 157.698 186.979 158.044 187.586C158.408 188.193 158.911 188.669 159.552 189.016C160.211 189.345 160.982 189.51 161.866 189.51C162.473 189.51 163.028 189.415 163.53 189.224C164.033 189.033 164.57 188.704 165.142 188.236L166.91 190.706C166.408 191.157 165.853 191.538 165.246 191.85C164.64 192.145 164.016 192.37 163.374 192.526C162.733 192.682 162.1 192.76 161.476 192.76ZM170.445 192.5V178.746H173.981L174.085 181.554L173.357 181.866C173.547 181.242 173.885 180.679 174.371 180.176C174.873 179.656 175.471 179.24 176.165 178.928C176.858 178.616 177.586 178.46 178.349 178.46C179.389 178.46 180.255 178.668 180.949 179.084C181.659 179.5 182.188 180.133 182.535 180.982C182.899 181.814 183.081 182.845 183.081 184.076V192.5H179.389V184.362C179.389 183.738 179.302 183.218 179.129 182.802C178.955 182.386 178.687 182.083 178.323 181.892C177.976 181.684 177.543 181.597 177.023 181.632C176.607 181.632 176.217 181.701 175.853 181.84C175.506 181.961 175.203 182.143 174.943 182.386C174.7 182.629 174.501 182.906 174.345 183.218C174.206 183.53 174.137 183.868 174.137 184.232V192.5H172.317C171.918 192.5 171.563 192.5 171.251 192.5C170.939 192.5 170.67 192.5 170.445 192.5ZM187.268 197.518L186.124 196.14C186.8 195.811 187.338 195.412 187.736 194.944C188.152 194.476 188.36 194.069 188.36 193.722C188.36 193.566 188.317 193.401 188.23 193.228C188.144 193.055 187.953 192.838 187.658 192.578C187.277 192.283 187.017 192.006 186.878 191.746C186.757 191.469 186.696 191.174 186.696 190.862C186.696 190.359 186.878 189.961 187.242 189.666C187.606 189.371 188.074 189.224 188.646 189.224C189.114 189.224 189.539 189.363 189.92 189.64C190.319 189.9 190.631 190.273 190.856 190.758C191.082 191.226 191.194 191.772 191.194 192.396C191.194 192.951 191.099 193.488 190.908 194.008C190.718 194.545 190.44 195.039 190.076 195.49C189.73 195.958 189.314 196.365 188.828 196.712C188.36 197.059 187.84 197.327 187.268 197.518ZM202.684 192.5V173.26H206.324V181.554L205.596 181.866C205.786 181.242 206.124 180.679 206.61 180.176C207.112 179.656 207.71 179.24 208.404 178.928C209.097 178.616 209.825 178.46 210.588 178.46C211.628 178.46 212.494 178.668 213.188 179.084C213.898 179.5 214.427 180.133 214.774 180.982C215.138 181.814 215.32 182.845 215.32 184.076V192.5H211.628V184.362C211.628 183.738 211.541 183.218 211.368 182.802C211.194 182.386 210.926 182.083 210.562 181.892C210.215 181.684 209.782 181.597 209.262 181.632C208.846 181.632 208.456 181.701 208.092 181.84C207.745 181.961 207.442 182.143 207.182 182.386C206.939 182.629 206.74 182.906 206.584 183.218C206.445 183.53 206.376 183.868 206.376 184.232V192.5H204.556C204.157 192.5 203.802 192.5 203.49 192.5C203.178 192.5 202.909 192.5 202.684 192.5ZM225.643 192.76C224.153 192.76 222.853 192.457 221.743 191.85C220.634 191.243 219.767 190.411 219.143 189.354C218.519 188.297 218.207 187.083 218.207 185.714C218.207 184.657 218.381 183.686 218.727 182.802C219.074 181.918 219.559 181.155 220.183 180.514C220.807 179.855 221.544 179.353 222.393 179.006C223.26 178.642 224.196 178.46 225.201 178.46C226.137 178.46 227.004 178.633 227.801 178.98C228.599 179.309 229.283 179.786 229.855 180.41C230.445 181.017 230.895 181.736 231.207 182.568C231.519 183.4 231.658 184.31 231.623 185.298L231.597 186.442H220.547L219.949 184.18H228.555L228.139 184.648V184.076C228.105 183.608 227.949 183.183 227.671 182.802C227.411 182.421 227.073 182.126 226.657 181.918C226.241 181.71 225.773 181.606 225.253 181.606C224.491 181.606 223.841 181.753 223.303 182.048C222.783 182.343 222.385 182.776 222.107 183.348C221.83 183.92 221.691 184.613 221.691 185.428C221.691 186.26 221.865 186.979 222.211 187.586C222.575 188.193 223.078 188.669 223.719 189.016C224.378 189.345 225.149 189.51 226.033 189.51C226.64 189.51 227.195 189.415 227.697 189.224C228.2 189.033 228.737 188.704 229.309 188.236L231.077 190.706C230.575 191.157 230.02 191.538 229.413 191.85C228.807 192.145 228.183 192.37 227.541 192.526C226.9 192.682 226.267 192.76 225.643 192.76ZM239.76 192.76C238.616 192.76 237.584 192.448 236.666 191.824C235.747 191.2 235.019 190.351 234.482 189.276C233.944 188.201 233.676 186.971 233.676 185.584C233.676 184.197 233.944 182.975 234.482 181.918C235.036 180.843 235.782 180.003 236.718 179.396C237.654 178.772 238.72 178.46 239.916 178.46C240.592 178.46 241.207 178.564 241.762 178.772C242.334 178.963 242.828 179.231 243.244 179.578C243.677 179.925 244.041 180.323 244.336 180.774C244.63 181.225 244.838 181.71 244.96 182.23L244.18 182.1V178.746H247.846V192.5H244.128V189.198L244.96 189.12C244.821 189.605 244.596 190.065 244.284 190.498C243.972 190.931 243.582 191.321 243.114 191.668C242.663 191.997 242.152 192.266 241.58 192.474C241.008 192.665 240.401 192.76 239.76 192.76ZM240.774 189.562C241.467 189.562 242.074 189.397 242.594 189.068C243.114 188.739 243.512 188.279 243.79 187.69C244.084 187.083 244.232 186.381 244.232 185.584C244.232 184.804 244.084 184.119 243.79 183.53C243.512 182.941 243.114 182.481 242.594 182.152C242.074 181.805 241.467 181.632 240.774 181.632C240.098 181.632 239.5 181.805 238.98 182.152C238.477 182.481 238.078 182.941 237.784 183.53C237.489 184.119 237.342 184.804 237.342 185.584C237.342 186.381 237.489 187.083 237.784 187.69C238.078 188.279 238.477 188.739 238.98 189.068C239.5 189.397 240.098 189.562 240.774 189.562ZM251.833 192.5V173.26H255.525V192.5H251.833ZM259.844 192.5V178.746H263.536V192.5H259.844ZM261.664 175.912C260.954 175.912 260.399 175.739 260 175.392C259.602 175.045 259.402 174.551 259.402 173.91C259.402 173.321 259.602 172.844 260 172.48C260.416 172.099 260.971 171.908 261.664 171.908C262.375 171.908 262.93 172.09 263.328 172.454C263.727 172.801 263.926 173.286 263.926 173.91C263.926 174.517 263.718 175.002 263.302 175.366C262.904 175.73 262.358 175.912 261.664 175.912ZM267.739 192.5V178.746H271.275L271.379 181.554L270.651 181.866C270.842 181.242 271.18 180.679 271.665 180.176C272.168 179.656 272.766 179.24 273.459 178.928C274.153 178.616 274.881 178.46 275.643 178.46C276.683 178.46 277.55 178.668 278.243 179.084C278.954 179.5 279.483 180.133 279.829 180.982C280.193 181.814 280.375 182.845 280.375 184.076V192.5H276.683V184.362C276.683 183.738 276.597 183.218 276.423 182.802C276.25 182.386 275.981 182.083 275.617 181.892C275.271 181.684 274.837 181.597 274.317 181.632C273.901 181.632 273.511 181.701 273.147 181.84C272.801 181.961 272.497 182.143 272.237 182.386C271.995 182.629 271.795 182.906 271.639 183.218C271.501 183.53 271.431 183.868 271.431 184.232V192.5H269.611C269.213 192.5 268.857 192.5 268.545 192.5C268.233 192.5 267.965 192.5 267.739 192.5ZM290.439 198.48C289.347 198.48 288.273 198.315 287.215 197.986C286.158 197.674 285.3 197.267 284.641 196.764L285.941 194.112C286.288 194.355 286.687 194.571 287.137 194.762C287.588 194.953 288.056 195.1 288.541 195.204C289.044 195.308 289.555 195.36 290.075 195.36C290.977 195.36 291.713 195.221 292.285 194.944C292.875 194.667 293.317 194.251 293.611 193.696C293.906 193.159 294.053 192.465 294.053 191.616V189.224L294.677 189.354C294.573 189.926 294.287 190.455 293.819 190.94C293.351 191.408 292.762 191.789 292.051 192.084C291.341 192.361 290.613 192.5 289.867 192.5C288.585 192.5 287.449 192.205 286.461 191.616C285.473 191.027 284.693 190.212 284.121 189.172C283.549 188.132 283.263 186.936 283.263 185.584C283.263 184.197 283.541 182.975 284.095 181.918C284.667 180.843 285.439 180.003 286.409 179.396C287.397 178.772 288.515 178.46 289.763 178.46C290.283 178.46 290.777 178.521 291.245 178.642C291.731 178.763 292.173 178.937 292.571 179.162C292.987 179.37 293.351 179.613 293.663 179.89C293.993 180.15 294.261 180.436 294.469 180.748C294.677 181.06 294.807 181.372 294.859 181.684L294.105 181.892L294.209 178.746H297.745V191.46C297.745 192.587 297.581 193.583 297.251 194.45C296.922 195.317 296.437 196.045 295.795 196.634C295.171 197.241 294.4 197.7 293.481 198.012C292.58 198.324 291.566 198.48 290.439 198.48ZM290.543 189.536C291.271 189.536 291.904 189.371 292.441 189.042C292.996 188.713 293.421 188.253 293.715 187.664C294.01 187.075 294.157 186.381 294.157 185.584C294.157 184.804 294.01 184.119 293.715 183.53C293.421 182.923 292.996 182.455 292.441 182.126C291.904 181.797 291.271 181.632 290.543 181.632C289.833 181.632 289.2 181.805 288.645 182.152C288.108 182.481 287.692 182.941 287.397 183.53C287.103 184.119 286.955 184.804 286.955 185.584C286.955 186.364 287.103 187.057 287.397 187.664C287.692 188.253 288.108 188.713 288.645 189.042C289.2 189.371 289.833 189.536 290.543 189.536ZM301.987 197.518L300.843 196.14C301.519 195.811 302.057 195.412 302.455 194.944C302.871 194.476 303.079 194.069 303.079 193.722C303.079 193.566 303.036 193.401 302.949 193.228C302.863 193.055 302.672 192.838 302.377 192.578C301.996 192.283 301.736 192.006 301.597 191.746C301.476 191.469 301.415 191.174 301.415 190.862C301.415 190.359 301.597 189.961 301.961 189.666C302.325 189.371 302.793 189.224 303.365 189.224C303.833 189.224 304.258 189.363 304.639 189.64C305.038 189.9 305.35 190.273 305.575 190.758C305.801 191.226 305.913 191.772 305.913 192.396C305.913 192.951 305.818 193.488 305.627 194.008C305.437 194.545 305.159 195.039 304.795 195.49C304.449 195.958 304.033 196.365 303.547 196.712C303.079 197.059 302.559 197.327 301.987 197.518ZM103.872 225.76C102.381 225.76 101.081 225.457 99.972 224.85C98.8627 224.243 97.996 223.411 97.372 222.354C96.748 221.297 96.436 220.083 96.436 218.714C96.436 217.657 96.6093 216.686 96.956 215.802C97.3027 214.918 97.788 214.155 98.412 213.514C99.036 212.855 99.7727 212.353 100.622 212.006C101.489 211.642 102.425 211.46 103.43 211.46C104.366 211.46 105.233 211.633 106.03 211.98C106.827 212.309 107.512 212.786 108.084 213.41C108.673 214.017 109.124 214.736 109.436 215.568C109.748 216.4 109.887 217.31 109.852 218.298L109.826 219.442H98.776L98.178 217.18H106.784L106.368 217.648V217.076C106.333 216.608 106.177 216.183 105.9 215.802C105.64 215.421 105.302 215.126 104.886 214.918C104.47 214.71 104.002 214.606 103.482 214.606C102.719 214.606 102.069 214.753 101.532 215.048C101.012 215.343 100.613 215.776 100.336 216.348C100.059 216.92 99.92 217.613 99.92 218.428C99.92 219.26 100.093 219.979 100.44 220.586C100.804 221.193 101.307 221.669 101.948 222.016C102.607 222.345 103.378 222.51 104.262 222.51C104.869 222.51 105.423 222.415 105.926 222.224C106.429 222.033 106.966 221.704 107.538 221.236L109.306 223.706C108.803 224.157 108.249 224.538 107.642 224.85C107.035 225.145 106.411 225.37 105.77 225.526C105.129 225.682 104.496 225.76 103.872 225.76ZM112.84 225.5V211.746H116.376L116.48 214.554L115.752 214.866C115.943 214.242 116.281 213.679 116.766 213.176C117.269 212.656 117.867 212.24 118.56 211.928C119.254 211.616 119.982 211.46 120.744 211.46C121.784 211.46 122.651 211.668 123.344 212.084C124.055 212.5 124.584 213.133 124.93 213.982C125.294 214.814 125.476 215.845 125.476 217.076V225.5H121.784V217.362C121.784 216.738 121.698 216.218 121.524 215.802C121.351 215.386 121.082 215.083 120.718 214.892C120.372 214.684 119.938 214.597 119.418 214.632C119.002 214.632 118.612 214.701 118.248 214.84C117.902 214.961 117.598 215.143 117.338 215.386C117.096 215.629 116.896 215.906 116.74 216.218C116.602 216.53 116.532 216.868 116.532 217.232V225.5H114.712C114.314 225.5 113.958 225.5 113.646 225.5C113.334 225.5 113.066 225.5 112.84 225.5ZM129.274 225.5V206.26H132.914V214.554L132.186 214.866C132.377 214.242 132.715 213.679 133.2 213.176C133.703 212.656 134.301 212.24 134.994 211.928C135.688 211.616 136.416 211.46 137.178 211.46C138.218 211.46 139.085 211.668 139.778 212.084C140.489 212.5 141.018 213.133 141.364 213.982C141.728 214.814 141.91 215.845 141.91 217.076V225.5H138.218V217.362C138.218 216.738 138.132 216.218 137.958 215.802C137.785 215.386 137.516 215.083 137.152 214.892C136.806 214.684 136.372 214.597 135.852 214.632C135.436 214.632 135.046 214.701 134.682 214.84C134.336 214.961 134.032 215.143 133.772 215.386C133.53 215.629 133.33 215.906 133.174 216.218C133.036 216.53 132.966 216.868 132.966 217.232V225.5H131.146C130.748 225.5 130.392 225.5 130.08 225.5C129.768 225.5 129.5 225.5 129.274 225.5ZM150.856 225.76C149.712 225.76 148.681 225.448 147.762 224.824C146.843 224.2 146.115 223.351 145.578 222.276C145.041 221.201 144.772 219.971 144.772 218.584C144.772 217.197 145.041 215.975 145.578 214.918C146.133 213.843 146.878 213.003 147.814 212.396C148.75 211.772 149.816 211.46 151.012 211.46C151.688 211.46 152.303 211.564 152.858 211.772C153.43 211.963 153.924 212.231 154.34 212.578C154.773 212.925 155.137 213.323 155.432 213.774C155.727 214.225 155.935 214.71 156.056 215.23L155.276 215.1V211.746H158.942V225.5H155.224V222.198L156.056 222.12C155.917 222.605 155.692 223.065 155.38 223.498C155.068 223.931 154.678 224.321 154.21 224.668C153.759 224.997 153.248 225.266 152.676 225.474C152.104 225.665 151.497 225.76 150.856 225.76ZM151.87 222.562C152.563 222.562 153.17 222.397 153.69 222.068C154.21 221.739 154.609 221.279 154.886 220.69C155.181 220.083 155.328 219.381 155.328 218.584C155.328 217.804 155.181 217.119 154.886 216.53C154.609 215.941 154.21 215.481 153.69 215.152C153.17 214.805 152.563 214.632 151.87 214.632C151.194 214.632 150.596 214.805 150.076 215.152C149.573 215.481 149.175 215.941 148.88 216.53C148.585 217.119 148.438 217.804 148.438 218.584C148.438 219.381 148.585 220.083 148.88 220.69C149.175 221.279 149.573 221.739 150.076 222.068C150.596 222.397 151.194 222.562 151.87 222.562ZM162.904 225.5V211.746H166.44L166.544 214.554L165.816 214.866C166.006 214.242 166.344 213.679 166.83 213.176C167.332 212.656 167.93 212.24 168.624 211.928C169.317 211.616 170.045 211.46 170.808 211.46C171.848 211.46 172.714 211.668 173.408 212.084C174.118 212.5 174.647 213.133 174.994 213.982C175.358 214.814 175.54 215.845 175.54 217.076V225.5H171.848V217.362C171.848 216.738 171.761 216.218 171.588 215.802C171.414 215.386 171.146 215.083 170.782 214.892C170.435 214.684 170.002 214.597 169.482 214.632C169.066 214.632 168.676 214.701 168.312 214.84C167.965 214.961 167.662 215.143 167.402 215.386C167.159 215.629 166.96 215.906 166.804 216.218C166.665 216.53 166.596 216.868 166.596 217.232V225.5H164.776C164.377 225.5 164.022 225.5 163.71 225.5C163.398 225.5 163.129 225.5 162.904 225.5ZM185.317 225.76C184 225.76 182.821 225.448 181.781 224.824C180.741 224.2 179.918 223.351 179.311 222.276C178.722 221.201 178.427 219.979 178.427 218.61C178.427 217.258 178.722 216.045 179.311 214.97C179.918 213.878 180.741 213.02 181.781 212.396C182.821 211.772 184 211.46 185.317 211.46C186.548 211.46 187.675 211.685 188.697 212.136C189.72 212.587 190.517 213.211 191.089 214.008L189.061 216.452C188.819 216.123 188.515 215.828 188.151 215.568C187.787 215.291 187.389 215.074 186.955 214.918C186.539 214.762 186.106 214.684 185.655 214.684C184.945 214.684 184.312 214.857 183.757 215.204C183.22 215.533 182.795 215.993 182.483 216.582C182.171 217.171 182.015 217.847 182.015 218.61C182.015 219.355 182.171 220.023 182.483 220.612C182.813 221.184 183.255 221.652 183.809 222.016C184.364 222.363 184.988 222.536 185.681 222.536C186.132 222.536 186.557 222.475 186.955 222.354C187.354 222.215 187.727 222.016 188.073 221.756C188.437 221.496 188.767 221.184 189.061 220.82L191.063 223.264C190.474 224.009 189.659 224.616 188.619 225.084C187.579 225.535 186.479 225.76 185.317 225.76ZM200.215 225.76C198.725 225.76 197.425 225.457 196.315 224.85C195.206 224.243 194.339 223.411 193.715 222.354C193.091 221.297 192.779 220.083 192.779 218.714C192.779 217.657 192.953 216.686 193.299 215.802C193.646 214.918 194.131 214.155 194.755 213.514C195.379 212.855 196.116 212.353 196.965 212.006C197.832 211.642 198.768 211.46 199.773 211.46C200.709 211.46 201.576 211.633 202.373 211.98C203.171 212.309 203.855 212.786 204.427 213.41C205.017 214.017 205.467 214.736 205.779 215.568C206.091 216.4 206.23 217.31 206.195 218.298L206.169 219.442H195.119L194.521 217.18H203.127L202.711 217.648V217.076C202.677 216.608 202.521 216.183 202.243 215.802C201.983 215.421 201.645 215.126 201.229 214.918C200.813 214.71 200.345 214.606 199.825 214.606C199.063 214.606 198.413 214.753 197.875 215.048C197.355 215.343 196.957 215.776 196.679 216.348C196.402 216.92 196.263 217.613 196.263 218.428C196.263 219.26 196.437 219.979 196.783 220.586C197.147 221.193 197.65 221.669 198.291 222.016C198.95 222.345 199.721 222.51 200.605 222.51C201.212 222.51 201.767 222.415 202.269 222.224C202.772 222.033 203.309 221.704 203.881 221.236L205.649 223.706C205.147 224.157 204.592 224.538 203.985 224.85C203.379 225.145 202.755 225.37 202.113 225.526C201.472 225.682 200.839 225.76 200.215 225.76ZM209.158 225.5V211.746H212.72L212.798 214.372L212.252 214.476C212.442 214.025 212.694 213.618 213.006 213.254C213.318 212.89 213.682 212.578 214.098 212.318C214.531 212.058 214.982 211.859 215.45 211.72C215.918 211.564 216.386 211.486 216.854 211.486C217.564 211.486 218.206 211.599 218.778 211.824C219.35 212.049 219.835 212.405 220.234 212.89C220.632 213.358 220.944 213.982 221.17 214.762L220.598 214.71L220.78 214.294C221.005 213.878 221.291 213.505 221.638 213.176C221.984 212.829 222.374 212.535 222.808 212.292C223.241 212.032 223.692 211.833 224.16 211.694C224.628 211.555 225.087 211.486 225.538 211.486C226.612 211.486 227.505 211.703 228.216 212.136C228.926 212.552 229.455 213.185 229.802 214.034C230.166 214.883 230.348 215.923 230.348 217.154V225.5H226.656V217.414C226.656 216.79 226.569 216.279 226.396 215.88C226.222 215.481 225.971 215.187 225.642 214.996C225.312 214.788 224.888 214.684 224.368 214.684C223.969 214.684 223.596 214.753 223.25 214.892C222.92 215.013 222.626 215.195 222.366 215.438C222.123 215.663 221.932 215.932 221.794 216.244C221.655 216.556 221.586 216.903 221.586 217.284V225.5H217.894V217.388C217.894 216.816 217.798 216.331 217.608 215.932C217.434 215.516 217.183 215.204 216.854 214.996C216.524 214.788 216.117 214.684 215.632 214.684C215.233 214.684 214.86 214.753 214.514 214.892C214.184 215.013 213.898 215.195 213.656 215.438C213.413 215.663 213.214 215.932 213.058 216.244C212.919 216.556 212.85 216.894 212.85 217.258V225.5H209.158ZM240.649 225.76C239.159 225.76 237.859 225.457 236.749 224.85C235.64 224.243 234.773 223.411 234.149 222.354C233.525 221.297 233.213 220.083 233.213 218.714C233.213 217.657 233.387 216.686 233.733 215.802C234.08 214.918 234.565 214.155 235.189 213.514C235.813 212.855 236.55 212.353 237.399 212.006C238.266 211.642 239.202 211.46 240.207 211.46C241.143 211.46 242.01 211.633 242.807 211.98C243.605 212.309 244.289 212.786 244.861 213.41C245.451 214.017 245.901 214.736 246.213 215.568C246.525 216.4 246.664 217.31 246.629 218.298L246.603 219.442H235.553L234.955 217.18H243.561L243.145 217.648V217.076C243.111 216.608 242.955 216.183 242.677 215.802C242.417 215.421 242.079 215.126 241.663 214.918C241.247 214.71 240.779 214.606 240.259 214.606C239.497 214.606 238.847 214.753 238.309 215.048C237.789 215.343 237.391 215.776 237.113 216.348C236.836 216.92 236.697 217.613 236.697 218.428C236.697 219.26 236.871 219.979 237.217 220.586C237.581 221.193 238.084 221.669 238.725 222.016C239.384 222.345 240.155 222.51 241.039 222.51C241.646 222.51 242.201 222.415 242.703 222.224C243.206 222.033 243.743 221.704 244.315 221.236L246.083 223.706C245.581 224.157 245.026 224.538 244.419 224.85C243.813 225.145 243.189 225.37 242.547 225.526C241.906 225.682 241.273 225.76 240.649 225.76ZM249.618 225.5V211.746H253.154L253.258 214.554L252.53 214.866C252.72 214.242 253.058 213.679 253.544 213.176C254.046 212.656 254.644 212.24 255.338 211.928C256.031 211.616 256.759 211.46 257.522 211.46C258.562 211.46 259.428 211.668 260.122 212.084C260.832 212.5 261.361 213.133 261.708 213.982C262.072 214.814 262.254 215.845 262.254 217.076V225.5H258.562V217.362C258.562 216.738 258.475 216.218 258.302 215.802C258.128 215.386 257.86 215.083 257.496 214.892C257.149 214.684 256.716 214.597 256.196 214.632C255.78 214.632 255.39 214.701 255.026 214.84C254.679 214.961 254.376 215.143 254.116 215.386C253.873 215.629 253.674 215.906 253.518 216.218C253.379 216.53 253.31 216.868 253.31 217.232V225.5H251.49C251.091 225.5 250.736 225.5 250.424 225.5C250.112 225.5 249.843 225.5 249.618 225.5ZM267.377 225.5V208.262H271.069V225.5H267.377ZM264.803 215.048V211.746H273.877V215.048H264.803Z" fill="#6D6D6D"/>
</g>
<path d="M55.034 265.628C55.1197 265.169 55.3631 264.755 55.7222 264.457C56.0812 264.158 56.5333 263.995 57 263.995C57.4667 263.995 57.9188 264.158 58.2778 264.457C58.6369 264.755 58.8803 265.169 58.966 265.628L61.068 276.744C61.2173 277.534 61.6014 278.261 62.1701 278.83C62.7388 279.399 63.4657 279.783 64.256 279.932L75.372 282.034C75.8308 282.12 76.2452 282.363 76.5434 282.722C76.8416 283.081 77.0048 283.533 77.0048 284C77.0048 284.467 76.8416 284.919 76.5434 285.278C76.2452 285.637 75.8308 285.88 75.372 285.966L64.256 288.068C63.4657 288.217 62.7388 288.601 62.1701 289.17C61.6014 289.739 61.2173 290.466 61.068 291.256L58.966 302.372C58.8803 302.831 58.6369 303.245 58.2778 303.543C57.9188 303.842 57.4667 304.005 57 304.005C56.5333 304.005 56.0812 303.842 55.7222 303.543C55.3631 303.245 55.1197 302.831 55.034 302.372L52.932 291.256C52.7827 290.466 52.3986 289.739 51.8299 289.17C51.2612 288.601 50.5343 288.217 49.744 288.068L38.628 285.966C38.1692 285.88 37.7548 285.637 37.4566 285.278C37.1584 284.919 36.9952 284.467 36.9952 284C36.9952 283.533 37.1584 283.081 37.4566 282.722C37.7548 282.363 38.1692 282.12 38.628 282.034L49.744 279.932C50.5343 279.783 51.2612 279.399 51.8299 278.83C52.3986 278.261 52.7827 277.534 52.932 276.744L55.034 265.628Z" stroke="#8C8C8C" stroke-width="4.02" stroke-linecap="round" stroke-linejoin="round"/>
<path d="M73 264V272" stroke="#8C8C8C" stroke-width="4.02" stroke-linecap="round" stroke-linejoin="round"/>
<path d="M77 268H69" stroke="#8C8C8C" stroke-width="4.02" stroke-linecap="round" stroke-linejoin="round"/>
<path d="M41 304C43.2091 304 45 302.209 45 300C45 297.791 43.2091 296 41 296C38.7909 296 37 297.791 37 300C37 302.209 38.7909 304 41 304Z" stroke="#8C8C8C" stroke-width="4.02" stroke-linecap="round" stroke-linejoin="round"/>
<g filter="url(#filter2_d_124_27)">
<path d="M97.866 276.5V258.3H105.926C107.053 258.3 108.075 258.56 108.994 259.08C109.913 259.583 110.632 260.267 111.152 261.134C111.689 262.001 111.958 262.989 111.958 264.098C111.958 265.19 111.689 266.187 111.152 267.088C110.632 267.972 109.913 268.674 108.994 269.194C108.075 269.714 107.053 269.974 105.926 269.974H101.636V276.5H97.866ZM108.188 276.5L103.56 268.284L107.564 267.634L112.712 276.526L108.188 276.5ZM101.636 266.802H105.744C106.212 266.802 106.619 266.698 106.966 266.49C107.33 266.265 107.607 265.961 107.798 265.58C107.989 265.181 108.084 264.739 108.084 264.254C108.084 263.734 107.971 263.283 107.746 262.902C107.521 262.521 107.191 262.226 106.758 262.018C106.325 261.793 105.822 261.68 105.25 261.68H101.636V266.802ZM121.829 276.76C120.339 276.76 119.039 276.457 117.929 275.85C116.82 275.243 115.953 274.411 115.329 273.354C114.705 272.297 114.393 271.083 114.393 269.714C114.393 268.657 114.567 267.686 114.913 266.802C115.26 265.918 115.745 265.155 116.369 264.514C116.993 263.855 117.73 263.353 118.579 263.006C119.446 262.642 120.382 262.46 121.387 262.46C122.323 262.46 123.19 262.633 123.987 262.98C124.785 263.309 125.469 263.786 126.041 264.41C126.631 265.017 127.081 265.736 127.393 266.568C127.705 267.4 127.844 268.31 127.809 269.298L127.783 270.442H116.733L116.135 268.18H124.741L124.325 268.648V268.076C124.291 267.608 124.135 267.183 123.857 266.802C123.597 266.421 123.259 266.126 122.843 265.918C122.427 265.71 121.959 265.606 121.439 265.606C120.677 265.606 120.027 265.753 119.489 266.048C118.969 266.343 118.571 266.776 118.293 267.348C118.016 267.92 117.877 268.613 117.877 269.428C117.877 270.26 118.051 270.979 118.397 271.586C118.761 272.193 119.264 272.669 119.905 273.016C120.564 273.345 121.335 273.51 122.219 273.51C122.826 273.51 123.381 273.415 123.883 273.224C124.386 273.033 124.923 272.704 125.495 272.236L127.263 274.706C126.761 275.157 126.206 275.538 125.599 275.85C124.993 276.145 124.369 276.37 123.727 276.526C123.086 276.682 122.453 276.76 121.829 276.76ZM135.426 276.76C134.143 276.76 132.999 276.552 131.994 276.136C131.006 275.703 130.208 275.113 129.602 274.368L131.89 272.392C132.427 272.964 133.025 273.38 133.684 273.64C134.342 273.883 135.001 274.004 135.66 274.004C135.92 274.004 136.154 273.978 136.362 273.926C136.587 273.857 136.778 273.77 136.934 273.666C137.09 273.545 137.202 273.406 137.272 273.25C137.358 273.077 137.402 272.895 137.402 272.704C137.402 272.323 137.246 272.019 136.934 271.794C136.76 271.707 136.492 271.603 136.128 271.482C135.764 271.343 135.296 271.196 134.724 271.04C133.84 270.815 133.086 270.555 132.462 270.26C131.855 269.948 131.37 269.601 131.006 269.22C130.694 268.856 130.451 268.466 130.278 268.05C130.122 267.617 130.044 267.14 130.044 266.62C130.044 265.996 130.182 265.433 130.46 264.93C130.737 264.41 131.118 263.968 131.604 263.604C132.106 263.24 132.678 262.963 133.32 262.772C133.961 262.564 134.637 262.46 135.348 262.46C136.058 262.46 136.752 262.547 137.428 262.72C138.104 262.893 138.728 263.145 139.3 263.474C139.889 263.786 140.4 264.159 140.834 264.592L138.858 266.776C138.546 266.481 138.19 266.213 137.792 265.97C137.41 265.727 137.012 265.537 136.596 265.398C136.18 265.259 135.807 265.19 135.478 265.19C135.183 265.19 134.914 265.216 134.672 265.268C134.446 265.32 134.256 265.398 134.1 265.502C133.944 265.606 133.822 265.745 133.736 265.918C133.666 266.074 133.632 266.247 133.632 266.438C133.632 266.629 133.675 266.811 133.762 266.984C133.866 267.157 134.004 267.305 134.178 267.426C134.368 267.53 134.646 267.651 135.01 267.79C135.391 267.929 135.902 268.085 136.544 268.258C137.376 268.483 138.078 268.735 138.65 269.012C139.239 269.289 139.707 269.61 140.054 269.974C140.348 270.286 140.565 270.641 140.704 271.04C140.842 271.439 140.912 271.881 140.912 272.366C140.912 273.215 140.669 273.978 140.184 274.654C139.716 275.313 139.066 275.833 138.234 276.214C137.402 276.578 136.466 276.76 135.426 276.76ZM143.804 282.22V262.746H147.366L147.47 265.84L146.794 265.606C146.915 265.051 147.21 264.54 147.678 264.072C148.163 263.604 148.761 263.223 149.472 262.928C150.182 262.633 150.928 262.486 151.708 262.486C152.904 262.486 153.961 262.798 154.88 263.422C155.816 264.029 156.552 264.869 157.09 265.944C157.644 267.001 157.922 268.223 157.922 269.61C157.922 270.979 157.653 272.201 157.116 273.276C156.578 274.351 155.842 275.2 154.906 275.824C153.97 276.431 152.904 276.734 151.708 276.734C150.91 276.734 150.148 276.587 149.42 276.292C148.709 275.98 148.102 275.573 147.6 275.07C147.097 274.567 146.785 274.03 146.664 273.458L147.522 273.094V282.22H143.804ZM150.876 273.562C151.552 273.562 152.15 273.397 152.67 273.068C153.19 272.739 153.597 272.279 153.892 271.69C154.186 271.083 154.334 270.39 154.334 269.61C154.334 268.83 154.186 268.145 153.892 267.556C153.597 266.967 153.19 266.507 152.67 266.178C152.167 265.849 151.569 265.684 150.876 265.684C150.182 265.684 149.576 265.849 149.056 266.178C148.536 266.49 148.128 266.949 147.834 267.556C147.539 268.145 147.392 268.83 147.392 269.61C147.392 270.39 147.539 271.083 147.834 271.69C148.128 272.279 148.536 272.739 149.056 273.068C149.576 273.397 150.182 273.562 150.876 273.562ZM167.5 276.76C166.009 276.76 164.709 276.457 163.6 275.85C162.491 275.243 161.624 274.411 161 273.354C160.376 272.297 160.064 271.083 160.064 269.714C160.064 268.657 160.237 267.686 160.584 266.802C160.931 265.918 161.416 265.155 162.04 264.514C162.664 263.855 163.401 263.353 164.25 263.006C165.117 262.642 166.053 262.46 167.058 262.46C167.994 262.46 168.861 262.633 169.658 262.98C170.455 263.309 171.14 263.786 171.712 264.41C172.301 265.017 172.752 265.736 173.064 266.568C173.376 267.4 173.515 268.31 173.48 269.298L173.454 270.442H162.404L161.806 268.18H170.412L169.996 268.648V268.076C169.961 267.608 169.805 267.183 169.528 266.802C169.268 266.421 168.93 266.126 168.514 265.918C168.098 265.71 167.63 265.606 167.11 265.606C166.347 265.606 165.697 265.753 165.16 266.048C164.64 266.343 164.241 266.776 163.964 267.348C163.687 267.92 163.548 268.613 163.548 269.428C163.548 270.26 163.721 270.979 164.068 271.586C164.432 272.193 164.935 272.669 165.576 273.016C166.235 273.345 167.006 273.51 167.89 273.51C168.497 273.51 169.051 273.415 169.554 273.224C170.057 273.033 170.594 272.704 171.166 272.236L172.934 274.706C172.431 275.157 171.877 275.538 171.27 275.85C170.663 276.145 170.039 276.37 169.398 276.526C168.757 276.682 168.124 276.76 167.5 276.76ZM182.448 276.76C181.131 276.76 179.952 276.448 178.912 275.824C177.872 275.2 177.049 274.351 176.442 273.276C175.853 272.201 175.558 270.979 175.558 269.61C175.558 268.258 175.853 267.045 176.442 265.97C177.049 264.878 177.872 264.02 178.912 263.396C179.952 262.772 181.131 262.46 182.448 262.46C183.679 262.46 184.806 262.685 185.828 263.136C186.851 263.587 187.648 264.211 188.22 265.008L186.192 267.452C185.95 267.123 185.646 266.828 185.282 266.568C184.918 266.291 184.52 266.074 184.086 265.918C183.67 265.762 183.237 265.684 182.786 265.684C182.076 265.684 181.443 265.857 180.888 266.204C180.351 266.533 179.926 266.993 179.614 267.582C179.302 268.171 179.146 268.847 179.146 269.61C179.146 270.355 179.302 271.023 179.614 271.612C179.944 272.184 180.386 272.652 180.94 273.016C181.495 273.363 182.119 273.536 182.812 273.536C183.263 273.536 183.688 273.475 184.086 273.354C184.485 273.215 184.858 273.016 185.204 272.756C185.568 272.496 185.898 272.184 186.192 271.82L188.194 274.264C187.605 275.009 186.79 275.616 185.75 276.084C184.71 276.535 183.61 276.76 182.448 276.76ZM192.146 276.5V259.262H195.838V276.5H192.146ZM189.572 266.048V262.746H198.646V266.048H189.572ZM201.195 281.518L200.051 280.14C200.727 279.811 201.264 279.412 201.663 278.944C202.079 278.476 202.287 278.069 202.287 277.722C202.287 277.566 202.243 277.401 202.157 277.228C202.07 277.055 201.879 276.838 201.585 276.578C201.203 276.283 200.943 276.006 200.805 275.746C200.683 275.469 200.623 275.174 200.623 274.862C200.623 274.359 200.805 273.961 201.169 273.666C201.533 273.371 202.001 273.224 202.573 273.224C203.041 273.224 203.465 273.363 203.847 273.64C204.245 273.9 204.557 274.273 204.783 274.758C205.008 275.226 205.121 275.772 205.121 276.396C205.121 276.951 205.025 277.488 204.835 278.008C204.644 278.545 204.367 279.039 204.003 279.49C203.656 279.958 203.24 280.365 202.755 280.712C202.287 281.059 201.767 281.327 201.195 281.518ZM216.922 276.5V262.746H220.614V276.5H216.922ZM218.742 259.912C218.031 259.912 217.476 259.739 217.078 259.392C216.679 259.045 216.48 258.551 216.48 257.91C216.48 257.321 216.679 256.844 217.078 256.48C217.494 256.099 218.048 255.908 218.742 255.908C219.452 255.908 220.007 256.09 220.406 256.454C220.804 256.801 221.004 257.286 221.004 257.91C221.004 258.517 220.796 259.002 220.38 259.366C219.981 259.73 219.435 259.912 218.742 259.912ZM224.817 276.5V262.746H228.353L228.457 265.554L227.729 265.866C227.92 265.242 228.258 264.679 228.743 264.176C229.246 263.656 229.844 263.24 230.537 262.928C231.23 262.616 231.958 262.46 232.721 262.46C233.761 262.46 234.628 262.668 235.321 263.084C236.032 263.5 236.56 264.133 236.907 264.982C237.271 265.814 237.453 266.845 237.453 268.076V276.5H233.761V268.362C233.761 267.738 233.674 267.218 233.501 266.802C233.328 266.386 233.059 266.083 232.695 265.892C232.348 265.684 231.915 265.597 231.395 265.632C230.979 265.632 230.589 265.701 230.225 265.84C229.878 265.961 229.575 266.143 229.315 266.386C229.072 266.629 228.873 266.906 228.717 267.218C228.578 267.53 228.509 267.868 228.509 268.232V276.5H226.689C226.29 276.5 225.935 276.5 225.623 276.5C225.311 276.5 225.042 276.5 224.817 276.5ZM242.577 276.5V259.262H246.269V276.5H242.577ZM240.003 266.048V262.746H249.077V266.048H240.003ZM258.142 276.76C256.652 276.76 255.352 276.457 254.242 275.85C253.133 275.243 252.266 274.411 251.642 273.354C251.018 272.297 250.706 271.083 250.706 269.714C250.706 268.657 250.88 267.686 251.226 266.802C251.573 265.918 252.058 265.155 252.682 264.514C253.306 263.855 254.043 263.353 254.892 263.006C255.759 262.642 256.695 262.46 257.7 262.46C258.636 262.46 259.503 262.633 260.3 262.98C261.098 263.309 261.782 263.786 262.354 264.41C262.944 265.017 263.394 265.736 263.706 266.568C264.018 267.4 264.157 268.31 264.122 269.298L264.096 270.442H253.046L252.448 268.18H261.054L260.638 268.648V268.076C260.604 267.608 260.448 267.183 260.17 266.802C259.91 266.421 259.572 266.126 259.156 265.918C258.74 265.71 258.272 265.606 257.752 265.606C256.99 265.606 256.34 265.753 255.802 266.048C255.282 266.343 254.884 266.776 254.606 267.348C254.329 267.92 254.19 268.613 254.19 269.428C254.19 270.26 254.364 270.979 254.71 271.586C255.074 272.193 255.577 272.669 256.218 273.016C256.877 273.345 257.648 273.51 258.532 273.51C259.139 273.51 259.694 273.415 260.196 273.224C260.699 273.033 261.236 272.704 261.808 272.236L263.576 274.706C263.074 275.157 262.519 275.538 261.912 275.85C261.306 276.145 260.682 276.37 260.04 276.526C259.399 276.682 258.766 276.76 258.142 276.76ZM267.137 276.5V257.26H270.829V276.5H267.137ZM274.862 276.5V257.26H278.554V276.5H274.862ZM288.833 276.76C287.342 276.76 286.042 276.457 284.933 275.85C283.823 275.243 282.957 274.411 282.333 273.354C281.709 272.297 281.397 271.083 281.397 269.714C281.397 268.657 281.57 267.686 281.917 266.802C282.263 265.918 282.749 265.155 283.373 264.514C283.997 263.855 284.733 263.353 285.583 263.006C286.449 262.642 287.385 262.46 288.391 262.46C289.327 262.46 290.193 262.633 290.991 262.98C291.788 263.309 292.473 263.786 293.045 264.41C293.634 265.017 294.085 265.736 294.397 266.568C294.709 267.4 294.847 268.31 294.813 269.298L294.787 270.442H283.737L283.139 268.18H291.745L291.329 268.648V268.076C291.294 267.608 291.138 267.183 290.861 266.802C290.601 266.421 290.263 266.126 289.847 265.918C289.431 265.71 288.963 265.606 288.443 265.606C287.68 265.606 287.03 265.753 286.493 266.048C285.973 266.343 285.574 266.776 285.297 267.348C285.019 267.92 284.881 268.613 284.881 269.428C284.881 270.26 285.054 270.979 285.401 271.586C285.765 272.193 286.267 272.669 286.909 273.016C287.567 273.345 288.339 273.51 289.223 273.51C289.829 273.51 290.384 273.415 290.887 273.224C291.389 273.033 291.927 272.704 292.499 272.236L294.267 274.706C293.764 275.157 293.209 275.538 292.603 275.85C291.996 276.145 291.372 276.37 290.731 276.526C290.089 276.682 289.457 276.76 288.833 276.76ZM303.781 276.76C302.464 276.76 301.285 276.448 300.245 275.824C299.205 275.2 298.382 274.351 297.775 273.276C297.186 272.201 296.891 270.979 296.891 269.61C296.891 268.258 297.186 267.045 297.775 265.97C298.382 264.878 299.205 264.02 300.245 263.396C301.285 262.772 302.464 262.46 303.781 262.46C305.012 262.46 306.138 262.685 307.161 263.136C308.184 263.587 308.981 264.211 309.553 265.008L307.525 267.452C307.282 267.123 306.979 266.828 306.615 266.568C306.251 266.291 305.852 266.074 305.419 265.918C305.003 265.762 304.57 265.684 304.119 265.684C303.408 265.684 302.776 265.857 302.221 266.204C301.684 266.533 301.259 266.993 300.947 267.582C300.635 268.171 300.479 268.847 300.479 269.61C300.479 270.355 300.635 271.023 300.947 271.612C301.276 272.184 301.718 272.652 302.273 273.016C302.828 273.363 303.452 273.536 304.145 273.536C304.596 273.536 305.02 273.475 305.419 273.354C305.818 273.215 306.19 273.016 306.537 272.756C306.901 272.496 307.23 272.184 307.525 271.82L309.527 274.264C308.938 275.009 308.123 275.616 307.083 276.084C306.043 276.535 304.942 276.76 303.781 276.76ZM313.479 276.5V259.262H317.171V276.5H313.479ZM310.905 266.048V262.746H319.979V266.048H310.905ZM322.527 281.518L321.383 280.14C322.059 279.811 322.597 279.412 322.995 278.944C323.411 278.476 323.619 278.069 323.619 277.722C323.619 277.566 323.576 277.401 323.489 277.228C323.403 277.055 323.212 276.838 322.917 276.578C322.536 276.283 322.276 276.006 322.137 275.746C322.016 275.469 321.955 275.174 321.955 274.862C321.955 274.359 322.137 273.961 322.501 273.666C322.865 273.371 323.333 273.224 323.905 273.224C324.373 273.224 324.798 273.363 325.179 273.64C325.578 273.9 325.89 274.273 326.115 274.758C326.341 275.226 326.453 275.772 326.453 276.396C326.453 276.951 326.358 277.488 326.167 278.008C325.977 278.545 325.699 279.039 325.335 279.49C324.989 279.958 324.573 280.365 324.087 280.712C323.619 281.059 323.099 281.327 322.527 281.518ZM103.872 309.76C102.381 309.76 101.081 309.457 99.972 308.85C98.8627 308.243 97.996 307.411 97.372 306.354C96.748 305.297 96.436 304.083 96.436 302.714C96.436 301.657 96.6093 300.686 96.956 299.802C97.3027 298.918 97.788 298.155 98.412 297.514C99.036 296.855 99.7727 296.353 100.622 296.006C101.489 295.642 102.425 295.46 103.43 295.46C104.366 295.46 105.233 295.633 106.03 295.98C106.827 296.309 107.512 296.786 108.084 297.41C108.673 298.017 109.124 298.736 109.436 299.568C109.748 300.4 109.887 301.31 109.852 302.298L109.826 303.442H98.776L98.178 301.18H106.784L106.368 301.648V301.076C106.333 300.608 106.177 300.183 105.9 299.802C105.64 299.421 105.302 299.126 104.886 298.918C104.47 298.71 104.002 298.606 103.482 298.606C102.719 298.606 102.069 298.753 101.532 299.048C101.012 299.343 100.613 299.776 100.336 300.348C100.059 300.92 99.92 301.613 99.92 302.428C99.92 303.26 100.093 303.979 100.44 304.586C100.804 305.193 101.307 305.669 101.948 306.016C102.607 306.345 103.378 306.51 104.262 306.51C104.869 306.51 105.423 306.415 105.926 306.224C106.429 306.033 106.966 305.704 107.538 305.236L109.306 307.706C108.803 308.157 108.249 308.538 107.642 308.85C107.035 309.145 106.411 309.37 105.77 309.526C105.129 309.682 104.496 309.76 103.872 309.76ZM121.448 309.5L118.042 304.638L117.002 303.182L111.438 295.746H115.91L119.238 300.452L120.382 302.012L125.868 309.5H121.448ZM111.386 309.5L116.872 301.986L118.9 304.404L115.728 309.5H111.386ZM120.226 303.312L118.25 300.894L121.188 295.746H125.53L120.226 303.312ZM128.411 315.22V295.746H131.973L132.077 298.84L131.401 298.606C131.522 298.051 131.817 297.54 132.285 297.072C132.77 296.604 133.368 296.223 134.079 295.928C134.79 295.633 135.535 295.486 136.315 295.486C137.511 295.486 138.568 295.798 139.487 296.422C140.423 297.029 141.16 297.869 141.697 298.944C142.252 300.001 142.529 301.223 142.529 302.61C142.529 303.979 142.26 305.201 141.723 306.276C141.186 307.351 140.449 308.2 139.513 308.824C138.577 309.431 137.511 309.734 136.315 309.734C135.518 309.734 134.755 309.587 134.027 309.292C133.316 308.98 132.71 308.573 132.207 308.07C131.704 307.567 131.392 307.03 131.271 306.458L132.129 306.094V315.22H128.411ZM135.483 306.562C136.159 306.562 136.757 306.397 137.277 306.068C137.797 305.739 138.204 305.279 138.499 304.69C138.794 304.083 138.941 303.39 138.941 302.61C138.941 301.83 138.794 301.145 138.499 300.556C138.204 299.967 137.797 299.507 137.277 299.178C136.774 298.849 136.176 298.684 135.483 298.684C134.79 298.684 134.183 298.849 133.663 299.178C133.143 299.49 132.736 299.949 132.441 300.556C132.146 301.145 131.999 301.83 131.999 302.61C131.999 303.39 132.146 304.083 132.441 304.69C132.736 305.279 133.143 305.739 133.663 306.068C134.183 306.397 134.79 306.562 135.483 306.562ZM145.607 309.5V290.26H149.299V309.5H145.607ZM159.448 309.76C158.044 309.76 156.787 309.457 155.678 308.85C154.586 308.226 153.719 307.377 153.078 306.302C152.454 305.227 152.142 303.997 152.142 302.61C152.142 301.223 152.454 300.001 153.078 298.944C153.719 297.869 154.586 297.02 155.678 296.396C156.787 295.772 158.044 295.46 159.448 295.46C160.835 295.46 162.074 295.772 163.166 296.396C164.275 297.02 165.142 297.869 165.766 298.944C166.39 300.001 166.702 301.223 166.702 302.61C166.702 303.997 166.39 305.227 165.766 306.302C165.142 307.377 164.275 308.226 163.166 308.85C162.074 309.457 160.835 309.76 159.448 309.76ZM159.448 306.536C160.124 306.536 160.731 306.371 161.268 306.042C161.805 305.695 162.221 305.227 162.516 304.638C162.828 304.031 162.984 303.355 162.984 302.61C162.984 301.847 162.828 301.171 162.516 300.582C162.221 299.975 161.805 299.507 161.268 299.178C160.731 298.831 160.124 298.658 159.448 298.658C158.755 298.658 158.139 298.831 157.602 299.178C157.065 299.525 156.64 299.993 156.328 300.582C156.016 301.171 155.869 301.847 155.886 302.61C155.869 303.355 156.016 304.031 156.328 304.638C156.64 305.227 157.065 305.695 157.602 306.042C158.139 306.371 158.755 306.536 159.448 306.536ZM169.74 309.5V295.746H173.302L173.432 300.166L172.808 299.256C173.016 298.545 173.354 297.904 173.822 297.332C174.29 296.743 174.836 296.283 175.46 295.954C176.101 295.625 176.768 295.46 177.462 295.46C177.756 295.46 178.042 295.486 178.32 295.538C178.597 295.59 178.831 295.651 179.022 295.72L178.034 299.776C177.826 299.672 177.574 299.585 177.28 299.516C176.985 299.429 176.682 299.386 176.37 299.386C175.954 299.386 175.564 299.464 175.2 299.62C174.853 299.759 174.55 299.967 174.29 300.244C174.03 300.504 173.822 300.816 173.666 301.18C173.527 301.544 173.458 301.943 173.458 302.376V309.5H169.74ZM185.964 309.76C184.82 309.76 183.789 309.448 182.87 308.824C181.951 308.2 181.223 307.351 180.686 306.276C180.149 305.201 179.88 303.971 179.88 302.584C179.88 301.197 180.149 299.975 180.686 298.918C181.241 297.843 181.986 297.003 182.922 296.396C183.858 295.772 184.924 295.46 186.12 295.46C186.796 295.46 187.411 295.564 187.966 295.772C188.538 295.963 189.032 296.231 189.448 296.578C189.881 296.925 190.245 297.323 190.54 297.774C190.835 298.225 191.043 298.71 191.164 299.23L190.384 299.1V295.746H194.05V309.5H190.332V306.198L191.164 306.12C191.025 306.605 190.8 307.065 190.488 307.498C190.176 307.931 189.786 308.321 189.318 308.668C188.867 308.997 188.356 309.266 187.784 309.474C187.212 309.665 186.605 309.76 185.964 309.76ZM186.978 306.562C187.671 306.562 188.278 306.397 188.798 306.068C189.318 305.739 189.717 305.279 189.994 304.69C190.289 304.083 190.436 303.381 190.436 302.584C190.436 301.804 190.289 301.119 189.994 300.53C189.717 299.941 189.318 299.481 188.798 299.152C188.278 298.805 187.671 298.632 186.978 298.632C186.302 298.632 185.704 298.805 185.184 299.152C184.681 299.481 184.283 299.941 183.988 300.53C183.693 301.119 183.546 301.804 183.546 302.584C183.546 303.381 183.693 304.083 183.988 304.69C184.283 305.279 184.681 305.739 185.184 306.068C185.704 306.397 186.302 306.562 186.978 306.562ZM199.338 309.5V292.262H203.03V309.5H199.338ZM196.764 299.048V295.746H205.838V299.048H196.764ZM208.816 309.5V295.746H212.508V309.5H208.816ZM210.636 292.912C209.925 292.912 209.371 292.739 208.972 292.392C208.573 292.045 208.374 291.551 208.374 290.91C208.374 290.321 208.573 289.844 208.972 289.48C209.388 289.099 209.943 288.908 210.636 288.908C211.347 288.908 211.901 289.09 212.3 289.454C212.699 289.801 212.898 290.286 212.898 290.91C212.898 291.517 212.69 292.002 212.274 292.366C211.875 292.73 211.329 292.912 210.636 292.912ZM223.107 309.76C221.703 309.76 220.447 309.457 219.337 308.85C218.245 308.226 217.379 307.377 216.737 306.302C216.113 305.227 215.801 303.997 215.801 302.61C215.801 301.223 216.113 300.001 216.737 298.944C217.379 297.869 218.245 297.02 219.337 296.396C220.447 295.772 221.703 295.46 223.107 295.46C224.494 295.46 225.733 295.772 226.825 296.396C227.935 297.02 228.801 297.869 229.425 298.944C230.049 300.001 230.361 301.223 230.361 302.61C230.361 303.997 230.049 305.227 229.425 306.302C228.801 307.377 227.935 308.226 226.825 308.85C225.733 309.457 224.494 309.76 223.107 309.76ZM223.107 306.536C223.783 306.536 224.39 306.371 224.927 306.042C225.465 305.695 225.881 305.227 226.175 304.638C226.487 304.031 226.643 303.355 226.643 302.61C226.643 301.847 226.487 301.171 226.175 300.582C225.881 299.975 225.465 299.507 224.927 299.178C224.39 298.831 223.783 298.658 223.107 298.658C222.414 298.658 221.799 298.831 221.261 299.178C220.724 299.525 220.299 299.993 219.987 300.582C219.675 301.171 219.528 301.847 219.545 302.61C219.528 303.355 219.675 304.031 219.987 304.638C220.299 305.227 220.724 305.695 221.261 306.042C221.799 306.371 222.414 306.536 223.107 306.536ZM233.399 309.5V295.746H236.935L237.039 298.554L236.311 298.866C236.502 298.242 236.84 297.679 237.325 297.176C237.828 296.656 238.426 296.24 239.119 295.928C239.812 295.616 240.54 295.46 241.303 295.46C242.343 295.46 243.21 295.668 243.903 296.084C244.614 296.5 245.142 297.133 245.489 297.982C245.853 298.814 246.035 299.845 246.035 301.076V309.5H242.343V301.362C242.343 300.738 242.256 300.218 242.083 299.802C241.91 299.386 241.641 299.083 241.277 298.892C240.93 298.684 240.497 298.597 239.977 298.632C239.561 298.632 239.171 298.701 238.807 298.84C238.46 298.961 238.157 299.143 237.897 299.386C237.654 299.629 237.455 299.906 237.299 300.218C237.16 300.53 237.091 300.868 237.091 301.232V309.5H235.271C234.872 309.5 234.517 309.5 234.205 309.5C233.893 309.5 233.624 309.5 233.399 309.5Z" fill="#6D6D6D"/>
</g>
<path d="M62.4009 356.607C62.0345 356.981 61.8292 357.484 61.8292 358.007C61.8292 358.531 62.0345 359.034 62.4009 359.407L65.6009 362.607C65.9748 362.974 66.4774 363.179 67.0009 363.179C67.5244 363.179 68.0271 362.974 68.4009 362.607L74.6129 356.397C75.2529 355.753 76.3389 355.957 76.5789 356.833C77.1832 359.031 77.1491 361.356 76.4805 363.535C75.8119 365.714 74.5366 367.657 72.8037 369.138C71.0708 370.619 68.9521 371.575 66.6954 371.896C64.4388 372.216 62.1375 371.887 60.0609 370.947L44.2409 386.767C43.4453 387.563 42.3663 388.01 41.2412 388.009C40.1162 388.009 39.0373 387.562 38.2419 386.766C37.4465 385.971 36.9998 384.892 37 383.767C37.0002 382.642 37.4473 381.563 38.2429 380.767L54.0629 364.947C53.1232 362.871 52.7943 360.57 53.1148 358.313C53.4353 356.056 54.3918 353.937 55.8725 352.205C57.3531 350.472 59.2967 349.196 61.4757 348.528C63.6548 347.859 65.9792 347.825 68.1769 348.429C69.0529 348.669 69.2569 349.753 68.6149 350.397L62.4009 356.607Z" stroke="#8C8C8C" stroke-width="4.02" stroke-linecap="round" stroke-linejoin="round"/>
<g filter="url(#filter3_d_124_27)">
<path d="M100.804 355.118L99.972 351.582L109.176 342.3H113.908L100.804 355.118ZM97.866 360.5V342.3H101.766V360.5H97.866ZM109.67 360.5L102.858 351.452L105.536 349.138L114.298 360.5H109.67ZM116.573 360.5V346.746H120.109L120.213 349.554L119.485 349.866C119.675 349.242 120.013 348.679 120.499 348.176C121.001 347.656 121.599 347.24 122.293 346.928C122.986 346.616 123.714 346.46 124.477 346.46C125.517 346.46 126.383 346.668 127.077 347.084C127.787 347.5 128.316 348.133 128.663 348.982C129.027 349.814 129.209 350.845 129.209 352.076V360.5H125.517V352.362C125.517 351.738 125.43 351.218 125.257 350.802C125.083 350.386 124.815 350.083 124.451 349.892C124.104 349.684 123.671 349.597 123.151 349.632C122.735 349.632 122.345 349.701 121.981 349.84C121.634 349.961 121.331 350.143 121.071 350.386C120.828 350.629 120.629 350.906 120.473 351.218C120.334 351.53 120.265 351.868 120.265 352.232V360.5H118.445C118.046 360.5 117.691 360.5 117.379 360.5C117.067 360.5 116.798 360.5 116.573 360.5ZM139.403 360.76C137.999 360.76 136.742 360.457 135.633 359.85C134.541 359.226 133.674 358.377 133.033 357.302C132.409 356.227 132.097 354.997 132.097 353.61C132.097 352.223 132.409 351.001 133.033 349.944C133.674 348.869 134.541 348.02 135.633 347.396C136.742 346.772 137.999 346.46 139.403 346.46C140.789 346.46 142.029 346.772 143.121 347.396C144.23 348.02 145.097 348.869 145.721 349.944C146.345 351.001 146.657 352.223 146.657 353.61C146.657 354.997 146.345 356.227 145.721 357.302C145.097 358.377 144.23 359.226 143.121 359.85C142.029 360.457 140.789 360.76 139.403 360.76ZM139.403 357.536C140.079 357.536 140.685 357.371 141.223 357.042C141.76 356.695 142.176 356.227 142.471 355.638C142.783 355.031 142.939 354.355 142.939 353.61C142.939 352.847 142.783 352.171 142.471 351.582C142.176 350.975 141.76 350.507 141.223 350.178C140.685 349.831 140.079 349.658 139.403 349.658C138.709 349.658 138.094 349.831 137.557 350.178C137.019 350.525 136.595 350.993 136.283 351.582C135.971 352.171 135.823 352.847 135.841 353.61C135.823 354.355 135.971 355.031 136.283 355.638C136.595 356.227 137.019 356.695 137.557 357.042C138.094 357.371 138.709 357.536 139.403 357.536ZM152.333 360.5L147.731 346.746H151.579L154.387 356.106L153.815 356.028L156.909 348.722H159.093L162.317 356.054L161.693 356.106L164.501 346.746H168.349L163.669 360.5H160.991L157.741 352.674L158.157 352.726L154.985 360.5H152.333ZM170.877 360.5V341.26H174.569V360.5H170.877ZM184.848 360.76C183.357 360.76 182.057 360.457 180.948 359.85C179.838 359.243 178.972 358.411 178.348 357.354C177.724 356.297 177.412 355.083 177.412 353.714C177.412 352.657 177.585 351.686 177.932 350.802C178.278 349.918 178.764 349.155 179.388 348.514C180.012 347.855 180.748 347.353 181.598 347.006C182.464 346.642 183.4 346.46 184.406 346.46C185.342 346.46 186.208 346.633 187.006 346.98C187.803 347.309 188.488 347.786 189.06 348.41C189.649 349.017 190.1 349.736 190.412 350.568C190.724 351.4 190.862 352.31 190.828 353.298L190.802 354.442H179.752L179.154 352.18H187.76L187.344 352.648V352.076C187.309 351.608 187.153 351.183 186.876 350.802C186.616 350.421 186.278 350.126 185.862 349.918C185.446 349.71 184.978 349.606 184.458 349.606C183.695 349.606 183.045 349.753 182.508 350.048C181.988 350.343 181.589 350.776 181.312 351.348C181.034 351.92 180.896 352.613 180.896 353.428C180.896 354.26 181.069 354.979 181.416 355.586C181.78 356.193 182.282 356.669 182.924 357.016C183.582 357.345 184.354 357.51 185.238 357.51C185.844 357.51 186.399 357.415 186.902 357.224C187.404 357.033 187.942 356.704 188.514 356.236L190.282 358.706C189.779 359.157 189.224 359.538 188.618 359.85C188.011 360.145 187.387 360.37 186.746 360.526C186.104 360.682 185.472 360.76 184.848 360.76ZM199.198 360.76C198.002 360.76 196.927 360.457 195.974 359.85C195.021 359.226 194.267 358.385 193.712 357.328C193.175 356.253 192.906 355.014 192.906 353.61C192.906 352.241 193.175 351.019 193.712 349.944C194.267 348.869 195.012 348.02 195.948 347.396C196.901 346.772 197.985 346.46 199.198 346.46C199.839 346.46 200.455 346.564 201.044 346.772C201.651 346.963 202.188 347.231 202.656 347.578C203.141 347.925 203.531 348.315 203.826 348.748C204.121 349.164 204.285 349.606 204.32 350.074L203.384 350.23V341.26H207.076V360.5H203.592L203.436 357.328L204.164 357.406C204.129 357.839 203.973 358.255 203.696 358.654C203.419 359.053 203.046 359.417 202.578 359.746C202.127 360.058 201.607 360.309 201.018 360.5C200.446 360.673 199.839 360.76 199.198 360.76ZM200.03 357.692C200.723 357.692 201.33 357.519 201.85 357.172C202.37 356.825 202.777 356.349 203.072 355.742C203.367 355.135 203.514 354.425 203.514 353.61C203.514 352.813 203.367 352.111 203.072 351.504C202.777 350.88 202.37 350.403 201.85 350.074C201.33 349.727 200.723 349.554 200.03 349.554C199.337 349.554 198.73 349.727 198.21 350.074C197.707 350.403 197.309 350.88 197.014 351.504C196.737 352.111 196.598 352.813 196.598 353.61C196.598 354.425 196.737 355.135 197.014 355.742C197.309 356.349 197.707 356.825 198.21 357.172C198.73 357.519 199.337 357.692 200.03 357.692ZM217.202 366.48C216.11 366.48 215.035 366.315 213.978 365.986C212.92 365.674 212.062 365.267 211.404 364.764L212.704 362.112C213.05 362.355 213.449 362.571 213.9 362.762C214.35 362.953 214.818 363.1 215.304 363.204C215.806 363.308 216.318 363.36 216.838 363.36C217.739 363.36 218.476 363.221 219.048 362.944C219.637 362.667 220.079 362.251 220.374 361.696C220.668 361.159 220.816 360.465 220.816 359.616V357.224L221.44 357.354C221.336 357.926 221.05 358.455 220.582 358.94C220.114 359.408 219.524 359.789 218.814 360.084C218.103 360.361 217.375 360.5 216.63 360.5C215.347 360.5 214.212 360.205 213.224 359.616C212.236 359.027 211.456 358.212 210.884 357.172C210.312 356.132 210.026 354.936 210.026 353.584C210.026 352.197 210.303 350.975 210.858 349.918C211.43 348.843 212.201 348.003 213.172 347.396C214.16 346.772 215.278 346.46 216.526 346.46C217.046 346.46 217.54 346.521 218.008 346.642C218.493 346.763 218.935 346.937 219.334 347.162C219.75 347.37 220.114 347.613 220.426 347.89C220.755 348.15 221.024 348.436 221.232 348.748C221.44 349.06 221.57 349.372 221.622 349.684L220.868 349.892L220.972 346.746H224.508V359.46C224.508 360.587 224.343 361.583 224.014 362.45C223.684 363.317 223.199 364.045 222.558 364.634C221.934 365.241 221.162 365.7 220.244 366.012C219.342 366.324 218.328 366.48 217.202 366.48ZM217.306 357.536C218.034 357.536 218.666 357.371 219.204 357.042C219.758 356.713 220.183 356.253 220.478 355.664C220.772 355.075 220.92 354.381 220.92 353.584C220.92 352.804 220.772 352.119 220.478 351.53C220.183 350.923 219.758 350.455 219.204 350.126C218.666 349.797 218.034 349.632 217.306 349.632C216.595 349.632 215.962 349.805 215.408 350.152C214.87 350.481 214.454 350.941 214.16 351.53C213.865 352.119 213.718 352.804 213.718 353.584C213.718 354.364 213.865 355.057 214.16 355.664C214.454 356.253 214.87 356.713 215.408 357.042C215.962 357.371 216.595 357.536 217.306 357.536ZM234.962 360.76C233.471 360.76 232.171 360.457 231.062 359.85C229.952 359.243 229.086 358.411 228.462 357.354C227.838 356.297 227.526 355.083 227.526 353.714C227.526 352.657 227.699 351.686 228.046 350.802C228.392 349.918 228.878 349.155 229.502 348.514C230.126 347.855 230.862 347.353 231.712 347.006C232.578 346.642 233.514 346.46 234.52 346.46C235.456 346.46 236.322 346.633 237.12 346.98C237.917 347.309 238.602 347.786 239.174 348.41C239.763 349.017 240.214 349.736 240.526 350.568C240.838 351.4 240.976 352.31 240.942 353.298L240.916 354.442H229.866L229.268 352.18H237.874L237.458 352.648V352.076C237.423 351.608 237.267 351.183 236.99 350.802C236.73 350.421 236.392 350.126 235.976 349.918C235.56 349.71 235.092 349.606 234.572 349.606C233.809 349.606 233.159 349.753 232.622 350.048C232.102 350.343 231.703 350.776 231.426 351.348C231.148 351.92 231.01 352.613 231.01 353.428C231.01 354.26 231.183 354.979 231.53 355.586C231.894 356.193 232.396 356.669 233.038 357.016C233.696 357.345 234.468 357.51 235.352 357.51C235.958 357.51 236.513 357.415 237.016 357.224C237.518 357.033 238.056 356.704 238.628 356.236L240.396 358.706C239.893 359.157 239.338 359.538 238.732 359.85C238.125 360.145 237.501 360.37 236.86 360.526C236.218 360.682 235.586 360.76 234.962 360.76ZM244.32 365.518L243.176 364.14C243.852 363.811 244.389 363.412 244.788 362.944C245.204 362.476 245.412 362.069 245.412 361.722C245.412 361.566 245.369 361.401 245.282 361.228C245.195 361.055 245.005 360.838 244.71 360.578C244.329 360.283 244.069 360.006 243.93 359.746C243.809 359.469 243.748 359.174 243.748 358.862C243.748 358.359 243.93 357.961 244.294 357.666C244.658 357.371 245.126 357.224 245.698 357.224C246.166 357.224 246.591 357.363 246.972 357.64C247.371 357.9 247.683 358.273 247.908 358.758C248.133 359.226 248.246 359.772 248.246 360.396C248.246 360.951 248.151 361.488 247.96 362.008C247.769 362.545 247.492 363.039 247.128 363.49C246.781 363.958 246.365 364.365 245.88 364.712C245.412 365.059 244.892 365.327 244.32 365.518ZM260.801 360.5V345.784C260.801 344.935 260.992 344.163 261.373 343.47C261.755 342.777 262.275 342.231 262.933 341.832C263.609 341.433 264.398 341.234 265.299 341.234C265.906 341.234 266.478 341.338 267.015 341.546C267.553 341.737 268.012 342.005 268.393 342.352L267.301 345.056C267.076 344.917 266.842 344.805 266.599 344.718C266.374 344.614 266.166 344.562 265.975 344.562C265.646 344.562 265.369 344.623 265.143 344.744C264.935 344.848 264.779 345.013 264.675 345.238C264.571 345.446 264.519 345.715 264.519 346.044V360.5H262.673C262.275 360.5 261.919 360.5 261.607 360.5C261.295 360.5 261.027 360.5 260.801 360.5ZM258.747 350.204V347.084H267.483V350.204H258.747ZM276.091 360.76C274.687 360.76 273.43 360.457 272.321 359.85C271.229 359.226 270.362 358.377 269.721 357.302C269.097 356.227 268.785 354.997 268.785 353.61C268.785 352.223 269.097 351.001 269.721 349.944C270.362 348.869 271.229 348.02 272.321 347.396C273.43 346.772 274.687 346.46 276.091 346.46C277.477 346.46 278.717 346.772 279.809 347.396C280.918 348.02 281.785 348.869 282.409 349.944C283.033 351.001 283.345 352.223 283.345 353.61C283.345 354.997 283.033 356.227 282.409 357.302C281.785 358.377 280.918 359.226 279.809 359.85C278.717 360.457 277.477 360.76 276.091 360.76ZM276.091 357.536C276.767 357.536 277.373 357.371 277.911 357.042C278.448 356.695 278.864 356.227 279.159 355.638C279.471 355.031 279.627 354.355 279.627 353.61C279.627 352.847 279.471 352.171 279.159 351.582C278.864 350.975 278.448 350.507 277.911 350.178C277.373 349.831 276.767 349.658 276.091 349.658C275.397 349.658 274.782 349.831 274.245 350.178C273.707 350.525 273.283 350.993 272.971 351.582C272.659 352.171 272.511 352.847 272.529 353.61C272.511 354.355 272.659 355.031 272.971 355.638C273.283 356.227 273.707 356.695 274.245 357.042C274.782 357.371 275.397 357.536 276.091 357.536ZM292.362 360.76C291.045 360.76 289.866 360.448 288.826 359.824C287.786 359.2 286.963 358.351 286.356 357.276C285.767 356.201 285.472 354.979 285.472 353.61C285.472 352.258 285.767 351.045 286.356 349.97C286.963 348.878 287.786 348.02 288.826 347.396C289.866 346.772 291.045 346.46 292.362 346.46C293.593 346.46 294.72 346.685 295.742 347.136C296.765 347.587 297.562 348.211 298.134 349.008L296.106 351.452C295.864 351.123 295.56 350.828 295.196 350.568C294.832 350.291 294.434 350.074 294 349.918C293.584 349.762 293.151 349.684 292.7 349.684C291.99 349.684 291.357 349.857 290.802 350.204C290.265 350.533 289.84 350.993 289.528 351.582C289.216 352.171 289.06 352.847 289.06 353.61C289.06 354.355 289.216 355.023 289.528 355.612C289.858 356.184 290.3 356.652 290.854 357.016C291.409 357.363 292.033 357.536 292.726 357.536C293.177 357.536 293.602 357.475 294 357.354C294.399 357.215 294.772 357.016 295.118 356.756C295.482 356.496 295.812 356.184 296.106 355.82L298.108 358.264C297.519 359.009 296.704 359.616 295.664 360.084C294.624 360.535 293.524 360.76 292.362 360.76ZM305.466 360.76C304.461 360.76 303.594 360.543 302.866 360.11C302.155 359.659 301.601 359.027 301.202 358.212C300.821 357.38 300.63 356.383 300.63 355.222V346.746H304.322V354.624C304.322 355.248 304.426 355.794 304.634 356.262C304.842 356.713 305.137 357.059 305.518 357.302C305.899 357.545 306.367 357.666 306.922 357.666C307.321 357.666 307.693 357.605 308.04 357.484C308.387 357.345 308.681 357.155 308.924 356.912C309.167 356.669 309.357 356.383 309.496 356.054C309.635 355.725 309.704 355.369 309.704 354.988V346.746H313.396V360.5H309.886L309.756 357.666L310.432 357.354C310.224 357.995 309.877 358.576 309.392 359.096C308.907 359.616 308.326 360.023 307.65 360.318C306.974 360.613 306.246 360.76 305.466 360.76ZM321.999 360.76C320.716 360.76 319.572 360.552 318.567 360.136C317.579 359.703 316.782 359.113 316.175 358.368L318.463 356.392C319 356.964 319.598 357.38 320.257 357.64C320.916 357.883 321.574 358.004 322.233 358.004C322.493 358.004 322.727 357.978 322.935 357.926C323.16 357.857 323.351 357.77 323.507 357.666C323.663 357.545 323.776 357.406 323.845 357.25C323.932 357.077 323.975 356.895 323.975 356.704C323.975 356.323 323.819 356.019 323.507 355.794C323.334 355.707 323.065 355.603 322.701 355.482C322.337 355.343 321.869 355.196 321.297 355.04C320.413 354.815 319.659 354.555 319.035 354.26C318.428 353.948 317.943 353.601 317.579 353.22C317.267 352.856 317.024 352.466 316.851 352.05C316.695 351.617 316.617 351.14 316.617 350.62C316.617 349.996 316.756 349.433 317.033 348.93C317.31 348.41 317.692 347.968 318.177 347.604C318.68 347.24 319.252 346.963 319.893 346.772C320.534 346.564 321.21 346.46 321.921 346.46C322.632 346.46 323.325 346.547 324.001 346.72C324.677 346.893 325.301 347.145 325.873 347.474C326.462 347.786 326.974 348.159 327.407 348.592L325.431 350.776C325.119 350.481 324.764 350.213 324.365 349.97C323.984 349.727 323.585 349.537 323.169 349.398C322.753 349.259 322.38 349.19 322.051 349.19C321.756 349.19 321.488 349.216 321.245 349.268C321.02 349.32 320.829 349.398 320.673 349.502C320.517 349.606 320.396 349.745 320.309 349.918C320.24 350.074 320.205 350.247 320.205 350.438C320.205 350.629 320.248 350.811 320.335 350.984C320.439 351.157 320.578 351.305 320.751 351.426C320.942 351.53 321.219 351.651 321.583 351.79C321.964 351.929 322.476 352.085 323.117 352.258C323.949 352.483 324.651 352.735 325.223 353.012C325.812 353.289 326.28 353.61 326.627 353.974C326.922 354.286 327.138 354.641 327.277 355.04C327.416 355.439 327.485 355.881 327.485 356.366C327.485 357.215 327.242 357.978 326.757 358.654C326.289 359.313 325.639 359.833 324.807 360.214C323.975 360.578 323.039 360.76 321.999 360.76ZM330.767 365.518L329.623 364.14C330.299 363.811 330.836 363.412 331.235 362.944C331.651 362.476 331.859 362.069 331.859 361.722C331.859 361.566 331.816 361.401 331.729 361.228C331.642 361.055 331.452 360.838 331.157 360.578C330.776 360.283 330.516 360.006 330.377 359.746C330.256 359.469 330.195 359.174 330.195 358.862C330.195 358.359 330.377 357.961 330.741 357.666C331.105 357.371 331.573 357.224 332.145 357.224C332.613 357.224 333.038 357.363 333.419 357.64C333.818 357.9 334.13 358.273 334.355 358.758C334.58 359.226 334.693 359.772 334.693 360.396C334.693 360.951 334.598 361.488 334.407 362.008C334.216 362.545 333.939 363.039 333.575 363.49C333.228 363.958 332.812 364.365 332.327 364.712C331.859 365.059 331.339 365.327 330.767 365.518ZM102.494 393.76C101.35 393.76 100.319 393.448 99.4 392.824C98.4813 392.2 97.7533 391.351 97.216 390.276C96.6787 389.201 96.41 387.971 96.41 386.584C96.41 385.197 96.6787 383.975 97.216 382.918C97.7707 381.843 98.516 381.003 99.452 380.396C100.388 379.772 101.454 379.46 102.65 379.46C103.326 379.46 103.941 379.564 104.496 379.772C105.068 379.963 105.562 380.231 105.978 380.578C106.411 380.925 106.775 381.323 107.07 381.774C107.365 382.225 107.573 382.71 107.694 383.23L106.914 383.1V379.746H110.58V393.5H106.862V390.198L107.694 390.12C107.555 390.605 107.33 391.065 107.018 391.498C106.706 391.931 106.316 392.321 105.848 392.668C105.397 392.997 104.886 393.266 104.314 393.474C103.742 393.665 103.135 393.76 102.494 393.76ZM103.508 390.562C104.201 390.562 104.808 390.397 105.328 390.068C105.848 389.739 106.247 389.279 106.524 388.69C106.819 388.083 106.966 387.381 106.966 386.584C106.966 385.804 106.819 385.119 106.524 384.53C106.247 383.941 105.848 383.481 105.328 383.152C104.808 382.805 104.201 382.632 103.508 382.632C102.832 382.632 102.234 382.805 101.714 383.152C101.211 383.481 100.813 383.941 100.518 384.53C100.223 385.119 100.076 385.804 100.076 386.584C100.076 387.381 100.223 388.083 100.518 388.69C100.813 389.279 101.211 389.739 101.714 390.068C102.234 390.397 102.832 390.562 103.508 390.562ZM114.542 393.5V379.746H118.078L118.182 382.554L117.454 382.866C117.644 382.242 117.982 381.679 118.468 381.176C118.97 380.656 119.568 380.24 120.262 379.928C120.955 379.616 121.683 379.46 122.446 379.46C123.486 379.46 124.352 379.668 125.046 380.084C125.756 380.5 126.285 381.133 126.632 381.982C126.996 382.814 127.178 383.845 127.178 385.076V393.5H123.486V385.362C123.486 384.738 123.399 384.218 123.226 383.802C123.052 383.386 122.784 383.083 122.42 382.892C122.073 382.684 121.64 382.597 121.12 382.632C120.704 382.632 120.314 382.701 119.95 382.84C119.603 382.961 119.3 383.143 119.04 383.386C118.797 383.629 118.598 383.906 118.442 384.218C118.303 384.53 118.234 384.868 118.234 385.232V393.5H116.414C116.015 393.5 115.66 393.5 115.348 393.5C115.036 393.5 114.767 393.5 114.542 393.5ZM136.123 393.76C134.979 393.76 133.948 393.448 133.029 392.824C132.111 392.2 131.383 391.351 130.845 390.276C130.308 389.201 130.039 387.971 130.039 386.584C130.039 385.197 130.308 383.975 130.845 382.918C131.4 381.843 132.145 381.003 133.081 380.396C134.017 379.772 135.083 379.46 136.279 379.46C136.955 379.46 137.571 379.564 138.125 379.772C138.697 379.963 139.191 380.231 139.607 380.578C140.041 380.925 140.405 381.323 140.699 381.774C140.994 382.225 141.202 382.71 141.323 383.23L140.543 383.1V379.746H144.209V393.5H140.491V390.198L141.323 390.12C141.185 390.605 140.959 391.065 140.647 391.498C140.335 391.931 139.945 392.321 139.477 392.668C139.027 392.997 138.515 393.266 137.943 393.474C137.371 393.665 136.765 393.76 136.123 393.76ZM137.137 390.562C137.831 390.562 138.437 390.397 138.957 390.068C139.477 389.739 139.876 389.279 140.153 388.69C140.448 388.083 140.595 387.381 140.595 386.584C140.595 385.804 140.448 385.119 140.153 384.53C139.876 383.941 139.477 383.481 138.957 383.152C138.437 382.805 137.831 382.632 137.137 382.632C136.461 382.632 135.863 382.805 135.343 383.152C134.841 383.481 134.442 383.941 134.147 384.53C133.853 385.119 133.705 385.804 133.705 386.584C133.705 387.381 133.853 388.083 134.147 388.69C134.442 389.279 134.841 389.739 135.343 390.068C135.863 390.397 136.461 390.562 137.137 390.562ZM148.197 393.5V374.26H151.889V393.5H148.197ZM157.439 399.48L160.455 392.408L160.507 394.54L153.799 379.746H157.985L161.339 387.676C161.478 387.971 161.608 388.317 161.729 388.716C161.868 389.097 161.98 389.47 162.067 389.834L161.443 390.094C161.547 389.799 161.668 389.461 161.807 389.08C161.946 388.699 162.084 388.291 162.223 387.858L165.109 379.746H169.321L163.549 393.5L161.183 399.48H157.439ZM175.942 393.76C174.659 393.76 173.515 393.552 172.51 393.136C171.522 392.703 170.725 392.113 170.118 391.368L172.406 389.392C172.943 389.964 173.541 390.38 174.2 390.64C174.859 390.883 175.517 391.004 176.176 391.004C176.436 391.004 176.67 390.978 176.878 390.926C177.103 390.857 177.294 390.77 177.45 390.666C177.606 390.545 177.719 390.406 177.788 390.25C177.875 390.077 177.918 389.895 177.918 389.704C177.918 389.323 177.762 389.019 177.45 388.794C177.277 388.707 177.008 388.603 176.644 388.482C176.28 388.343 175.812 388.196 175.24 388.04C174.356 387.815 173.602 387.555 172.978 387.26C172.371 386.948 171.886 386.601 171.522 386.22C171.21 385.856 170.967 385.466 170.794 385.05C170.638 384.617 170.56 384.14 170.56 383.62C170.56 382.996 170.699 382.433 170.976 381.93C171.253 381.41 171.635 380.968 172.12 380.604C172.623 380.24 173.195 379.963 173.836 379.772C174.477 379.564 175.153 379.46 175.864 379.46C176.575 379.46 177.268 379.547 177.944 379.72C178.62 379.893 179.244 380.145 179.816 380.474C180.405 380.786 180.917 381.159 181.35 381.592L179.374 383.776C179.062 383.481 178.707 383.213 178.308 382.97C177.927 382.727 177.528 382.537 177.112 382.398C176.696 382.259 176.323 382.19 175.994 382.19C175.699 382.19 175.431 382.216 175.188 382.268C174.963 382.32 174.772 382.398 174.616 382.502C174.46 382.606 174.339 382.745 174.252 382.918C174.183 383.074 174.148 383.247 174.148 383.438C174.148 383.629 174.191 383.811 174.278 383.984C174.382 384.157 174.521 384.305 174.694 384.426C174.885 384.53 175.162 384.651 175.526 384.79C175.907 384.929 176.419 385.085 177.06 385.258C177.892 385.483 178.594 385.735 179.166 386.012C179.755 386.289 180.223 386.61 180.57 386.974C180.865 387.286 181.081 387.641 181.22 388.04C181.359 388.439 181.428 388.881 181.428 389.366C181.428 390.215 181.185 390.978 180.7 391.654C180.232 392.313 179.582 392.833 178.75 393.214C177.918 393.578 176.982 393.76 175.942 393.76ZM184.632 393.5V379.746H188.324V393.5H184.632ZM186.452 376.912C185.741 376.912 185.187 376.739 184.788 376.392C184.389 376.045 184.19 375.551 184.19 374.91C184.19 374.321 184.389 373.844 184.788 373.48C185.204 373.099 185.759 372.908 186.452 372.908C187.163 372.908 187.717 373.09 188.116 373.454C188.515 373.801 188.714 374.286 188.714 374.91C188.714 375.517 188.506 376.002 188.09 376.366C187.691 376.73 187.145 376.912 186.452 376.912ZM197.155 393.76C195.873 393.76 194.729 393.552 193.723 393.136C192.735 392.703 191.938 392.113 191.331 391.368L193.619 389.392C194.157 389.964 194.755 390.38 195.413 390.64C196.072 390.883 196.731 391.004 197.389 391.004C197.649 391.004 197.883 390.978 198.091 390.926C198.317 390.857 198.507 390.77 198.663 390.666C198.819 390.545 198.932 390.406 199.001 390.25C199.088 390.077 199.131 389.895 199.131 389.704C199.131 389.323 198.975 389.019 198.663 388.794C198.49 388.707 198.221 388.603 197.857 388.482C197.493 388.343 197.025 388.196 196.453 388.04C195.569 387.815 194.815 387.555 194.191 387.26C193.585 386.948 193.099 386.601 192.735 386.22C192.423 385.856 192.181 385.466 192.007 385.05C191.851 384.617 191.773 384.14 191.773 383.62C191.773 382.996 191.912 382.433 192.189 381.93C192.467 381.41 192.848 380.968 193.333 380.604C193.836 380.24 194.408 379.963 195.049 379.772C195.691 379.564 196.367 379.46 197.077 379.46C197.788 379.46 198.481 379.547 199.157 379.72C199.833 379.893 200.457 380.145 201.029 380.474C201.619 380.786 202.13 381.159 202.563 381.592L200.587 383.776C200.275 383.481 199.92 383.213 199.521 382.97C199.14 382.727 198.741 382.537 198.325 382.398C197.909 382.259 197.537 382.19 197.207 382.19C196.913 382.19 196.644 382.216 196.401 382.268C196.176 382.32 195.985 382.398 195.829 382.502C195.673 382.606 195.552 382.745 195.465 382.918C195.396 383.074 195.361 383.247 195.361 383.438C195.361 383.629 195.405 383.811 195.491 383.984C195.595 384.157 195.734 384.305 195.907 384.426C196.098 384.53 196.375 384.651 196.739 384.79C197.121 384.929 197.632 385.085 198.273 385.258C199.105 385.483 199.807 385.735 200.379 386.012C200.969 386.289 201.437 386.61 201.783 386.974C202.078 387.286 202.295 387.641 202.433 388.04C202.572 388.439 202.641 388.881 202.641 389.366C202.641 390.215 202.399 390.978 201.913 391.654C201.445 392.313 200.795 392.833 199.963 393.214C199.131 393.578 198.195 393.76 197.155 393.76Z" fill="#6D6D6D"/>
</g>
<path d="M37.124 452.696C36.9573 452.247 36.9573 451.753 37.124 451.304C38.7474 447.368 41.503 444.002 45.0415 441.634C48.5801 439.266 52.7421 438.001 57 438.001C61.2579 438.001 65.4199 439.266 68.9585 441.634C72.497 444.002 75.2526 447.368 76.876 451.304C77.0427 451.753 77.0427 452.247 76.876 452.696C75.2526 456.632 72.497 459.998 68.9585 462.366C65.4199 464.734 61.2579 465.999 57 465.999C52.7421 465.999 48.5801 464.734 45.0415 462.366C41.503 459.998 38.7474 456.632 37.124 452.696Z" stroke="#8C8C8C" stroke-width="4.02" stroke-linecap="round" stroke-linejoin="round"/>
<path d="M57 458C60.3137 458 63 455.314 63 452C63 448.686 60.3137 446 57 446C53.6863 446 51 448.686 51 452C51 455.314 53.6863 458 57 458Z" stroke="#8C8C8C" stroke-width="4.02" stroke-linecap="round" stroke-linejoin="round"/>
<g filter="url(#filter4_d_124_27)">
<path d="M103.768 461.26C102.641 461.26 101.61 461.121 100.674 460.844C99.7553 460.567 98.932 460.159 98.204 459.622C97.4933 459.085 96.852 458.435 96.28 457.672L98.724 454.89C99.5733 456.069 100.414 456.875 101.246 457.308C102.095 457.724 103.014 457.932 104.002 457.932C104.539 457.932 105.016 457.863 105.432 457.724C105.865 457.568 106.203 457.351 106.446 457.074C106.689 456.797 106.81 456.467 106.81 456.086C106.81 455.809 106.749 455.557 106.628 455.332C106.507 455.089 106.333 454.881 106.108 454.708C105.883 454.517 105.614 454.353 105.302 454.214C104.99 454.058 104.643 453.928 104.262 453.824C103.881 453.703 103.465 453.607 103.014 453.538C102.043 453.313 101.194 453.044 100.466 452.732C99.738 452.403 99.1313 452.004 98.646 451.536C98.1607 451.051 97.7967 450.505 97.554 449.898C97.3287 449.291 97.216 448.607 97.216 447.844C97.216 447.064 97.3893 446.345 97.736 445.686C98.0827 445.01 98.5593 444.429 99.166 443.944C99.79 443.459 100.501 443.086 101.298 442.826C102.113 442.566 102.971 442.436 103.872 442.436C104.981 442.436 105.952 442.566 106.784 442.826C107.616 443.069 108.335 443.424 108.942 443.892C109.566 444.36 110.086 444.932 110.502 445.608L108.032 448C107.668 447.515 107.269 447.107 106.836 446.778C106.42 446.449 105.961 446.206 105.458 446.05C104.973 445.877 104.47 445.79 103.95 445.79C103.378 445.79 102.884 445.868 102.468 446.024C102.052 446.163 101.723 446.371 101.48 446.648C101.255 446.925 101.142 447.263 101.142 447.662C101.142 447.974 101.22 448.251 101.376 448.494C101.532 448.737 101.757 448.953 102.052 449.144C102.347 449.317 102.702 449.473 103.118 449.612C103.534 449.751 103.993 449.872 104.496 449.976C105.449 450.167 106.307 450.418 107.07 450.73C107.833 451.042 108.483 451.423 109.02 451.874C109.575 452.307 109.999 452.827 110.294 453.434C110.589 454.023 110.736 454.691 110.736 455.436C110.736 456.667 110.441 457.715 109.852 458.582C109.263 459.449 108.448 460.116 107.408 460.584C106.368 461.035 105.155 461.26 103.768 461.26ZM114.32 461V447.246H118.012V461H114.32ZM116.14 444.412C115.43 444.412 114.875 444.239 114.476 443.892C114.078 443.545 113.878 443.051 113.878 442.41C113.878 441.821 114.078 441.344 114.476 440.98C114.892 440.599 115.447 440.408 116.14 440.408C116.851 440.408 117.406 440.59 117.804 440.954C118.203 441.301 118.402 441.786 118.402 442.41C118.402 443.017 118.194 443.502 117.778 443.866C117.38 444.23 116.834 444.412 116.14 444.412ZM128.482 466.98C127.39 466.98 126.315 466.815 125.258 466.486C124.2 466.174 123.342 465.767 122.684 465.264L123.984 462.612C124.33 462.855 124.729 463.071 125.18 463.262C125.63 463.453 126.098 463.6 126.584 463.704C127.086 463.808 127.598 463.86 128.118 463.86C129.019 463.86 129.756 463.721 130.328 463.444C130.917 463.167 131.359 462.751 131.654 462.196C131.948 461.659 132.096 460.965 132.096 460.116V457.724L132.72 457.854C132.616 458.426 132.33 458.955 131.862 459.44C131.394 459.908 130.804 460.289 130.094 460.584C129.383 460.861 128.655 461 127.91 461C126.627 461 125.492 460.705 124.504 460.116C123.516 459.527 122.736 458.712 122.164 457.672C121.592 456.632 121.306 455.436 121.306 454.084C121.306 452.697 121.583 451.475 122.138 450.418C122.71 449.343 123.481 448.503 124.452 447.896C125.44 447.272 126.558 446.96 127.806 446.96C128.326 446.96 128.82 447.021 129.288 447.142C129.773 447.263 130.215 447.437 130.614 447.662C131.03 447.87 131.394 448.113 131.706 448.39C132.035 448.65 132.304 448.936 132.512 449.248C132.72 449.56 132.85 449.872 132.902 450.184L132.148 450.392L132.252 447.246H135.788V459.96C135.788 461.087 135.623 462.083 135.294 462.95C134.964 463.817 134.479 464.545 133.838 465.134C133.214 465.741 132.442 466.2 131.524 466.512C130.622 466.824 129.608 466.98 128.482 466.98ZM128.586 458.036C129.314 458.036 129.946 457.871 130.484 457.542C131.038 457.213 131.463 456.753 131.758 456.164C132.052 455.575 132.2 454.881 132.2 454.084C132.2 453.304 132.052 452.619 131.758 452.03C131.463 451.423 131.038 450.955 130.484 450.626C129.946 450.297 129.314 450.132 128.586 450.132C127.875 450.132 127.242 450.305 126.688 450.652C126.15 450.981 125.734 451.441 125.44 452.03C125.145 452.619 124.998 453.304 124.998 454.084C124.998 454.864 125.145 455.557 125.44 456.164C125.734 456.753 126.15 457.213 126.688 457.542C127.242 457.871 127.875 458.036 128.586 458.036ZM139.716 461V441.76H143.356V450.054L142.628 450.366C142.819 449.742 143.157 449.179 143.642 448.676C144.145 448.156 144.743 447.74 145.436 447.428C146.129 447.116 146.857 446.96 147.62 446.96C148.66 446.96 149.527 447.168 150.22 447.584C150.931 448 151.459 448.633 151.806 449.482C152.17 450.314 152.352 451.345 152.352 452.576V461H148.66V452.862C148.66 452.238 148.573 451.718 148.4 451.302C148.227 450.886 147.958 450.583 147.594 450.392C147.247 450.184 146.814 450.097 146.294 450.132C145.878 450.132 145.488 450.201 145.124 450.34C144.777 450.461 144.474 450.643 144.214 450.886C143.971 451.129 143.772 451.406 143.616 451.718C143.477 452.03 143.408 452.368 143.408 452.732V461H141.588C141.189 461 140.834 461 140.522 461C140.21 461 139.941 461 139.716 461ZM157.476 461V443.762H161.168V461H157.476ZM154.902 450.548V447.246H163.976V450.548H154.902Z" fill="#6D6D6D"/>
</g>
<path d="M75 528C74.9993 527.299 74.8141 526.61 74.4631 526.002C74.112 525.395 73.6075 524.891 73 524.54L59 516.54C58.3919 516.189 57.7021 516.004 57 516.004C56.2979 516.004 55.6081 516.189 55 516.54L41 524.54C40.3925 524.891 39.888 525.395 39.5369 526.002C39.1859 526.61 39.0007 527.299 39 528V544C39.0007 544.702 39.1859 545.39 39.5369 545.998C39.888 546.605 40.3925 547.109 41 547.46L55 555.46C55.6081 555.811 56.2979 555.996 57 555.996C57.7021 555.996 58.3919 555.811 59 555.46L73 547.46C73.6075 547.109 74.112 546.605 74.4631 545.998C74.8141 545.39 74.9993 544.702 75 544V528Z" stroke="#8C8C8C" stroke-width="4.02" stroke-linecap="round" stroke-linejoin="round"/>
<path d="M39.6 526L57 536L74.4 526" stroke="#8C8C8C" stroke-width="4.02" stroke-linecap="round" stroke-linejoin="round"/>
<path d="M57 556V536" stroke="#8C8C8C" stroke-width="4.02" stroke-linecap="round" stroke-linejoin="round"/>
<g filter="url(#filter5_d_124_27)">
<path d="M95.708 528.5L102.832 510.3H106.316L113.414 528.5H109.41L105.744 518.698C105.64 518.421 105.51 518.065 105.354 517.632C105.215 517.199 105.068 516.739 104.912 516.254C104.756 515.769 104.609 515.309 104.47 514.876C104.331 514.425 104.227 514.053 104.158 513.758L104.86 513.732C104.756 514.131 104.635 514.547 104.496 514.98C104.375 515.396 104.245 515.829 104.106 516.28C103.967 516.713 103.82 517.138 103.664 517.554C103.508 517.97 103.361 518.377 103.222 518.776L99.556 528.5H95.708ZM99.01 524.678L100.284 521.532H108.63L109.93 524.678H99.01ZM121.182 528.76C119.864 528.76 118.686 528.448 117.646 527.824C116.606 527.2 115.782 526.351 115.176 525.276C114.586 524.201 114.292 522.979 114.292 521.61C114.292 520.258 114.586 519.045 115.176 517.97C115.782 516.878 116.606 516.02 117.646 515.396C118.686 514.772 119.864 514.46 121.182 514.46C122.412 514.46 123.539 514.685 124.562 515.136C125.584 515.587 126.382 516.211 126.954 517.008L124.926 519.452C124.683 519.123 124.38 518.828 124.016 518.568C123.652 518.291 123.253 518.074 122.82 517.918C122.404 517.762 121.97 517.684 121.52 517.684C120.809 517.684 120.176 517.857 119.622 518.204C119.084 518.533 118.66 518.993 118.348 519.582C118.036 520.171 117.88 520.847 117.88 521.61C117.88 522.355 118.036 523.023 118.348 523.612C118.677 524.184 119.119 524.652 119.674 525.016C120.228 525.363 120.852 525.536 121.546 525.536C121.996 525.536 122.421 525.475 122.82 525.354C123.218 525.215 123.591 525.016 123.938 524.756C124.302 524.496 124.631 524.184 124.926 523.82L126.928 526.264C126.338 527.009 125.524 527.616 124.484 528.084C123.444 528.535 122.343 528.76 121.182 528.76ZM130.88 528.5V511.262H134.572V528.5H130.88ZM128.306 518.048V514.746H137.38V518.048H128.306ZM140.358 528.5V514.746H144.05V528.5H140.358ZM142.178 511.912C141.467 511.912 140.913 511.739 140.514 511.392C140.115 511.045 139.916 510.551 139.916 509.91C139.916 509.321 140.115 508.844 140.514 508.48C140.93 508.099 141.485 507.908 142.178 507.908C142.889 507.908 143.443 508.09 143.842 508.454C144.241 508.801 144.44 509.286 144.44 509.91C144.44 510.517 144.232 511.002 143.816 511.366C143.417 511.73 142.871 511.912 142.178 511.912ZM154.649 528.76C153.245 528.76 151.989 528.457 150.879 527.85C149.787 527.226 148.921 526.377 148.279 525.302C147.655 524.227 147.343 522.997 147.343 521.61C147.343 520.223 147.655 519.001 148.279 517.944C148.921 516.869 149.787 516.02 150.879 515.396C151.989 514.772 153.245 514.46 154.649 514.46C156.036 514.46 157.275 514.772 158.367 515.396C159.477 516.02 160.343 516.869 160.967 517.944C161.591 519.001 161.903 520.223 161.903 521.61C161.903 522.997 161.591 524.227 160.967 525.302C160.343 526.377 159.477 527.226 158.367 527.85C157.275 528.457 156.036 528.76 154.649 528.76ZM154.649 525.536C155.325 525.536 155.932 525.371 156.469 525.042C157.007 524.695 157.423 524.227 157.717 523.638C158.029 523.031 158.185 522.355 158.185 521.61C158.185 520.847 158.029 520.171 157.717 519.582C157.423 518.975 157.007 518.507 156.469 518.178C155.932 517.831 155.325 517.658 154.649 517.658C153.956 517.658 153.341 517.831 152.803 518.178C152.266 518.525 151.841 518.993 151.529 519.582C151.217 520.171 151.07 520.847 151.087 521.61C151.07 522.355 151.217 523.031 151.529 523.638C151.841 524.227 152.266 524.695 152.803 525.042C153.341 525.371 153.956 525.536 154.649 525.536ZM164.941 528.5V514.746H168.477L168.581 517.554L167.853 517.866C168.044 517.242 168.382 516.679 168.867 516.176C169.37 515.656 169.968 515.24 170.661 514.928C171.354 514.616 172.082 514.46 172.845 514.46C173.885 514.46 174.752 514.668 175.445 515.084C176.156 515.5 176.684 516.133 177.031 516.982C177.395 517.814 177.577 518.845 177.577 520.076V528.5H173.885V520.362C173.885 519.738 173.798 519.218 173.625 518.802C173.452 518.386 173.183 518.083 172.819 517.892C172.472 517.684 172.039 517.597 171.519 517.632C171.103 517.632 170.713 517.701 170.349 517.84C170.002 517.961 169.699 518.143 169.439 518.386C169.196 518.629 168.997 518.906 168.841 519.218C168.702 519.53 168.633 519.868 168.633 520.232V528.5H166.813C166.414 528.5 166.059 528.5 165.747 528.5C165.435 528.5 165.166 528.5 164.941 528.5ZM182.753 528.76C182.077 528.76 181.557 528.569 181.193 528.188C180.829 527.807 180.647 527.261 180.647 526.55C180.647 525.909 180.837 525.389 181.219 524.99C181.617 524.574 182.129 524.366 182.753 524.366C183.411 524.366 183.923 524.557 184.287 524.938C184.651 525.319 184.833 525.857 184.833 526.55C184.833 527.209 184.642 527.746 184.261 528.162C183.879 528.561 183.377 528.76 182.753 528.76ZM182.753 518.906C182.077 518.906 181.557 518.715 181.193 518.334C180.829 517.953 180.647 517.407 180.647 516.696C180.647 516.055 180.837 515.535 181.219 515.136C181.617 514.72 182.129 514.512 182.753 514.512C183.411 514.512 183.923 514.703 184.287 515.084C184.651 515.465 184.833 516.003 184.833 516.696C184.833 517.355 184.642 517.892 184.261 518.308C183.879 518.707 183.377 518.906 182.753 518.906ZM109.332 561.5V543.3H113.232V561.5H109.332ZM97.866 561.5V543.3H101.766V561.5H97.866ZM99.426 554.194L99.452 550.658H111.334V554.194H99.426ZM124.241 561.76C122.751 561.76 121.451 561.457 120.341 560.85C119.232 560.243 118.365 559.411 117.741 558.354C117.117 557.297 116.805 556.083 116.805 554.714C116.805 553.657 116.979 552.686 117.325 551.802C117.672 550.918 118.157 550.155 118.781 549.514C119.405 548.855 120.142 548.353 120.991 548.006C121.858 547.642 122.794 547.46 123.799 547.46C124.735 547.46 125.602 547.633 126.399 547.98C127.197 548.309 127.881 548.786 128.453 549.41C129.043 550.017 129.493 550.736 129.805 551.568C130.117 552.4 130.256 553.31 130.221 554.298L130.195 555.442H119.145L118.547 553.18H127.153L126.737 553.648V553.076C126.703 552.608 126.547 552.183 126.269 551.802C126.009 551.421 125.671 551.126 125.255 550.918C124.839 550.71 124.371 550.606 123.851 550.606C123.089 550.606 122.439 550.753 121.901 551.048C121.381 551.343 120.983 551.776 120.705 552.348C120.428 552.92 120.289 553.613 120.289 554.428C120.289 555.26 120.463 555.979 120.809 556.586C121.173 557.193 121.676 557.669 122.317 558.016C122.976 558.345 123.747 558.51 124.631 558.51C125.238 558.51 125.793 558.415 126.295 558.224C126.798 558.033 127.335 557.704 127.907 557.236L129.675 559.706C129.173 560.157 128.618 560.538 128.011 560.85C127.405 561.145 126.781 561.37 126.139 561.526C125.498 561.682 124.865 561.76 124.241 561.76ZM138.358 561.76C137.214 561.76 136.182 561.448 135.264 560.824C134.345 560.2 133.617 559.351 133.08 558.276C132.542 557.201 132.274 555.971 132.274 554.584C132.274 553.197 132.542 551.975 133.08 550.918C133.634 549.843 134.38 549.003 135.316 548.396C136.252 547.772 137.318 547.46 138.514 547.46C139.19 547.46 139.805 547.564 140.36 547.772C140.932 547.963 141.426 548.231 141.842 548.578C142.275 548.925 142.639 549.323 142.934 549.774C143.228 550.225 143.436 550.71 143.558 551.23L142.778 551.1V547.746H146.444V561.5H142.726V558.198L143.558 558.12C143.419 558.605 143.194 559.065 142.882 559.498C142.57 559.931 142.18 560.321 141.712 560.668C141.261 560.997 140.75 561.266 140.178 561.474C139.606 561.665 138.999 561.76 138.358 561.76ZM139.372 558.562C140.065 558.562 140.672 558.397 141.192 558.068C141.712 557.739 142.11 557.279 142.388 556.69C142.682 556.083 142.83 555.381 142.83 554.584C142.83 553.804 142.682 553.119 142.388 552.53C142.11 551.941 141.712 551.481 141.192 551.152C140.672 550.805 140.065 550.632 139.372 550.632C138.696 550.632 138.098 550.805 137.578 551.152C137.075 551.481 136.676 551.941 136.382 552.53C136.087 553.119 135.94 553.804 135.94 554.584C135.94 555.381 136.087 556.083 136.382 556.69C136.676 557.279 137.075 557.739 137.578 558.068C138.098 558.397 138.696 558.562 139.372 558.562ZM150.431 561.5V542.26H154.123V561.5H150.431ZM165.739 555.676V552.634H178.765V555.676H165.739ZM170.549 560.46V547.798H173.929V560.46H170.549ZM185.778 560.226V545.458L186.74 547.2L182.944 549.046L182.19 545.588L187.26 543.04H189.626V560.226H185.778ZM182.58 561.5V557.99H192.902V561.5H182.58ZM201.819 561.76C200.623 561.76 199.549 561.457 198.595 560.85C197.642 560.226 196.888 559.385 196.333 558.328C195.796 557.253 195.527 556.014 195.527 554.61C195.527 553.241 195.796 552.019 196.333 550.944C196.888 549.869 197.633 549.02 198.569 548.396C199.523 547.772 200.606 547.46 201.819 547.46C202.461 547.46 203.076 547.564 203.665 547.772C204.272 547.963 204.809 548.231 205.277 548.578C205.763 548.925 206.153 549.315 206.447 549.748C206.742 550.164 206.907 550.606 206.941 551.074L206.005 551.23V542.26H209.697V561.5H206.213L206.057 558.328L206.785 558.406C206.751 558.839 206.595 559.255 206.317 559.654C206.04 560.053 205.667 560.417 205.199 560.746C204.749 561.058 204.229 561.309 203.639 561.5C203.067 561.673 202.461 561.76 201.819 561.76ZM202.651 558.692C203.345 558.692 203.951 558.519 204.471 558.172C204.991 557.825 205.399 557.349 205.693 556.742C205.988 556.135 206.135 555.425 206.135 554.61C206.135 553.813 205.988 553.111 205.693 552.504C205.399 551.88 204.991 551.403 204.471 551.074C203.951 550.727 203.345 550.554 202.651 550.554C201.958 550.554 201.351 550.727 200.831 551.074C200.329 551.403 199.93 551.88 199.635 552.504C199.358 553.111 199.219 553.813 199.219 554.61C199.219 555.425 199.358 556.135 199.635 556.742C199.93 557.349 200.329 557.825 200.831 558.172C201.351 558.519 201.958 558.692 202.651 558.692ZM219.251 561.5C218.332 561.5 217.466 561.335 216.651 561.006C215.854 560.677 215.152 560.217 214.545 559.628C213.956 559.039 213.488 558.345 213.141 557.548C212.812 556.751 212.647 555.893 212.647 554.974C212.647 554.402 212.716 553.821 212.855 553.232C212.994 552.625 213.184 552.001 213.427 551.36C213.687 550.719 213.999 550.051 214.363 549.358C214.727 548.665 215.134 547.945 215.585 547.2L218.081 543.014H221.721L221.825 543.274L218.523 548.604C218.055 549.367 217.639 550.095 217.275 550.788C216.928 551.481 216.616 552.149 216.339 552.79C216.079 553.431 215.836 554.081 215.611 554.74L214.857 552.66C215.082 552.071 215.386 551.542 215.767 551.074C216.148 550.589 216.582 550.181 217.067 549.852C217.552 549.505 218.064 549.245 218.601 549.072C219.138 548.881 219.667 548.786 220.187 548.786C221.21 548.786 222.146 549.063 222.995 549.618C223.862 550.155 224.546 550.875 225.049 551.776C225.569 552.677 225.829 553.665 225.829 554.74C225.829 556.04 225.543 557.201 224.971 558.224C224.416 559.229 223.636 560.027 222.631 560.616C221.643 561.205 220.516 561.5 219.251 561.5ZM219.303 558.198C219.892 558.198 220.412 558.068 220.863 557.808C221.331 557.531 221.695 557.149 221.955 556.664C222.215 556.179 222.345 555.624 222.345 555C222.345 554.463 222.206 553.96 221.929 553.492C221.669 553.007 221.305 552.617 220.837 552.322C220.386 552.027 219.884 551.88 219.329 551.88C218.722 551.88 218.176 552.027 217.691 552.322C217.223 552.599 216.85 552.972 216.573 553.44C216.313 553.891 216.183 554.402 216.183 554.974C216.183 555.598 216.313 556.153 216.573 556.638C216.85 557.106 217.223 557.487 217.691 557.782C218.159 558.059 218.696 558.198 219.303 558.198Z" fill="#6D6D6D"/>
</g>
<g style="mix-blend-mode:multiply">
<rect width="400" height="640" rx="30" fill="#FFD884"/>
</g>
<defs>
<filter id="filter0_d_124_27" x="93.092" y="71.384" width="144.194" height="68.336" filterUnits="userSpaceOnUse" color-interpolation-filters="sRGB">
<feFlood flood-opacity="0" result="BackgroundImageFix"/>
<feColorMatrix in="SourceAlpha" type="matrix" values="0 0 0 0 0 0 0 0 0 0 0 0 0 0 0 0 0 0 127 0" result="hardAlpha"/>
<feOffset dy="1.5"/>
<feGaussianBlur stdDeviation="1.5"/>
<feColorMatrix type="matrix" values="0 0 0 0 0 0 0 0 0 0 0 0 0 0 0 0 0 0 0.15 0"/>
<feBlend mode="normal" in2="BackgroundImageFix" result="effect1_dropShadow_124_27"/>
<feBlend mode="normal" in="SourceGraphic" in2="effect1_dropShadow_124_27" result="shape"/>
</filter>
<filter id="filter1_d_124_27" x="93.436" y="170.408" width="215.477" height="59.852" filterUnits="userSpaceOnUse" color-interpolation-filters="sRGB">
<feFlood flood-opacity="0" result="BackgroundImageFix"/>
<feColorMatrix in="SourceAlpha" type="matrix" values="0 0 0 0 0 0 0 0 0 0 0 0 0 0 0 0 0 0 127 0" result="hardAlpha"/>
<feOffset dy="1.5"/>
<feGaussianBlur stdDeviation="1.5"/>
<feColorMatrix type="matrix" values="0 0 0 0 0 0 0 0 0 0 0 0 0 0 0 0 0 0 0.15 0"/>
<feBlend mode="normal" in2="BackgroundImageFix" result="effect1_dropShadow_124_27"/>
<feBlend mode="normal" in="SourceGraphic" in2="effect1_dropShadow_124_27" result="shape"/>
</filter>
<filter id="filter2_d_124_27" x="93.436" y="254.408" width="236.017" height="65.312" filterUnits="userSpaceOnUse" color-interpolation-filters="sRGB">
<feFlood flood-opacity="0" result="BackgroundImageFix"/>
<feColorMatrix in="SourceAlpha" type="matrix" values="0 0 0 0 0 0 0 0 0 0 0 0 0 0 0 0 0 0 127 0" result="hardAlpha"/>
<feOffset dy="1.5"/>
<feGaussianBlur stdDeviation="1.5"/>
<feColorMatrix type="matrix" values="0 0 0 0 0 0 0 0 0 0 0 0 0 0 0 0 0 0 0.15 0"/>
<feBlend mode="normal" in2="BackgroundImageFix" result="effect1_dropShadow_124_27"/>
<feBlend mode="normal" in="SourceGraphic" in2="effect1_dropShadow_124_27" result="shape"/>
</filter>
<filter id="filter3_d_124_27" x="93.41" y="339.734" width="244.283" height="64.246" filterUnits="userSpaceOnUse" color-interpolation-filters="sRGB">
<feFlood flood-opacity="0" result="BackgroundImageFix"/>
<feColorMatrix in="SourceAlpha" type="matrix" values="0 0 0 0 0 0 0 0 0 0 0 0 0 0 0 0 0 0 127 0" result="hardAlpha"/>
<feOffset dy="1.5"/>
<feGaussianBlur stdDeviation="1.5"/>
<feColorMatrix type="matrix" values="0 0 0 0 0 0 0 0 0 0 0 0 0 0 0 0 0 0 0.15 0"/>
<feBlend mode="normal" in2="BackgroundImageFix" result="effect1_dropShadow_124_27"/>
<feBlend mode="normal" in="SourceGraphic" in2="effect1_dropShadow_124_27" result="shape"/>
</filter>
<filter id="filter4_d_124_27" x="93.28" y="438.908" width="73.6957" height="32.572" filterUnits="userSpaceOnUse" color-interpolation-filters="sRGB">
<feFlood flood-opacity="0" result="BackgroundImageFix"/>
<feColorMatrix in="SourceAlpha" type="matrix" values="0 0 0 0 0 0 0 0 0 0 0 0 0 0 0 0 0 0 127 0" result="hardAlpha"/>
<feOffset dy="1.5"/>
<feGaussianBlur stdDeviation="1.5"/>
<feColorMatrix type="matrix" values="0 0 0 0 0 0 0 0 0 0 0 0 0 0 0 0 0 0 0.15 0"/>
<feBlend mode="normal" in2="BackgroundImageFix" result="effect1_dropShadow_124_27"/>
<feBlend mode="normal" in="SourceGraphic" in2="effect1_dropShadow_124_27" result="shape"/>
</filter>
<filter id="filter5_d_124_27" x="92.708" y="506.408" width="136.121" height="59.8521" filterUnits="userSpaceOnUse" color-interpolation-filters="sRGB">
<feFlood flood-opacity="0" result="BackgroundImageFix"/>
<feColorMatrix in="SourceAlpha" type="matrix" values="0 0 0 0 0 0 0 0 0 0 0 0 0 0 0 0 0 0 127 0" result="hardAlpha"/>
<feOffset dy="1.5"/>
<feGaussianBlur stdDeviation="1.5"/>
<feColorMatrix type="matrix" values="0 0 0 0 0 0 0 0 0 0 0 0 0 0 0 0 0 0 0.15 0"/>
<feBlend mode="normal" in2="BackgroundImageFix" result="effect1_dropShadow_124_27"/>
<feBlend mode="normal" in="SourceGraphic" in2="effect1_dropShadow_124_27" result="shape"/>
</filter>
</defs>
</svg>
