<svg width="400" height="640" viewBox="0 0 400 640" fill="none" xmlns="http://www.w3.org/2000/svg">
<rect x="7" y="7" width="386" height="626" rx="23" fill="#D9D9D9" stroke="#747474" stroke-width="14"/>
<path d="M57 118C60.713 118 64.274 116.525 66.8995 113.899C69.525 111.274 71 107.713 71 104C71 100 69 96.2 65 93C61 89.8 58 85 57 80C56 85 53 89.8 49 93C45 96.2 43 100 43 104C43 107.713 44.475 111.274 47.1005 113.899C49.726 116.525 53.287 118 57 118Z" stroke="#8C8C8C" stroke-width="4" stroke-linecap="round" stroke-linejoin="round"/>
<g filter="url(#filter0_d_124_4)">
<path d="M104.604 120.5L91.1 75.7H96.476L105.116 105.268C105.457 106.292 105.735 107.273 105.948 108.212C106.204 109.108 106.417 109.983 106.588 110.836C106.759 111.647 106.929 112.479 107.1 113.332C107.271 114.143 107.441 114.996 107.612 115.892L106.524 115.828C107.079 113.865 107.527 112.308 107.868 111.156C108.252 110.004 108.615 108.98 108.956 108.084C109.297 107.188 109.681 106.164 110.108 105.012L117.66 86.004H122.332L129.948 105.204C130.46 106.399 130.908 107.529 131.292 108.596C131.676 109.663 132.039 110.751 132.38 111.86C132.764 112.969 133.127 114.207 133.468 115.572L132.444 115.764C132.657 114.697 132.828 113.823 132.956 113.14C133.084 112.457 133.212 111.86 133.34 111.348C133.468 110.793 133.596 110.26 133.724 109.748C133.852 109.193 134.023 108.553 134.236 107.828C134.449 107.06 134.727 106.1 135.068 104.948L143.708 75.7H149.084L135.452 120.5H131.292L119.196 91.7L120.348 91.892L108.7 120.5H104.604ZM164.808 121.14C161.907 121.14 159.283 120.393 156.936 118.9C154.589 117.364 152.733 115.295 151.368 112.692C150.003 110.047 149.32 107.06 149.32 103.732C149.32 100.361 150.024 97.3747 151.432 94.772C152.84 92.1693 154.717 90.1213 157.064 88.628C159.453 87.1347 162.12 86.388 165.064 86.388C166.813 86.388 168.435 86.644 169.928 87.156C171.421 87.668 172.744 88.3933 173.896 89.332C175.091 90.228 176.072 91.2947 176.84 92.532C177.651 93.7267 178.205 95.028 178.504 96.436L177.096 95.732L177.288 87.092H182.088V120.5H177.224V112.308L178.504 111.476C178.205 112.756 177.629 113.993 176.776 115.188C175.923 116.34 174.877 117.364 173.64 118.26C172.445 119.156 171.08 119.86 169.544 120.372C168.051 120.884 166.472 121.14 164.808 121.14ZM165.896 116.532C168.115 116.532 170.099 115.999 171.848 114.932C173.597 113.823 174.963 112.308 175.944 110.388C176.968 108.425 177.48 106.207 177.48 103.732C177.48 101.257 176.968 99.06 175.944 97.14C174.963 95.22 173.597 93.7053 171.848 92.596C170.099 91.4867 168.115 90.932 165.896 90.932C163.635 90.932 161.629 91.4867 159.88 92.596C158.173 93.7053 156.808 95.22 155.784 97.14C154.803 99.06 154.312 101.257 154.312 103.732C154.312 106.164 154.803 108.361 155.784 110.324C156.765 112.244 158.131 113.759 159.88 114.868C161.629 115.977 163.635 116.532 165.896 116.532ZM194.128 120.5V78.324H198.928V120.5H194.128ZM186.576 91.7V87.092H207.376V91.7H186.576ZM225.757 121.14C222.429 121.14 219.464 120.415 216.861 118.964C214.301 117.513 212.296 115.487 210.845 112.884C209.394 110.281 208.669 107.295 208.669 103.924C208.669 101.321 209.074 98.9747 209.885 96.884C210.696 94.7507 211.826 92.8947 213.277 91.316C214.77 89.7373 216.541 88.5213 218.589 87.668C220.637 86.772 222.856 86.324 225.245 86.324C227.506 86.324 229.554 86.7293 231.389 87.54C233.266 88.3507 234.866 89.4813 236.189 90.932C237.554 92.34 238.578 94.0253 239.261 95.988C239.944 97.9507 240.242 100.105 240.157 102.452L240.093 104.692H212.253L211.549 100.66H236.445L235.293 101.748V100.212C235.208 98.676 234.76 97.204 233.949 95.796C233.138 94.3453 231.986 93.172 230.493 92.276C229.042 91.38 227.293 90.932 225.245 90.932C222.856 90.932 220.786 91.4227 219.037 92.404C217.288 93.3427 215.944 94.7507 215.005 96.628C214.066 98.5053 213.597 100.831 213.597 103.604C213.597 106.249 214.109 108.553 215.133 110.516C216.157 112.436 217.608 113.929 219.485 114.996C221.405 116.063 223.709 116.596 226.397 116.596C227.976 116.596 229.533 116.34 231.069 115.828C232.648 115.273 234.376 114.207 236.253 112.628L238.749 116.084C237.768 117.065 236.594 117.94 235.229 118.708C233.864 119.433 232.37 120.031 230.749 120.5C229.128 120.927 227.464 121.14 225.757 121.14ZM245.055 120.5V87.092H249.855L249.983 95.988L249.471 94.772C249.94 93.2787 250.687 91.892 251.711 90.612C252.777 89.332 254.036 88.308 255.487 87.54C256.937 86.772 258.537 86.388 260.287 86.388C261.012 86.388 261.695 86.452 262.335 86.58C262.975 86.6653 263.508 86.7933 263.935 86.964L262.591 92.34C262.036 92.084 261.46 91.9133 260.863 91.828C260.308 91.7 259.775 91.636 259.263 91.636C257.812 91.636 256.511 91.892 255.359 92.404C254.207 92.916 253.225 93.6413 252.415 94.58C251.604 95.476 250.985 96.5213 250.559 97.716C250.132 98.9107 249.919 100.191 249.919 101.556V120.5H245.055Z" fill="#6D6D6D"/>
</g>
<path d="M57 202C58.1046 202 59 201.105 59 200C59 198.895 58.1046 198 57 198C55.8954 198 55 198.895 55 200C55 201.105 55.8954 202 57 202Z" stroke="#8C8C8C" stroke-width="4.02" stroke-linecap="round" stroke-linejoin="round"/>
<path d="M73.4 216.4C77.48 212.34 73.44 201.68 64.4 192.6C55.32 183.56 44.66 179.52 40.6 183.6C36.52 187.66 40.56 198.32 49.6 207.4C58.68 216.44 69.34 220.48 73.4 216.4Z" stroke="#8C8C8C" stroke-width="4.02" stroke-linecap="round" stroke-linejoin="round"/>
<path d="M64.4 207.4C73.44 198.32 77.48 187.66 73.4 183.6C69.34 179.52 58.68 183.56 49.6 192.6C40.56 201.68 36.52 212.34 40.6 216.4C44.66 220.48 55.32 216.44 64.4 207.4Z" stroke="#8C8C8C" stroke-width="4.02" stroke-linecap="round" stroke-linejoin="round"/>
<g filter="url(#filter1_d_124_4)">
<path d="M97.866 209V190.8H101.766V205.49H110.008V209H97.866ZM113.686 209V195.246H117.378V209H113.686ZM115.506 192.412C114.795 192.412 114.24 192.239 113.842 191.892C113.443 191.545 113.244 191.051 113.244 190.41C113.244 189.821 113.443 189.344 113.842 188.98C114.258 188.599 114.812 188.408 115.506 188.408C116.216 188.408 116.771 188.59 117.17 188.954C117.568 189.301 117.768 189.786 117.768 190.41C117.768 191.017 117.56 191.502 117.144 191.866C116.745 192.23 116.199 192.412 115.506 192.412ZM131.071 214.72V205.698L131.825 205.828C131.79 206.261 131.626 206.686 131.331 207.102C131.054 207.501 130.681 207.865 130.213 208.194C129.762 208.523 129.26 208.783 128.705 208.974C128.15 209.165 127.57 209.26 126.963 209.26C125.75 209.26 124.666 208.957 123.713 208.35C122.777 207.726 122.032 206.877 121.477 205.802C120.94 204.727 120.671 203.497 120.671 202.11C120.671 200.723 120.94 199.493 121.477 198.418C122.014 197.343 122.751 196.503 123.687 195.896C124.623 195.272 125.689 194.96 126.885 194.96C127.544 194.96 128.168 195.064 128.757 195.272C129.364 195.463 129.901 195.723 130.369 196.052C130.837 196.381 131.218 196.754 131.513 197.17C131.808 197.586 131.972 198.019 132.007 198.47L131.123 198.6L131.227 195.246H134.763V214.72H131.071ZM127.717 206.062C128.41 206.062 129.017 205.897 129.537 205.568C130.057 205.239 130.456 204.779 130.733 204.19C131.028 203.601 131.175 202.907 131.175 202.11C131.175 201.313 131.028 200.619 130.733 200.03C130.456 199.423 130.057 198.955 129.537 198.626C129.017 198.297 128.41 198.132 127.717 198.132C127.024 198.132 126.417 198.305 125.897 198.652C125.377 198.981 124.97 199.449 124.675 200.056C124.398 200.645 124.259 201.33 124.259 202.11C124.259 202.89 124.398 203.583 124.675 204.19C124.97 204.779 125.377 205.239 125.897 205.568C126.417 205.897 127.024 206.062 127.717 206.062ZM143.458 209.26C142.452 209.26 141.586 209.043 140.858 208.61C140.147 208.159 139.592 207.527 139.194 206.712C138.812 205.88 138.622 204.883 138.622 203.722V195.246H142.314V203.124C142.314 203.748 142.418 204.294 142.626 204.762C142.834 205.213 143.128 205.559 143.51 205.802C143.891 206.045 144.359 206.166 144.914 206.166C145.312 206.166 145.685 206.105 146.032 205.984C146.378 205.845 146.673 205.655 146.916 205.412C147.158 205.169 147.349 204.883 147.488 204.554C147.626 204.225 147.696 203.869 147.696 203.488V195.246H151.388V209H147.878L147.748 206.166L148.424 205.854C148.216 206.495 147.869 207.076 147.384 207.596C146.898 208.116 146.318 208.523 145.642 208.818C144.966 209.113 144.238 209.26 143.458 209.26ZM155.675 209V195.246H159.367V209H155.675ZM157.495 192.412C156.784 192.412 156.229 192.239 155.831 191.892C155.432 191.545 155.233 191.051 155.233 190.41C155.233 189.821 155.432 189.344 155.831 188.98C156.247 188.599 156.801 188.408 157.495 188.408C158.205 188.408 158.76 188.59 159.159 188.954C159.557 189.301 159.757 189.786 159.757 190.41C159.757 191.017 159.549 191.502 159.133 191.866C158.734 192.23 158.188 192.412 157.495 192.412ZM168.952 209.26C167.756 209.26 166.681 208.957 165.728 208.35C164.774 207.726 164.02 206.885 163.466 205.828C162.928 204.753 162.66 203.514 162.66 202.11C162.66 200.741 162.928 199.519 163.466 198.444C164.02 197.369 164.766 196.52 165.702 195.896C166.655 195.272 167.738 194.96 168.952 194.96C169.593 194.96 170.208 195.064 170.798 195.272C171.404 195.463 171.942 195.731 172.41 196.078C172.895 196.425 173.285 196.815 173.58 197.248C173.874 197.664 174.039 198.106 174.074 198.574L173.138 198.73V189.76H176.83V209H173.346L173.19 205.828L173.918 205.906C173.883 206.339 173.727 206.755 173.45 207.154C173.172 207.553 172.8 207.917 172.332 208.246C171.881 208.558 171.361 208.809 170.772 209C170.2 209.173 169.593 209.26 168.952 209.26ZM169.784 206.192C170.477 206.192 171.084 206.019 171.604 205.672C172.124 205.325 172.531 204.849 172.826 204.242C173.12 203.635 173.268 202.925 173.268 202.11C173.268 201.313 173.12 200.611 172.826 200.004C172.531 199.38 172.124 198.903 171.604 198.574C171.084 198.227 170.477 198.054 169.784 198.054C169.09 198.054 168.484 198.227 167.964 198.574C167.461 198.903 167.062 199.38 166.768 200.004C166.49 200.611 166.352 201.313 166.352 202.11C166.352 202.925 166.49 203.635 166.768 204.242C167.062 204.849 167.461 205.325 167.964 205.672C168.484 206.019 169.09 206.192 169.784 206.192ZM185.317 209.26C184.035 209.26 182.891 209.052 181.885 208.636C180.897 208.203 180.1 207.613 179.493 206.868L181.781 204.892C182.319 205.464 182.917 205.88 183.575 206.14C184.234 206.383 184.893 206.504 185.551 206.504C185.811 206.504 186.045 206.478 186.253 206.426C186.479 206.357 186.669 206.27 186.825 206.166C186.981 206.045 187.094 205.906 187.163 205.75C187.25 205.577 187.293 205.395 187.293 205.204C187.293 204.823 187.137 204.519 186.825 204.294C186.652 204.207 186.383 204.103 186.019 203.982C185.655 203.843 185.187 203.696 184.615 203.54C183.731 203.315 182.977 203.055 182.353 202.76C181.747 202.448 181.261 202.101 180.897 201.72C180.585 201.356 180.343 200.966 180.169 200.55C180.013 200.117 179.935 199.64 179.935 199.12C179.935 198.496 180.074 197.933 180.351 197.43C180.629 196.91 181.01 196.468 181.495 196.104C181.998 195.74 182.57 195.463 183.211 195.272C183.853 195.064 184.529 194.96 185.239 194.96C185.95 194.96 186.643 195.047 187.319 195.22C187.995 195.393 188.619 195.645 189.191 195.974C189.781 196.286 190.292 196.659 190.725 197.092L188.749 199.276C188.437 198.981 188.082 198.713 187.683 198.47C187.302 198.227 186.903 198.037 186.487 197.898C186.071 197.759 185.699 197.69 185.369 197.69C185.075 197.69 184.806 197.716 184.563 197.768C184.338 197.82 184.147 197.898 183.991 198.002C183.835 198.106 183.714 198.245 183.627 198.418C183.558 198.574 183.523 198.747 183.523 198.938C183.523 199.129 183.567 199.311 183.653 199.484C183.757 199.657 183.896 199.805 184.069 199.926C184.26 200.03 184.537 200.151 184.901 200.29C185.283 200.429 185.794 200.585 186.435 200.758C187.267 200.983 187.969 201.235 188.541 201.512C189.131 201.789 189.599 202.11 189.945 202.474C190.24 202.786 190.457 203.141 190.595 203.54C190.734 203.939 190.803 204.381 190.803 204.866C190.803 205.715 190.561 206.478 190.075 207.154C189.607 207.813 188.957 208.333 188.125 208.714C187.293 209.078 186.357 209.26 185.317 209.26ZM194.085 214.018L192.941 212.64C193.617 212.311 194.155 211.912 194.553 211.444C194.969 210.976 195.177 210.569 195.177 210.222C195.177 210.066 195.134 209.901 195.047 209.728C194.961 209.555 194.77 209.338 194.475 209.078C194.094 208.783 193.834 208.506 193.695 208.246C193.574 207.969 193.513 207.674 193.513 207.362C193.513 206.859 193.695 206.461 194.059 206.166C194.423 205.871 194.891 205.724 195.463 205.724C195.931 205.724 196.356 205.863 196.737 206.14C197.136 206.4 197.448 206.773 197.673 207.258C197.899 207.726 198.011 208.272 198.011 208.896C198.011 209.451 197.916 209.988 197.725 210.508C197.535 211.045 197.257 211.539 196.893 211.99C196.547 212.458 196.131 212.865 195.645 213.212C195.177 213.559 194.657 213.827 194.085 214.018ZM209.812 209V195.246H213.504V209H209.812ZM211.632 192.412C210.922 192.412 210.367 192.239 209.968 191.892C209.57 191.545 209.37 191.051 209.37 190.41C209.37 189.821 209.57 189.344 209.968 188.98C210.384 188.599 210.939 188.408 211.632 188.408C212.343 188.408 212.898 188.59 213.296 188.954C213.695 189.301 213.894 189.786 213.894 190.41C213.894 191.017 213.686 191.502 213.27 191.866C212.872 192.23 212.326 192.412 211.632 192.412ZM223.688 209.26C222.37 209.26 221.192 208.948 220.152 208.324C219.112 207.7 218.288 206.851 217.682 205.776C217.092 204.701 216.798 203.479 216.798 202.11C216.798 200.758 217.092 199.545 217.682 198.47C218.288 197.378 219.112 196.52 220.152 195.896C221.192 195.272 222.37 194.96 223.688 194.96C224.918 194.96 226.045 195.185 227.068 195.636C228.09 196.087 228.888 196.711 229.46 197.508L227.432 199.952C227.189 199.623 226.886 199.328 226.522 199.068C226.158 198.791 225.759 198.574 225.326 198.418C224.91 198.262 224.476 198.184 224.026 198.184C223.315 198.184 222.682 198.357 222.128 198.704C221.59 199.033 221.166 199.493 220.854 200.082C220.542 200.671 220.386 201.347 220.386 202.11C220.386 202.855 220.542 203.523 220.854 204.112C221.183 204.684 221.625 205.152 222.18 205.516C222.734 205.863 223.358 206.036 224.052 206.036C224.502 206.036 224.927 205.975 225.326 205.854C225.724 205.715 226.097 205.516 226.444 205.256C226.808 204.996 227.137 204.684 227.432 204.32L229.434 206.764C228.844 207.509 228.03 208.116 226.99 208.584C225.95 209.035 224.849 209.26 223.688 209.26ZM238.586 209.26C237.095 209.26 235.795 208.957 234.686 208.35C233.576 207.743 232.71 206.911 232.086 205.854C231.462 204.797 231.15 203.583 231.15 202.214C231.15 201.157 231.323 200.186 231.67 199.302C232.016 198.418 232.502 197.655 233.126 197.014C233.75 196.355 234.486 195.853 235.336 195.506C236.202 195.142 237.138 194.96 238.144 194.96C239.08 194.96 239.946 195.133 240.744 195.48C241.541 195.809 242.226 196.286 242.798 196.91C243.387 197.517 243.838 198.236 244.15 199.068C244.462 199.9 244.6 200.81 244.566 201.798L244.54 202.942H233.49L232.892 200.68H241.498L241.082 201.148V200.576C241.047 200.108 240.891 199.683 240.614 199.302C240.354 198.921 240.016 198.626 239.6 198.418C239.184 198.21 238.716 198.106 238.196 198.106C237.433 198.106 236.783 198.253 236.246 198.548C235.726 198.843 235.327 199.276 235.05 199.848C234.772 200.42 234.634 201.113 234.634 201.928C234.634 202.76 234.807 203.479 235.154 204.086C235.518 204.693 236.02 205.169 236.662 205.516C237.32 205.845 238.092 206.01 238.976 206.01C239.582 206.01 240.137 205.915 240.64 205.724C241.142 205.533 241.68 205.204 242.252 204.736L244.02 207.206C243.517 207.657 242.962 208.038 242.356 208.35C241.749 208.645 241.125 208.87 240.484 209.026C239.842 209.182 239.21 209.26 238.586 209.26ZM247.944 214.018L246.8 212.64C247.476 212.311 248.013 211.912 248.412 211.444C248.828 210.976 249.036 210.569 249.036 210.222C249.036 210.066 248.993 209.901 248.906 209.728C248.819 209.555 248.629 209.338 248.334 209.078C247.953 208.783 247.693 208.506 247.554 208.246C247.433 207.969 247.372 207.674 247.372 207.362C247.372 206.859 247.554 206.461 247.918 206.166C248.282 205.871 248.75 205.724 249.322 205.724C249.79 205.724 250.215 205.863 250.596 206.14C250.995 206.4 251.307 206.773 251.532 207.258C251.757 207.726 251.87 208.272 251.87 208.896C251.87 209.451 251.775 209.988 251.584 210.508C251.393 211.045 251.116 211.539 250.752 211.99C250.405 212.458 249.989 212.865 249.504 213.212C249.036 213.559 248.516 213.827 247.944 214.018ZM267.675 209L261.903 195.246H265.959L269.625 205.516L268.767 205.672L272.615 195.246H276.567L270.509 209H267.675ZM283.849 209.26C282.705 209.26 281.674 208.948 280.755 208.324C279.836 207.7 279.108 206.851 278.571 205.776C278.034 204.701 277.765 203.471 277.765 202.084C277.765 200.697 278.034 199.475 278.571 198.418C279.126 197.343 279.871 196.503 280.807 195.896C281.743 195.272 282.809 194.96 284.005 194.96C284.681 194.96 285.296 195.064 285.851 195.272C286.423 195.463 286.917 195.731 287.333 196.078C287.766 196.425 288.13 196.823 288.425 197.274C288.72 197.725 288.928 198.21 289.049 198.73L288.269 198.6V195.246H291.935V209H288.217V205.698L289.049 205.62C288.91 206.105 288.685 206.565 288.373 206.998C288.061 207.431 287.671 207.821 287.203 208.168C286.752 208.497 286.241 208.766 285.669 208.974C285.097 209.165 284.49 209.26 283.849 209.26ZM284.863 206.062C285.556 206.062 286.163 205.897 286.683 205.568C287.203 205.239 287.602 204.779 287.879 204.19C288.174 203.583 288.321 202.881 288.321 202.084C288.321 201.304 288.174 200.619 287.879 200.03C287.602 199.441 287.203 198.981 286.683 198.652C286.163 198.305 285.556 198.132 284.863 198.132C284.187 198.132 283.589 198.305 283.069 198.652C282.566 198.981 282.168 199.441 281.873 200.03C281.578 200.619 281.431 201.304 281.431 202.084C281.431 202.881 281.578 203.583 281.873 204.19C282.168 204.779 282.566 205.239 283.069 205.568C283.589 205.897 284.187 206.062 284.863 206.062ZM295.897 214.72V195.246H299.459L299.563 198.34L298.887 198.106C299.008 197.551 299.303 197.04 299.771 196.572C300.256 196.104 300.854 195.723 301.565 195.428C302.275 195.133 303.021 194.986 303.801 194.986C304.997 194.986 306.054 195.298 306.973 195.922C307.909 196.529 308.645 197.369 309.183 198.444C309.737 199.501 310.015 200.723 310.015 202.11C310.015 203.479 309.746 204.701 309.209 205.776C308.671 206.851 307.935 207.7 306.999 208.324C306.063 208.931 304.997 209.234 303.801 209.234C303.003 209.234 302.241 209.087 301.513 208.792C300.802 208.48 300.195 208.073 299.693 207.57C299.19 207.067 298.878 206.53 298.757 205.958L299.615 205.594V214.72H295.897ZM302.969 206.062C303.645 206.062 304.243 205.897 304.763 205.568C305.283 205.239 305.69 204.779 305.985 204.19C306.279 203.583 306.427 202.89 306.427 202.11C306.427 201.33 306.279 200.645 305.985 200.056C305.69 199.467 305.283 199.007 304.763 198.678C304.26 198.349 303.662 198.184 302.969 198.184C302.275 198.184 301.669 198.349 301.149 198.678C300.629 198.99 300.221 199.449 299.927 200.056C299.632 200.645 299.485 201.33 299.485 202.11C299.485 202.89 299.632 203.583 299.927 204.19C300.221 204.779 300.629 205.239 301.149 205.568C301.669 205.897 302.275 206.062 302.969 206.062ZM319.463 209.26C318.059 209.26 316.802 208.957 315.693 208.35C314.601 207.726 313.734 206.877 313.093 205.802C312.469 204.727 312.157 203.497 312.157 202.11C312.157 200.723 312.469 199.501 313.093 198.444C313.734 197.369 314.601 196.52 315.693 195.896C316.802 195.272 318.059 194.96 319.463 194.96C320.849 194.96 322.089 195.272 323.181 195.896C324.29 196.52 325.157 197.369 325.781 198.444C326.405 199.501 326.717 200.723 326.717 202.11C326.717 203.497 326.405 204.727 325.781 205.802C325.157 206.877 324.29 207.726 323.181 208.35C322.089 208.957 320.849 209.26 319.463 209.26ZM319.463 206.036C320.139 206.036 320.745 205.871 321.283 205.542C321.82 205.195 322.236 204.727 322.531 204.138C322.843 203.531 322.999 202.855 322.999 202.11C322.999 201.347 322.843 200.671 322.531 200.082C322.236 199.475 321.82 199.007 321.283 198.678C320.745 198.331 320.139 198.158 319.463 198.158C318.769 198.158 318.154 198.331 317.617 198.678C317.079 199.025 316.655 199.493 316.343 200.082C316.031 200.671 315.883 201.347 315.901 202.11C315.883 202.855 316.031 203.531 316.343 204.138C316.655 204.727 317.079 205.195 317.617 205.542C318.154 205.871 318.769 206.036 319.463 206.036ZM329.755 209V195.246H333.317L333.447 199.666L332.823 198.756C333.031 198.045 333.369 197.404 333.837 196.832C334.305 196.243 334.851 195.783 335.475 195.454C336.116 195.125 336.783 194.96 337.477 194.96C337.771 194.96 338.057 194.986 338.335 195.038C338.612 195.09 338.846 195.151 339.037 195.22L338.049 199.276C337.841 199.172 337.589 199.085 337.295 199.016C337 198.929 336.697 198.886 336.385 198.886C335.969 198.886 335.579 198.964 335.215 199.12C334.868 199.259 334.565 199.467 334.305 199.744C334.045 200.004 333.837 200.316 333.681 200.68C333.542 201.044 333.473 201.443 333.473 201.876V209H329.755Z" fill="#6D6D6D"/>
</g>
<path d="M55.034 265.628C55.1197 265.169 55.3631 264.755 55.7222 264.457C56.0812 264.158 56.5333 263.995 57 263.995C57.4667 263.995 57.9188 264.158 58.2778 264.457C58.6369 264.755 58.8803 265.169 58.966 265.628L61.068 276.744C61.2173 277.534 61.6014 278.261 62.1701 278.83C62.7388 279.399 63.4657 279.783 64.256 279.932L75.372 282.034C75.8308 282.12 76.2452 282.363 76.5434 282.722C76.8416 283.081 77.0048 283.533 77.0048 284C77.0048 284.467 76.8416 284.919 76.5434 285.278C76.2452 285.637 75.8308 285.88 75.372 285.966L64.256 288.068C63.4657 288.217 62.7388 288.601 62.1701 289.17C61.6014 289.739 61.2173 290.466 61.068 291.256L58.966 302.372C58.8803 302.831 58.6369 303.245 58.2778 303.543C57.9188 303.842 57.4667 304.005 57 304.005C56.5333 304.005 56.0812 303.842 55.7222 303.543C55.3631 303.245 55.1197 302.831 55.034 302.372L52.932 291.256C52.7827 290.466 52.3986 289.739 51.8299 289.17C51.2612 288.601 50.5343 288.217 49.744 288.068L38.628 285.966C38.1692 285.88 37.7548 285.637 37.4566 285.278C37.1584 284.919 36.9952 284.467 36.9952 284C36.9952 283.533 37.1584 283.081 37.4566 282.722C37.7548 282.363 38.1692 282.12 38.628 282.034L49.744 279.932C50.5343 279.783 51.2612 279.399 51.8299 278.83C52.3986 278.261 52.7827 277.534 52.932 276.744L55.034 265.628Z" stroke="#8C8C8C" stroke-width="4.02" stroke-linecap="round" stroke-linejoin="round"/>
<path d="M73 264V272" stroke="#8C8C8C" stroke-width="4.02" stroke-linecap="round" stroke-linejoin="round"/>
<path d="M77 268H69" stroke="#8C8C8C" stroke-width="4.02" stroke-linecap="round" stroke-linejoin="round"/>
<path d="M41 304C43.2091 304 45 302.209 45 300C45 297.791 43.2091 296 41 296C38.7909 296 37 297.791 37 300C37 302.209 38.7909 304 41 304Z" stroke="#8C8C8C" stroke-width="4.02" stroke-linecap="round" stroke-linejoin="round"/>
<g filter="url(#filter2_d_124_4)">
<path d="M97.866 276.5V258.3H105.588C106.663 258.3 107.633 258.56 108.5 259.08C109.384 259.583 110.077 260.276 110.58 261.16C111.1 262.044 111.36 263.041 111.36 264.15C111.36 265.277 111.1 266.291 110.58 267.192C110.077 268.093 109.384 268.813 108.5 269.35C107.633 269.87 106.663 270.13 105.588 270.13H101.766V276.5H97.866ZM101.714 266.62H105.146C105.562 266.62 105.935 266.516 106.264 266.308C106.593 266.083 106.853 265.788 107.044 265.424C107.252 265.06 107.356 264.644 107.356 264.176C107.356 263.708 107.252 263.301 107.044 262.954C106.853 262.59 106.593 262.313 106.264 262.122C105.935 261.914 105.562 261.81 105.146 261.81H101.714V266.62ZM120.864 276.76C119.374 276.76 118.074 276.457 116.964 275.85C115.855 275.243 114.988 274.411 114.364 273.354C113.74 272.297 113.428 271.083 113.428 269.714C113.428 268.657 113.602 267.686 113.948 266.802C114.295 265.918 114.78 265.155 115.404 264.514C116.028 263.855 116.765 263.353 117.614 263.006C118.481 262.642 119.417 262.46 120.422 262.46C121.358 262.46 122.225 262.633 123.022 262.98C123.82 263.309 124.504 263.786 125.076 264.41C125.666 265.017 126.116 265.736 126.428 266.568C126.74 267.4 126.879 268.31 126.844 269.298L126.818 270.442H115.768L115.17 268.18H123.776L123.36 268.648V268.076C123.326 267.608 123.17 267.183 122.892 266.802C122.632 266.421 122.294 266.126 121.878 265.918C121.462 265.71 120.994 265.606 120.474 265.606C119.712 265.606 119.062 265.753 118.524 266.048C118.004 266.343 117.606 266.776 117.328 267.348C117.051 267.92 116.912 268.613 116.912 269.428C116.912 270.26 117.086 270.979 117.432 271.586C117.796 272.193 118.299 272.669 118.94 273.016C119.599 273.345 120.37 273.51 121.254 273.51C121.861 273.51 122.416 273.415 122.918 273.224C123.421 273.033 123.958 272.704 124.53 272.236L126.298 274.706C125.796 275.157 125.241 275.538 124.634 275.85C124.028 276.145 123.404 276.37 122.762 276.526C122.121 276.682 121.488 276.76 120.864 276.76ZM134.981 276.76C133.837 276.76 132.805 276.448 131.887 275.824C130.968 275.2 130.24 274.351 129.703 273.276C129.165 272.201 128.897 270.971 128.897 269.584C128.897 268.197 129.165 266.975 129.703 265.918C130.257 264.843 131.003 264.003 131.939 263.396C132.875 262.772 133.941 262.46 135.137 262.46C135.813 262.46 136.428 262.564 136.983 262.772C137.555 262.963 138.049 263.231 138.465 263.578C138.898 263.925 139.262 264.323 139.557 264.774C139.851 265.225 140.059 265.71 140.181 266.23L139.401 266.1V262.746H143.067V276.5H139.349V273.198L140.181 273.12C140.042 273.605 139.817 274.065 139.505 274.498C139.193 274.931 138.803 275.321 138.335 275.668C137.884 275.997 137.373 276.266 136.801 276.474C136.229 276.665 135.622 276.76 134.981 276.76ZM135.995 273.562C136.688 273.562 137.295 273.397 137.815 273.068C138.335 272.739 138.733 272.279 139.011 271.69C139.305 271.083 139.453 270.381 139.453 269.584C139.453 268.804 139.305 268.119 139.011 267.53C138.733 266.941 138.335 266.481 137.815 266.152C137.295 265.805 136.688 265.632 135.995 265.632C135.319 265.632 134.721 265.805 134.201 266.152C133.698 266.481 133.299 266.941 133.005 267.53C132.71 268.119 132.563 268.804 132.563 269.584C132.563 270.381 132.71 271.083 133.005 271.69C133.299 272.279 133.698 272.739 134.201 273.068C134.721 273.397 135.319 273.562 135.995 273.562ZM153.008 276.76C151.691 276.76 150.512 276.448 149.472 275.824C148.432 275.2 147.609 274.351 147.002 273.276C146.413 272.201 146.118 270.979 146.118 269.61C146.118 268.258 146.413 267.045 147.002 265.97C147.609 264.878 148.432 264.02 149.472 263.396C150.512 262.772 151.691 262.46 153.008 262.46C154.239 262.46 155.366 262.685 156.388 263.136C157.411 263.587 158.208 264.211 158.78 265.008L156.752 267.452C156.51 267.123 156.206 266.828 155.842 266.568C155.478 266.291 155.08 266.074 154.646 265.918C154.23 265.762 153.797 265.684 153.346 265.684C152.636 265.684 152.003 265.857 151.448 266.204C150.911 266.533 150.486 266.993 150.174 267.582C149.862 268.171 149.706 268.847 149.706 269.61C149.706 270.355 149.862 271.023 150.174 271.612C150.504 272.184 150.946 272.652 151.5 273.016C152.055 273.363 152.679 273.536 153.372 273.536C153.823 273.536 154.248 273.475 154.646 273.354C155.045 273.215 155.418 273.016 155.764 272.756C156.128 272.496 156.458 272.184 156.752 271.82L158.754 274.264C158.165 275.009 157.35 275.616 156.31 276.084C155.27 276.535 154.17 276.76 153.008 276.76ZM167.906 276.76C166.415 276.76 165.115 276.457 164.006 275.85C162.897 275.243 162.03 274.411 161.406 273.354C160.782 272.297 160.47 271.083 160.47 269.714C160.47 268.657 160.643 267.686 160.99 266.802C161.337 265.918 161.822 265.155 162.446 264.514C163.07 263.855 163.807 263.353 164.656 263.006C165.523 262.642 166.459 262.46 167.464 262.46C168.4 262.46 169.267 262.633 170.064 262.98C170.861 263.309 171.546 263.786 172.118 264.41C172.707 265.017 173.158 265.736 173.47 266.568C173.782 267.4 173.921 268.31 173.886 269.298L173.86 270.442H162.81L162.212 268.18H170.818L170.402 268.648V268.076C170.367 267.608 170.211 267.183 169.934 266.802C169.674 266.421 169.336 266.126 168.92 265.918C168.504 265.71 168.036 265.606 167.516 265.606C166.753 265.606 166.103 265.753 165.566 266.048C165.046 266.343 164.647 266.776 164.37 267.348C164.093 267.92 163.954 268.613 163.954 269.428C163.954 270.26 164.127 270.979 164.474 271.586C164.838 272.193 165.341 272.669 165.982 273.016C166.641 273.345 167.412 273.51 168.296 273.51C168.903 273.51 169.457 273.415 169.96 273.224C170.463 273.033 171 272.704 171.572 272.236L173.34 274.706C172.837 275.157 172.283 275.538 171.676 275.85C171.069 276.145 170.445 276.37 169.804 276.526C169.163 276.682 168.53 276.76 167.906 276.76ZM177.265 281.518L176.121 280.14C176.797 279.811 177.334 279.412 177.733 278.944C178.149 278.476 178.357 278.069 178.357 277.722C178.357 277.566 178.313 277.401 178.227 277.228C178.14 277.055 177.949 276.838 177.655 276.578C177.273 276.283 177.013 276.006 176.875 275.746C176.753 275.469 176.693 275.174 176.693 274.862C176.693 274.359 176.875 273.961 177.239 273.666C177.603 273.371 178.071 273.224 178.643 273.224C179.111 273.224 179.535 273.363 179.917 273.64C180.315 273.9 180.627 274.273 180.853 274.758C181.078 275.226 181.191 275.772 181.191 276.396C181.191 276.951 181.095 277.488 180.905 278.008C180.714 278.545 180.437 279.039 180.073 279.49C179.726 279.958 179.31 280.365 178.825 280.712C178.357 281.059 177.837 281.327 177.265 281.518ZM198.66 276.76C197.342 276.76 196.164 276.448 195.124 275.824C194.084 275.2 193.26 274.351 192.654 273.276C192.064 272.201 191.77 270.979 191.77 269.61C191.77 268.258 192.064 267.045 192.654 265.97C193.26 264.878 194.084 264.02 195.124 263.396C196.164 262.772 197.342 262.46 198.66 262.46C199.89 262.46 201.017 262.685 202.04 263.136C203.062 263.587 203.86 264.211 204.432 265.008L202.404 267.452C202.161 267.123 201.858 266.828 201.494 266.568C201.13 266.291 200.731 266.074 200.298 265.918C199.882 265.762 199.448 265.684 198.998 265.684C198.287 265.684 197.654 265.857 197.1 266.204C196.562 266.533 196.138 266.993 195.826 267.582C195.514 268.171 195.358 268.847 195.358 269.61C195.358 270.355 195.514 271.023 195.826 271.612C196.155 272.184 196.597 272.652 197.152 273.016C197.706 273.363 198.33 273.536 199.024 273.536C199.474 273.536 199.899 273.475 200.298 273.354C200.696 273.215 201.069 273.016 201.416 272.756C201.78 272.496 202.109 272.184 202.404 271.82L204.406 274.264C203.816 275.009 203.002 275.616 201.962 276.084C200.922 276.535 199.821 276.76 198.66 276.76ZM213.427 276.76C212.023 276.76 210.767 276.457 209.657 275.85C208.565 275.226 207.699 274.377 207.057 273.302C206.433 272.227 206.121 270.997 206.121 269.61C206.121 268.223 206.433 267.001 207.057 265.944C207.699 264.869 208.565 264.02 209.657 263.396C210.767 262.772 212.023 262.46 213.427 262.46C214.814 262.46 216.053 262.772 217.145 263.396C218.255 264.02 219.121 264.869 219.745 265.944C220.369 267.001 220.681 268.223 220.681 269.61C220.681 270.997 220.369 272.227 219.745 273.302C219.121 274.377 218.255 275.226 217.145 275.85C216.053 276.457 214.814 276.76 213.427 276.76ZM213.427 273.536C214.103 273.536 214.71 273.371 215.247 273.042C215.785 272.695 216.201 272.227 216.495 271.638C216.807 271.031 216.963 270.355 216.963 269.61C216.963 268.847 216.807 268.171 216.495 267.582C216.201 266.975 215.785 266.507 215.247 266.178C214.71 265.831 214.103 265.658 213.427 265.658C212.734 265.658 212.119 265.831 211.581 266.178C211.044 266.525 210.619 266.993 210.307 267.582C209.995 268.171 209.848 268.847 209.865 269.61C209.848 270.355 209.995 271.031 210.307 271.638C210.619 272.227 211.044 272.695 211.581 273.042C212.119 273.371 212.734 273.536 213.427 273.536ZM223.693 276.5V262.746H227.255L227.333 265.372L226.787 265.476C226.978 265.025 227.229 264.618 227.541 264.254C227.853 263.89 228.217 263.578 228.633 263.318C229.067 263.058 229.517 262.859 229.985 262.72C230.453 262.564 230.921 262.486 231.389 262.486C232.1 262.486 232.741 262.599 233.313 262.824C233.885 263.049 234.371 263.405 234.769 263.89C235.168 264.358 235.48 264.982 235.705 265.762L235.133 265.71L235.315 265.294C235.541 264.878 235.827 264.505 236.173 264.176C236.52 263.829 236.91 263.535 237.343 263.292C237.777 263.032 238.227 262.833 238.695 262.694C239.163 262.555 239.623 262.486 240.073 262.486C241.148 262.486 242.041 262.703 242.751 263.136C243.462 263.552 243.991 264.185 244.337 265.034C244.701 265.883 244.883 266.923 244.883 268.154V276.5H241.191V268.414C241.191 267.79 241.105 267.279 240.931 266.88C240.758 266.481 240.507 266.187 240.177 265.996C239.848 265.788 239.423 265.684 238.903 265.684C238.505 265.684 238.132 265.753 237.785 265.892C237.456 266.013 237.161 266.195 236.901 266.438C236.659 266.663 236.468 266.932 236.329 267.244C236.191 267.556 236.121 267.903 236.121 268.284V276.5H232.429V268.388C232.429 267.816 232.334 267.331 232.143 266.932C231.97 266.516 231.719 266.204 231.389 265.996C231.06 265.788 230.653 265.684 230.167 265.684C229.769 265.684 229.396 265.753 229.049 265.892C228.72 266.013 228.434 266.195 228.191 266.438C227.949 266.663 227.749 266.932 227.593 267.244C227.455 267.556 227.385 267.894 227.385 268.258V276.5H223.693ZM249.725 276.5V261.784C249.725 260.935 249.916 260.163 250.297 259.47C250.678 258.777 251.198 258.231 251.857 257.832C252.533 257.433 253.322 257.234 254.223 257.234C254.83 257.234 255.402 257.338 255.939 257.546C256.476 257.737 256.936 258.005 257.317 258.352L256.225 261.056C256 260.917 255.766 260.805 255.523 260.718C255.298 260.614 255.09 260.562 254.899 260.562C254.57 260.562 254.292 260.623 254.067 260.744C253.859 260.848 253.703 261.013 253.599 261.238C253.495 261.446 253.443 261.715 253.443 262.044V276.5H251.597C251.198 276.5 250.843 276.5 250.531 276.5C250.219 276.5 249.95 276.5 249.725 276.5ZM247.671 266.204V263.084H256.407V266.204H247.671ZM265.014 276.76C263.61 276.76 262.353 276.457 261.244 275.85C260.152 275.226 259.285 274.377 258.644 273.302C258.02 272.227 257.708 270.997 257.708 269.61C257.708 268.223 258.02 267.001 258.644 265.944C259.285 264.869 260.152 264.02 261.244 263.396C262.353 262.772 263.61 262.46 265.014 262.46C266.401 262.46 267.64 262.772 268.732 263.396C269.841 264.02 270.708 264.869 271.332 265.944C271.956 267.001 272.268 268.223 272.268 269.61C272.268 270.997 271.956 272.227 271.332 273.302C270.708 274.377 269.841 275.226 268.732 275.85C267.64 276.457 266.401 276.76 265.014 276.76ZM265.014 273.536C265.69 273.536 266.297 273.371 266.834 273.042C267.371 272.695 267.787 272.227 268.082 271.638C268.394 271.031 268.55 270.355 268.55 269.61C268.55 268.847 268.394 268.171 268.082 267.582C267.787 266.975 267.371 266.507 266.834 266.178C266.297 265.831 265.69 265.658 265.014 265.658C264.321 265.658 263.705 265.831 263.168 266.178C262.631 266.525 262.206 266.993 261.894 267.582C261.582 268.171 261.435 268.847 261.452 269.61C261.435 270.355 261.582 271.031 261.894 271.638C262.206 272.227 262.631 272.695 263.168 273.042C263.705 273.371 264.321 273.536 265.014 273.536ZM275.306 276.5V262.746H278.868L278.998 267.166L278.374 266.256C278.582 265.545 278.92 264.904 279.388 264.332C279.856 263.743 280.402 263.283 281.026 262.954C281.667 262.625 282.335 262.46 283.028 262.46C283.323 262.46 283.609 262.486 283.886 262.538C284.163 262.59 284.397 262.651 284.588 262.72L283.6 266.776C283.392 266.672 283.141 266.585 282.846 266.516C282.551 266.429 282.248 266.386 281.936 266.386C281.52 266.386 281.13 266.464 280.766 266.62C280.419 266.759 280.116 266.967 279.856 267.244C279.596 267.504 279.388 267.816 279.232 268.18C279.093 268.544 279.024 268.943 279.024 269.376V276.5H275.306ZM288.8 276.5V259.262H292.492V276.5H288.8ZM286.226 266.048V262.746H295.3V266.048H286.226ZM297.849 281.518L296.705 280.14C297.381 279.811 297.918 279.412 298.317 278.944C298.733 278.476 298.941 278.069 298.941 277.722C298.941 277.566 298.897 277.401 298.811 277.228C298.724 277.055 298.533 276.838 298.239 276.578C297.857 276.283 297.597 276.006 297.459 275.746C297.337 275.469 297.277 275.174 297.277 274.862C297.277 274.359 297.459 273.961 297.823 273.666C298.187 273.371 298.655 273.224 299.227 273.224C299.695 273.224 300.119 273.363 300.501 273.64C300.899 273.9 301.211 274.273 301.437 274.758C301.662 275.226 301.775 275.772 301.775 276.396C301.775 276.951 301.679 277.488 301.489 278.008C301.298 278.545 301.021 279.039 300.657 279.49C300.31 279.958 299.894 280.365 299.409 280.712C298.941 281.059 298.421 281.327 297.849 281.518ZM101.974 309.76C100.691 309.76 99.5473 309.552 98.542 309.136C97.554 308.703 96.7567 308.113 96.15 307.368L98.438 305.392C98.9753 305.964 99.5733 306.38 100.232 306.64C100.891 306.883 101.549 307.004 102.208 307.004C102.468 307.004 102.702 306.978 102.91 306.926C103.135 306.857 103.326 306.77 103.482 306.666C103.638 306.545 103.751 306.406 103.82 306.25C103.907 306.077 103.95 305.895 103.95 305.704C103.95 305.323 103.794 305.019 103.482 304.794C103.309 304.707 103.04 304.603 102.676 304.482C102.312 304.343 101.844 304.196 101.272 304.04C100.388 303.815 99.634 303.555 99.01 303.26C98.4033 302.948 97.918 302.601 97.554 302.22C97.242 301.856 96.9993 301.466 96.826 301.05C96.67 300.617 96.592 300.14 96.592 299.62C96.592 298.996 96.7307 298.433 97.008 297.93C97.2853 297.41 97.6667 296.968 98.152 296.604C98.6547 296.24 99.2267 295.963 99.868 295.772C100.509 295.564 101.185 295.46 101.896 295.46C102.607 295.46 103.3 295.547 103.976 295.72C104.652 295.893 105.276 296.145 105.848 296.474C106.437 296.786 106.949 297.159 107.382 297.592L105.406 299.776C105.094 299.481 104.739 299.213 104.34 298.97C103.959 298.727 103.56 298.537 103.144 298.398C102.728 298.259 102.355 298.19 102.026 298.19C101.731 298.19 101.463 298.216 101.22 298.268C100.995 298.32 100.804 298.398 100.648 298.502C100.492 298.606 100.371 298.745 100.284 298.918C100.215 299.074 100.18 299.247 100.18 299.438C100.18 299.629 100.223 299.811 100.31 299.984C100.414 300.157 100.553 300.305 100.726 300.426C100.917 300.53 101.194 300.651 101.558 300.79C101.939 300.929 102.451 301.085 103.092 301.258C103.924 301.483 104.626 301.735 105.198 302.012C105.787 302.289 106.255 302.61 106.602 302.974C106.897 303.286 107.113 303.641 107.252 304.04C107.391 304.439 107.46 304.881 107.46 305.366C107.46 306.215 107.217 306.978 106.732 307.654C106.264 308.313 105.614 308.833 104.782 309.214C103.95 309.578 103.014 309.76 101.974 309.76ZM116.878 309.76C115.387 309.76 114.087 309.457 112.978 308.85C111.869 308.243 111.002 307.411 110.378 306.354C109.754 305.297 109.442 304.083 109.442 302.714C109.442 301.657 109.615 300.686 109.962 299.802C110.309 298.918 110.794 298.155 111.418 297.514C112.042 296.855 112.779 296.353 113.628 296.006C114.495 295.642 115.431 295.46 116.436 295.46C117.372 295.46 118.239 295.633 119.036 295.98C119.833 296.309 120.518 296.786 121.09 297.41C121.679 298.017 122.13 298.736 122.442 299.568C122.754 300.4 122.893 301.31 122.858 302.298L122.832 303.442H111.782L111.184 301.18H119.79L119.374 301.648V301.076C119.339 300.608 119.183 300.183 118.906 299.802C118.646 299.421 118.308 299.126 117.892 298.918C117.476 298.71 117.008 298.606 116.488 298.606C115.725 298.606 115.075 298.753 114.538 299.048C114.018 299.343 113.619 299.776 113.342 300.348C113.065 300.92 112.926 301.613 112.926 302.428C112.926 303.26 113.099 303.979 113.446 304.586C113.81 305.193 114.313 305.669 114.954 306.016C115.613 306.345 116.384 306.51 117.268 306.51C117.875 306.51 118.429 306.415 118.932 306.224C119.435 306.033 119.972 305.704 120.544 305.236L122.312 307.706C121.809 308.157 121.255 308.538 120.648 308.85C120.041 309.145 119.417 309.37 118.776 309.526C118.135 309.682 117.502 309.76 116.878 309.76ZM131.826 309.76C130.509 309.76 129.33 309.448 128.29 308.824C127.25 308.2 126.427 307.351 125.82 306.276C125.231 305.201 124.936 303.979 124.936 302.61C124.936 301.258 125.231 300.045 125.82 298.97C126.427 297.878 127.25 297.02 128.29 296.396C129.33 295.772 130.509 295.46 131.826 295.46C133.057 295.46 134.184 295.685 135.206 296.136C136.229 296.587 137.026 297.211 137.598 298.008L135.57 300.452C135.328 300.123 135.024 299.828 134.66 299.568C134.296 299.291 133.898 299.074 133.464 298.918C133.048 298.762 132.615 298.684 132.164 298.684C131.454 298.684 130.821 298.857 130.266 299.204C129.729 299.533 129.304 299.993 128.992 300.582C128.68 301.171 128.524 301.847 128.524 302.61C128.524 303.355 128.68 304.023 128.992 304.612C129.322 305.184 129.764 305.652 130.318 306.016C130.873 306.363 131.497 306.536 132.19 306.536C132.641 306.536 133.066 306.475 133.464 306.354C133.863 306.215 134.236 306.016 134.582 305.756C134.946 305.496 135.276 305.184 135.57 304.82L137.572 307.264C136.983 308.009 136.168 308.616 135.128 309.084C134.088 309.535 132.988 309.76 131.826 309.76ZM144.93 309.76C143.925 309.76 143.058 309.543 142.33 309.11C141.62 308.659 141.065 308.027 140.666 307.212C140.285 306.38 140.094 305.383 140.094 304.222V295.746H143.786V303.624C143.786 304.248 143.89 304.794 144.098 305.262C144.306 305.713 144.601 306.059 144.982 306.302C145.364 306.545 145.832 306.666 146.386 306.666C146.785 306.666 147.158 306.605 147.504 306.484C147.851 306.345 148.146 306.155 148.388 305.912C148.631 305.669 148.822 305.383 148.96 305.054C149.099 304.725 149.168 304.369 149.168 303.988V295.746H152.86V309.5H149.35L149.22 306.666L149.896 306.354C149.688 306.995 149.342 307.576 148.856 308.096C148.371 308.616 147.79 309.023 147.114 309.318C146.438 309.613 145.71 309.76 144.93 309.76ZM156.835 309.5V295.746H160.397L160.527 300.166L159.903 299.256C160.111 298.545 160.449 297.904 160.917 297.332C161.385 296.743 161.931 296.283 162.555 295.954C163.197 295.625 163.864 295.46 164.557 295.46C164.852 295.46 165.138 295.486 165.415 295.538C165.693 295.59 165.927 295.651 166.117 295.72L165.129 299.776C164.921 299.672 164.67 299.585 164.375 299.516C164.081 299.429 163.777 299.386 163.465 299.386C163.049 299.386 162.659 299.464 162.295 299.62C161.949 299.759 161.645 299.967 161.385 300.244C161.125 300.504 160.917 300.816 160.761 301.18C160.623 301.544 160.553 301.943 160.553 302.376V309.5H156.835ZM168.808 309.5V295.746H172.5V309.5H168.808ZM170.628 292.912C169.917 292.912 169.362 292.739 168.964 292.392C168.565 292.045 168.366 291.551 168.366 290.91C168.366 290.321 168.565 289.844 168.964 289.48C169.38 289.099 169.934 288.908 170.628 288.908C171.338 288.908 171.893 289.09 172.292 289.454C172.69 289.801 172.89 290.286 172.89 290.91C172.89 291.517 172.682 292.002 172.266 292.366C171.867 292.73 171.321 292.912 170.628 292.912ZM178.029 309.5V292.262H181.721V309.5H178.029ZM175.455 299.048V295.746H184.529V299.048H175.455ZM189.119 315.48L192.135 308.408L192.187 310.54L185.479 295.746H189.665L193.019 303.676C193.158 303.971 193.288 304.317 193.409 304.716C193.548 305.097 193.661 305.47 193.747 305.834L193.123 306.094C193.227 305.799 193.349 305.461 193.487 305.08C193.626 304.699 193.765 304.291 193.903 303.858L196.789 295.746H201.001L195.229 309.5L192.863 315.48H189.119Z" fill="#6D6D6D"/>
</g>
<path d="M62.4009 356.607C62.0345 356.981 61.8292 357.484 61.8292 358.007C61.8292 358.531 62.0345 359.034 62.4009 359.407L65.6009 362.607C65.9748 362.974 66.4774 363.179 67.0009 363.179C67.5244 363.179 68.0271 362.974 68.4009 362.607L74.6129 356.397C75.2529 355.753 76.3389 355.957 76.5789 356.833C77.1832 359.031 77.1491 361.356 76.4805 363.535C75.8119 365.714 74.5366 367.657 72.8037 369.138C71.0708 370.619 68.9521 371.575 66.6954 371.896C64.4388 372.216 62.1375 371.887 60.0609 370.947L44.2409 386.767C43.4453 387.563 42.3663 388.01 41.2412 388.009C40.1162 388.009 39.0373 387.562 38.2419 386.766C37.4465 385.971 36.9998 384.892 37 383.767C37.0002 382.642 37.4473 381.563 38.2429 380.767L54.0629 364.947C53.1232 362.871 52.7943 360.57 53.1148 358.313C53.4353 356.056 54.3918 353.937 55.8725 352.205C57.3531 350.472 59.2967 349.196 61.4757 348.528C63.6548 347.859 65.9792 347.825 68.1769 348.429C69.0529 348.669 69.2569 349.753 68.6149 350.397L62.4009 356.607Z" stroke="#8C8C8C" stroke-width="4.02" stroke-linecap="round" stroke-linejoin="round"/>
<g filter="url(#filter3_d_124_4)">
<path d="M97.866 360.5V342.3H105.588C106.663 342.3 107.633 342.56 108.5 343.08C109.384 343.583 110.077 344.276 110.58 345.16C111.1 346.044 111.36 347.041 111.36 348.15C111.36 349.277 111.1 350.291 110.58 351.192C110.077 352.093 109.384 352.813 108.5 353.35C107.633 353.87 106.663 354.13 105.588 354.13H101.766V360.5H97.866ZM101.714 350.62H105.146C105.562 350.62 105.935 350.516 106.264 350.308C106.593 350.083 106.853 349.788 107.044 349.424C107.252 349.06 107.356 348.644 107.356 348.176C107.356 347.708 107.252 347.301 107.044 346.954C106.853 346.59 106.593 346.313 106.264 346.122C105.935 345.914 105.562 345.81 105.146 345.81H101.714V350.62ZM114.592 360.5V346.746H118.154L118.284 351.166L117.66 350.256C117.868 349.545 118.206 348.904 118.674 348.332C119.142 347.743 119.688 347.283 120.312 346.954C120.954 346.625 121.621 346.46 122.314 346.46C122.609 346.46 122.895 346.486 123.172 346.538C123.45 346.59 123.684 346.651 123.874 346.72L122.886 350.776C122.678 350.672 122.427 350.585 122.132 350.516C121.838 350.429 121.534 350.386 121.222 350.386C120.806 350.386 120.416 350.464 120.052 350.62C119.706 350.759 119.402 350.967 119.142 351.244C118.882 351.504 118.674 351.816 118.518 352.18C118.38 352.544 118.31 352.943 118.31 353.376V360.5H114.592ZM132.065 360.76C130.661 360.76 129.404 360.457 128.295 359.85C127.203 359.226 126.336 358.377 125.695 357.302C125.071 356.227 124.759 354.997 124.759 353.61C124.759 352.223 125.071 351.001 125.695 349.944C126.336 348.869 127.203 348.02 128.295 347.396C129.404 346.772 130.661 346.46 132.065 346.46C133.451 346.46 134.691 346.772 135.783 347.396C136.892 348.02 137.759 348.869 138.383 349.944C139.007 351.001 139.319 352.223 139.319 353.61C139.319 354.997 139.007 356.227 138.383 357.302C137.759 358.377 136.892 359.226 135.783 359.85C134.691 360.457 133.451 360.76 132.065 360.76ZM132.065 357.536C132.741 357.536 133.347 357.371 133.885 357.042C134.422 356.695 134.838 356.227 135.133 355.638C135.445 355.031 135.601 354.355 135.601 353.61C135.601 352.847 135.445 352.171 135.133 351.582C134.838 350.975 134.422 350.507 133.885 350.178C133.347 349.831 132.741 349.658 132.065 349.658C131.371 349.658 130.756 349.831 130.219 350.178C129.681 350.525 129.257 350.993 128.945 351.582C128.633 352.171 128.485 352.847 128.503 353.61C128.485 354.355 128.633 355.031 128.945 355.638C129.257 356.227 129.681 356.695 130.219 357.042C130.756 357.371 131.371 357.536 132.065 357.536ZM143.682 360.5V343.262H147.374V360.5H143.682ZM141.108 350.048V346.746H150.182V350.048H141.108ZM159.248 360.76C157.757 360.76 156.457 360.457 155.348 359.85C154.239 359.243 153.372 358.411 152.748 357.354C152.124 356.297 151.812 355.083 151.812 353.714C151.812 352.657 151.985 351.686 152.332 350.802C152.679 349.918 153.164 349.155 153.788 348.514C154.412 347.855 155.149 347.353 155.998 347.006C156.865 346.642 157.801 346.46 158.806 346.46C159.742 346.46 160.609 346.633 161.406 346.98C162.203 347.309 162.888 347.786 163.46 348.41C164.049 349.017 164.5 349.736 164.812 350.568C165.124 351.4 165.263 352.31 165.228 353.298L165.202 354.442H154.152L153.554 352.18H162.16L161.744 352.648V352.076C161.709 351.608 161.553 351.183 161.276 350.802C161.016 350.421 160.678 350.126 160.262 349.918C159.846 349.71 159.378 349.606 158.858 349.606C158.095 349.606 157.445 349.753 156.908 350.048C156.388 350.343 155.989 350.776 155.712 351.348C155.435 351.92 155.296 352.613 155.296 353.428C155.296 354.26 155.469 354.979 155.816 355.586C156.18 356.193 156.683 356.669 157.324 357.016C157.983 357.345 158.754 357.51 159.638 357.51C160.245 357.51 160.799 357.415 161.302 357.224C161.805 357.033 162.342 356.704 162.914 356.236L164.682 358.706C164.179 359.157 163.625 359.538 163.018 359.85C162.411 360.145 161.787 360.37 161.146 360.526C160.505 360.682 159.872 360.76 159.248 360.76ZM174.196 360.76C172.879 360.76 171.7 360.448 170.66 359.824C169.62 359.2 168.797 358.351 168.19 357.276C167.601 356.201 167.306 354.979 167.306 353.61C167.306 352.258 167.601 351.045 168.19 349.97C168.797 348.878 169.62 348.02 170.66 347.396C171.7 346.772 172.879 346.46 174.196 346.46C175.427 346.46 176.554 346.685 177.576 347.136C178.599 347.587 179.396 348.211 179.968 349.008L177.94 351.452C177.698 351.123 177.394 350.828 177.03 350.568C176.666 350.291 176.268 350.074 175.834 349.918C175.418 349.762 174.985 349.684 174.534 349.684C173.824 349.684 173.191 349.857 172.636 350.204C172.099 350.533 171.674 350.993 171.362 351.582C171.05 352.171 170.894 352.847 170.894 353.61C170.894 354.355 171.05 355.023 171.362 355.612C171.692 356.184 172.134 356.652 172.688 357.016C173.243 357.363 173.867 357.536 174.56 357.536C175.011 357.536 175.436 357.475 175.834 357.354C176.233 357.215 176.606 357.016 176.952 356.756C177.316 356.496 177.646 356.184 177.94 355.82L179.942 358.264C179.353 359.009 178.538 359.616 177.498 360.084C176.458 360.535 175.358 360.76 174.196 360.76ZM183.894 360.5V343.262H187.586V360.5H183.894ZM181.32 350.048V346.746H190.394V350.048H181.32ZM193.373 360.5V346.746H197.065V360.5H193.373ZM195.193 343.912C194.482 343.912 193.927 343.739 193.529 343.392C193.13 343.045 192.931 342.551 192.931 341.91C192.931 341.321 193.13 340.844 193.529 340.48C193.945 340.099 194.499 339.908 195.193 339.908C195.903 339.908 196.458 340.09 196.857 340.454C197.255 340.801 197.455 341.286 197.455 341.91C197.455 342.517 197.247 343.002 196.831 343.366C196.432 343.73 195.886 343.912 195.193 343.912ZM207.664 360.76C206.26 360.76 205.003 360.457 203.894 359.85C202.802 359.226 201.935 358.377 201.294 357.302C200.67 356.227 200.358 354.997 200.358 353.61C200.358 352.223 200.67 351.001 201.294 349.944C201.935 348.869 202.802 348.02 203.894 347.396C205.003 346.772 206.26 346.46 207.664 346.46C209.05 346.46 210.29 346.772 211.382 347.396C212.491 348.02 213.358 348.869 213.982 349.944C214.606 351.001 214.918 352.223 214.918 353.61C214.918 354.997 214.606 356.227 213.982 357.302C213.358 358.377 212.491 359.226 211.382 359.85C210.29 360.457 209.05 360.76 207.664 360.76ZM207.664 357.536C208.34 357.536 208.946 357.371 209.484 357.042C210.021 356.695 210.437 356.227 210.732 355.638C211.044 355.031 211.2 354.355 211.2 353.61C211.2 352.847 211.044 352.171 210.732 351.582C210.437 350.975 210.021 350.507 209.484 350.178C208.946 349.831 208.34 349.658 207.664 349.658C206.97 349.658 206.355 349.831 205.818 350.178C205.28 350.525 204.856 350.993 204.544 351.582C204.232 352.171 204.084 352.847 204.102 353.61C204.084 354.355 204.232 355.031 204.544 355.638C204.856 356.227 205.28 356.695 205.818 357.042C206.355 357.371 206.97 357.536 207.664 357.536ZM217.956 360.5V346.746H221.492L221.596 349.554L220.868 349.866C221.058 349.242 221.396 348.679 221.882 348.176C222.384 347.656 222.982 347.24 223.676 346.928C224.369 346.616 225.097 346.46 225.86 346.46C226.9 346.46 227.766 346.668 228.46 347.084C229.17 347.5 229.699 348.133 230.046 348.982C230.41 349.814 230.592 350.845 230.592 352.076V360.5H226.9V352.362C226.9 351.738 226.813 351.218 226.64 350.802C226.466 350.386 226.198 350.083 225.834 349.892C225.487 349.684 225.054 349.597 224.534 349.632C224.118 349.632 223.728 349.701 223.364 349.84C223.017 349.961 222.714 350.143 222.454 350.386C222.211 350.629 222.012 350.906 221.856 351.218C221.717 351.53 221.648 351.868 221.648 352.232V360.5H219.828C219.429 360.5 219.074 360.5 218.762 360.5C218.45 360.5 218.181 360.5 217.956 360.5ZM234.779 365.518L233.635 364.14C234.311 363.811 234.849 363.412 235.247 362.944C235.663 362.476 235.871 362.069 235.871 361.722C235.871 361.566 235.828 361.401 235.741 361.228C235.655 361.055 235.464 360.838 235.169 360.578C234.788 360.283 234.528 360.006 234.389 359.746C234.268 359.469 234.207 359.174 234.207 358.862C234.207 358.359 234.389 357.961 234.753 357.666C235.117 357.371 235.585 357.224 236.157 357.224C236.625 357.224 237.05 357.363 237.431 357.64C237.83 357.9 238.142 358.273 238.367 358.758C238.593 359.226 238.705 359.772 238.705 360.396C238.705 360.951 238.61 361.488 238.419 362.008C238.229 362.545 237.951 363.039 237.587 363.49C237.241 363.958 236.825 364.365 236.339 364.712C235.871 365.059 235.351 365.327 234.779 365.518ZM97.346 393.5V379.746H100.908L101.038 384.166L100.414 383.256C100.622 382.545 100.96 381.904 101.428 381.332C101.896 380.743 102.442 380.283 103.066 379.954C103.707 379.625 104.375 379.46 105.068 379.46C105.363 379.46 105.649 379.486 105.926 379.538C106.203 379.59 106.437 379.651 106.628 379.72L105.64 383.776C105.432 383.672 105.181 383.585 104.886 383.516C104.591 383.429 104.288 383.386 103.976 383.386C103.56 383.386 103.17 383.464 102.806 383.62C102.459 383.759 102.156 383.967 101.896 384.244C101.636 384.504 101.428 384.816 101.272 385.18C101.133 385.544 101.064 385.943 101.064 386.376V393.5H97.346ZM114.948 393.76C113.458 393.76 112.158 393.457 111.048 392.85C109.939 392.243 109.072 391.411 108.448 390.354C107.824 389.297 107.512 388.083 107.512 386.714C107.512 385.657 107.686 384.686 108.032 383.802C108.379 382.918 108.864 382.155 109.488 381.514C110.112 380.855 110.849 380.353 111.698 380.006C112.565 379.642 113.501 379.46 114.506 379.46C115.442 379.46 116.309 379.633 117.106 379.98C117.904 380.309 118.588 380.786 119.16 381.41C119.75 382.017 120.2 382.736 120.512 383.568C120.824 384.4 120.963 385.31 120.928 386.298L120.902 387.442H109.852L109.254 385.18H117.86L117.444 385.648V385.076C117.41 384.608 117.254 384.183 116.976 383.802C116.716 383.421 116.378 383.126 115.962 382.918C115.546 382.71 115.078 382.606 114.558 382.606C113.796 382.606 113.146 382.753 112.608 383.048C112.088 383.343 111.69 383.776 111.412 384.348C111.135 384.92 110.996 385.613 110.996 386.428C110.996 387.26 111.17 387.979 111.516 388.586C111.88 389.193 112.383 389.669 113.024 390.016C113.683 390.345 114.454 390.51 115.338 390.51C115.945 390.51 116.5 390.415 117.002 390.224C117.505 390.033 118.042 389.704 118.614 389.236L120.382 391.706C119.88 392.157 119.325 392.538 118.718 392.85C118.112 393.145 117.488 393.37 116.846 393.526C116.205 393.682 115.572 393.76 114.948 393.76ZM128.545 393.76C127.262 393.76 126.118 393.552 125.113 393.136C124.125 392.703 123.327 392.113 122.721 391.368L125.009 389.392C125.546 389.964 126.144 390.38 126.803 390.64C127.461 390.883 128.12 391.004 128.779 391.004C129.039 391.004 129.273 390.978 129.481 390.926C129.706 390.857 129.897 390.77 130.053 390.666C130.209 390.545 130.321 390.406 130.391 390.25C130.477 390.077 130.521 389.895 130.521 389.704C130.521 389.323 130.365 389.019 130.053 388.794C129.879 388.707 129.611 388.603 129.247 388.482C128.883 388.343 128.415 388.196 127.843 388.04C126.959 387.815 126.205 387.555 125.581 387.26C124.974 386.948 124.489 386.601 124.125 386.22C123.813 385.856 123.57 385.466 123.397 385.05C123.241 384.617 123.163 384.14 123.163 383.62C123.163 382.996 123.301 382.433 123.579 381.93C123.856 381.41 124.237 380.968 124.723 380.604C125.225 380.24 125.797 379.963 126.439 379.772C127.08 379.564 127.756 379.46 128.467 379.46C129.177 379.46 129.871 379.547 130.547 379.72C131.223 379.893 131.847 380.145 132.419 380.474C133.008 380.786 133.519 381.159 133.953 381.592L131.977 383.776C131.665 383.481 131.309 383.213 130.911 382.97C130.529 382.727 130.131 382.537 129.715 382.398C129.299 382.259 128.926 382.19 128.597 382.19C128.302 382.19 128.033 382.216 127.791 382.268C127.565 382.32 127.375 382.398 127.219 382.502C127.063 382.606 126.941 382.745 126.855 382.918C126.785 383.074 126.751 383.247 126.751 383.438C126.751 383.629 126.794 383.811 126.881 383.984C126.985 384.157 127.123 384.305 127.297 384.426C127.487 384.53 127.765 384.651 128.129 384.79C128.51 384.929 129.021 385.085 129.663 385.258C130.495 385.483 131.197 385.735 131.769 386.012C132.358 386.289 132.826 386.61 133.173 386.974C133.467 387.286 133.684 387.641 133.823 388.04C133.961 388.439 134.031 388.881 134.031 389.366C134.031 390.215 133.788 390.978 133.303 391.654C132.835 392.313 132.185 392.833 131.353 393.214C130.521 393.578 129.585 393.76 128.545 393.76ZM137.235 393.5V379.746H140.927V393.5H137.235ZM139.055 376.912C138.344 376.912 137.79 376.739 137.391 376.392C136.992 376.045 136.793 375.551 136.793 374.91C136.793 374.321 136.992 373.844 137.391 373.48C137.807 373.099 138.362 372.908 139.055 372.908C139.766 372.908 140.32 373.09 140.719 373.454C141.118 373.801 141.317 374.286 141.317 374.91C141.317 375.517 141.109 376.002 140.693 376.366C140.294 376.73 139.748 376.912 139.055 376.912ZM145.156 393.5V374.26H148.848V393.5H145.156ZM153.167 393.5V379.746H156.859V393.5H153.167ZM154.987 376.912C154.276 376.912 153.722 376.739 153.323 376.392C152.924 376.045 152.725 375.551 152.725 374.91C152.725 374.321 152.924 373.844 153.323 373.48C153.739 373.099 154.294 372.908 154.987 372.908C155.698 372.908 156.252 373.09 156.651 373.454C157.05 373.801 157.249 374.286 157.249 374.91C157.249 375.517 157.041 376.002 156.625 376.366C156.226 376.73 155.68 376.912 154.987 376.912ZM167.588 393.76C166.098 393.76 164.798 393.457 163.688 392.85C162.579 392.243 161.712 391.411 161.088 390.354C160.464 389.297 160.152 388.083 160.152 386.714C160.152 385.657 160.326 384.686 160.672 383.802C161.019 382.918 161.504 382.155 162.128 381.514C162.752 380.855 163.489 380.353 164.338 380.006C165.205 379.642 166.141 379.46 167.146 379.46C168.082 379.46 168.949 379.633 169.746 379.98C170.544 380.309 171.228 380.786 171.8 381.41C172.39 382.017 172.84 382.736 173.152 383.568C173.464 384.4 173.603 385.31 173.568 386.298L173.542 387.442H162.492L161.894 385.18H170.5L170.084 385.648V385.076C170.05 384.608 169.894 384.183 169.616 383.802C169.356 383.421 169.018 383.126 168.602 382.918C168.186 382.71 167.718 382.606 167.198 382.606C166.436 382.606 165.786 382.753 165.248 383.048C164.728 383.343 164.33 383.776 164.052 384.348C163.775 384.92 163.636 385.613 163.636 386.428C163.636 387.26 163.81 387.979 164.156 388.586C164.52 389.193 165.023 389.669 165.664 390.016C166.323 390.345 167.094 390.51 167.978 390.51C168.585 390.51 169.14 390.415 169.642 390.224C170.145 390.033 170.682 389.704 171.254 389.236L173.022 391.706C172.52 392.157 171.965 392.538 171.358 392.85C170.752 393.145 170.128 393.37 169.486 393.526C168.845 393.682 168.212 393.76 167.588 393.76ZM176.557 393.5V379.746H180.093L180.197 382.554L179.469 382.866C179.659 382.242 179.997 381.679 180.483 381.176C180.985 380.656 181.583 380.24 182.277 379.928C182.97 379.616 183.698 379.46 184.461 379.46C185.501 379.46 186.367 379.668 187.061 380.084C187.771 380.5 188.3 381.133 188.647 381.982C189.011 382.814 189.193 383.845 189.193 385.076V393.5H185.501V385.362C185.501 384.738 185.414 384.218 185.241 383.802C185.067 383.386 184.799 383.083 184.435 382.892C184.088 382.684 183.655 382.597 183.135 382.632C182.719 382.632 182.329 382.701 181.965 382.84C181.618 382.961 181.315 383.143 181.055 383.386C180.812 383.629 180.613 383.906 180.457 384.218C180.318 384.53 180.249 384.868 180.249 385.232V393.5H178.429C178.03 393.5 177.675 393.5 177.363 393.5C177.051 393.5 176.782 393.5 176.557 393.5ZM198.97 393.76C197.653 393.76 196.474 393.448 195.434 392.824C194.394 392.2 193.571 391.351 192.964 390.276C192.375 389.201 192.08 387.979 192.08 386.61C192.08 385.258 192.375 384.045 192.964 382.97C193.571 381.878 194.394 381.02 195.434 380.396C196.474 379.772 197.653 379.46 198.97 379.46C200.201 379.46 201.328 379.685 202.35 380.136C203.373 380.587 204.17 381.211 204.742 382.008L202.714 384.452C202.472 384.123 202.168 383.828 201.804 383.568C201.44 383.291 201.042 383.074 200.608 382.918C200.192 382.762 199.759 382.684 199.308 382.684C198.598 382.684 197.965 382.857 197.41 383.204C196.873 383.533 196.448 383.993 196.136 384.582C195.824 385.171 195.668 385.847 195.668 386.61C195.668 387.355 195.824 388.023 196.136 388.612C196.466 389.184 196.908 389.652 197.462 390.016C198.017 390.363 198.641 390.536 199.334 390.536C199.785 390.536 200.21 390.475 200.608 390.354C201.007 390.215 201.38 390.016 201.726 389.756C202.09 389.496 202.42 389.184 202.714 388.82L204.716 391.264C204.127 392.009 203.312 392.616 202.272 393.084C201.232 393.535 200.132 393.76 198.97 393.76ZM213.868 393.76C212.378 393.76 211.078 393.457 209.968 392.85C208.859 392.243 207.992 391.411 207.368 390.354C206.744 389.297 206.432 388.083 206.432 386.714C206.432 385.657 206.606 384.686 206.952 383.802C207.299 382.918 207.784 382.155 208.408 381.514C209.032 380.855 209.769 380.353 210.618 380.006C211.485 379.642 212.421 379.46 213.426 379.46C214.362 379.46 215.229 379.633 216.026 379.98C216.824 380.309 217.508 380.786 218.08 381.41C218.67 382.017 219.12 382.736 219.432 383.568C219.744 384.4 219.883 385.31 219.848 386.298L219.822 387.442H208.772L208.174 385.18H216.78L216.364 385.648V385.076C216.33 384.608 216.174 384.183 215.896 383.802C215.636 383.421 215.298 383.126 214.882 382.918C214.466 382.71 213.998 382.606 213.478 382.606C212.716 382.606 212.066 382.753 211.528 383.048C211.008 383.343 210.61 383.776 210.332 384.348C210.055 384.92 209.916 385.613 209.916 386.428C209.916 387.26 210.09 387.979 210.436 388.586C210.8 389.193 211.303 389.669 211.944 390.016C212.603 390.345 213.374 390.51 214.258 390.51C214.865 390.51 215.42 390.415 215.922 390.224C216.425 390.033 216.962 389.704 217.534 389.236L219.302 391.706C218.8 392.157 218.245 392.538 217.638 392.85C217.032 393.145 216.408 393.37 215.766 393.526C215.125 393.682 214.492 393.76 213.868 393.76Z" fill="#6D6D6D"/>
</g>
<path d="M37.124 452.696C36.9573 452.247 36.9573 451.753 37.124 451.304C38.7474 447.368 41.503 444.002 45.0415 441.634C48.5801 439.266 52.7421 438.001 57 438.001C61.2579 438.001 65.42 439.266 68.9585 441.634C72.497 444.002 75.2526 447.368 76.876 451.304C77.0427 451.753 77.0427 452.247 76.876 452.696C75.2526 456.632 72.497 459.998 68.9585 462.366C65.42 464.734 61.2579 465.999 57 465.999C52.7421 465.999 48.5801 464.734 45.0415 462.366C41.503 459.998 38.7474 456.632 37.124 452.696Z" stroke="#8C8C8C" stroke-width="4.02" stroke-linecap="round" stroke-linejoin="round"/>
<path d="M57 458C60.3137 458 63 455.314 63 452C63 448.686 60.3137 446 57 446C53.6863 446 51 448.686 51 452C51 455.314 53.6863 458 57 458Z" stroke="#8C8C8C" stroke-width="4.02" stroke-linecap="round" stroke-linejoin="round"/>
<g filter="url(#filter4_d_124_4)">
<path d="M101.662 461V446.31H96.358V442.8H111.022V446.31H105.562V461H101.662ZM117.789 461.26C116.385 461.26 115.128 460.957 114.019 460.35C112.927 459.726 112.06 458.877 111.419 457.802C110.795 456.727 110.483 455.497 110.483 454.11C110.483 452.723 110.795 451.501 111.419 450.444C112.06 449.369 112.927 448.52 114.019 447.896C115.128 447.272 116.385 446.96 117.789 446.96C119.176 446.96 120.415 447.272 121.507 447.896C122.616 448.52 123.483 449.369 124.107 450.444C124.731 451.501 125.043 452.723 125.043 454.11C125.043 455.497 124.731 456.727 124.107 457.802C123.483 458.877 122.616 459.726 121.507 460.35C120.415 460.957 119.176 461.26 117.789 461.26ZM117.789 458.036C118.465 458.036 119.072 457.871 119.609 457.542C120.146 457.195 120.562 456.727 120.857 456.138C121.169 455.531 121.325 454.855 121.325 454.11C121.325 453.347 121.169 452.671 120.857 452.082C120.562 451.475 120.146 451.007 119.609 450.678C119.072 450.331 118.465 450.158 117.789 450.158C117.096 450.158 116.48 450.331 115.943 450.678C115.406 451.025 114.981 451.493 114.669 452.082C114.357 452.671 114.21 453.347 114.227 454.11C114.21 454.855 114.357 455.531 114.669 456.138C114.981 456.727 115.406 457.195 115.943 457.542C116.48 457.871 117.096 458.036 117.789 458.036ZM132.813 461.26C131.808 461.26 130.941 461.043 130.213 460.61C129.502 460.159 128.948 459.527 128.549 458.712C128.168 457.88 127.977 456.883 127.977 455.722V447.246H131.669V455.124C131.669 455.748 131.773 456.294 131.981 456.762C132.189 457.213 132.484 457.559 132.865 457.802C133.246 458.045 133.714 458.166 134.269 458.166C134.668 458.166 135.04 458.105 135.387 457.984C135.734 457.845 136.028 457.655 136.271 457.412C136.514 457.169 136.704 456.883 136.843 456.554C136.982 456.225 137.051 455.869 137.051 455.488V447.246H140.743V461H137.233L137.103 458.166L137.779 457.854C137.571 458.495 137.224 459.076 136.739 459.596C136.254 460.116 135.673 460.523 134.997 460.818C134.321 461.113 133.593 461.26 132.813 461.26ZM150.698 461.26C149.38 461.26 148.202 460.948 147.162 460.324C146.122 459.7 145.298 458.851 144.692 457.776C144.102 456.701 143.808 455.479 143.808 454.11C143.808 452.758 144.102 451.545 144.692 450.47C145.298 449.378 146.122 448.52 147.162 447.896C148.202 447.272 149.38 446.96 150.698 446.96C151.928 446.96 153.055 447.185 154.078 447.636C155.1 448.087 155.898 448.711 156.47 449.508L154.442 451.952C154.199 451.623 153.896 451.328 153.532 451.068C153.168 450.791 152.769 450.574 152.336 450.418C151.92 450.262 151.486 450.184 151.036 450.184C150.325 450.184 149.692 450.357 149.138 450.704C148.6 451.033 148.176 451.493 147.864 452.082C147.552 452.671 147.396 453.347 147.396 454.11C147.396 454.855 147.552 455.523 147.864 456.112C148.193 456.684 148.635 457.152 149.19 457.516C149.744 457.863 150.368 458.036 151.062 458.036C151.512 458.036 151.937 457.975 152.336 457.854C152.734 457.715 153.107 457.516 153.454 457.256C153.818 456.996 154.147 456.684 154.442 456.32L156.444 458.764C155.854 459.509 155.04 460.116 154 460.584C152.96 461.035 151.859 461.26 150.698 461.26ZM159.07 461V441.76H162.71V450.054L161.982 450.366C162.172 449.742 162.51 449.179 162.996 448.676C163.498 448.156 164.096 447.74 164.79 447.428C165.483 447.116 166.211 446.96 166.974 446.96C168.014 446.96 168.88 447.168 169.574 447.584C170.284 448 170.813 448.633 171.16 449.482C171.524 450.314 171.706 451.345 171.706 452.576V461H168.014V452.862C168.014 452.238 167.927 451.718 167.754 451.302C167.58 450.886 167.312 450.583 166.948 450.392C166.601 450.184 166.168 450.097 165.648 450.132C165.232 450.132 164.842 450.201 164.478 450.34C164.131 450.461 163.828 450.643 163.568 450.886C163.325 451.129 163.126 451.406 162.97 451.718C162.831 452.03 162.762 452.368 162.762 452.732V461H160.942C160.543 461 160.188 461 159.876 461C159.564 461 159.295 461 159.07 461ZM175.893 466.018L174.749 464.64C175.425 464.311 175.963 463.912 176.361 463.444C176.777 462.976 176.985 462.569 176.985 462.222C176.985 462.066 176.942 461.901 176.855 461.728C176.769 461.555 176.578 461.338 176.283 461.078C175.902 460.783 175.642 460.506 175.503 460.246C175.382 459.969 175.321 459.674 175.321 459.362C175.321 458.859 175.503 458.461 175.867 458.166C176.231 457.871 176.699 457.724 177.271 457.724C177.739 457.724 178.164 457.863 178.545 458.14C178.944 458.4 179.256 458.773 179.481 459.258C179.707 459.726 179.819 460.272 179.819 460.896C179.819 461.451 179.724 461.988 179.533 462.508C179.343 463.045 179.065 463.539 178.701 463.99C178.355 464.458 177.939 464.865 177.453 465.212C176.985 465.559 176.465 465.827 175.893 466.018ZM197.835 461.26C196.344 461.26 195.044 460.957 193.935 460.35C192.825 459.743 191.959 458.911 191.335 457.854C190.711 456.797 190.399 455.583 190.399 454.214C190.399 453.157 190.572 452.186 190.919 451.302C191.265 450.418 191.751 449.655 192.375 449.014C192.999 448.355 193.735 447.853 194.585 447.506C195.451 447.142 196.387 446.96 197.393 446.96C198.329 446.96 199.195 447.133 199.993 447.48C200.79 447.809 201.475 448.286 202.047 448.91C202.636 449.517 203.087 450.236 203.399 451.068C203.711 451.9 203.849 452.81 203.815 453.798L203.789 454.942H192.739L192.141 452.68H200.747L200.331 453.148V452.576C200.296 452.108 200.14 451.683 199.863 451.302C199.603 450.921 199.265 450.626 198.849 450.418C198.433 450.21 197.965 450.106 197.445 450.106C196.682 450.106 196.032 450.253 195.495 450.548C194.975 450.843 194.576 451.276 194.299 451.848C194.021 452.42 193.883 453.113 193.883 453.928C193.883 454.76 194.056 455.479 194.403 456.086C194.767 456.693 195.269 457.169 195.911 457.516C196.569 457.845 197.341 458.01 198.225 458.01C198.831 458.01 199.386 457.915 199.889 457.724C200.391 457.533 200.929 457.204 201.501 456.736L203.269 459.206C202.766 459.657 202.211 460.038 201.605 460.35C200.998 460.645 200.374 460.87 199.733 461.026C199.091 461.182 198.459 461.26 197.835 461.26ZM206.803 461V447.246H210.339L210.443 450.054L209.715 450.366C209.906 449.742 210.244 449.179 210.729 448.676C211.232 448.156 211.83 447.74 212.523 447.428C213.216 447.116 213.944 446.96 214.707 446.96C215.747 446.96 216.614 447.168 217.307 447.584C218.018 448 218.546 448.633 218.893 449.482C219.257 450.314 219.439 451.345 219.439 452.576V461H215.747V452.862C215.747 452.238 215.66 451.718 215.487 451.302C215.314 450.886 215.045 450.583 214.681 450.392C214.334 450.184 213.901 450.097 213.381 450.132C212.965 450.132 212.575 450.201 212.211 450.34C211.864 450.461 211.561 450.643 211.301 450.886C211.058 451.129 210.859 451.406 210.703 451.718C210.564 452.03 210.495 452.368 210.495 452.732V461H208.675C208.276 461 207.921 461 207.609 461C207.297 461 207.028 461 206.803 461ZM227.553 461L221.781 447.246H225.837L229.503 457.516L228.645 457.672L232.493 447.246H236.445L230.387 461H227.553ZM239.272 461V447.246H242.964V461H239.272ZM241.092 444.412C240.381 444.412 239.826 444.239 239.428 443.892C239.029 443.545 238.83 443.051 238.83 442.41C238.83 441.821 239.029 441.344 239.428 440.98C239.844 440.599 240.398 440.408 241.092 440.408C241.802 440.408 242.357 440.59 242.756 440.954C243.154 441.301 243.354 441.786 243.354 442.41C243.354 443.017 243.146 443.502 242.73 443.866C242.331 444.23 241.785 444.412 241.092 444.412ZM247.167 461V447.246H250.729L250.859 451.666L250.235 450.756C250.443 450.045 250.781 449.404 251.249 448.832C251.717 448.243 252.263 447.783 252.887 447.454C253.528 447.125 254.196 446.96 254.889 446.96C255.184 446.96 255.47 446.986 255.747 447.038C256.024 447.09 256.258 447.151 256.449 447.22L255.461 451.276C255.253 451.172 255.002 451.085 254.707 451.016C254.412 450.929 254.109 450.886 253.797 450.886C253.381 450.886 252.991 450.964 252.627 451.12C252.28 451.259 251.977 451.467 251.717 451.744C251.457 452.004 251.249 452.316 251.093 452.68C250.954 453.044 250.885 453.443 250.885 453.876V461H247.167ZM264.639 461.26C263.235 461.26 261.979 460.957 260.869 460.35C259.777 459.726 258.911 458.877 258.269 457.802C257.645 456.727 257.333 455.497 257.333 454.11C257.333 452.723 257.645 451.501 258.269 450.444C258.911 449.369 259.777 448.52 260.869 447.896C261.979 447.272 263.235 446.96 264.639 446.96C266.026 446.96 267.265 447.272 268.357 447.896C269.467 448.52 270.333 449.369 270.957 450.444C271.581 451.501 271.893 452.723 271.893 454.11C271.893 455.497 271.581 456.727 270.957 457.802C270.333 458.877 269.467 459.726 268.357 460.35C267.265 460.957 266.026 461.26 264.639 461.26ZM264.639 458.036C265.315 458.036 265.922 457.871 266.459 457.542C266.997 457.195 267.413 456.727 267.707 456.138C268.019 455.531 268.175 454.855 268.175 454.11C268.175 453.347 268.019 452.671 267.707 452.082C267.413 451.475 266.997 451.007 266.459 450.678C265.922 450.331 265.315 450.158 264.639 450.158C263.946 450.158 263.331 450.331 262.793 450.678C262.256 451.025 261.831 451.493 261.519 452.082C261.207 452.671 261.06 453.347 261.077 454.11C261.06 454.855 261.207 455.531 261.519 456.138C261.831 456.727 262.256 457.195 262.793 457.542C263.331 457.871 263.946 458.036 264.639 458.036ZM274.931 461V447.246H278.467L278.571 450.054L277.843 450.366C278.034 449.742 278.372 449.179 278.857 448.676C279.36 448.156 279.958 447.74 280.651 447.428C281.344 447.116 282.072 446.96 282.835 446.96C283.875 446.96 284.742 447.168 285.435 447.584C286.146 448 286.674 448.633 287.021 449.482C287.385 450.314 287.567 451.345 287.567 452.576V461H283.875V452.862C283.875 452.238 283.788 451.718 283.615 451.302C283.442 450.886 283.173 450.583 282.809 450.392C282.462 450.184 282.029 450.097 281.509 450.132C281.093 450.132 280.703 450.201 280.339 450.34C279.992 450.461 279.689 450.643 279.429 450.886C279.186 451.129 278.987 451.406 278.831 451.718C278.692 452.03 278.623 452.368 278.623 452.732V461H276.803C276.404 461 276.049 461 275.737 461C275.425 461 275.156 461 274.931 461ZM291.339 461V447.246H294.901L294.979 449.872L294.433 449.976C294.624 449.525 294.875 449.118 295.187 448.754C295.499 448.39 295.863 448.078 296.279 447.818C296.712 447.558 297.163 447.359 297.631 447.22C298.099 447.064 298.567 446.986 299.035 446.986C299.746 446.986 300.387 447.099 300.959 447.324C301.531 447.549 302.016 447.905 302.415 448.39C302.814 448.858 303.126 449.482 303.351 450.262L302.779 450.21L302.961 449.794C303.186 449.378 303.472 449.005 303.819 448.676C304.166 448.329 304.556 448.035 304.989 447.792C305.422 447.532 305.873 447.333 306.341 447.194C306.809 447.055 307.268 446.986 307.719 446.986C308.794 446.986 309.686 447.203 310.397 447.636C311.108 448.052 311.636 448.685 311.983 449.534C312.347 450.383 312.529 451.423 312.529 452.654V461H308.837V452.914C308.837 452.29 308.75 451.779 308.577 451.38C308.404 450.981 308.152 450.687 307.823 450.496C307.494 450.288 307.069 450.184 306.549 450.184C306.15 450.184 305.778 450.253 305.431 450.392C305.102 450.513 304.807 450.695 304.547 450.938C304.304 451.163 304.114 451.432 303.975 451.744C303.836 452.056 303.767 452.403 303.767 452.784V461H300.075V452.888C300.075 452.316 299.98 451.831 299.789 451.432C299.616 451.016 299.364 450.704 299.035 450.496C298.706 450.288 298.298 450.184 297.813 450.184C297.414 450.184 297.042 450.253 296.695 450.392C296.366 450.513 296.08 450.695 295.837 450.938C295.594 451.163 295.395 451.432 295.239 451.744C295.1 452.056 295.031 452.394 295.031 452.758V461H291.339ZM322.831 461.26C321.34 461.26 320.04 460.957 318.931 460.35C317.821 459.743 316.955 458.911 316.331 457.854C315.707 456.797 315.395 455.583 315.395 454.214C315.395 453.157 315.568 452.186 315.915 451.302C316.261 450.418 316.747 449.655 317.371 449.014C317.995 448.355 318.731 447.853 319.581 447.506C320.447 447.142 321.383 446.96 322.389 446.96C323.325 446.96 324.191 447.133 324.989 447.48C325.786 447.809 326.471 448.286 327.043 448.91C327.632 449.517 328.083 450.236 328.395 451.068C328.707 451.9 328.845 452.81 328.811 453.798L328.785 454.942H317.735L317.137 452.68H325.743L325.327 453.148V452.576C325.292 452.108 325.136 451.683 324.859 451.302C324.599 450.921 324.261 450.626 323.845 450.418C323.429 450.21 322.961 450.106 322.441 450.106C321.678 450.106 321.028 450.253 320.491 450.548C319.971 450.843 319.572 451.276 319.295 451.848C319.017 452.42 318.879 453.113 318.879 453.928C318.879 454.76 319.052 455.479 319.399 456.086C319.763 456.693 320.265 457.169 320.907 457.516C321.565 457.845 322.337 458.01 323.221 458.01C323.827 458.01 324.382 457.915 324.885 457.724C325.387 457.533 325.925 457.204 326.497 456.736L328.265 459.206C327.762 459.657 327.207 460.038 326.601 460.35C325.994 460.645 325.37 460.87 324.729 461.026C324.087 461.182 323.455 461.26 322.831 461.26ZM331.799 461V447.246H335.335L335.439 450.054L334.711 450.366C334.902 449.742 335.24 449.179 335.725 448.676C336.228 448.156 336.826 447.74 337.519 447.428C338.212 447.116 338.94 446.96 339.703 446.96C340.743 446.96 341.61 447.168 342.303 447.584C343.014 448 343.542 448.633 343.889 449.482C344.253 450.314 344.435 451.345 344.435 452.576V461H340.743V452.862C340.743 452.238 340.656 451.718 340.483 451.302C340.31 450.886 340.041 450.583 339.677 450.392C339.33 450.184 338.897 450.097 338.377 450.132C337.961 450.132 337.571 450.201 337.207 450.34C336.86 450.461 336.557 450.643 336.297 450.886C336.054 451.129 335.855 451.406 335.699 451.718C335.56 452.03 335.491 452.368 335.491 452.732V461H333.671C333.272 461 332.917 461 332.605 461C332.293 461 332.024 461 331.799 461ZM349.559 461V443.762H353.251V461H349.559ZM346.985 450.548V447.246H356.059V450.548H346.985Z" fill="#6D6D6D"/>
</g>
<path d="M75 528C74.9993 527.299 74.8141 526.61 74.4631 526.002C74.112 525.395 73.6075 524.891 73 524.54L59 516.54C58.3919 516.189 57.7021 516.004 57 516.004C56.2979 516.004 55.6081 516.189 55 516.54L41 524.54C40.3925 524.891 39.888 525.395 39.5369 526.002C39.1859 526.61 39.0007 527.299 39 528V544C39.0007 544.702 39.1859 545.39 39.5369 545.998C39.888 546.605 40.3925 547.109 41 547.46L55 555.46C55.6081 555.811 56.2979 555.996 57 555.996C57.7021 555.996 58.3919 555.811 59 555.46L73 547.46C73.6075 547.109 74.112 546.605 74.4631 545.998C74.8141 545.39 74.9993 544.702 75 544V528Z" stroke="#8C8C8C" stroke-width="4.02" stroke-linecap="round" stroke-linejoin="round"/>
<path d="M39.6 526L57 536L74.4 526" stroke="#8C8C8C" stroke-width="4.02" stroke-linecap="round" stroke-linejoin="round"/>
<path d="M57 556V536" stroke="#8C8C8C" stroke-width="4.02" stroke-linecap="round" stroke-linejoin="round"/>
<g filter="url(#filter5_d_124_4)">
<path d="M97.866 528.5V510.3H105.926C107.053 510.3 108.075 510.56 108.994 511.08C109.913 511.583 110.632 512.267 111.152 513.134C111.689 514.001 111.958 514.989 111.958 516.098C111.958 517.19 111.689 518.187 111.152 519.088C110.632 519.972 109.913 520.674 108.994 521.194C108.075 521.714 107.053 521.974 105.926 521.974H101.636V528.5H97.866ZM108.188 528.5L103.56 520.284L107.564 519.634L112.712 528.526L108.188 528.5ZM101.636 518.802H105.744C106.212 518.802 106.619 518.698 106.966 518.49C107.33 518.265 107.607 517.961 107.798 517.58C107.989 517.181 108.084 516.739 108.084 516.254C108.084 515.734 107.971 515.283 107.746 514.902C107.521 514.521 107.191 514.226 106.758 514.018C106.325 513.793 105.822 513.68 105.25 513.68H101.636V518.802ZM121.829 528.76C120.339 528.76 119.039 528.457 117.929 527.85C116.82 527.243 115.953 526.411 115.329 525.354C114.705 524.297 114.393 523.083 114.393 521.714C114.393 520.657 114.567 519.686 114.913 518.802C115.26 517.918 115.745 517.155 116.369 516.514C116.993 515.855 117.73 515.353 118.579 515.006C119.446 514.642 120.382 514.46 121.387 514.46C122.323 514.46 123.19 514.633 123.987 514.98C124.785 515.309 125.469 515.786 126.041 516.41C126.631 517.017 127.081 517.736 127.393 518.568C127.705 519.4 127.844 520.31 127.809 521.298L127.783 522.442H116.733L116.135 520.18H124.741L124.325 520.648V520.076C124.291 519.608 124.135 519.183 123.857 518.802C123.597 518.421 123.259 518.126 122.843 517.918C122.427 517.71 121.959 517.606 121.439 517.606C120.677 517.606 120.027 517.753 119.489 518.048C118.969 518.343 118.571 518.776 118.293 519.348C118.016 519.92 117.877 520.613 117.877 521.428C117.877 522.26 118.051 522.979 118.397 523.586C118.761 524.193 119.264 524.669 119.905 525.016C120.564 525.345 121.335 525.51 122.219 525.51C122.826 525.51 123.381 525.415 123.883 525.224C124.386 525.033 124.923 524.704 125.495 524.236L127.263 526.706C126.761 527.157 126.206 527.538 125.599 527.85C124.993 528.145 124.369 528.37 123.727 528.526C123.086 528.682 122.453 528.76 121.829 528.76ZM135.946 528.76C134.802 528.76 133.77 528.448 132.852 527.824C131.933 527.2 131.205 526.351 130.668 525.276C130.13 524.201 129.862 522.971 129.862 521.584C129.862 520.197 130.13 518.975 130.668 517.918C131.222 516.843 131.968 516.003 132.904 515.396C133.84 514.772 134.906 514.46 136.102 514.46C136.778 514.46 137.393 514.564 137.948 514.772C138.52 514.963 139.014 515.231 139.43 515.578C139.863 515.925 140.227 516.323 140.522 516.774C140.816 517.225 141.024 517.71 141.146 518.23L140.366 518.1V514.746H144.032V528.5H140.314V525.198L141.146 525.12C141.007 525.605 140.782 526.065 140.47 526.498C140.158 526.931 139.768 527.321 139.3 527.668C138.849 527.997 138.338 528.266 137.766 528.474C137.194 528.665 136.587 528.76 135.946 528.76ZM136.96 525.562C137.653 525.562 138.26 525.397 138.78 525.068C139.3 524.739 139.698 524.279 139.976 523.69C140.27 523.083 140.418 522.381 140.418 521.584C140.418 520.804 140.27 520.119 139.976 519.53C139.698 518.941 139.3 518.481 138.78 518.152C138.26 517.805 137.653 517.632 136.96 517.632C136.284 517.632 135.686 517.805 135.166 518.152C134.663 518.481 134.264 518.941 133.97 519.53C133.675 520.119 133.528 520.804 133.528 521.584C133.528 522.381 133.675 523.083 133.97 523.69C134.264 524.279 134.663 524.739 135.166 525.068C135.686 525.397 136.284 525.562 136.96 525.562ZM153.973 528.76C152.656 528.76 151.477 528.448 150.437 527.824C149.397 527.2 148.574 526.351 147.967 525.276C147.378 524.201 147.083 522.979 147.083 521.61C147.083 520.258 147.378 519.045 147.967 517.97C148.574 516.878 149.397 516.02 150.437 515.396C151.477 514.772 152.656 514.46 153.973 514.46C155.204 514.46 156.331 514.685 157.353 515.136C158.376 515.587 159.173 516.211 159.745 517.008L157.717 519.452C157.475 519.123 157.171 518.828 156.807 518.568C156.443 518.291 156.045 518.074 155.611 517.918C155.195 517.762 154.762 517.684 154.311 517.684C153.601 517.684 152.968 517.857 152.413 518.204C151.876 518.533 151.451 518.993 151.139 519.582C150.827 520.171 150.671 520.847 150.671 521.61C150.671 522.355 150.827 523.023 151.139 523.612C151.469 524.184 151.911 524.652 152.465 525.016C153.02 525.363 153.644 525.536 154.337 525.536C154.788 525.536 155.213 525.475 155.611 525.354C156.01 525.215 156.383 525.016 156.729 524.756C157.093 524.496 157.423 524.184 157.717 523.82L159.719 526.264C159.13 527.009 158.315 527.616 157.275 528.084C156.235 528.535 155.135 528.76 153.973 528.76ZM163.671 528.5V511.262H167.363V528.5H163.671ZM161.097 518.048V514.746H170.171V518.048H161.097ZM173.149 528.5V514.746H176.841V528.5H173.149ZM174.969 511.912C174.259 511.912 173.704 511.739 173.305 511.392C172.907 511.045 172.707 510.551 172.707 509.91C172.707 509.321 172.907 508.844 173.305 508.48C173.721 508.099 174.276 507.908 174.969 507.908C175.68 507.908 176.235 508.09 176.633 508.454C177.032 508.801 177.231 509.286 177.231 509.91C177.231 510.517 177.023 511.002 176.607 511.366C176.209 511.73 175.663 511.912 174.969 511.912ZM187.441 528.76C186.037 528.76 184.78 528.457 183.671 527.85C182.579 527.226 181.712 526.377 181.071 525.302C180.447 524.227 180.135 522.997 180.135 521.61C180.135 520.223 180.447 519.001 181.071 517.944C181.712 516.869 182.579 516.02 183.671 515.396C184.78 514.772 186.037 514.46 187.441 514.46C188.827 514.46 190.067 514.772 191.159 515.396C192.268 516.02 193.135 516.869 193.759 517.944C194.383 519.001 194.695 520.223 194.695 521.61C194.695 522.997 194.383 524.227 193.759 525.302C193.135 526.377 192.268 527.226 191.159 527.85C190.067 528.457 188.827 528.76 187.441 528.76ZM187.441 525.536C188.117 525.536 188.723 525.371 189.261 525.042C189.798 524.695 190.214 524.227 190.509 523.638C190.821 523.031 190.977 522.355 190.977 521.61C190.977 520.847 190.821 520.171 190.509 519.582C190.214 518.975 189.798 518.507 189.261 518.178C188.723 517.831 188.117 517.658 187.441 517.658C186.747 517.658 186.132 517.831 185.595 518.178C185.057 518.525 184.633 518.993 184.321 519.582C184.009 520.171 183.861 520.847 183.879 521.61C183.861 522.355 184.009 523.031 184.321 523.638C184.633 524.227 185.057 524.695 185.595 525.042C186.132 525.371 186.747 525.536 187.441 525.536ZM197.732 528.5V514.746H201.268L201.372 517.554L200.644 517.866C200.835 517.242 201.173 516.679 201.658 516.176C202.161 515.656 202.759 515.24 203.452 514.928C204.146 514.616 204.874 514.46 205.636 514.46C206.676 514.46 207.543 514.668 208.236 515.084C208.947 515.5 209.476 516.133 209.822 516.982C210.186 517.814 210.368 518.845 210.368 520.076V528.5H206.676V520.362C206.676 519.738 206.59 519.218 206.416 518.802C206.243 518.386 205.974 518.083 205.61 517.892C205.264 517.684 204.83 517.597 204.31 517.632C203.894 517.632 203.504 517.701 203.14 517.84C202.794 517.961 202.49 518.143 202.23 518.386C201.988 518.629 201.788 518.906 201.632 519.218C201.494 519.53 201.424 519.868 201.424 520.232V528.5H199.604C199.206 528.5 198.85 528.5 198.538 528.5C198.226 528.5 197.958 528.5 197.732 528.5ZM215.544 528.76C214.868 528.76 214.348 528.569 213.984 528.188C213.62 527.807 213.438 527.261 213.438 526.55C213.438 525.909 213.629 525.389 214.01 524.99C214.409 524.574 214.92 524.366 215.544 524.366C216.203 524.366 216.714 524.557 217.078 524.938C217.442 525.319 217.624 525.857 217.624 526.55C217.624 527.209 217.434 527.746 217.052 528.162C216.671 528.561 216.168 528.76 215.544 528.76ZM215.544 518.906C214.868 518.906 214.348 518.715 213.984 518.334C213.62 517.953 213.438 517.407 213.438 516.696C213.438 516.055 213.629 515.535 214.01 515.136C214.409 514.72 214.92 514.512 215.544 514.512C216.203 514.512 216.714 514.703 217.078 515.084C217.442 515.465 217.624 516.003 217.624 516.696C217.624 517.355 217.434 517.892 217.052 518.308C216.671 518.707 216.168 518.906 215.544 518.906ZM97.866 561.5V543.3H105.77C106.983 543.3 108.006 543.482 108.838 543.846C109.687 544.193 110.329 544.704 110.762 545.38C111.195 546.056 111.412 546.862 111.412 547.798C111.412 548.838 111.152 549.705 110.632 550.398C110.112 551.091 109.367 551.568 108.396 551.828L108.37 551.308C109.167 551.499 109.869 551.811 110.476 552.244C111.083 552.677 111.551 553.215 111.88 553.856C112.209 554.497 112.374 555.225 112.374 556.04C112.374 556.941 112.227 557.739 111.932 558.432C111.637 559.108 111.204 559.671 110.632 560.122C110.06 560.573 109.384 560.919 108.604 561.162C107.841 561.387 106.983 561.5 106.03 561.5H97.866ZM101.61 558.12H105.874C106.429 558.12 106.897 558.042 107.278 557.886C107.677 557.713 107.98 557.453 108.188 557.106C108.396 556.759 108.5 556.352 108.5 555.884C108.5 555.433 108.387 555.052 108.162 554.74C107.937 554.428 107.616 554.194 107.2 554.038C106.801 553.865 106.316 553.778 105.744 553.778H101.61V558.12ZM101.61 550.684H105.302C105.77 550.684 106.177 550.597 106.524 550.424C106.871 550.251 107.131 550.017 107.304 549.722C107.495 549.427 107.59 549.081 107.59 548.682C107.59 548.041 107.382 547.547 106.966 547.2C106.55 546.853 105.926 546.68 105.094 546.68H101.61V550.684ZM115.609 561.5V542.26H119.301V561.5H115.609ZM129.45 561.76C128.046 561.76 126.789 561.457 125.68 560.85C124.588 560.226 123.721 559.377 123.08 558.302C122.456 557.227 122.144 555.997 122.144 554.61C122.144 553.223 122.456 552.001 123.08 550.944C123.721 549.869 124.588 549.02 125.68 548.396C126.789 547.772 128.046 547.46 129.45 547.46C130.836 547.46 132.076 547.772 133.168 548.396C134.277 549.02 135.144 549.869 135.768 550.944C136.392 552.001 136.704 553.223 136.704 554.61C136.704 555.997 136.392 557.227 135.768 558.302C135.144 559.377 134.277 560.226 133.168 560.85C132.076 561.457 130.836 561.76 129.45 561.76ZM129.45 558.536C130.126 558.536 130.732 558.371 131.27 558.042C131.807 557.695 132.223 557.227 132.518 556.638C132.83 556.031 132.986 555.355 132.986 554.61C132.986 553.847 132.83 553.171 132.518 552.582C132.223 551.975 131.807 551.507 131.27 551.178C130.732 550.831 130.126 550.658 129.45 550.658C128.756 550.658 128.141 550.831 127.604 551.178C127.066 551.525 126.642 551.993 126.33 552.582C126.018 553.171 125.87 553.847 125.888 554.61C125.87 555.355 126.018 556.031 126.33 556.638C126.642 557.227 127.066 557.695 127.604 558.042C128.141 558.371 128.756 558.536 129.45 558.536ZM145.721 561.76C144.404 561.76 143.225 561.448 142.185 560.824C141.145 560.2 140.322 559.351 139.715 558.276C139.126 557.201 138.831 555.979 138.831 554.61C138.831 553.258 139.126 552.045 139.715 550.97C140.322 549.878 141.145 549.02 142.185 548.396C143.225 547.772 144.404 547.46 145.721 547.46C146.952 547.46 148.079 547.685 149.101 548.136C150.124 548.587 150.921 549.211 151.493 550.008L149.465 552.452C149.223 552.123 148.919 551.828 148.555 551.568C148.191 551.291 147.793 551.074 147.359 550.918C146.943 550.762 146.51 550.684 146.059 550.684C145.349 550.684 144.716 550.857 144.161 551.204C143.624 551.533 143.199 551.993 142.887 552.582C142.575 553.171 142.419 553.847 142.419 554.61C142.419 555.355 142.575 556.023 142.887 556.612C143.217 557.184 143.659 557.652 144.213 558.016C144.768 558.363 145.392 558.536 146.085 558.536C146.536 558.536 146.961 558.475 147.359 558.354C147.758 558.215 148.131 558.016 148.477 557.756C148.841 557.496 149.171 557.184 149.465 556.82L151.467 559.264C150.878 560.009 150.063 560.616 149.023 561.084C147.983 561.535 146.883 561.76 145.721 561.76ZM157.603 557.366L156.511 554.324L163.011 547.746H167.873L157.603 557.366ZM154.093 561.5V542.26H157.785V561.5H154.093ZM163.401 561.5L158.461 555.286L161.061 553.206L167.847 561.5H163.401ZM177.755 555.676V552.634H190.781V555.676H177.755ZM182.565 560.46V547.798H185.945V560.46H182.565ZM197.794 560.226V545.458L198.756 547.2L194.96 549.046L194.206 545.588L199.276 543.04H201.642V560.226H197.794ZM194.596 561.5V557.99H204.918V561.5H194.596ZM213.835 561.76C212.639 561.76 211.565 561.457 210.611 560.85C209.658 560.226 208.904 559.385 208.349 558.328C207.812 557.253 207.543 556.014 207.543 554.61C207.543 553.241 207.812 552.019 208.349 550.944C208.904 549.869 209.649 549.02 210.585 548.396C211.539 547.772 212.622 547.46 213.835 547.46C214.477 547.46 215.092 547.564 215.681 547.772C216.288 547.963 216.825 548.231 217.293 548.578C217.779 548.925 218.169 549.315 218.463 549.748C218.758 550.164 218.923 550.606 218.957 551.074L218.021 551.23V542.26H221.713V561.5H218.229L218.073 558.328L218.801 558.406C218.767 558.839 218.611 559.255 218.333 559.654C218.056 560.053 217.683 560.417 217.215 560.746C216.765 561.058 216.245 561.309 215.655 561.5C215.083 561.673 214.477 561.76 213.835 561.76ZM214.667 558.692C215.361 558.692 215.967 558.519 216.487 558.172C217.007 557.825 217.415 557.349 217.709 556.742C218.004 556.135 218.151 555.425 218.151 554.61C218.151 553.813 218.004 553.111 217.709 552.504C217.415 551.88 217.007 551.403 216.487 551.074C215.967 550.727 215.361 550.554 214.667 550.554C213.974 550.554 213.367 550.727 212.847 551.074C212.345 551.403 211.946 551.88 211.651 552.504C211.374 553.111 211.235 553.813 211.235 554.61C211.235 555.425 211.374 556.135 211.651 556.742C211.946 557.349 212.345 557.825 212.847 558.172C213.367 558.519 213.974 558.692 214.667 558.692ZM231.267 561.5C230.348 561.5 229.481 561.335 228.667 561.006C227.869 560.677 227.167 560.217 226.561 559.628C225.971 559.039 225.503 558.345 225.157 557.548C224.827 556.751 224.663 555.893 224.663 554.974C224.663 554.402 224.732 553.821 224.871 553.232C225.009 552.625 225.2 552.001 225.443 551.36C225.703 550.719 226.015 550.051 226.379 549.358C226.743 548.665 227.15 547.945 227.601 547.2L230.097 543.014H233.737L233.841 543.274L230.539 548.604C230.071 549.367 229.655 550.095 229.291 550.788C228.944 551.481 228.632 552.149 228.355 552.79C228.095 553.431 227.852 554.081 227.627 554.74L226.873 552.66C227.098 552.071 227.401 551.542 227.783 551.074C228.164 550.589 228.597 550.181 229.083 549.852C229.568 549.505 230.079 549.245 230.617 549.072C231.154 548.881 231.683 548.786 232.203 548.786C233.225 548.786 234.161 549.063 235.011 549.618C235.877 550.155 236.562 550.875 237.065 551.776C237.585 552.677 237.845 553.665 237.845 554.74C237.845 556.04 237.559 557.201 236.987 558.224C236.432 559.229 235.652 560.027 234.647 560.616C233.659 561.205 232.532 561.5 231.267 561.5ZM231.319 558.198C231.908 558.198 232.428 558.068 232.879 557.808C233.347 557.531 233.711 557.149 233.971 556.664C234.231 556.179 234.361 555.624 234.361 555C234.361 554.463 234.222 553.96 233.945 553.492C233.685 553.007 233.321 552.617 232.853 552.322C232.402 552.027 231.899 551.88 231.345 551.88C230.738 551.88 230.192 552.027 229.707 552.322C229.239 552.599 228.866 552.972 228.589 553.44C228.329 553.891 228.199 554.402 228.199 554.974C228.199 555.598 228.329 556.153 228.589 556.638C228.866 557.106 229.239 557.487 229.707 557.782C230.175 558.059 230.712 558.198 231.319 558.198Z" fill="#6D6D6D"/>
</g>
<g style="mix-blend-mode:multiply">
<rect width="400" height="640" rx="30" fill="#84B5FF"/>
</g>
<defs>
<filter id="filter0_d_124_4" x="88.1" y="74.2" width="178.835" height="51.44" filterUnits="userSpaceOnUse" color-interpolation-filters="sRGB">
<feFlood flood-opacity="0" result="BackgroundImageFix"/>
<feColorMatrix in="SourceAlpha" type="matrix" values="0 0 0 0 0 0 0 0 0 0 0 0 0 0 0 0 0 0 127 0" result="hardAlpha"/>
<feOffset dy="1.5"/>
<feGaussianBlur stdDeviation="1.5"/>
<feColorMatrix type="matrix" values="0 0 0 0 0 0 0 0 0 0 0 0 0 0 0 0 0 0 0.15 0"/>
<feBlend mode="normal" in2="BackgroundImageFix" result="effect1_dropShadow_124_4"/>
<feBlend mode="normal" in="SourceGraphic" in2="effect1_dropShadow_124_4" result="shape"/>
</filter>
<filter id="filter1_d_124_4" x="94.866" y="186.908" width="247.171" height="32.312" filterUnits="userSpaceOnUse" color-interpolation-filters="sRGB">
<feFlood flood-opacity="0" result="BackgroundImageFix"/>
<feColorMatrix in="SourceAlpha" type="matrix" values="0 0 0 0 0 0 0 0 0 0 0 0 0 0 0 0 0 0 127 0" result="hardAlpha"/>
<feOffset dy="1.5"/>
<feGaussianBlur stdDeviation="1.5"/>
<feColorMatrix type="matrix" values="0 0 0 0 0 0 0 0 0 0 0 0 0 0 0 0 0 0 0.15 0"/>
<feBlend mode="normal" in2="BackgroundImageFix" result="effect1_dropShadow_124_4"/>
<feBlend mode="normal" in="SourceGraphic" in2="effect1_dropShadow_124_4" result="shape"/>
</filter>
<filter id="filter2_d_124_4" x="93.15" y="255.734" width="211.625" height="64.246" filterUnits="userSpaceOnUse" color-interpolation-filters="sRGB">
<feFlood flood-opacity="0" result="BackgroundImageFix"/>
<feColorMatrix in="SourceAlpha" type="matrix" values="0 0 0 0 0 0 0 0 0 0 0 0 0 0 0 0 0 0 127 0" result="hardAlpha"/>
<feOffset dy="1.5"/>
<feGaussianBlur stdDeviation="1.5"/>
<feColorMatrix type="matrix" values="0 0 0 0 0 0 0 0 0 0 0 0 0 0 0 0 0 0 0.15 0"/>
<feBlend mode="normal" in2="BackgroundImageFix" result="effect1_dropShadow_124_4"/>
<feBlend mode="normal" in="SourceGraphic" in2="effect1_dropShadow_124_4" result="shape"/>
</filter>
<filter id="filter3_d_124_4" x="94.346" y="338.408" width="147.359" height="59.852" filterUnits="userSpaceOnUse" color-interpolation-filters="sRGB">
<feFlood flood-opacity="0" result="BackgroundImageFix"/>
<feColorMatrix in="SourceAlpha" type="matrix" values="0 0 0 0 0 0 0 0 0 0 0 0 0 0 0 0 0 0 127 0" result="hardAlpha"/>
<feOffset dy="1.5"/>
<feGaussianBlur stdDeviation="1.5"/>
<feColorMatrix type="matrix" values="0 0 0 0 0 0 0 0 0 0 0 0 0 0 0 0 0 0 0.15 0"/>
<feBlend mode="normal" in2="BackgroundImageFix" result="effect1_dropShadow_124_4"/>
<feBlend mode="normal" in="SourceGraphic" in2="effect1_dropShadow_124_4" result="shape"/>
</filter>
<filter id="filter4_d_124_4" x="93.358" y="438.908" width="265.701" height="31.61" filterUnits="userSpaceOnUse" color-interpolation-filters="sRGB">
<feFlood flood-opacity="0" result="BackgroundImageFix"/>
<feColorMatrix in="SourceAlpha" type="matrix" values="0 0 0 0 0 0 0 0 0 0 0 0 0 0 0 0 0 0 127 0" result="hardAlpha"/>
<feOffset dy="1.5"/>
<feGaussianBlur stdDeviation="1.5"/>
<feColorMatrix type="matrix" values="0 0 0 0 0 0 0 0 0 0 0 0 0 0 0 0 0 0 0.15 0"/>
<feBlend mode="normal" in2="BackgroundImageFix" result="effect1_dropShadow_124_4"/>
<feBlend mode="normal" in="SourceGraphic" in2="effect1_dropShadow_124_4" result="shape"/>
</filter>
<filter id="filter5_d_124_4" x="94.866" y="506.408" width="145.979" height="59.852" filterUnits="userSpaceOnUse" color-interpolation-filters="sRGB">
<feFlood flood-opacity="0" result="BackgroundImageFix"/>
<feColorMatrix in="SourceAlpha" type="matrix" values="0 0 0 0 0 0 0 0 0 0 0 0 0 0 0 0 0 0 127 0" result="hardAlpha"/>
<feOffset dy="1.5"/>
<feGaussianBlur stdDeviation="1.5"/>
<feColorMatrix type="matrix" values="0 0 0 0 0 0 0 0 0 0 0 0 0 0 0 0 0 0 0.15 0"/>
<feBlend mode="normal" in2="BackgroundImageFix" result="effect1_dropShadow_124_4"/>
<feBlend mode="normal" in="SourceGraphic" in2="effect1_dropShadow_124_4" result="shape"/>
</filter>
</defs>
</svg>
