<svg width="400" height="640" viewBox="0 0 400 640" fill="none" xmlns="http://www.w3.org/2000/svg">
<rect x="7" y="7" width="386" height="626" rx="23" fill="#D9D9D9" stroke="#747474" stroke-width="14"/>
<path d="M58.6 113.2C59.107 113.58 59.6972 113.835 60.3218 113.942C60.9465 114.05 61.5877 114.007 62.1927 113.818C62.7976 113.629 63.3491 113.299 63.8015 112.855C64.2539 112.411 64.5943 111.866 64.7947 111.265C64.9952 110.664 65.0498 110.023 64.9543 109.397C64.8587 108.77 64.6156 108.175 64.245 107.661C63.8744 107.147 63.3869 106.728 62.8227 106.439C62.2585 106.151 61.6338 106 61 106H37M68 90C68.5114 89.3182 69.1885 88.7784 69.9672 88.4319C70.7459 88.0854 71.6002 87.9437 72.449 88.0202C73.2979 88.0967 74.1131 88.389 74.8172 88.8692C75.5213 89.3494 76.091 90.0016 76.4721 90.7639C76.8533 91.5262 77.0333 92.3733 76.9949 93.2247C76.9566 94.0762 76.7013 94.9037 76.2533 95.6287C75.8052 96.3537 75.1792 96.9521 74.4348 97.3671C73.6904 97.7821 72.8523 98 72 98H37M52.6 82.8C53.107 82.4197 53.6972 82.1654 54.3218 82.0579C54.9465 81.9505 55.5877 81.993 56.1927 82.1819C56.7976 82.3709 57.3491 82.701 57.8015 83.1449C58.2539 83.5888 58.5943 84.1338 58.7947 84.7351C58.9952 85.3364 59.0498 85.9767 58.9543 86.6032C58.8587 87.2298 58.6156 87.8247 58.245 88.3388C57.8744 88.853 57.3869 89.2718 56.8227 89.5606C56.2585 89.8494 55.6338 90 55 90H37" stroke="#8C8C8C" stroke-width="4" stroke-linecap="round" stroke-linejoin="round"/>
<g filter="url(#filter0_d_124_19)">
<path d="M104.604 120.5L91.1 75.7H96.476L105.116 105.268C105.457 106.292 105.735 107.273 105.948 108.212C106.204 109.108 106.417 109.983 106.588 110.836C106.759 111.647 106.929 112.479 107.1 113.332C107.271 114.143 107.441 114.996 107.612 115.892L106.524 115.828C107.079 113.865 107.527 112.308 107.868 111.156C108.252 110.004 108.615 108.98 108.956 108.084C109.297 107.188 109.681 106.164 110.108 105.012L117.66 86.004H122.332L129.948 105.204C130.46 106.399 130.908 107.529 131.292 108.596C131.676 109.663 132.039 110.751 132.38 111.86C132.764 112.969 133.127 114.207 133.468 115.572L132.444 115.764C132.657 114.697 132.828 113.823 132.956 113.14C133.084 112.457 133.212 111.86 133.34 111.348C133.468 110.793 133.596 110.26 133.724 109.748C133.852 109.193 134.023 108.553 134.236 107.828C134.449 107.06 134.727 106.1 135.068 104.948L143.708 75.7H149.084L135.452 120.5H131.292L119.196 91.7L120.348 91.892L108.7 120.5H104.604ZM154.657 120.5V87.092H159.457V120.5H154.657ZM157.025 79.86C155.83 79.86 154.913 79.5613 154.273 78.964C153.676 78.324 153.377 77.4707 153.377 76.404C153.377 75.3373 153.697 74.484 154.337 73.844C154.977 73.204 155.873 72.884 157.025 72.884C158.177 72.884 159.073 73.204 159.713 73.844C160.353 74.4413 160.673 75.2947 160.673 76.404C160.673 77.428 160.353 78.26 159.713 78.9C159.073 79.54 158.177 79.86 157.025 79.86ZM168.02 120.5V87.092H172.756L172.948 94.068L172.18 94.388C172.606 92.9373 173.438 91.6147 174.676 90.42C175.913 89.2253 177.385 88.2653 179.092 87.54C180.841 86.772 182.633 86.388 184.468 86.388C186.942 86.388 189.012 86.8787 190.676 87.86C192.34 88.8413 193.598 90.356 194.452 92.404C195.305 94.452 195.732 97.0547 195.732 100.212V120.5H190.868V100.468C190.868 98.2493 190.569 96.436 189.972 95.028C189.417 93.5773 188.542 92.5107 187.348 91.828C186.153 91.1453 184.681 90.8253 182.932 90.868C181.481 90.868 180.137 91.124 178.9 91.636C177.662 92.1053 176.596 92.7667 175.7 93.62C174.804 94.4733 174.1 95.4547 173.588 96.564C173.076 97.6733 172.82 98.868 172.82 100.148V120.5H170.452C170.153 120.5 169.812 120.5 169.428 120.5C169.044 120.5 168.574 120.5 168.02 120.5ZM216.542 121.14C213.513 121.14 210.782 120.393 208.35 118.9C205.961 117.407 204.062 115.359 202.654 112.756C201.289 110.111 200.606 107.124 200.606 103.796C200.606 100.425 201.31 97.4387 202.718 94.836C204.126 92.1907 206.025 90.1213 208.414 88.628C210.804 87.1347 213.492 86.388 216.478 86.388C218.142 86.388 219.742 86.644 221.278 87.156C222.857 87.668 224.265 88.3933 225.502 89.332C226.74 90.228 227.764 91.2733 228.574 92.468C229.385 93.62 229.876 94.836 230.046 96.116L228.574 95.604V73.14H233.375V120.5H228.639L228.51 112.18L229.726 111.732C229.556 112.927 229.065 114.1 228.254 115.252C227.486 116.361 226.505 117.364 225.31 118.26C224.116 119.156 222.75 119.86 221.214 120.372C219.721 120.884 218.164 121.14 216.542 121.14ZM217.246 116.724C219.465 116.724 221.449 116.169 223.198 115.06C224.948 113.951 226.313 112.415 227.294 110.452C228.318 108.489 228.83 106.249 228.83 103.732C228.83 101.215 228.318 98.996 227.294 97.076C226.313 95.1133 224.948 93.5773 223.198 92.468C221.449 91.316 219.465 90.74 217.246 90.74C214.942 90.74 212.916 91.316 211.166 92.468C209.46 93.5773 208.094 95.1133 207.07 97.076C206.089 98.996 205.598 101.215 205.598 103.732C205.598 106.207 206.089 108.425 207.07 110.388C208.052 112.351 209.417 113.908 211.166 115.06C212.916 116.169 214.942 116.724 217.246 116.724Z" fill="#6D6D6D"/>
</g>
<path d="M57 202C58.1046 202 59 201.105 59 200C59 198.895 58.1046 198 57 198C55.8954 198 55 198.895 55 200C55 201.105 55.8954 202 57 202Z" stroke="#8C8C8C" stroke-width="4.02" stroke-linecap="round" stroke-linejoin="round"/>
<path d="M73.4 216.4C77.48 212.34 73.44 201.68 64.4 192.6C55.32 183.56 44.66 179.52 40.6 183.6C36.52 187.66 40.56 198.32 49.6 207.4C58.68 216.44 69.34 220.48 73.4 216.4Z" stroke="#8C8C8C" stroke-width="4.02" stroke-linecap="round" stroke-linejoin="round"/>
<path d="M64.4 207.4C73.44 198.32 77.48 187.66 73.4 183.6C69.34 179.52 58.68 183.56 49.6 192.6C40.56 201.68 36.52 212.34 40.6 216.4C44.66 220.48 55.32 216.44 64.4 207.4Z" stroke="#8C8C8C" stroke-width="4.02" stroke-linecap="round" stroke-linejoin="round"/>
<g filter="url(#filter1_d_124_19)">
<path d="M95.708 209L102.832 190.8H106.316L113.414 209H109.41L105.744 199.198C105.64 198.921 105.51 198.565 105.354 198.132C105.215 197.699 105.068 197.239 104.912 196.754C104.756 196.269 104.609 195.809 104.47 195.376C104.331 194.925 104.227 194.553 104.158 194.258L104.86 194.232C104.756 194.631 104.635 195.047 104.496 195.48C104.375 195.896 104.245 196.329 104.106 196.78C103.967 197.213 103.82 197.638 103.664 198.054C103.508 198.47 103.361 198.877 103.222 199.276L99.556 209H95.708ZM99.01 205.178L100.284 202.032H108.63L109.93 205.178H99.01ZM116.022 209V195.246H119.714V209H116.022ZM117.842 192.412C117.131 192.412 116.576 192.239 116.178 191.892C115.779 191.545 115.58 191.051 115.58 190.41C115.58 189.821 115.779 189.344 116.178 188.98C116.594 188.599 117.148 188.408 117.842 188.408C118.552 188.408 119.107 188.59 119.506 188.954C119.904 189.301 120.104 189.786 120.104 190.41C120.104 191.017 119.896 191.502 119.48 191.866C119.081 192.23 118.535 192.412 117.842 192.412ZM123.917 209V195.246H127.479L127.609 199.666L126.985 198.756C127.193 198.045 127.531 197.404 127.999 196.832C128.467 196.243 129.013 195.783 129.637 195.454C130.278 195.125 130.945 194.96 131.639 194.96C131.933 194.96 132.219 194.986 132.497 195.038C132.774 195.09 133.008 195.151 133.199 195.22L132.211 199.276C132.003 199.172 131.751 199.085 131.457 199.016C131.162 198.929 130.859 198.886 130.547 198.886C130.131 198.886 129.741 198.964 129.377 199.12C129.03 199.259 128.727 199.467 128.467 199.744C128.207 200.004 127.999 200.316 127.843 200.68C127.704 201.044 127.635 201.443 127.635 201.876V209H123.917ZM134.139 214.018L132.995 212.64C133.671 212.311 134.208 211.912 134.607 211.444C135.023 210.976 135.231 210.569 135.231 210.222C135.231 210.066 135.188 209.901 135.101 209.728C135.014 209.555 134.824 209.338 134.529 209.078C134.148 208.783 133.888 208.506 133.749 208.246C133.628 207.969 133.567 207.674 133.567 207.362C133.567 206.859 133.749 206.461 134.113 206.166C134.477 205.871 134.945 205.724 135.517 205.724C135.985 205.724 136.41 205.863 136.791 206.14C137.19 206.4 137.502 206.773 137.727 207.258C137.952 207.726 138.065 208.272 138.065 208.896C138.065 209.451 137.97 209.988 137.779 210.508C137.588 211.045 137.311 211.539 136.947 211.99C136.6 212.458 136.184 212.865 135.699 213.212C135.231 213.559 134.711 213.827 134.139 214.018ZM154.182 209.26C152.9 209.26 151.756 209.052 150.75 208.636C149.762 208.203 148.965 207.613 148.358 206.868L150.646 204.892C151.184 205.464 151.782 205.88 152.44 206.14C153.099 206.383 153.758 206.504 154.416 206.504C154.676 206.504 154.91 206.478 155.118 206.426C155.344 206.357 155.534 206.27 155.69 206.166C155.846 206.045 155.959 205.906 156.028 205.75C156.115 205.577 156.158 205.395 156.158 205.204C156.158 204.823 156.002 204.519 155.69 204.294C155.517 204.207 155.248 204.103 154.884 203.982C154.52 203.843 154.052 203.696 153.48 203.54C152.596 203.315 151.842 203.055 151.218 202.76C150.612 202.448 150.126 202.101 149.762 201.72C149.45 201.356 149.208 200.966 149.034 200.55C148.878 200.117 148.8 199.64 148.8 199.12C148.8 198.496 148.939 197.933 149.216 197.43C149.494 196.91 149.875 196.468 150.36 196.104C150.863 195.74 151.435 195.463 152.076 195.272C152.718 195.064 153.394 194.96 154.104 194.96C154.815 194.96 155.508 195.047 156.184 195.22C156.86 195.393 157.484 195.645 158.056 195.974C158.646 196.286 159.157 196.659 159.59 197.092L157.614 199.276C157.302 198.981 156.947 198.713 156.548 198.47C156.167 198.227 155.768 198.037 155.352 197.898C154.936 197.759 154.564 197.69 154.234 197.69C153.94 197.69 153.671 197.716 153.428 197.768C153.203 197.82 153.012 197.898 152.856 198.002C152.7 198.106 152.579 198.245 152.492 198.418C152.423 198.574 152.388 198.747 152.388 198.938C152.388 199.129 152.432 199.311 152.518 199.484C152.622 199.657 152.761 199.805 152.934 199.926C153.125 200.03 153.402 200.151 153.766 200.29C154.148 200.429 154.659 200.585 155.3 200.758C156.132 200.983 156.834 201.235 157.406 201.512C157.996 201.789 158.464 202.11 158.81 202.474C159.105 202.786 159.322 203.141 159.46 203.54C159.599 203.939 159.668 204.381 159.668 204.866C159.668 205.715 159.426 206.478 158.94 207.154C158.472 207.813 157.822 208.333 156.99 208.714C156.158 209.078 155.222 209.26 154.182 209.26ZM168.956 209.26C167.552 209.26 166.296 208.957 165.186 208.35C164.094 207.726 163.228 206.877 162.586 205.802C161.962 204.727 161.65 203.497 161.65 202.11C161.65 200.723 161.962 199.501 162.586 198.444C163.228 197.369 164.094 196.52 165.186 195.896C166.296 195.272 167.552 194.96 168.956 194.96C170.343 194.96 171.582 195.272 172.674 195.896C173.784 196.52 174.65 197.369 175.274 198.444C175.898 199.501 176.21 200.723 176.21 202.11C176.21 203.497 175.898 204.727 175.274 205.802C174.65 206.877 173.784 207.726 172.674 208.35C171.582 208.957 170.343 209.26 168.956 209.26ZM168.956 206.036C169.632 206.036 170.239 205.871 170.776 205.542C171.314 205.195 171.73 204.727 172.024 204.138C172.336 203.531 172.492 202.855 172.492 202.11C172.492 201.347 172.336 200.671 172.024 200.082C171.73 199.475 171.314 199.007 170.776 198.678C170.239 198.331 169.632 198.158 168.956 198.158C168.263 198.158 167.648 198.331 167.11 198.678C166.573 199.025 166.148 199.493 165.836 200.082C165.524 200.671 165.377 201.347 165.394 202.11C165.377 202.855 165.524 203.531 165.836 204.138C166.148 204.727 166.573 205.195 167.11 205.542C167.648 205.871 168.263 206.036 168.956 206.036ZM183.98 209.26C182.975 209.26 182.108 209.043 181.38 208.61C180.669 208.159 180.115 207.527 179.716 206.712C179.335 205.88 179.144 204.883 179.144 203.722V195.246H182.836V203.124C182.836 203.748 182.94 204.294 183.148 204.762C183.356 205.213 183.651 205.559 184.032 205.802C184.413 206.045 184.881 206.166 185.436 206.166C185.835 206.166 186.207 206.105 186.554 205.984C186.901 205.845 187.195 205.655 187.438 205.412C187.681 205.169 187.871 204.883 188.01 204.554C188.149 204.225 188.218 203.869 188.218 203.488V195.246H191.91V209H188.4L188.27 206.166L188.946 205.854C188.738 206.495 188.391 207.076 187.906 207.596C187.421 208.116 186.84 208.523 186.164 208.818C185.488 209.113 184.76 209.26 183.98 209.26ZM195.885 209V195.246H199.421L199.525 198.054L198.797 198.366C198.988 197.742 199.326 197.179 199.811 196.676C200.314 196.156 200.912 195.74 201.605 195.428C202.298 195.116 203.026 194.96 203.789 194.96C204.829 194.96 205.696 195.168 206.389 195.584C207.1 196 207.628 196.633 207.975 197.482C208.339 198.314 208.521 199.345 208.521 200.576V209H204.829V200.862C204.829 200.238 204.742 199.718 204.569 199.302C204.396 198.886 204.127 198.583 203.763 198.392C203.416 198.184 202.983 198.097 202.463 198.132C202.047 198.132 201.657 198.201 201.293 198.34C200.946 198.461 200.643 198.643 200.383 198.886C200.14 199.129 199.941 199.406 199.785 199.718C199.646 200.03 199.577 200.368 199.577 200.732V209H197.757C197.358 209 197.003 209 196.691 209C196.379 209 196.11 209 195.885 209ZM217.701 209.26C216.505 209.26 215.43 208.957 214.477 208.35C213.523 207.726 212.769 206.885 212.215 205.828C211.677 204.753 211.409 203.514 211.409 202.11C211.409 200.741 211.677 199.519 212.215 198.444C212.769 197.369 213.515 196.52 214.451 195.896C215.404 195.272 216.487 194.96 217.701 194.96C218.342 194.96 218.957 195.064 219.547 195.272C220.153 195.463 220.691 195.731 221.159 196.078C221.644 196.425 222.034 196.815 222.329 197.248C222.623 197.664 222.788 198.106 222.823 198.574L221.887 198.73V189.76H225.579V209H222.095L221.939 205.828L222.667 205.906C222.632 206.339 222.476 206.755 222.199 207.154C221.921 207.553 221.549 207.917 221.081 208.246C220.63 208.558 220.11 208.809 219.521 209C218.949 209.173 218.342 209.26 217.701 209.26ZM218.533 206.192C219.226 206.192 219.833 206.019 220.353 205.672C220.873 205.325 221.28 204.849 221.575 204.242C221.869 203.635 222.017 202.925 222.017 202.11C222.017 201.313 221.869 200.611 221.575 200.004C221.28 199.38 220.873 198.903 220.353 198.574C219.833 198.227 219.226 198.054 218.533 198.054C217.839 198.054 217.233 198.227 216.713 198.574C216.21 198.903 215.811 199.38 215.517 200.004C215.239 200.611 215.101 201.313 215.101 202.11C215.101 202.925 215.239 203.635 215.517 204.242C215.811 204.849 216.21 205.325 216.713 205.672C217.233 206.019 217.839 206.192 218.533 206.192Z" fill="#6D6D6D"/>
</g>
<path d="M55.034 265.628C55.1197 265.169 55.3632 264.755 55.7222 264.457C56.0813 264.158 56.5333 263.995 57 263.995C57.4668 263.995 57.9188 264.158 58.2778 264.457C58.6369 264.755 58.8803 265.169 58.966 265.628L61.068 276.744C61.2173 277.534 61.6014 278.261 62.1701 278.83C62.7388 279.399 63.4657 279.783 64.256 279.932L75.372 282.034C75.8308 282.12 76.2452 282.363 76.5434 282.722C76.8416 283.081 77.0048 283.533 77.0048 284C77.0048 284.467 76.8416 284.919 76.5434 285.278C76.2452 285.637 75.8308 285.88 75.372 285.966L64.256 288.068C63.4657 288.217 62.7388 288.601 62.1701 289.17C61.6014 289.739 61.2173 290.466 61.068 291.256L58.966 302.372C58.8803 302.831 58.6369 303.245 58.2778 303.543C57.9188 303.842 57.4668 304.005 57 304.005C56.5333 304.005 56.0813 303.842 55.7222 303.543C55.3632 303.245 55.1197 302.831 55.034 302.372L52.932 291.256C52.7827 290.466 52.3987 289.739 51.83 289.17C51.2613 288.601 50.5343 288.217 49.744 288.068L38.628 285.966C38.1692 285.88 37.7549 285.637 37.4567 285.278C37.1585 284.919 36.9952 284.467 36.9952 284C36.9952 283.533 37.1585 283.081 37.4567 282.722C37.7549 282.363 38.1692 282.12 38.628 282.034L49.744 279.932C50.5343 279.783 51.2613 279.399 51.83 278.83C52.3987 278.261 52.7827 277.534 52.932 276.744L55.034 265.628Z" stroke="#8C8C8C" stroke-width="4.02" stroke-linecap="round" stroke-linejoin="round"/>
<path d="M73 264V272" stroke="#8C8C8C" stroke-width="4.02" stroke-linecap="round" stroke-linejoin="round"/>
<path d="M77 268H69" stroke="#8C8C8C" stroke-width="4.02" stroke-linecap="round" stroke-linejoin="round"/>
<path d="M41 304C43.2091 304 45 302.209 45 300C45 297.791 43.2091 296 41 296C38.7909 296 37 297.791 37 300C37 302.209 38.7909 304 41 304Z" stroke="#8C8C8C" stroke-width="4.02" stroke-linecap="round" stroke-linejoin="round"/>
<g filter="url(#filter2_d_124_19)">
<path d="M97.866 276.5V258.3H101.766V276.5H97.866ZM99.66 269.272V265.918H109.072V269.272H99.66ZM99.66 261.81V258.3H110.164V261.81H99.66ZM113.323 276.5V262.746H116.885L117.015 267.166L116.391 266.256C116.599 265.545 116.937 264.904 117.405 264.332C117.873 263.743 118.419 263.283 119.043 262.954C119.684 262.625 120.351 262.46 121.045 262.46C121.339 262.46 121.625 262.486 121.903 262.538C122.18 262.59 122.414 262.651 122.605 262.72L121.617 266.776C121.409 266.672 121.157 266.585 120.863 266.516C120.568 266.429 120.265 266.386 119.953 266.386C119.537 266.386 119.147 266.464 118.783 266.62C118.436 266.759 118.133 266.967 117.873 267.244C117.613 267.504 117.405 267.816 117.249 268.18C117.11 268.544 117.041 268.943 117.041 269.376V276.5H113.323ZM130.925 276.76C129.435 276.76 128.135 276.457 127.025 275.85C125.916 275.243 125.049 274.411 124.425 273.354C123.801 272.297 123.489 271.083 123.489 269.714C123.489 268.657 123.663 267.686 124.009 266.802C124.356 265.918 124.841 265.155 125.465 264.514C126.089 263.855 126.826 263.353 127.675 263.006C128.542 262.642 129.478 262.46 130.483 262.46C131.419 262.46 132.286 262.633 133.083 262.98C133.881 263.309 134.565 263.786 135.137 264.41C135.727 265.017 136.177 265.736 136.489 266.568C136.801 267.4 136.94 268.31 136.905 269.298L136.879 270.442H125.829L125.231 268.18H133.837L133.421 268.648V268.076C133.387 267.608 133.231 267.183 132.953 266.802C132.693 266.421 132.355 266.126 131.939 265.918C131.523 265.71 131.055 265.606 130.535 265.606C129.773 265.606 129.123 265.753 128.585 266.048C128.065 266.343 127.667 266.776 127.389 267.348C127.112 267.92 126.973 268.613 126.973 269.428C126.973 270.26 127.147 270.979 127.493 271.586C127.857 272.193 128.36 272.669 129.001 273.016C129.66 273.345 130.431 273.51 131.315 273.51C131.922 273.51 132.477 273.415 132.979 273.224C133.482 273.033 134.019 272.704 134.591 272.236L136.359 274.706C135.857 275.157 135.302 275.538 134.695 275.85C134.089 276.145 133.465 276.37 132.823 276.526C132.182 276.682 131.549 276.76 130.925 276.76ZM146.42 276.76C144.929 276.76 143.629 276.457 142.52 275.85C141.41 275.243 140.544 274.411 139.92 273.354C139.296 272.297 138.984 271.083 138.984 269.714C138.984 268.657 139.157 267.686 139.504 266.802C139.85 265.918 140.336 265.155 140.96 264.514C141.584 263.855 142.32 263.353 143.17 263.006C144.036 262.642 144.972 262.46 145.978 262.46C146.914 262.46 147.78 262.633 148.578 262.98C149.375 263.309 150.06 263.786 150.632 264.41C151.221 265.017 151.672 265.736 151.984 266.568C152.296 267.4 152.434 268.31 152.4 269.298L152.374 270.442H141.324L140.726 268.18H149.332L148.916 268.648V268.076C148.881 267.608 148.725 267.183 148.448 266.802C148.188 266.421 147.85 266.126 147.434 265.918C147.018 265.71 146.55 265.606 146.03 265.606C145.267 265.606 144.617 265.753 144.08 266.048C143.56 266.343 143.161 266.776 142.884 267.348C142.606 267.92 142.468 268.613 142.468 269.428C142.468 270.26 142.641 270.979 142.988 271.586C143.352 272.193 143.854 272.669 144.496 273.016C145.154 273.345 145.926 273.51 146.81 273.51C147.416 273.51 147.971 273.415 148.474 273.224C148.976 273.033 149.514 272.704 150.086 272.236L151.854 274.706C151.351 275.157 150.796 275.538 150.19 275.85C149.583 276.145 148.959 276.37 148.318 276.526C147.676 276.682 147.044 276.76 146.42 276.76ZM160.77 276.76C159.574 276.76 158.499 276.457 157.546 275.85C156.593 275.226 155.839 274.385 155.284 273.328C154.747 272.253 154.478 271.014 154.478 269.61C154.478 268.241 154.747 267.019 155.284 265.944C155.839 264.869 156.584 264.02 157.52 263.396C158.473 262.772 159.557 262.46 160.77 262.46C161.411 262.46 162.027 262.564 162.616 262.772C163.223 262.963 163.76 263.231 164.228 263.578C164.713 263.925 165.103 264.315 165.398 264.748C165.693 265.164 165.857 265.606 165.892 266.074L164.956 266.23V257.26H168.648V276.5H165.164L165.008 273.328L165.736 273.406C165.701 273.839 165.545 274.255 165.268 274.654C164.991 275.053 164.618 275.417 164.15 275.746C163.699 276.058 163.179 276.309 162.59 276.5C162.018 276.673 161.411 276.76 160.77 276.76ZM161.602 273.692C162.295 273.692 162.902 273.519 163.422 273.172C163.942 272.825 164.349 272.349 164.644 271.742C164.939 271.135 165.086 270.425 165.086 269.61C165.086 268.813 164.939 268.111 164.644 267.504C164.349 266.88 163.942 266.403 163.422 266.074C162.902 265.727 162.295 265.554 161.602 265.554C160.909 265.554 160.302 265.727 159.782 266.074C159.279 266.403 158.881 266.88 158.586 267.504C158.309 268.111 158.17 268.813 158.17 269.61C158.17 270.425 158.309 271.135 158.586 271.742C158.881 272.349 159.279 272.825 159.782 273.172C160.302 273.519 160.909 273.692 161.602 273.692ZM178.903 276.76C177.499 276.76 176.243 276.457 175.133 275.85C174.041 275.226 173.175 274.377 172.533 273.302C171.909 272.227 171.597 270.997 171.597 269.61C171.597 268.223 171.909 267.001 172.533 265.944C173.175 264.869 174.041 264.02 175.133 263.396C176.243 262.772 177.499 262.46 178.903 262.46C180.29 262.46 181.529 262.772 182.621 263.396C183.731 264.02 184.597 264.869 185.221 265.944C185.845 267.001 186.157 268.223 186.157 269.61C186.157 270.997 185.845 272.227 185.221 273.302C184.597 274.377 183.731 275.226 182.621 275.85C181.529 276.457 180.29 276.76 178.903 276.76ZM178.903 273.536C179.579 273.536 180.186 273.371 180.723 273.042C181.261 272.695 181.677 272.227 181.971 271.638C182.283 271.031 182.439 270.355 182.439 269.61C182.439 268.847 182.283 268.171 181.971 267.582C181.677 266.975 181.261 266.507 180.723 266.178C180.186 265.831 179.579 265.658 178.903 265.658C178.21 265.658 177.595 265.831 177.057 266.178C176.52 266.525 176.095 266.993 175.783 267.582C175.471 268.171 175.324 268.847 175.341 269.61C175.324 270.355 175.471 271.031 175.783 271.638C176.095 272.227 176.52 272.695 177.057 273.042C177.595 273.371 178.21 273.536 178.903 273.536ZM189.169 276.5V262.746H192.731L192.809 265.372L192.263 265.476C192.454 265.025 192.705 264.618 193.017 264.254C193.329 263.89 193.693 263.578 194.109 263.318C194.542 263.058 194.993 262.859 195.461 262.72C195.929 262.564 196.397 262.486 196.865 262.486C197.576 262.486 198.217 262.599 198.789 262.824C199.361 263.049 199.846 263.405 200.245 263.89C200.644 264.358 200.956 264.982 201.181 265.762L200.609 265.71L200.791 265.294C201.016 264.878 201.302 264.505 201.649 264.176C201.996 263.829 202.386 263.535 202.819 263.292C203.252 263.032 203.703 262.833 204.171 262.694C204.639 262.555 205.098 262.486 205.549 262.486C206.624 262.486 207.516 262.703 208.227 263.136C208.938 263.552 209.466 264.185 209.813 265.034C210.177 265.883 210.359 266.923 210.359 268.154V276.5H206.667V268.414C206.667 267.79 206.58 267.279 206.407 266.88C206.234 266.481 205.982 266.187 205.653 265.996C205.324 265.788 204.899 265.684 204.379 265.684C203.98 265.684 203.608 265.753 203.261 265.892C202.932 266.013 202.637 266.195 202.377 266.438C202.134 266.663 201.944 266.932 201.805 267.244C201.666 267.556 201.597 267.903 201.597 268.284V276.5H197.905V268.388C197.905 267.816 197.81 267.331 197.619 266.932C197.446 266.516 197.194 266.204 196.865 265.996C196.536 265.788 196.128 265.684 195.643 265.684C195.244 265.684 194.872 265.753 194.525 265.892C194.196 266.013 193.91 266.195 193.667 266.438C193.424 266.663 193.225 266.932 193.069 267.244C192.93 267.556 192.861 267.894 192.861 268.258V276.5H189.169ZM214.525 281.518L213.381 280.14C214.057 279.811 214.594 279.412 214.993 278.944C215.409 278.476 215.617 278.069 215.617 277.722C215.617 277.566 215.573 277.401 215.487 277.228C215.4 277.055 215.209 276.838 214.915 276.578C214.533 276.283 214.273 276.006 214.135 275.746C214.013 275.469 213.953 275.174 213.953 274.862C213.953 274.359 214.135 273.961 214.499 273.666C214.863 273.371 215.331 273.224 215.903 273.224C216.371 273.224 216.795 273.363 217.177 273.64C217.575 273.9 217.887 274.273 218.113 274.758C218.338 275.226 218.451 275.772 218.451 276.396C218.451 276.951 218.355 277.488 218.165 278.008C217.974 278.545 217.697 279.039 217.333 279.49C216.986 279.958 216.57 280.365 216.085 280.712C215.617 281.059 215.097 281.327 214.525 281.518ZM233.086 276.5L228.484 262.746H232.332L235.14 272.106L234.568 272.028L237.662 264.722H239.846L243.07 272.054L242.446 272.106L245.254 262.746H249.102L244.422 276.5H241.744L238.494 268.674L238.91 268.726L235.738 276.5H233.086ZM251.604 276.5V257.26H255.244V265.554L254.516 265.866C254.707 265.242 255.045 264.679 255.53 264.176C256.033 263.656 256.631 263.24 257.324 262.928C258.018 262.616 258.746 262.46 259.508 262.46C260.548 262.46 261.415 262.668 262.108 263.084C262.819 263.5 263.348 264.133 263.694 264.982C264.058 265.814 264.24 266.845 264.24 268.076V276.5H260.548V268.362C260.548 267.738 260.462 267.218 260.288 266.802C260.115 266.386 259.846 266.083 259.482 265.892C259.136 265.684 258.702 265.597 258.182 265.632C257.766 265.632 257.376 265.701 257.012 265.84C256.666 265.961 256.362 266.143 256.102 266.386C255.86 266.629 255.66 266.906 255.504 267.218C255.366 267.53 255.296 267.868 255.296 268.232V276.5H253.476C253.078 276.5 252.722 276.5 252.41 276.5C252.098 276.5 251.83 276.5 251.604 276.5ZM268.35 276.5V262.746H272.042V276.5H268.35ZM270.17 259.912C269.459 259.912 268.905 259.739 268.506 259.392C268.107 259.045 267.908 258.551 267.908 257.91C267.908 257.321 268.107 256.844 268.506 256.48C268.922 256.099 269.477 255.908 270.17 255.908C270.881 255.908 271.435 256.09 271.834 256.454C272.233 256.801 272.432 257.286 272.432 257.91C272.432 258.517 272.224 259.002 271.808 259.366C271.409 259.73 270.863 259.912 270.17 259.912ZM276.219 276.5V262.746H279.781L279.859 265.372L279.313 265.476C279.504 265.025 279.755 264.618 280.067 264.254C280.379 263.89 280.743 263.578 281.159 263.318C281.593 263.058 282.043 262.859 282.511 262.72C282.979 262.564 283.447 262.486 283.915 262.486C284.626 262.486 285.267 262.599 285.839 262.824C286.411 263.049 286.897 263.405 287.295 263.89C287.694 264.358 288.006 264.982 288.231 265.762L287.659 265.71L287.841 265.294C288.067 264.878 288.353 264.505 288.699 264.176C289.046 263.829 289.436 263.535 289.869 263.292C290.303 263.032 290.753 262.833 291.221 262.694C291.689 262.555 292.149 262.486 292.599 262.486C293.674 262.486 294.567 262.703 295.277 263.136C295.988 263.552 296.517 264.185 296.863 265.034C297.227 265.883 297.409 266.923 297.409 268.154V276.5H293.717V268.414C293.717 267.79 293.631 267.279 293.457 266.88C293.284 266.481 293.033 266.187 292.703 265.996C292.374 265.788 291.949 265.684 291.429 265.684C291.031 265.684 290.658 265.753 290.311 265.892C289.982 266.013 289.687 266.195 289.427 266.438C289.185 266.663 288.994 266.932 288.855 267.244C288.717 267.556 288.647 267.903 288.647 268.284V276.5H284.955V268.388C284.955 267.816 284.86 267.331 284.669 266.932C284.496 266.516 284.245 266.204 283.915 265.996C283.586 265.788 283.179 265.684 282.693 265.684C282.295 265.684 281.922 265.753 281.575 265.892C281.246 266.013 280.96 266.195 280.717 266.438C280.475 266.663 280.275 266.932 280.119 267.244C279.981 267.556 279.911 267.894 279.911 268.258V276.5H276.219ZM305.813 276.76C304.53 276.76 303.386 276.552 302.381 276.136C301.393 275.703 300.596 275.113 299.989 274.368L302.277 272.392C302.814 272.964 303.412 273.38 304.071 273.64C304.73 273.883 305.388 274.004 306.047 274.004C306.307 274.004 306.541 273.978 306.749 273.926C306.974 273.857 307.165 273.77 307.321 273.666C307.477 273.545 307.59 273.406 307.659 273.25C307.746 273.077 307.789 272.895 307.789 272.704C307.789 272.323 307.633 272.019 307.321 271.794C307.148 271.707 306.879 271.603 306.515 271.482C306.151 271.343 305.683 271.196 305.111 271.04C304.227 270.815 303.473 270.555 302.849 270.26C302.242 269.948 301.757 269.601 301.393 269.22C301.081 268.856 300.838 268.466 300.665 268.05C300.509 267.617 300.431 267.14 300.431 266.62C300.431 265.996 300.57 265.433 300.847 264.93C301.124 264.41 301.506 263.968 301.991 263.604C302.494 263.24 303.066 262.963 303.707 262.772C304.348 262.564 305.024 262.46 305.735 262.46C306.446 262.46 307.139 262.547 307.815 262.72C308.491 262.893 309.115 263.145 309.687 263.474C310.276 263.786 310.788 264.159 311.221 264.592L309.245 266.776C308.933 266.481 308.578 266.213 308.179 265.97C307.798 265.727 307.399 265.537 306.983 265.398C306.567 265.259 306.194 265.19 305.865 265.19C305.57 265.19 305.302 265.216 305.059 265.268C304.834 265.32 304.643 265.398 304.487 265.502C304.331 265.606 304.21 265.745 304.123 265.918C304.054 266.074 304.019 266.247 304.019 266.438C304.019 266.629 304.062 266.811 304.149 266.984C304.253 267.157 304.392 267.305 304.565 267.426C304.756 267.53 305.033 267.651 305.397 267.79C305.778 267.929 306.29 268.085 306.931 268.258C307.763 268.483 308.465 268.735 309.037 269.012C309.626 269.289 310.094 269.61 310.441 269.974C310.736 270.286 310.952 270.641 311.091 271.04C311.23 271.439 311.299 271.881 311.299 272.366C311.299 273.215 311.056 273.978 310.571 274.654C310.103 275.313 309.453 275.833 308.621 276.214C307.789 276.578 306.853 276.76 305.813 276.76ZM316.115 282.48L319.131 275.408L319.183 277.54L312.475 262.746H316.661L320.015 270.676C320.154 270.971 320.284 271.317 320.405 271.716C320.544 272.097 320.656 272.47 320.743 272.834L320.119 273.094C320.223 272.799 320.344 272.461 320.483 272.08C320.622 271.699 320.76 271.291 320.899 270.858L323.785 262.746H327.997L322.225 276.5L319.859 282.48H316.115ZM330.634 281.518L329.49 280.14C330.166 279.811 330.703 279.412 331.102 278.944C331.518 278.476 331.726 278.069 331.726 277.722C331.726 277.566 331.683 277.401 331.596 277.228C331.509 277.055 331.319 276.838 331.024 276.578C330.643 276.283 330.383 276.006 330.244 275.746C330.123 275.469 330.062 275.174 330.062 274.862C330.062 274.359 330.244 273.961 330.608 273.666C330.972 273.371 331.44 273.224 332.012 273.224C332.48 273.224 332.905 273.363 333.286 273.64C333.685 273.9 333.997 274.273 334.222 274.758C334.447 275.226 334.56 275.772 334.56 276.396C334.56 276.951 334.465 277.488 334.274 278.008C334.083 278.545 333.806 279.039 333.442 279.49C333.095 279.958 332.679 280.365 332.194 280.712C331.726 281.059 331.206 281.327 330.634 281.518ZM103.326 309.76C102.009 309.76 100.83 309.448 99.79 308.824C98.75 308.2 97.9267 307.351 97.32 306.276C96.7307 305.201 96.436 303.979 96.436 302.61C96.436 301.258 96.7307 300.045 97.32 298.97C97.9267 297.878 98.75 297.02 99.79 296.396C100.83 295.772 102.009 295.46 103.326 295.46C104.557 295.46 105.683 295.685 106.706 296.136C107.729 296.587 108.526 297.211 109.098 298.008L107.07 300.452C106.827 300.123 106.524 299.828 106.16 299.568C105.796 299.291 105.397 299.074 104.964 298.918C104.548 298.762 104.115 298.684 103.664 298.684C102.953 298.684 102.321 298.857 101.766 299.204C101.229 299.533 100.804 299.993 100.492 300.582C100.18 301.171 100.024 301.847 100.024 302.61C100.024 303.355 100.18 304.023 100.492 304.612C100.821 305.184 101.263 305.652 101.818 306.016C102.373 306.363 102.997 306.536 103.69 306.536C104.141 306.536 104.565 306.475 104.964 306.354C105.363 306.215 105.735 306.016 106.082 305.756C106.446 305.496 106.775 305.184 107.07 304.82L109.072 307.264C108.483 308.009 107.668 308.616 106.628 309.084C105.588 309.535 104.487 309.76 103.326 309.76ZM111.698 309.5V290.26H115.338V298.554L114.61 298.866C114.8 298.242 115.138 297.679 115.624 297.176C116.126 296.656 116.724 296.24 117.418 295.928C118.111 295.616 118.839 295.46 119.602 295.46C120.642 295.46 121.508 295.668 122.202 296.084C122.912 296.5 123.441 297.133 123.788 297.982C124.152 298.814 124.334 299.845 124.334 301.076V309.5H120.642V301.362C120.642 300.738 120.555 300.218 120.382 299.802C120.208 299.386 119.94 299.083 119.576 298.892C119.229 298.684 118.796 298.597 118.276 298.632C117.86 298.632 117.47 298.701 117.106 298.84C116.759 298.961 116.456 299.143 116.196 299.386C115.953 299.629 115.754 299.906 115.598 300.218C115.459 300.53 115.39 300.868 115.39 301.232V309.5H113.57C113.171 309.5 112.816 309.5 112.504 309.5C112.192 309.5 111.923 309.5 111.698 309.5ZM133.28 309.76C132.136 309.76 131.104 309.448 130.186 308.824C129.267 308.2 128.539 307.351 128.002 306.276C127.464 305.201 127.196 303.971 127.196 302.584C127.196 301.197 127.464 299.975 128.002 298.918C128.556 297.843 129.302 297.003 130.238 296.396C131.174 295.772 132.24 295.46 133.436 295.46C134.112 295.46 134.727 295.564 135.282 295.772C135.854 295.963 136.348 296.231 136.764 296.578C137.197 296.925 137.561 297.323 137.856 297.774C138.15 298.225 138.358 298.71 138.48 299.23L137.7 299.1V295.746H141.366V309.5H137.648V306.198L138.48 306.12C138.341 306.605 138.116 307.065 137.804 307.498C137.492 307.931 137.102 308.321 136.634 308.668C136.183 308.997 135.672 309.266 135.1 309.474C134.528 309.665 133.921 309.76 133.28 309.76ZM134.294 306.562C134.987 306.562 135.594 306.397 136.114 306.068C136.634 305.739 137.032 305.279 137.31 304.69C137.604 304.083 137.752 303.381 137.752 302.584C137.752 301.804 137.604 301.119 137.31 300.53C137.032 299.941 136.634 299.481 136.114 299.152C135.594 298.805 134.987 298.632 134.294 298.632C133.618 298.632 133.02 298.805 132.5 299.152C131.997 299.481 131.598 299.941 131.304 300.53C131.009 301.119 130.862 301.804 130.862 302.584C130.862 303.381 131.009 304.083 131.304 304.69C131.598 305.279 131.997 305.739 132.5 306.068C133.02 306.397 133.618 306.562 134.294 306.562ZM145.327 309.5V295.746H148.863L148.967 298.554L148.239 298.866C148.43 298.242 148.768 297.679 149.253 297.176C149.756 296.656 150.354 296.24 151.047 295.928C151.741 295.616 152.469 295.46 153.231 295.46C154.271 295.46 155.138 295.668 155.831 296.084C156.542 296.5 157.071 297.133 157.417 297.982C157.781 298.814 157.963 299.845 157.963 301.076V309.5H154.271V301.362C154.271 300.738 154.185 300.218 154.011 299.802C153.838 299.386 153.569 299.083 153.205 298.892C152.859 298.684 152.425 298.597 151.905 298.632C151.489 298.632 151.099 298.701 150.735 298.84C150.389 298.961 150.085 299.143 149.825 299.386C149.583 299.629 149.383 299.906 149.227 300.218C149.089 300.53 149.019 300.868 149.019 301.232V309.5H147.199C146.801 309.5 146.445 309.5 146.133 309.5C145.821 309.5 145.553 309.5 145.327 309.5ZM168.027 315.48C166.935 315.48 165.86 315.315 164.803 314.986C163.746 314.674 162.888 314.267 162.229 313.764L163.529 311.112C163.876 311.355 164.274 311.571 164.725 311.762C165.176 311.953 165.644 312.1 166.129 312.204C166.632 312.308 167.143 312.36 167.663 312.36C168.564 312.36 169.301 312.221 169.873 311.944C170.462 311.667 170.904 311.251 171.199 310.696C171.494 310.159 171.641 309.465 171.641 308.616V306.224L172.265 306.354C172.161 306.926 171.875 307.455 171.407 307.94C170.939 308.408 170.35 308.789 169.639 309.084C168.928 309.361 168.2 309.5 167.455 309.5C166.172 309.5 165.037 309.205 164.049 308.616C163.061 308.027 162.281 307.212 161.709 306.172C161.137 305.132 160.851 303.936 160.851 302.584C160.851 301.197 161.128 299.975 161.683 298.918C162.255 297.843 163.026 297.003 163.997 296.396C164.985 295.772 166.103 295.46 167.351 295.46C167.871 295.46 168.365 295.521 168.833 295.642C169.318 295.763 169.76 295.937 170.159 296.162C170.575 296.37 170.939 296.613 171.251 296.89C171.58 297.15 171.849 297.436 172.057 297.748C172.265 298.06 172.395 298.372 172.447 298.684L171.693 298.892L171.797 295.746H175.333V308.46C175.333 309.587 175.168 310.583 174.839 311.45C174.51 312.317 174.024 313.045 173.383 313.634C172.759 314.241 171.988 314.7 171.069 315.012C170.168 315.324 169.154 315.48 168.027 315.48ZM168.131 306.536C168.859 306.536 169.492 306.371 170.029 306.042C170.584 305.713 171.008 305.253 171.303 304.664C171.598 304.075 171.745 303.381 171.745 302.584C171.745 301.804 171.598 301.119 171.303 300.53C171.008 299.923 170.584 299.455 170.029 299.126C169.492 298.797 168.859 298.632 168.131 298.632C167.42 298.632 166.788 298.805 166.233 299.152C165.696 299.481 165.28 299.941 164.985 300.53C164.69 301.119 164.543 301.804 164.543 302.584C164.543 303.364 164.69 304.057 164.985 304.664C165.28 305.253 165.696 305.713 166.233 306.042C166.788 306.371 167.42 306.536 168.131 306.536ZM185.787 309.76C184.297 309.76 182.997 309.457 181.887 308.85C180.778 308.243 179.911 307.411 179.287 306.354C178.663 305.297 178.351 304.083 178.351 302.714C178.351 301.657 178.525 300.686 178.871 299.802C179.218 298.918 179.703 298.155 180.327 297.514C180.951 296.855 181.688 296.353 182.537 296.006C183.404 295.642 184.34 295.46 185.345 295.46C186.281 295.46 187.148 295.633 187.945 295.98C188.743 296.309 189.427 296.786 189.999 297.41C190.589 298.017 191.039 298.736 191.351 299.568C191.663 300.4 191.802 301.31 191.767 302.298L191.741 303.442H180.691L180.093 301.18H188.699L188.283 301.648V301.076C188.249 300.608 188.093 300.183 187.815 299.802C187.555 299.421 187.217 299.126 186.801 298.918C186.385 298.71 185.917 298.606 185.397 298.606C184.635 298.606 183.985 298.753 183.447 299.048C182.927 299.343 182.529 299.776 182.251 300.348C181.974 300.92 181.835 301.613 181.835 302.428C181.835 303.26 182.009 303.979 182.355 304.586C182.719 305.193 183.222 305.669 183.863 306.016C184.522 306.345 185.293 306.51 186.177 306.51C186.784 306.51 187.339 306.415 187.841 306.224C188.344 306.033 188.881 305.704 189.453 305.236L191.221 307.706C190.719 308.157 190.164 308.538 189.557 308.85C188.951 309.145 188.327 309.37 187.685 309.526C187.044 309.682 186.411 309.76 185.787 309.76Z" fill="#6D6D6D"/>
</g>
<path d="M62.4009 356.607C62.0345 356.981 61.8292 357.484 61.8292 358.007C61.8292 358.531 62.0345 359.034 62.4009 359.407L65.6009 362.607C65.9748 362.974 66.4774 363.179 67.0009 363.179C67.5244 363.179 68.0271 362.974 68.4009 362.607L74.6129 356.397C75.2529 355.753 76.3389 355.957 76.5789 356.833C77.1832 359.031 77.1491 361.356 76.4805 363.535C75.8119 365.714 74.5366 367.657 72.8037 369.138C71.0708 370.619 68.9521 371.575 66.6954 371.896C64.4388 372.216 62.1375 371.887 60.0609 370.947L44.2409 386.767C43.4453 387.563 42.3663 388.01 41.2412 388.009C40.1162 388.009 39.0373 387.562 38.2419 386.766C37.4465 385.971 36.9998 384.892 37 383.767C37.0002 382.642 37.4473 381.563 38.2429 380.767L54.0629 364.947C53.1232 362.871 52.7943 360.57 53.1148 358.313C53.4353 356.056 54.3918 353.937 55.8725 352.205C57.3531 350.472 59.2967 349.196 61.4757 348.528C63.6548 347.859 65.9792 347.825 68.1769 348.429C69.0529 348.669 69.2569 349.753 68.6149 350.397L62.4009 356.607Z" stroke="#8C8C8C" stroke-width="4.02" stroke-linecap="round" stroke-linejoin="round"/>
<g filter="url(#filter3_d_124_19)">
<path d="M103.768 360.76C102.641 360.76 101.61 360.621 100.674 360.344C99.7553 360.067 98.932 359.659 98.204 359.122C97.4933 358.585 96.852 357.935 96.28 357.172L98.724 354.39C99.5733 355.569 100.414 356.375 101.246 356.808C102.095 357.224 103.014 357.432 104.002 357.432C104.539 357.432 105.016 357.363 105.432 357.224C105.865 357.068 106.203 356.851 106.446 356.574C106.689 356.297 106.81 355.967 106.81 355.586C106.81 355.309 106.749 355.057 106.628 354.832C106.507 354.589 106.333 354.381 106.108 354.208C105.883 354.017 105.614 353.853 105.302 353.714C104.99 353.558 104.643 353.428 104.262 353.324C103.881 353.203 103.465 353.107 103.014 353.038C102.043 352.813 101.194 352.544 100.466 352.232C99.738 351.903 99.1313 351.504 98.646 351.036C98.1607 350.551 97.7967 350.005 97.554 349.398C97.3287 348.791 97.216 348.107 97.216 347.344C97.216 346.564 97.3893 345.845 97.736 345.186C98.0827 344.51 98.5593 343.929 99.166 343.444C99.79 342.959 100.501 342.586 101.298 342.326C102.113 342.066 102.971 341.936 103.872 341.936C104.981 341.936 105.952 342.066 106.784 342.326C107.616 342.569 108.335 342.924 108.942 343.392C109.566 343.86 110.086 344.432 110.502 345.108L108.032 347.5C107.668 347.015 107.269 346.607 106.836 346.278C106.42 345.949 105.961 345.706 105.458 345.55C104.973 345.377 104.47 345.29 103.95 345.29C103.378 345.29 102.884 345.368 102.468 345.524C102.052 345.663 101.723 345.871 101.48 346.148C101.255 346.425 101.142 346.763 101.142 347.162C101.142 347.474 101.22 347.751 101.376 347.994C101.532 348.237 101.757 348.453 102.052 348.644C102.347 348.817 102.702 348.973 103.118 349.112C103.534 349.251 103.993 349.372 104.496 349.476C105.449 349.667 106.307 349.918 107.07 350.23C107.833 350.542 108.483 350.923 109.02 351.374C109.575 351.807 109.999 352.327 110.294 352.934C110.589 353.523 110.736 354.191 110.736 354.936C110.736 356.167 110.441 357.215 109.852 358.082C109.263 358.949 108.448 359.616 107.408 360.084C106.368 360.535 105.155 360.76 103.768 360.76ZM114.008 366.22V346.746H117.57L117.674 349.84L116.998 349.606C117.12 349.051 117.414 348.54 117.882 348.072C118.368 347.604 118.966 347.223 119.676 346.928C120.387 346.633 121.132 346.486 121.912 346.486C123.108 346.486 124.166 346.798 125.084 347.422C126.02 348.029 126.757 348.869 127.294 349.944C127.849 351.001 128.126 352.223 128.126 353.61C128.126 354.979 127.858 356.201 127.32 357.276C126.783 358.351 126.046 359.2 125.11 359.824C124.174 360.431 123.108 360.734 121.912 360.734C121.115 360.734 120.352 360.587 119.624 360.292C118.914 359.98 118.307 359.573 117.804 359.07C117.302 358.567 116.99 358.03 116.868 357.458L117.726 357.094V366.22H114.008ZM121.08 357.562C121.756 357.562 122.354 357.397 122.874 357.068C123.394 356.739 123.802 356.279 124.096 355.69C124.391 355.083 124.538 354.39 124.538 353.61C124.538 352.83 124.391 352.145 124.096 351.556C123.802 350.967 123.394 350.507 122.874 350.178C122.372 349.849 121.774 349.684 121.08 349.684C120.387 349.684 119.78 349.849 119.26 350.178C118.74 350.49 118.333 350.949 118.038 351.556C117.744 352.145 117.596 352.83 117.596 353.61C117.596 354.39 117.744 355.083 118.038 355.69C118.333 356.279 118.74 356.739 119.26 357.068C119.78 357.397 120.387 357.562 121.08 357.562ZM137.705 360.76C136.214 360.76 134.914 360.457 133.805 359.85C132.695 359.243 131.829 358.411 131.205 357.354C130.581 356.297 130.269 355.083 130.269 353.714C130.269 352.657 130.442 351.686 130.789 350.802C131.135 349.918 131.621 349.155 132.245 348.514C132.869 347.855 133.605 347.353 134.455 347.006C135.321 346.642 136.257 346.46 137.263 346.46C138.199 346.46 139.065 346.633 139.863 346.98C140.66 347.309 141.345 347.786 141.917 348.41C142.506 349.017 142.957 349.736 143.269 350.568C143.581 351.4 143.719 352.31 143.685 353.298L143.659 354.442H132.609L132.011 352.18H140.617L140.201 352.648V352.076C140.166 351.608 140.01 351.183 139.733 350.802C139.473 350.421 139.135 350.126 138.719 349.918C138.303 349.71 137.835 349.606 137.315 349.606C136.552 349.606 135.902 349.753 135.365 350.048C134.845 350.343 134.446 350.776 134.169 351.348C133.891 351.92 133.753 352.613 133.753 353.428C133.753 354.26 133.926 354.979 134.273 355.586C134.637 356.193 135.139 356.669 135.781 357.016C136.439 357.345 137.211 357.51 138.095 357.51C138.701 357.51 139.256 357.415 139.759 357.224C140.261 357.033 140.799 356.704 141.371 356.236L143.139 358.706C142.636 359.157 142.081 359.538 141.475 359.85C140.868 360.145 140.244 360.37 139.603 360.526C138.961 360.682 138.329 360.76 137.705 360.76ZM153.199 360.76C151.708 360.76 150.408 360.457 149.299 359.85C148.19 359.243 147.323 358.411 146.699 357.354C146.075 356.297 145.763 355.083 145.763 353.714C145.763 352.657 145.936 351.686 146.283 350.802C146.63 349.918 147.115 349.155 147.739 348.514C148.363 347.855 149.1 347.353 149.949 347.006C150.816 346.642 151.752 346.46 152.757 346.46C153.693 346.46 154.56 346.633 155.357 346.98C156.154 347.309 156.839 347.786 157.411 348.41C158 349.017 158.451 349.736 158.763 350.568C159.075 351.4 159.214 352.31 159.179 353.298L159.153 354.442H148.103L147.505 352.18H156.111L155.695 352.648V352.076C155.66 351.608 155.504 351.183 155.227 350.802C154.967 350.421 154.629 350.126 154.213 349.918C153.797 349.71 153.329 349.606 152.809 349.606C152.046 349.606 151.396 349.753 150.859 350.048C150.339 350.343 149.94 350.776 149.663 351.348C149.386 351.92 149.247 352.613 149.247 353.428C149.247 354.26 149.42 354.979 149.767 355.586C150.131 356.193 150.634 356.669 151.275 357.016C151.934 357.345 152.705 357.51 153.589 357.51C154.196 357.51 154.75 357.415 155.253 357.224C155.756 357.033 156.293 356.704 156.865 356.236L158.633 358.706C158.13 359.157 157.576 359.538 156.969 359.85C156.362 360.145 155.738 360.37 155.097 360.526C154.456 360.682 153.823 360.76 153.199 360.76ZM167.549 360.76C166.353 360.76 165.279 360.457 164.325 359.85C163.372 359.226 162.618 358.385 162.063 357.328C161.526 356.253 161.257 355.014 161.257 353.61C161.257 352.241 161.526 351.019 162.063 349.944C162.618 348.869 163.363 348.02 164.299 347.396C165.253 346.772 166.336 346.46 167.549 346.46C168.191 346.46 168.806 346.564 169.395 346.772C170.002 346.963 170.539 347.231 171.007 347.578C171.493 347.925 171.883 348.315 172.177 348.748C172.472 349.164 172.637 349.606 172.671 350.074L171.735 350.23V341.26H175.427V360.5H171.943L171.787 357.328L172.515 357.406C172.481 357.839 172.325 358.255 172.047 358.654C171.77 359.053 171.397 359.417 170.929 359.746C170.479 360.058 169.959 360.309 169.369 360.5C168.797 360.673 168.191 360.76 167.549 360.76ZM168.381 357.692C169.075 357.692 169.681 357.519 170.201 357.172C170.721 356.825 171.129 356.349 171.423 355.742C171.718 355.135 171.865 354.425 171.865 353.61C171.865 352.813 171.718 352.111 171.423 351.504C171.129 350.88 170.721 350.403 170.201 350.074C169.681 349.727 169.075 349.554 168.381 349.554C167.688 349.554 167.081 349.727 166.561 350.074C166.059 350.403 165.66 350.88 165.365 351.504C165.088 352.111 164.949 352.813 164.949 353.61C164.949 354.425 165.088 355.135 165.365 355.742C165.66 356.349 166.059 356.825 166.561 357.172C167.081 357.519 167.688 357.692 168.381 357.692ZM179.677 365.518L178.533 364.14C179.209 363.811 179.746 363.412 180.145 362.944C180.561 362.476 180.769 362.069 180.769 361.722C180.769 361.566 180.725 361.401 180.639 361.228C180.552 361.055 180.361 360.838 180.067 360.578C179.685 360.283 179.425 360.006 179.287 359.746C179.165 359.469 179.105 359.174 179.105 358.862C179.105 358.359 179.287 357.961 179.651 357.666C180.015 357.371 180.483 357.224 181.055 357.224C181.523 357.224 181.947 357.363 182.329 357.64C182.727 357.9 183.039 358.273 183.265 358.758C183.49 359.226 183.603 359.772 183.603 360.396C183.603 360.951 183.507 361.488 183.317 362.008C183.126 362.545 182.849 363.039 182.485 363.49C182.138 363.958 181.722 364.365 181.237 364.712C180.769 365.059 180.249 365.327 179.677 365.518ZM200.474 360.76C199.278 360.76 198.203 360.457 197.25 359.85C196.296 359.226 195.542 358.385 194.988 357.328C194.45 356.253 194.182 355.014 194.182 353.61C194.182 352.241 194.45 351.019 194.988 349.944C195.542 348.869 196.288 348.02 197.224 347.396C198.177 346.772 199.26 346.46 200.474 346.46C201.115 346.46 201.73 346.564 202.32 346.772C202.926 346.963 203.464 347.231 203.932 347.578C204.417 347.925 204.807 348.315 205.102 348.748C205.396 349.164 205.561 349.606 205.596 350.074L204.66 350.23V341.26H208.352V360.5H204.868L204.712 357.328L205.44 357.406C205.405 357.839 205.249 358.255 204.972 358.654C204.694 359.053 204.322 359.417 203.854 359.746C203.403 360.058 202.883 360.309 202.294 360.5C201.722 360.673 201.115 360.76 200.474 360.76ZM201.306 357.692C201.999 357.692 202.606 357.519 203.126 357.172C203.646 356.825 204.053 356.349 204.348 355.742C204.642 355.135 204.79 354.425 204.79 353.61C204.79 352.813 204.642 352.111 204.348 351.504C204.053 350.88 203.646 350.403 203.126 350.074C202.606 349.727 201.999 349.554 201.306 349.554C200.612 349.554 200.006 349.727 199.486 350.074C198.983 350.403 198.584 350.88 198.29 351.504C198.012 352.111 197.874 352.813 197.874 353.61C197.874 354.425 198.012 355.135 198.29 355.742C198.584 356.349 198.983 356.825 199.486 357.172C200.006 357.519 200.612 357.692 201.306 357.692ZM218.737 360.76C217.246 360.76 215.946 360.457 214.837 359.85C213.728 359.243 212.861 358.411 212.237 357.354C211.613 356.297 211.301 355.083 211.301 353.714C211.301 352.657 211.474 351.686 211.821 350.802C212.168 349.918 212.653 349.155 213.277 348.514C213.901 347.855 214.638 347.353 215.487 347.006C216.354 346.642 217.29 346.46 218.295 346.46C219.231 346.46 220.098 346.633 220.895 346.98C221.692 347.309 222.377 347.786 222.949 348.41C223.538 349.017 223.989 349.736 224.301 350.568C224.613 351.4 224.752 352.31 224.717 353.298L224.691 354.442H213.641L213.043 352.18H221.649L221.233 352.648V352.076C221.198 351.608 221.042 351.183 220.765 350.802C220.505 350.421 220.167 350.126 219.751 349.918C219.335 349.71 218.867 349.606 218.347 349.606C217.584 349.606 216.934 349.753 216.397 350.048C215.877 350.343 215.478 350.776 215.201 351.348C214.924 351.92 214.785 352.613 214.785 353.428C214.785 354.26 214.958 354.979 215.305 355.586C215.669 356.193 216.172 356.669 216.813 357.016C217.472 357.345 218.243 357.51 219.127 357.51C219.734 357.51 220.288 357.415 220.791 357.224C221.294 357.033 221.831 356.704 222.403 356.236L224.171 358.706C223.668 359.157 223.114 359.538 222.507 359.85C221.9 360.145 221.276 360.37 220.635 360.526C219.994 360.682 219.361 360.76 218.737 360.76ZM236.313 360.5L232.907 355.638L231.867 354.182L226.303 346.746H230.775L234.103 351.452L235.247 353.012L240.733 360.5H236.313ZM226.251 360.5L231.737 352.986L233.765 355.404L230.593 360.5H226.251ZM235.091 354.312L233.115 351.894L236.053 346.746H240.395L235.091 354.312ZM244.602 360.5V343.262H248.294V360.5H244.602ZM242.028 350.048V346.746H251.102V350.048H242.028ZM260.168 360.76C258.677 360.76 257.377 360.457 256.268 359.85C255.158 359.243 254.292 358.411 253.668 357.354C253.044 356.297 252.732 355.083 252.732 353.714C252.732 352.657 252.905 351.686 253.252 350.802C253.598 349.918 254.084 349.155 254.708 348.514C255.332 347.855 256.068 347.353 256.918 347.006C257.784 346.642 258.72 346.46 259.726 346.46C260.662 346.46 261.528 346.633 262.326 346.98C263.123 347.309 263.808 347.786 264.38 348.41C264.969 349.017 265.42 349.736 265.732 350.568C266.044 351.4 266.182 352.31 266.148 353.298L266.122 354.442H255.072L254.474 352.18H263.08L262.664 352.648V352.076C262.629 351.608 262.473 351.183 262.196 350.802C261.936 350.421 261.598 350.126 261.182 349.918C260.766 349.71 260.298 349.606 259.778 349.606C259.015 349.606 258.365 349.753 257.828 350.048C257.308 350.343 256.909 350.776 256.632 351.348C256.354 351.92 256.216 352.613 256.216 353.428C256.216 354.26 256.389 354.979 256.736 355.586C257.1 356.193 257.602 356.669 258.244 357.016C258.902 357.345 259.674 357.51 260.558 357.51C261.164 357.51 261.719 357.415 262.222 357.224C262.724 357.033 263.262 356.704 263.834 356.236L265.602 358.706C265.099 359.157 264.544 359.538 263.938 359.85C263.331 360.145 262.707 360.37 262.066 360.526C261.424 360.682 260.792 360.76 260.168 360.76ZM269.136 360.5V346.746H272.698L272.828 351.166L272.204 350.256C272.412 349.545 272.75 348.904 273.218 348.332C273.686 347.743 274.232 347.283 274.856 346.954C275.497 346.625 276.165 346.46 276.858 346.46C277.153 346.46 277.439 346.486 277.716 346.538C277.993 346.59 278.227 346.651 278.418 346.72L277.43 350.776C277.222 350.672 276.971 350.585 276.676 350.516C276.381 350.429 276.078 350.386 275.766 350.386C275.35 350.386 274.96 350.464 274.596 350.62C274.249 350.759 273.946 350.967 273.686 351.244C273.426 351.504 273.218 351.816 273.062 352.18C272.923 352.544 272.854 352.943 272.854 353.376V360.5H269.136ZM281.108 360.5V346.746H284.8V360.5H281.108ZM282.928 343.912C282.218 343.912 281.663 343.739 281.264 343.392C280.866 343.045 280.666 342.551 280.666 341.91C280.666 341.321 280.866 340.844 281.264 340.48C281.68 340.099 282.235 339.908 282.928 339.908C283.639 339.908 284.194 340.09 284.592 340.454C284.991 340.801 285.19 341.286 285.19 341.91C285.19 342.517 284.982 343.002 284.566 343.366C284.168 343.73 283.622 343.912 282.928 343.912ZM290.33 360.5V343.262H294.022V360.5H290.33ZM287.756 350.048V346.746H296.83V350.048H287.756ZM301.42 366.48L304.436 359.408L304.488 361.54L297.78 346.746H301.966L305.32 354.676C305.459 354.971 305.589 355.317 305.71 355.716C305.849 356.097 305.961 356.47 306.048 356.834L305.424 357.094C305.528 356.799 305.649 356.461 305.788 356.08C305.927 355.699 306.065 355.291 306.204 354.858L309.09 346.746H313.302L307.53 360.5L305.164 366.48H301.42ZM315.939 365.518L314.795 364.14C315.471 363.811 316.008 363.412 316.407 362.944C316.823 362.476 317.031 362.069 317.031 361.722C317.031 361.566 316.988 361.401 316.901 361.228C316.814 361.055 316.624 360.838 316.329 360.578C315.948 360.283 315.688 360.006 315.549 359.746C315.428 359.469 315.367 359.174 315.367 358.862C315.367 358.359 315.549 357.961 315.913 357.666C316.277 357.371 316.745 357.224 317.317 357.224C317.785 357.224 318.21 357.363 318.591 357.64C318.99 357.9 319.302 358.273 319.527 358.758C319.752 359.226 319.865 359.772 319.865 360.396C319.865 360.951 319.77 361.488 319.579 362.008C319.388 362.545 319.111 363.039 318.747 363.49C318.4 363.958 317.984 364.365 317.499 364.712C317.031 365.059 316.511 365.327 315.939 365.518ZM102.494 393.76C101.35 393.76 100.319 393.448 99.4 392.824C98.4813 392.2 97.7533 391.351 97.216 390.276C96.6787 389.201 96.41 387.971 96.41 386.584C96.41 385.197 96.6787 383.975 97.216 382.918C97.7707 381.843 98.516 381.003 99.452 380.396C100.388 379.772 101.454 379.46 102.65 379.46C103.326 379.46 103.941 379.564 104.496 379.772C105.068 379.963 105.562 380.231 105.978 380.578C106.411 380.925 106.775 381.323 107.07 381.774C107.365 382.225 107.573 382.71 107.694 383.23L106.914 383.1V379.746H110.58V393.5H106.862V390.198L107.694 390.12C107.555 390.605 107.33 391.065 107.018 391.498C106.706 391.931 106.316 392.321 105.848 392.668C105.397 392.997 104.886 393.266 104.314 393.474C103.742 393.665 103.135 393.76 102.494 393.76ZM103.508 390.562C104.201 390.562 104.808 390.397 105.328 390.068C105.848 389.739 106.247 389.279 106.524 388.69C106.819 388.083 106.966 387.381 106.966 386.584C106.966 385.804 106.819 385.119 106.524 384.53C106.247 383.941 105.848 383.481 105.328 383.152C104.808 382.805 104.201 382.632 103.508 382.632C102.832 382.632 102.234 382.805 101.714 383.152C101.211 383.481 100.813 383.941 100.518 384.53C100.223 385.119 100.076 385.804 100.076 386.584C100.076 387.381 100.223 388.083 100.518 388.69C100.813 389.279 101.211 389.739 101.714 390.068C102.234 390.397 102.832 390.562 103.508 390.562ZM120.522 393.76C119.204 393.76 118.026 393.448 116.986 392.824C115.946 392.2 115.122 391.351 114.516 390.276C113.926 389.201 113.632 387.979 113.632 386.61C113.632 385.258 113.926 384.045 114.516 382.97C115.122 381.878 115.946 381.02 116.986 380.396C118.026 379.772 119.204 379.46 120.522 379.46C121.752 379.46 122.879 379.685 123.902 380.136C124.924 380.587 125.722 381.211 126.294 382.008L124.266 384.452C124.023 384.123 123.72 383.828 123.356 383.568C122.992 383.291 122.593 383.074 122.16 382.918C121.744 382.762 121.31 382.684 120.86 382.684C120.149 382.684 119.516 382.857 118.962 383.204C118.424 383.533 118 383.993 117.688 384.582C117.376 385.171 117.22 385.847 117.22 386.61C117.22 387.355 117.376 388.023 117.688 388.612C118.017 389.184 118.459 389.652 119.014 390.016C119.568 390.363 120.192 390.536 120.886 390.536C121.336 390.536 121.761 390.475 122.16 390.354C122.558 390.215 122.931 390.016 123.278 389.756C123.642 389.496 123.971 389.184 124.266 388.82L126.268 391.264C125.678 392.009 124.864 392.616 123.824 393.084C122.784 393.535 121.683 393.76 120.522 393.76ZM128.893 393.5V379.746H132.455L132.585 384.166L131.961 383.256C132.169 382.545 132.507 381.904 132.975 381.332C133.443 380.743 133.989 380.283 134.613 379.954C135.255 379.625 135.922 379.46 136.615 379.46C136.91 379.46 137.196 379.486 137.473 379.538C137.751 379.59 137.985 379.651 138.175 379.72L137.187 383.776C136.979 383.672 136.728 383.585 136.433 383.516C136.139 383.429 135.835 383.386 135.523 383.386C135.107 383.386 134.717 383.464 134.353 383.62C134.007 383.759 133.703 383.967 133.443 384.244C133.183 384.504 132.975 384.816 132.819 385.18C132.681 385.544 132.611 385.943 132.611 386.376V393.5H128.893ZM146.366 393.76C144.962 393.76 143.705 393.457 142.596 392.85C141.504 392.226 140.637 391.377 139.996 390.302C139.372 389.227 139.06 387.997 139.06 386.61C139.06 385.223 139.372 384.001 139.996 382.944C140.637 381.869 141.504 381.02 142.596 380.396C143.705 379.772 144.962 379.46 146.366 379.46C147.752 379.46 148.992 379.772 150.084 380.396C151.193 381.02 152.06 381.869 152.684 382.944C153.308 384.001 153.62 385.223 153.62 386.61C153.62 387.997 153.308 389.227 152.684 390.302C152.06 391.377 151.193 392.226 150.084 392.85C148.992 393.457 147.752 393.76 146.366 393.76ZM146.366 390.536C147.042 390.536 147.648 390.371 148.186 390.042C148.723 389.695 149.139 389.227 149.434 388.638C149.746 388.031 149.902 387.355 149.902 386.61C149.902 385.847 149.746 385.171 149.434 384.582C149.139 383.975 148.723 383.507 148.186 383.178C147.648 382.831 147.042 382.658 146.366 382.658C145.672 382.658 145.057 382.831 144.52 383.178C143.982 383.525 143.558 383.993 143.246 384.582C142.934 385.171 142.786 385.847 142.804 386.61C142.786 387.355 142.934 388.031 143.246 388.638C143.558 389.227 143.982 389.695 144.52 390.042C145.057 390.371 145.672 390.536 146.366 390.536ZM164.587 393.76C163.981 393.76 163.391 393.673 162.819 393.5C162.247 393.327 161.727 393.093 161.259 392.798C160.791 392.486 160.401 392.139 160.089 391.758C159.777 391.359 159.578 390.952 159.491 390.536L160.323 390.224L160.141 393.448H156.657V374.26H160.349V382.97L159.647 382.684C159.751 382.268 159.951 381.869 160.245 381.488C160.54 381.089 160.913 380.743 161.363 380.448C161.814 380.136 162.308 379.893 162.845 379.72C163.383 379.547 163.937 379.46 164.509 379.46C165.705 379.46 166.771 379.772 167.707 380.396C168.643 381.003 169.38 381.843 169.917 382.918C170.472 383.993 170.749 385.223 170.749 386.61C170.749 387.997 170.481 389.227 169.943 390.302C169.406 391.377 168.669 392.226 167.733 392.85C166.815 393.457 165.766 393.76 164.587 393.76ZM163.703 390.614C164.397 390.614 164.995 390.449 165.497 390.12C166.017 389.773 166.425 389.305 166.719 388.716C167.014 388.109 167.161 387.407 167.161 386.61C167.161 385.83 167.014 385.137 166.719 384.53C166.442 383.923 166.043 383.455 165.523 383.126C165.003 382.797 164.397 382.632 163.703 382.632C163.01 382.632 162.403 382.797 161.883 383.126C161.363 383.455 160.956 383.923 160.661 384.53C160.367 385.137 160.219 385.83 160.219 386.61C160.219 387.407 160.367 388.109 160.661 388.716C160.956 389.305 161.363 389.773 161.883 390.12C162.403 390.449 163.01 390.614 163.703 390.614ZM178.95 393.76C177.806 393.76 176.775 393.448 175.856 392.824C174.938 392.2 174.21 391.351 173.672 390.276C173.135 389.201 172.866 387.971 172.866 386.584C172.866 385.197 173.135 383.975 173.672 382.918C174.227 381.843 174.972 381.003 175.908 380.396C176.844 379.772 177.91 379.46 179.106 379.46C179.782 379.46 180.398 379.564 180.952 379.772C181.524 379.963 182.018 380.231 182.434 380.578C182.868 380.925 183.232 381.323 183.526 381.774C183.821 382.225 184.029 382.71 184.15 383.23L183.37 383.1V379.746H187.036V393.5H183.318V390.198L184.15 390.12C184.012 390.605 183.786 391.065 183.474 391.498C183.162 391.931 182.772 392.321 182.304 392.668C181.854 392.997 181.342 393.266 180.77 393.474C180.198 393.665 179.592 393.76 178.95 393.76ZM179.964 390.562C180.658 390.562 181.264 390.397 181.784 390.068C182.304 389.739 182.703 389.279 182.98 388.69C183.275 388.083 183.422 387.381 183.422 386.584C183.422 385.804 183.275 385.119 182.98 384.53C182.703 383.941 182.304 383.481 181.784 383.152C181.264 382.805 180.658 382.632 179.964 382.632C179.288 382.632 178.69 382.805 178.17 383.152C177.668 383.481 177.269 383.941 176.974 384.53C176.68 385.119 176.532 385.804 176.532 386.584C176.532 387.381 176.68 388.083 176.974 388.69C177.269 389.279 177.668 389.739 178.17 390.068C178.69 390.397 179.288 390.562 179.964 390.562ZM192.324 393.5V376.262H196.016V393.5H192.324ZM189.75 383.048V379.746H198.824V383.048H189.75ZM201.802 393.5V379.746H205.494V393.5H201.802ZM203.622 376.912C202.912 376.912 202.357 376.739 201.958 376.392C201.56 376.045 201.36 375.551 201.36 374.91C201.36 374.321 201.56 373.844 201.958 373.48C202.374 373.099 202.929 372.908 203.622 372.908C204.333 372.908 204.888 373.09 205.286 373.454C205.685 373.801 205.884 374.286 205.884 374.91C205.884 375.517 205.676 376.002 205.26 376.366C204.862 376.73 204.316 376.912 203.622 376.912ZM215.677 393.76C214.36 393.76 213.181 393.448 212.141 392.824C211.101 392.2 210.278 391.351 209.671 390.276C209.082 389.201 208.787 387.979 208.787 386.61C208.787 385.258 209.082 384.045 209.671 382.97C210.278 381.878 211.101 381.02 212.141 380.396C213.181 379.772 214.36 379.46 215.677 379.46C216.908 379.46 218.035 379.685 219.057 380.136C220.08 380.587 220.877 381.211 221.449 382.008L219.421 384.452C219.179 384.123 218.875 383.828 218.511 383.568C218.147 383.291 217.749 383.074 217.315 382.918C216.899 382.762 216.466 382.684 216.015 382.684C215.305 382.684 214.672 382.857 214.117 383.204C213.58 383.533 213.155 383.993 212.843 384.582C212.531 385.171 212.375 385.847 212.375 386.61C212.375 387.355 212.531 388.023 212.843 388.612C213.173 389.184 213.615 389.652 214.169 390.016C214.724 390.363 215.348 390.536 216.041 390.536C216.492 390.536 216.917 390.475 217.315 390.354C217.714 390.215 218.087 390.016 218.433 389.756C218.797 389.496 219.127 389.184 219.421 388.82L221.423 391.264C220.834 392.009 220.019 392.616 218.979 393.084C217.939 393.535 216.839 393.76 215.677 393.76ZM228.677 393.76C227.395 393.76 226.251 393.552 225.245 393.136C224.257 392.703 223.46 392.113 222.853 391.368L225.141 389.392C225.679 389.964 226.277 390.38 226.935 390.64C227.594 390.883 228.253 391.004 228.911 391.004C229.171 391.004 229.405 390.978 229.613 390.926C229.839 390.857 230.029 390.77 230.185 390.666C230.341 390.545 230.454 390.406 230.523 390.25C230.61 390.077 230.653 389.895 230.653 389.704C230.653 389.323 230.497 389.019 230.185 388.794C230.012 388.707 229.743 388.603 229.379 388.482C229.015 388.343 228.547 388.196 227.975 388.04C227.091 387.815 226.337 387.555 225.713 387.26C225.107 386.948 224.621 386.601 224.257 386.22C223.945 385.856 223.703 385.466 223.529 385.05C223.373 384.617 223.295 384.14 223.295 383.62C223.295 382.996 223.434 382.433 223.711 381.93C223.989 381.41 224.37 380.968 224.855 380.604C225.358 380.24 225.93 379.963 226.571 379.772C227.213 379.564 227.889 379.46 228.599 379.46C229.31 379.46 230.003 379.547 230.679 379.72C231.355 379.893 231.979 380.145 232.551 380.474C233.141 380.786 233.652 381.159 234.085 381.592L232.109 383.776C231.797 383.481 231.442 383.213 231.043 382.97C230.662 382.727 230.263 382.537 229.847 382.398C229.431 382.259 229.059 382.19 228.729 382.19C228.435 382.19 228.166 382.216 227.923 382.268C227.698 382.32 227.507 382.398 227.351 382.502C227.195 382.606 227.074 382.745 226.987 382.918C226.918 383.074 226.883 383.247 226.883 383.438C226.883 383.629 226.927 383.811 227.013 383.984C227.117 384.157 227.256 384.305 227.429 384.426C227.62 384.53 227.897 384.651 228.261 384.79C228.643 384.929 229.154 385.085 229.795 385.258C230.627 385.483 231.329 385.735 231.901 386.012C232.491 386.289 232.959 386.61 233.305 386.974C233.6 387.286 233.817 387.641 233.955 388.04C234.094 388.439 234.163 388.881 234.163 389.366C234.163 390.215 233.921 390.978 233.435 391.654C232.967 392.313 232.317 392.833 231.485 393.214C230.653 393.578 229.717 393.76 228.677 393.76Z" fill="#6D6D6D"/>
</g>
<path d="M37.124 452.696C36.9573 452.247 36.9573 451.753 37.124 451.304C38.7474 447.368 41.503 444.002 45.0415 441.634C48.58 439.266 52.7421 438.001 57 438.001C61.2579 438.001 65.4199 439.266 68.9584 441.634C72.4969 444.002 75.2526 447.368 76.876 451.304C77.0427 451.753 77.0427 452.247 76.876 452.696C75.2526 456.632 72.4969 459.998 68.9584 462.366C65.4199 464.734 61.2579 465.999 57 465.999C52.7421 465.999 48.58 464.734 45.0415 462.366C41.503 459.998 38.7474 456.632 37.124 452.696Z" stroke="#8C8C8C" stroke-width="4.02" stroke-linecap="round" stroke-linejoin="round"/>
<path d="M57 458C60.3137 458 63 455.314 63 452C63 448.686 60.3137 446 57 446C53.6863 446 51 448.686 51 452C51 455.314 53.6863 458 57 458Z" stroke="#8C8C8C" stroke-width="4.02" stroke-linecap="round" stroke-linejoin="round"/>
<g filter="url(#filter4_d_124_19)">
<path d="M103.768 461.26C102.641 461.26 101.61 461.121 100.674 460.844C99.7553 460.567 98.932 460.159 98.204 459.622C97.4933 459.085 96.852 458.435 96.28 457.672L98.724 454.89C99.5733 456.069 100.414 456.875 101.246 457.308C102.095 457.724 103.014 457.932 104.002 457.932C104.539 457.932 105.016 457.863 105.432 457.724C105.865 457.568 106.203 457.351 106.446 457.074C106.689 456.797 106.81 456.467 106.81 456.086C106.81 455.809 106.749 455.557 106.628 455.332C106.507 455.089 106.333 454.881 106.108 454.708C105.883 454.517 105.614 454.353 105.302 454.214C104.99 454.058 104.643 453.928 104.262 453.824C103.881 453.703 103.465 453.607 103.014 453.538C102.043 453.313 101.194 453.044 100.466 452.732C99.738 452.403 99.1313 452.004 98.646 451.536C98.1607 451.051 97.7967 450.505 97.554 449.898C97.3287 449.291 97.216 448.607 97.216 447.844C97.216 447.064 97.3893 446.345 97.736 445.686C98.0827 445.01 98.5593 444.429 99.166 443.944C99.79 443.459 100.501 443.086 101.298 442.826C102.113 442.566 102.971 442.436 103.872 442.436C104.981 442.436 105.952 442.566 106.784 442.826C107.616 443.069 108.335 443.424 108.942 443.892C109.566 444.36 110.086 444.932 110.502 445.608L108.032 448C107.668 447.515 107.269 447.107 106.836 446.778C106.42 446.449 105.961 446.206 105.458 446.05C104.973 445.877 104.47 445.79 103.95 445.79C103.378 445.79 102.884 445.868 102.468 446.024C102.052 446.163 101.723 446.371 101.48 446.648C101.255 446.925 101.142 447.263 101.142 447.662C101.142 447.974 101.22 448.251 101.376 448.494C101.532 448.737 101.757 448.953 102.052 449.144C102.347 449.317 102.702 449.473 103.118 449.612C103.534 449.751 103.993 449.872 104.496 449.976C105.449 450.167 106.307 450.418 107.07 450.73C107.833 451.042 108.483 451.423 109.02 451.874C109.575 452.307 109.999 452.827 110.294 453.434C110.589 454.023 110.736 454.691 110.736 455.436C110.736 456.667 110.441 457.715 109.852 458.582C109.263 459.449 108.448 460.116 107.408 460.584C106.368 461.035 105.155 461.26 103.768 461.26ZM120.404 461.26C119 461.26 117.744 460.957 116.634 460.35C115.542 459.726 114.676 458.877 114.034 457.802C113.41 456.727 113.098 455.497 113.098 454.11C113.098 452.723 113.41 451.501 114.034 450.444C114.676 449.369 115.542 448.52 116.634 447.896C117.744 447.272 119 446.96 120.404 446.96C121.791 446.96 123.03 447.272 124.122 447.896C125.232 448.52 126.098 449.369 126.722 450.444C127.346 451.501 127.658 452.723 127.658 454.11C127.658 455.497 127.346 456.727 126.722 457.802C126.098 458.877 125.232 459.726 124.122 460.35C123.03 460.957 121.791 461.26 120.404 461.26ZM120.404 458.036C121.08 458.036 121.687 457.871 122.224 457.542C122.762 457.195 123.178 456.727 123.472 456.138C123.784 455.531 123.94 454.855 123.94 454.11C123.94 453.347 123.784 452.671 123.472 452.082C123.178 451.475 122.762 451.007 122.224 450.678C121.687 450.331 121.08 450.158 120.404 450.158C119.711 450.158 119.096 450.331 118.558 450.678C118.021 451.025 117.596 451.493 117.284 452.082C116.972 452.671 116.825 453.347 116.842 454.11C116.825 454.855 116.972 455.531 117.284 456.138C117.596 456.727 118.021 457.195 118.558 457.542C119.096 457.871 119.711 458.036 120.404 458.036ZM135.428 461.26C134.423 461.26 133.556 461.043 132.828 460.61C132.117 460.159 131.563 459.527 131.164 458.712C130.783 457.88 130.592 456.883 130.592 455.722V447.246H134.284V455.124C134.284 455.748 134.388 456.294 134.596 456.762C134.804 457.213 135.099 457.559 135.48 457.802C135.861 458.045 136.329 458.166 136.884 458.166C137.283 458.166 137.655 458.105 138.002 457.984C138.349 457.845 138.643 457.655 138.886 457.412C139.129 457.169 139.319 456.883 139.458 456.554C139.597 456.225 139.666 455.869 139.666 455.488V447.246H143.358V461H139.848L139.718 458.166L140.394 457.854C140.186 458.495 139.839 459.076 139.354 459.596C138.869 460.116 138.288 460.523 137.612 460.818C136.936 461.113 136.208 461.26 135.428 461.26ZM147.333 461V447.246H150.869L150.973 450.054L150.245 450.366C150.436 449.742 150.774 449.179 151.259 448.676C151.762 448.156 152.36 447.74 153.053 447.428C153.746 447.116 154.474 446.96 155.237 446.96C156.277 446.96 157.144 447.168 157.837 447.584C158.548 448 159.076 448.633 159.423 449.482C159.787 450.314 159.969 451.345 159.969 452.576V461H156.277V452.862C156.277 452.238 156.19 451.718 156.017 451.302C155.844 450.886 155.575 450.583 155.211 450.392C154.864 450.184 154.431 450.097 153.911 450.132C153.495 450.132 153.105 450.201 152.741 450.34C152.394 450.461 152.091 450.643 151.831 450.886C151.588 451.129 151.389 451.406 151.233 451.718C151.094 452.03 151.025 452.368 151.025 452.732V461H149.205C148.806 461 148.451 461 148.139 461C147.827 461 147.558 461 147.333 461ZM169.149 461.26C167.953 461.26 166.878 460.957 165.925 460.35C164.972 459.726 164.218 458.885 163.663 457.828C163.126 456.753 162.857 455.514 162.857 454.11C162.857 452.741 163.126 451.519 163.663 450.444C164.218 449.369 164.963 448.52 165.899 447.896C166.852 447.272 167.936 446.96 169.149 446.96C169.79 446.96 170.406 447.064 170.995 447.272C171.602 447.463 172.139 447.731 172.607 448.078C173.092 448.425 173.482 448.815 173.777 449.248C174.072 449.664 174.236 450.106 174.271 450.574L173.335 450.73V441.76H177.027V461H173.543L173.387 457.828L174.115 457.906C174.08 458.339 173.924 458.755 173.647 459.154C173.37 459.553 172.997 459.917 172.529 460.246C172.078 460.558 171.558 460.809 170.969 461C170.397 461.173 169.79 461.26 169.149 461.26ZM169.981 458.192C170.674 458.192 171.281 458.019 171.801 457.672C172.321 457.325 172.728 456.849 173.023 456.242C173.318 455.635 173.465 454.925 173.465 454.11C173.465 453.313 173.318 452.611 173.023 452.004C172.728 451.38 172.321 450.903 171.801 450.574C171.281 450.227 170.674 450.054 169.981 450.054C169.288 450.054 168.681 450.227 168.161 450.574C167.658 450.903 167.26 451.38 166.965 452.004C166.688 452.611 166.549 453.313 166.549 454.11C166.549 454.925 166.688 455.635 166.965 456.242C167.26 456.849 167.658 457.325 168.161 457.672C168.681 458.019 169.288 458.192 169.981 458.192ZM181.276 466.018L180.132 464.64C180.808 464.311 181.346 463.912 181.744 463.444C182.16 462.976 182.368 462.569 182.368 462.222C182.368 462.066 182.325 461.901 182.238 461.728C182.152 461.555 181.961 461.338 181.666 461.078C181.285 460.783 181.025 460.506 180.886 460.246C180.765 459.969 180.704 459.674 180.704 459.362C180.704 458.859 180.886 458.461 181.25 458.166C181.614 457.871 182.082 457.724 182.654 457.724C183.122 457.724 183.547 457.863 183.928 458.14C184.327 458.4 184.639 458.773 184.864 459.258C185.09 459.726 185.202 460.272 185.202 460.896C185.202 461.451 185.107 461.988 184.916 462.508C184.726 463.045 184.448 463.539 184.084 463.99C183.738 464.458 183.322 464.865 182.836 465.212C182.368 465.559 181.848 465.827 181.276 466.018ZM201.319 461.26C200.037 461.26 198.893 461.052 197.887 460.636C196.899 460.203 196.102 459.613 195.495 458.868L197.783 456.892C198.321 457.464 198.919 457.88 199.577 458.14C200.236 458.383 200.895 458.504 201.553 458.504C201.813 458.504 202.047 458.478 202.255 458.426C202.481 458.357 202.671 458.27 202.827 458.166C202.983 458.045 203.096 457.906 203.165 457.75C203.252 457.577 203.295 457.395 203.295 457.204C203.295 456.823 203.139 456.519 202.827 456.294C202.654 456.207 202.385 456.103 202.021 455.982C201.657 455.843 201.189 455.696 200.617 455.54C199.733 455.315 198.979 455.055 198.355 454.76C197.749 454.448 197.263 454.101 196.899 453.72C196.587 453.356 196.345 452.966 196.171 452.55C196.015 452.117 195.937 451.64 195.937 451.12C195.937 450.496 196.076 449.933 196.353 449.43C196.631 448.91 197.012 448.468 197.497 448.104C198 447.74 198.572 447.463 199.213 447.272C199.855 447.064 200.531 446.96 201.241 446.96C201.952 446.96 202.645 447.047 203.321 447.22C203.997 447.393 204.621 447.645 205.193 447.974C205.783 448.286 206.294 448.659 206.727 449.092L204.751 451.276C204.439 450.981 204.084 450.713 203.685 450.47C203.304 450.227 202.905 450.037 202.489 449.898C202.073 449.759 201.701 449.69 201.371 449.69C201.077 449.69 200.808 449.716 200.565 449.768C200.34 449.82 200.149 449.898 199.993 450.002C199.837 450.106 199.716 450.245 199.629 450.418C199.56 450.574 199.525 450.747 199.525 450.938C199.525 451.129 199.569 451.311 199.655 451.484C199.759 451.657 199.898 451.805 200.071 451.926C200.262 452.03 200.539 452.151 200.903 452.29C201.285 452.429 201.796 452.585 202.437 452.758C203.269 452.983 203.971 453.235 204.543 453.512C205.133 453.789 205.601 454.11 205.947 454.474C206.242 454.786 206.459 455.141 206.597 455.54C206.736 455.939 206.805 456.381 206.805 456.866C206.805 457.715 206.563 458.478 206.077 459.154C205.609 459.813 204.959 460.333 204.127 460.714C203.295 461.078 202.359 461.26 201.319 461.26ZM209.671 461V447.246H213.233L213.311 449.872L212.765 449.976C212.956 449.525 213.207 449.118 213.519 448.754C213.831 448.39 214.195 448.078 214.611 447.818C215.045 447.558 215.495 447.359 215.963 447.22C216.431 447.064 216.899 446.986 217.367 446.986C218.078 446.986 218.719 447.099 219.291 447.324C219.863 447.549 220.349 447.905 220.747 448.39C221.146 448.858 221.458 449.482 221.683 450.262L221.111 450.21L221.293 449.794C221.519 449.378 221.805 449.005 222.151 448.676C222.498 448.329 222.888 448.035 223.321 447.792C223.755 447.532 224.205 447.333 224.673 447.194C225.141 447.055 225.601 446.986 226.051 446.986C227.126 446.986 228.019 447.203 228.729 447.636C229.44 448.052 229.969 448.685 230.315 449.534C230.679 450.383 230.861 451.423 230.861 452.654V461H227.169V452.914C227.169 452.29 227.083 451.779 226.909 451.38C226.736 450.981 226.485 450.687 226.155 450.496C225.826 450.288 225.401 450.184 224.881 450.184C224.483 450.184 224.11 450.253 223.763 450.392C223.434 450.513 223.139 450.695 222.879 450.938C222.637 451.163 222.446 451.432 222.307 451.744C222.169 452.056 222.099 452.403 222.099 452.784V461H218.407V452.888C218.407 452.316 218.312 451.831 218.121 451.432C217.948 451.016 217.697 450.704 217.367 450.496C217.038 450.288 216.631 450.184 216.145 450.184C215.747 450.184 215.374 450.253 215.027 450.392C214.698 450.513 214.412 450.695 214.169 450.938C213.927 451.163 213.727 451.432 213.571 451.744C213.433 452.056 213.363 452.394 213.363 452.758V461H209.671ZM241.163 461.26C239.673 461.26 238.373 460.957 237.263 460.35C236.154 459.743 235.287 458.911 234.663 457.854C234.039 456.797 233.727 455.583 233.727 454.214C233.727 453.157 233.901 452.186 234.247 451.302C234.594 450.418 235.079 449.655 235.703 449.014C236.327 448.355 237.064 447.853 237.913 447.506C238.78 447.142 239.716 446.96 240.721 446.96C241.657 446.96 242.524 447.133 243.321 447.48C244.119 447.809 244.803 448.286 245.375 448.91C245.965 449.517 246.415 450.236 246.727 451.068C247.039 451.9 247.178 452.81 247.143 453.798L247.117 454.942H236.067L235.469 452.68H244.075L243.659 453.148V452.576C243.625 452.108 243.469 451.683 243.191 451.302C242.931 450.921 242.593 450.626 242.177 450.418C241.761 450.21 241.293 450.106 240.773 450.106C240.011 450.106 239.361 450.253 238.823 450.548C238.303 450.843 237.905 451.276 237.627 451.848C237.35 452.42 237.211 453.113 237.211 453.928C237.211 454.76 237.385 455.479 237.731 456.086C238.095 456.693 238.598 457.169 239.239 457.516C239.898 457.845 240.669 458.01 241.553 458.01C242.16 458.01 242.715 457.915 243.217 457.724C243.72 457.533 244.257 457.204 244.829 456.736L246.597 459.206C246.095 459.657 245.54 460.038 244.933 460.35C244.327 460.645 243.703 460.87 243.061 461.026C242.42 461.182 241.787 461.26 241.163 461.26ZM250.158 461V441.76H253.85V461H250.158ZM257.882 461V441.76H261.574V461H257.882Z" fill="#6D6D6D"/>
</g>
<path d="M75 528C74.9993 527.299 74.8141 526.61 74.4631 526.002C74.112 525.395 73.6075 524.891 73 524.54L59 516.54C58.3919 516.189 57.7021 516.004 57 516.004C56.2979 516.004 55.6081 516.189 55 516.54L41 524.54C40.3925 524.891 39.888 525.395 39.5369 526.002C39.1859 526.61 39.0007 527.299 39 528V544C39.0007 544.702 39.1859 545.39 39.5369 545.998C39.888 546.605 40.3925 547.109 41 547.46L55 555.46C55.6081 555.811 56.2979 555.996 57 555.996C57.7021 555.996 58.3919 555.811 59 555.46L73 547.46C73.6075 547.109 74.112 546.605 74.4631 545.998C74.8141 545.39 74.9993 544.702 75 544V528Z" stroke="#8C8C8C" stroke-width="4.02" stroke-linecap="round" stroke-linejoin="round"/>
<path d="M39.6 526L57 536L74.4 526" stroke="#8C8C8C" stroke-width="4.02" stroke-linecap="round" stroke-linejoin="round"/>
<path d="M57 556V536" stroke="#8C8C8C" stroke-width="4.02" stroke-linecap="round" stroke-linejoin="round"/>
<g filter="url(#filter5_d_124_19)">
<path d="M97.866 545V526.8H105.926C107.053 526.8 108.075 527.06 108.994 527.58C109.913 528.083 110.632 528.767 111.152 529.634C111.689 530.501 111.958 531.489 111.958 532.598C111.958 533.69 111.689 534.687 111.152 535.588C110.632 536.472 109.913 537.174 108.994 537.694C108.075 538.214 107.053 538.474 105.926 538.474H101.636V545H97.866ZM108.188 545L103.56 536.784L107.564 536.134L112.712 545.026L108.188 545ZM101.636 535.302H105.744C106.212 535.302 106.619 535.198 106.966 534.99C107.33 534.765 107.607 534.461 107.798 534.08C107.989 533.681 108.084 533.239 108.084 532.754C108.084 532.234 107.971 531.783 107.746 531.402C107.521 531.021 107.191 530.726 106.758 530.518C106.325 530.293 105.822 530.18 105.25 530.18H101.636V535.302ZM121.829 545.26C120.339 545.26 119.039 544.957 117.929 544.35C116.82 543.743 115.953 542.911 115.329 541.854C114.705 540.797 114.393 539.583 114.393 538.214C114.393 537.157 114.567 536.186 114.913 535.302C115.26 534.418 115.745 533.655 116.369 533.014C116.993 532.355 117.73 531.853 118.579 531.506C119.446 531.142 120.382 530.96 121.387 530.96C122.323 530.96 123.19 531.133 123.987 531.48C124.785 531.809 125.469 532.286 126.041 532.91C126.631 533.517 127.081 534.236 127.393 535.068C127.705 535.9 127.844 536.81 127.809 537.798L127.783 538.942H116.733L116.135 536.68H124.741L124.325 537.148V536.576C124.291 536.108 124.135 535.683 123.857 535.302C123.597 534.921 123.259 534.626 122.843 534.418C122.427 534.21 121.959 534.106 121.439 534.106C120.677 534.106 120.027 534.253 119.489 534.548C118.969 534.843 118.571 535.276 118.293 535.848C118.016 536.42 117.877 537.113 117.877 537.928C117.877 538.76 118.051 539.479 118.397 540.086C118.761 540.693 119.264 541.169 119.905 541.516C120.564 541.845 121.335 542.01 122.219 542.01C122.826 542.01 123.381 541.915 123.883 541.724C124.386 541.533 124.923 541.204 125.495 540.736L127.263 543.206C126.761 543.657 126.206 544.038 125.599 544.35C124.993 544.645 124.369 544.87 123.727 545.026C123.086 545.182 122.453 545.26 121.829 545.26ZM130.798 545V531.246H134.36L134.49 535.666L133.866 534.756C134.074 534.045 134.412 533.404 134.88 532.832C135.348 532.243 135.894 531.783 136.518 531.454C137.159 531.125 137.826 530.96 138.52 530.96C138.814 530.96 139.1 530.986 139.378 531.038C139.655 531.09 139.889 531.151 140.08 531.22L139.092 535.276C138.884 535.172 138.632 535.085 138.338 535.016C138.043 534.929 137.74 534.886 137.428 534.886C137.012 534.886 136.622 534.964 136.258 535.12C135.911 535.259 135.608 535.467 135.348 535.744C135.088 536.004 134.88 536.316 134.724 536.68C134.585 537.044 134.516 537.443 134.516 537.876V545H130.798ZM148.27 545.26C146.866 545.26 145.609 544.957 144.5 544.35C143.408 543.726 142.541 542.877 141.9 541.802C141.276 540.727 140.964 539.497 140.964 538.11C140.964 536.723 141.276 535.501 141.9 534.444C142.541 533.369 143.408 532.52 144.5 531.896C145.609 531.272 146.866 530.96 148.27 530.96C149.657 530.96 150.896 531.272 151.988 531.896C153.097 532.52 153.964 533.369 154.588 534.444C155.212 535.501 155.524 536.723 155.524 538.11C155.524 539.497 155.212 540.727 154.588 541.802C153.964 542.877 153.097 543.726 151.988 544.35C150.896 544.957 149.657 545.26 148.27 545.26ZM148.27 542.036C148.946 542.036 149.553 541.871 150.09 541.542C150.627 541.195 151.043 540.727 151.338 540.138C151.65 539.531 151.806 538.855 151.806 538.11C151.806 537.347 151.65 536.671 151.338 536.082C151.043 535.475 150.627 535.007 150.09 534.678C149.553 534.331 148.946 534.158 148.27 534.158C147.577 534.158 146.961 534.331 146.424 534.678C145.887 535.025 145.462 535.493 145.15 536.082C144.838 536.671 144.691 537.347 144.708 538.11C144.691 538.855 144.838 539.531 145.15 540.138C145.462 540.727 145.887 541.195 146.424 541.542C146.961 541.871 147.577 542.036 148.27 542.036ZM158.588 545V525.76H162.28V545H158.588ZM166.313 545V525.76H170.005V545H166.313ZM185.936 543.726V528.958L186.898 530.7L183.102 532.546L182.348 529.088L187.418 526.54H189.784V543.726H185.936ZM182.738 545V541.49H193.06V545H182.738ZM210.211 545.26C209.015 545.26 207.94 544.957 206.987 544.35C206.033 543.726 205.279 542.885 204.725 541.828C204.187 540.753 203.919 539.514 203.919 538.11C203.919 536.741 204.187 535.519 204.725 534.444C205.279 533.369 206.025 532.52 206.961 531.896C207.914 531.272 208.997 530.96 210.211 530.96C210.852 530.96 211.467 531.064 212.057 531.272C212.663 531.463 213.201 531.731 213.669 532.078C214.154 532.425 214.544 532.815 214.839 533.248C215.133 533.664 215.298 534.106 215.333 534.574L214.397 534.73V525.76H218.089V545H214.605L214.449 541.828L215.177 541.906C215.142 542.339 214.986 542.755 214.709 543.154C214.431 543.553 214.059 543.917 213.591 544.246C213.14 544.558 212.62 544.809 212.031 545C211.459 545.173 210.852 545.26 210.211 545.26ZM211.043 542.192C211.736 542.192 212.343 542.019 212.863 541.672C213.383 541.325 213.79 540.849 214.085 540.242C214.379 539.635 214.527 538.925 214.527 538.11C214.527 537.313 214.379 536.611 214.085 536.004C213.79 535.38 213.383 534.903 212.863 534.574C212.343 534.227 211.736 534.054 211.043 534.054C210.349 534.054 209.743 534.227 209.223 534.574C208.72 534.903 208.321 535.38 208.027 536.004C207.749 536.611 207.611 537.313 207.611 538.11C207.611 538.925 207.749 539.635 208.027 540.242C208.321 540.849 208.72 541.325 209.223 541.672C209.743 542.019 210.349 542.192 211.043 542.192ZM222.26 545V531.246H225.952V545H222.26ZM224.08 528.412C223.369 528.412 222.815 528.239 222.416 527.892C222.017 527.545 221.818 527.051 221.818 526.41C221.818 525.821 222.017 525.344 222.416 524.98C222.832 524.599 223.387 524.408 224.08 524.408C224.791 524.408 225.345 524.59 225.744 524.954C226.143 525.301 226.342 525.786 226.342 526.41C226.342 527.017 226.134 527.502 225.718 527.866C225.319 528.23 224.773 528.412 224.08 528.412ZM236.681 545.26C235.191 545.26 233.891 544.957 232.781 544.35C231.672 543.743 230.805 542.911 230.181 541.854C229.557 540.797 229.245 539.583 229.245 538.214C229.245 537.157 229.419 536.186 229.765 535.302C230.112 534.418 230.597 533.655 231.221 533.014C231.845 532.355 232.582 531.853 233.431 531.506C234.298 531.142 235.234 530.96 236.239 530.96C237.175 530.96 238.042 531.133 238.839 531.48C239.637 531.809 240.321 532.286 240.893 532.91C241.483 533.517 241.933 534.236 242.245 535.068C242.557 535.9 242.696 536.81 242.661 537.798L242.635 538.942H231.585L230.987 536.68H239.593L239.177 537.148V536.576C239.143 536.108 238.987 535.683 238.709 535.302C238.449 534.921 238.111 534.626 237.695 534.418C237.279 534.21 236.811 534.106 236.291 534.106C235.529 534.106 234.879 534.253 234.341 534.548C233.821 534.843 233.423 535.276 233.145 535.848C232.868 536.42 232.729 537.113 232.729 537.928C232.729 538.76 232.903 539.479 233.249 540.086C233.613 540.693 234.116 541.169 234.757 541.516C235.416 541.845 236.187 542.01 237.071 542.01C237.678 542.01 238.233 541.915 238.735 541.724C239.238 541.533 239.775 541.204 240.347 540.736L242.115 543.206C241.613 543.657 241.058 544.038 240.451 544.35C239.845 544.645 239.221 544.87 238.579 545.026C237.938 545.182 237.305 545.26 236.681 545.26Z" fill="#6D6D6D"/>
</g>
<g style="mix-blend-mode:multiply">
<rect width="400" height="640" rx="30" fill="#A1FF84"/>
</g>
<defs>
<filter id="filter0_d_124_19" x="88.1" y="71.384" width="148.275" height="54.256" filterUnits="userSpaceOnUse" color-interpolation-filters="sRGB">
<feFlood flood-opacity="0" result="BackgroundImageFix"/>
<feColorMatrix in="SourceAlpha" type="matrix" values="0 0 0 0 0 0 0 0 0 0 0 0 0 0 0 0 0 0 127 0" result="hardAlpha"/>
<feOffset dy="1.5"/>
<feGaussianBlur stdDeviation="1.5"/>
<feColorMatrix type="matrix" values="0 0 0 0 0 0 0 0 0 0 0 0 0 0 0 0 0 0 0.15 0"/>
<feBlend mode="normal" in2="BackgroundImageFix" result="effect1_dropShadow_124_19"/>
<feBlend mode="normal" in="SourceGraphic" in2="effect1_dropShadow_124_19" result="shape"/>
</filter>
<filter id="filter1_d_124_19" x="92.708" y="186.908" width="135.871" height="31.61" filterUnits="userSpaceOnUse" color-interpolation-filters="sRGB">
<feFlood flood-opacity="0" result="BackgroundImageFix"/>
<feColorMatrix in="SourceAlpha" type="matrix" values="0 0 0 0 0 0 0 0 0 0 0 0 0 0 0 0 0 0 127 0" result="hardAlpha"/>
<feOffset dy="1.5"/>
<feGaussianBlur stdDeviation="1.5"/>
<feColorMatrix type="matrix" values="0 0 0 0 0 0 0 0 0 0 0 0 0 0 0 0 0 0 0.15 0"/>
<feBlend mode="normal" in2="BackgroundImageFix" result="effect1_dropShadow_124_19"/>
<feBlend mode="normal" in="SourceGraphic" in2="effect1_dropShadow_124_19" result="shape"/>
</filter>
<filter id="filter2_d_124_19" x="93.436" y="254.408" width="244.124" height="65.572" filterUnits="userSpaceOnUse" color-interpolation-filters="sRGB">
<feFlood flood-opacity="0" result="BackgroundImageFix"/>
<feColorMatrix in="SourceAlpha" type="matrix" values="0 0 0 0 0 0 0 0 0 0 0 0 0 0 0 0 0 0 127 0" result="hardAlpha"/>
<feOffset dy="1.5"/>
<feGaussianBlur stdDeviation="1.5"/>
<feColorMatrix type="matrix" values="0 0 0 0 0 0 0 0 0 0 0 0 0 0 0 0 0 0 0.15 0"/>
<feBlend mode="normal" in2="BackgroundImageFix" result="effect1_dropShadow_124_19"/>
<feBlend mode="normal" in="SourceGraphic" in2="effect1_dropShadow_124_19" result="shape"/>
</filter>
<filter id="filter3_d_124_19" x="93.28" y="338.408" width="229.585" height="59.852" filterUnits="userSpaceOnUse" color-interpolation-filters="sRGB">
<feFlood flood-opacity="0" result="BackgroundImageFix"/>
<feColorMatrix in="SourceAlpha" type="matrix" values="0 0 0 0 0 0 0 0 0 0 0 0 0 0 0 0 0 0 127 0" result="hardAlpha"/>
<feOffset dy="1.5"/>
<feGaussianBlur stdDeviation="1.5"/>
<feColorMatrix type="matrix" values="0 0 0 0 0 0 0 0 0 0 0 0 0 0 0 0 0 0 0.15 0"/>
<feBlend mode="normal" in2="BackgroundImageFix" result="effect1_dropShadow_124_19"/>
<feBlend mode="normal" in="SourceGraphic" in2="effect1_dropShadow_124_19" result="shape"/>
</filter>
<filter id="filter4_d_124_19" x="93.28" y="440.26" width="171.294" height="30.258" filterUnits="userSpaceOnUse" color-interpolation-filters="sRGB">
<feFlood flood-opacity="0" result="BackgroundImageFix"/>
<feColorMatrix in="SourceAlpha" type="matrix" values="0 0 0 0 0 0 0 0 0 0 0 0 0 0 0 0 0 0 127 0" result="hardAlpha"/>
<feOffset dy="1.5"/>
<feGaussianBlur stdDeviation="1.5"/>
<feColorMatrix type="matrix" values="0 0 0 0 0 0 0 0 0 0 0 0 0 0 0 0 0 0 0.15 0"/>
<feBlend mode="normal" in2="BackgroundImageFix" result="effect1_dropShadow_124_19"/>
<feBlend mode="normal" in="SourceGraphic" in2="effect1_dropShadow_124_19" result="shape"/>
</filter>
<filter id="filter5_d_124_19" x="94.866" y="522.908" width="150.847" height="26.852" filterUnits="userSpaceOnUse" color-interpolation-filters="sRGB">
<feFlood flood-opacity="0" result="BackgroundImageFix"/>
<feColorMatrix in="SourceAlpha" type="matrix" values="0 0 0 0 0 0 0 0 0 0 0 0 0 0 0 0 0 0 127 0" result="hardAlpha"/>
<feOffset dy="1.5"/>
<feGaussianBlur stdDeviation="1.5"/>
<feColorMatrix type="matrix" values="0 0 0 0 0 0 0 0 0 0 0 0 0 0 0 0 0 0 0.15 0"/>
<feBlend mode="normal" in2="BackgroundImageFix" result="effect1_dropShadow_124_19"/>
<feBlend mode="normal" in="SourceGraphic" in2="effect1_dropShadow_124_19" result="shape"/>
</filter>
</defs>
</svg>
